<svg width="400" height="225" viewBox="0 0 400 225" fill="none" xmlns="http://www.w3.org/2000/svg">
<path d="M120.212 143L118.836 139.464H114.308L112.948 143H111.492L115.956 131.528H117.252L121.7 143H120.212ZM117.124 134.728C117.092 134.643 117.039 134.488 116.964 134.264C116.889 134.04 116.815 133.811 116.74 133.576C116.676 133.331 116.623 133.144 116.58 133.016C116.505 133.347 116.42 133.672 116.324 133.992C116.228 134.301 116.148 134.547 116.084 134.728L114.788 138.184H118.404L117.124 134.728ZM134.558 131.576C135.987 131.576 137.065 131.789 137.79 132.216C138.526 132.632 138.894 133.363 138.894 134.408C138.894 135.08 138.707 135.64 138.334 136.088C137.961 136.525 137.422 136.808 136.718 136.936V137.016C137.198 137.091 137.63 137.229 138.014 137.432C138.409 137.635 138.718 137.923 138.942 138.296C139.166 138.669 139.278 139.155 139.278 139.752C139.278 140.787 138.921 141.587 138.206 142.152C137.502 142.717 136.537 143 135.31 143H131.294V131.576H134.558ZM134.846 136.44C135.827 136.44 136.499 136.285 136.862 135.976C137.225 135.656 137.406 135.187 137.406 134.568C137.406 133.939 137.182 133.491 136.734 133.224C136.297 132.947 135.593 132.808 134.622 132.808H132.734V136.44H134.846ZM132.734 137.64V141.784H135.038C136.051 141.784 136.755 141.587 137.15 141.192C137.545 140.797 137.742 140.28 137.742 139.64C137.742 139.043 137.534 138.563 137.118 138.2C136.713 137.827 135.982 137.64 134.926 137.64H132.734ZM141.7 143V131.576H143.14V141.72H148.132V143H141.7ZM159.747 137.272C159.747 138.456 159.544 139.491 159.139 140.376C158.744 141.251 158.157 141.933 157.379 142.424C156.6 142.915 155.635 143.16 154.483 143.16C153.299 143.16 152.312 142.915 151.523 142.424C150.744 141.933 150.163 141.245 149.779 140.36C149.395 139.475 149.203 138.44 149.203 137.256C149.203 136.083 149.395 135.059 149.779 134.184C150.163 133.309 150.744 132.627 151.523 132.136C152.312 131.645 153.304 131.4 154.499 131.4C155.64 131.4 156.6 131.645 157.379 132.136C158.157 132.616 158.744 133.299 159.139 134.184C159.544 135.059 159.747 136.088 159.747 137.272ZM150.723 137.272C150.723 138.712 151.027 139.848 151.635 140.68C152.243 141.501 153.192 141.912 154.483 141.912C155.784 141.912 156.733 141.501 157.331 140.68C157.928 139.848 158.227 138.712 158.227 137.272C158.227 135.832 157.928 134.707 157.331 133.896C156.733 133.075 155.789 132.664 154.499 132.664C153.208 132.664 152.253 133.075 151.635 133.896C151.027 134.707 150.723 135.832 150.723 137.272ZM167.239 136.968H171.191V142.568C170.572 142.771 169.948 142.92 169.319 143.016C168.689 143.112 167.975 143.16 167.175 143.16C165.991 143.16 164.993 142.925 164.183 142.456C163.372 141.976 162.753 141.299 162.327 140.424C161.911 139.539 161.703 138.493 161.703 137.288C161.703 136.093 161.937 135.059 162.407 134.184C162.876 133.309 163.548 132.632 164.423 132.152C165.308 131.661 166.375 131.416 167.623 131.416C168.263 131.416 168.865 131.475 169.431 131.592C170.007 131.709 170.54 131.875 171.031 132.088L170.487 133.336C170.081 133.155 169.623 133 169.111 132.872C168.609 132.744 168.087 132.68 167.543 132.68C166.177 132.68 165.111 133.091 164.343 133.912C163.585 134.733 163.207 135.859 163.207 137.288C163.207 138.195 163.351 139 163.639 139.704C163.937 140.397 164.401 140.941 165.031 141.336C165.66 141.72 166.487 141.912 167.511 141.912C168.012 141.912 168.439 141.885 168.791 141.832C169.143 141.779 169.463 141.715 169.751 141.64V138.248H167.239V136.968ZM186.846 132.68C185.62 132.68 184.654 133.091 183.95 133.912C183.246 134.733 182.894 135.859 182.894 137.288C182.894 138.707 183.22 139.832 183.87 140.664C184.532 141.485 185.518 141.896 186.83 141.896C187.332 141.896 187.806 141.853 188.254 141.768C188.702 141.683 189.14 141.576 189.566 141.448V142.696C189.14 142.856 188.697 142.973 188.238 143.048C187.79 143.123 187.252 143.16 186.622 143.16C185.46 143.16 184.489 142.92 183.71 142.44C182.932 141.96 182.345 141.277 181.95 140.392C181.566 139.507 181.374 138.467 181.374 137.272C181.374 136.12 181.582 135.107 181.998 134.232C182.425 133.347 183.049 132.659 183.87 132.168C184.692 131.667 185.689 131.416 186.862 131.416C188.068 131.416 189.118 131.64 190.014 132.088L189.438 133.304C189.086 133.144 188.692 133 188.254 132.872C187.828 132.744 187.358 132.68 186.846 132.68ZM201.715 137.272C201.715 138.456 201.513 139.491 201.107 140.376C200.713 141.251 200.126 141.933 199.347 142.424C198.569 142.915 197.603 143.16 196.451 143.16C195.267 143.16 194.281 142.915 193.491 142.424C192.713 141.933 192.131 141.245 191.747 140.36C191.363 139.475 191.171 138.44 191.171 137.256C191.171 136.083 191.363 135.059 191.747 134.184C192.131 133.309 192.713 132.627 193.491 132.136C194.281 131.645 195.273 131.4 196.467 131.4C197.609 131.4 198.569 131.645 199.347 132.136C200.126 132.616 200.713 133.299 201.107 134.184C201.513 135.059 201.715 136.088 201.715 137.272ZM192.691 137.272C192.691 138.712 192.995 139.848 193.603 140.68C194.211 141.501 195.161 141.912 196.451 141.912C197.753 141.912 198.702 141.501 199.299 140.68C199.897 139.848 200.195 138.712 200.195 137.272C200.195 135.832 199.897 134.707 199.299 133.896C198.702 133.075 197.758 132.664 196.467 132.664C195.177 132.664 194.222 133.075 193.603 133.896C192.995 134.707 192.691 135.832 192.691 137.272ZM213.303 143H211.623L205.511 133.512H205.447C205.469 133.885 205.495 134.349 205.527 134.904C205.559 135.459 205.575 136.029 205.575 136.616V143H204.247V131.576H205.911L212.007 141.032H212.071C212.061 140.861 212.045 140.605 212.023 140.264C212.013 139.923 211.997 139.549 211.975 139.144C211.965 138.739 211.959 138.365 211.959 138.024V131.576H213.303V143ZM225.46 143H223.78L217.668 133.512H217.604C217.625 133.885 217.652 134.349 217.684 134.904C217.716 135.459 217.732 136.029 217.732 136.616V143H216.404V131.576H218.068L224.164 141.032H224.228C224.217 140.861 224.201 140.605 224.18 140.264C224.169 139.923 224.153 139.549 224.132 139.144C224.121 138.739 224.116 138.365 224.116 138.024V131.576H225.46V143ZM234.944 143H228.56V131.576H234.944V132.84H230V136.408H234.656V137.656H230V141.736H234.944V143ZM242.346 132.68C241.12 132.68 240.154 133.091 239.45 133.912C238.746 134.733 238.394 135.859 238.394 137.288C238.394 138.707 238.72 139.832 239.37 140.664C240.032 141.485 241.018 141.896 242.33 141.896C242.832 141.896 243.306 141.853 243.754 141.768C244.202 141.683 244.64 141.576 245.066 141.448V142.696C244.64 142.856 244.197 142.973 243.738 143.048C243.29 143.123 242.752 143.16 242.122 143.16C240.96 143.16 239.989 142.92 239.21 142.44C238.432 141.96 237.845 141.277 237.45 140.392C237.066 139.507 236.874 138.467 236.874 137.272C236.874 136.12 237.082 135.107 237.498 134.232C237.925 133.347 238.549 132.659 239.37 132.168C240.192 131.667 241.189 131.416 242.362 131.416C243.568 131.416 244.618 131.64 245.514 132.088L244.938 133.304C244.586 133.144 244.192 133 243.754 132.872C243.328 132.744 242.858 132.68 242.346 132.68ZM251.176 143H249.736V132.84H246.168V131.576H254.728V132.84H251.176V143ZM262.834 143H256.45V131.576H262.834V132.84H257.89V136.408H262.546V137.656H257.89V141.736H262.834V143ZM274.493 137.176C274.493 139.107 273.965 140.563 272.909 141.544C271.864 142.515 270.402 143 268.525 143H265.341V131.576H268.861C270.013 131.576 271.01 131.789 271.853 132.216C272.696 132.643 273.346 133.272 273.805 134.104C274.264 134.925 274.493 135.949 274.493 137.176ZM272.973 137.224C272.973 135.699 272.594 134.584 271.837 133.88C271.09 133.165 270.029 132.808 268.653 132.808H266.781V141.768H268.333C271.426 141.768 272.973 140.253 272.973 137.224ZM116.559 161H115.119V150.84H111.551V149.576H120.111V150.84H116.559V161ZM131.489 155.272C131.489 156.456 131.286 157.491 130.881 158.376C130.486 159.251 129.899 159.933 129.121 160.424C128.342 160.915 127.377 161.16 126.225 161.16C125.041 161.16 124.054 160.915 123.265 160.424C122.486 159.933 121.905 159.245 121.521 158.36C121.137 157.475 120.945 156.44 120.945 155.256C120.945 154.083 121.137 153.059 121.521 152.184C121.905 151.309 122.486 150.627 123.265 150.136C124.054 149.645 125.046 149.4 126.241 149.4C127.382 149.4 128.342 149.645 129.121 150.136C129.899 150.616 130.486 151.299 130.881 152.184C131.286 153.059 131.489 154.088 131.489 155.272ZM122.465 155.272C122.465 156.712 122.769 157.848 123.377 158.68C123.985 159.501 124.934 159.912 126.225 159.912C127.526 159.912 128.475 159.501 129.073 158.68C129.67 157.848 129.969 156.712 129.969 155.272C129.969 153.832 129.67 152.707 129.073 151.896C128.475 151.075 127.531 150.664 126.241 150.664C124.95 150.664 123.995 151.075 123.377 151.896C122.769 152.707 122.465 153.832 122.465 155.272ZM146.948 150.68C145.721 150.68 144.756 151.091 144.052 151.912C143.348 152.733 142.996 153.859 142.996 155.288C142.996 156.707 143.321 157.832 143.972 158.664C144.633 159.485 145.62 159.896 146.932 159.896C147.433 159.896 147.908 159.853 148.356 159.768C148.804 159.683 149.241 159.576 149.668 159.448V160.696C149.241 160.856 148.799 160.973 148.34 161.048C147.892 161.123 147.353 161.16 146.724 161.16C145.561 161.16 144.591 160.92 143.812 160.44C143.033 159.96 142.447 159.277 142.052 158.392C141.668 157.507 141.476 156.467 141.476 155.272C141.476 154.12 141.684 153.107 142.1 152.232C142.527 151.347 143.151 150.659 143.972 150.168C144.793 149.667 145.791 149.416 146.964 149.416C148.169 149.416 149.22 149.64 150.116 150.088L149.54 151.304C149.188 151.144 148.793 151 148.356 150.872C147.929 150.744 147.46 150.68 146.948 150.68ZM161.817 155.272C161.817 156.456 161.614 157.491 161.209 158.376C160.814 159.251 160.227 159.933 159.449 160.424C158.67 160.915 157.705 161.16 156.553 161.16C155.369 161.16 154.382 160.915 153.593 160.424C152.814 159.933 152.233 159.245 151.849 158.36C151.465 157.475 151.273 156.44 151.273 155.256C151.273 154.083 151.465 153.059 151.849 152.184C152.233 151.309 152.814 150.627 153.593 150.136C154.382 149.645 155.374 149.4 156.569 149.4C157.71 149.4 158.67 149.645 159.449 150.136C160.227 150.616 160.814 151.299 161.209 152.184C161.614 153.059 161.817 154.088 161.817 155.272ZM152.793 155.272C152.793 156.712 153.097 157.848 153.705 158.68C154.313 159.501 155.262 159.912 156.553 159.912C157.854 159.912 158.803 159.501 159.401 158.68C159.998 157.848 160.297 156.712 160.297 155.272C160.297 153.832 159.998 152.707 159.401 151.896C158.803 151.075 157.859 150.664 156.569 150.664C155.278 150.664 154.323 151.075 153.705 151.896C153.097 152.707 152.793 153.832 152.793 155.272ZM173.405 161H171.725L165.613 151.512H165.549C165.57 151.885 165.597 152.349 165.629 152.904C165.661 153.459 165.677 154.029 165.677 154.616V161H164.349V149.576H166.013L172.109 159.032H172.173C172.162 158.861 172.146 158.605 172.125 158.264C172.114 157.923 172.098 157.549 172.077 157.144C172.066 156.739 172.061 156.365 172.061 156.024V149.576H173.405V161ZM180.121 161H178.681V150.84H175.113V149.576H183.673V150.84H180.121V161ZM191.78 161H185.396V149.576H191.78V150.84H186.836V154.408H191.492V155.656H186.836V159.736H191.78V161ZM203.342 161H201.662L195.55 151.512H195.486C195.508 151.885 195.534 152.349 195.566 152.904C195.598 153.459 195.614 154.029 195.614 154.616V161H194.286V149.576H195.95L202.046 159.032H202.11C202.1 158.861 202.084 158.605 202.062 158.264C202.052 157.923 202.036 157.549 202.014 157.144C202.004 156.739 201.998 156.365 201.998 156.024V149.576H203.342V161ZM210.059 161H208.619V150.84H205.051V149.576H213.611V150.84H210.059V161ZM216.773 161H215.333V149.576H221.717V150.84H216.773V154.888H221.413V156.152H216.773V161ZM232.318 156.968C232.318 157.757 232.158 158.472 231.838 159.112C231.518 159.741 231.027 160.243 230.366 160.616C229.715 160.979 228.883 161.16 227.87 161.16C226.451 161.16 225.369 160.776 224.622 160.008C223.886 159.229 223.518 158.205 223.518 156.936V149.576H224.958V156.984C224.958 157.912 225.203 158.632 225.694 159.144C226.195 159.656 226.947 159.912 227.95 159.912C228.985 159.912 229.731 159.64 230.19 159.096C230.659 158.541 230.894 157.832 230.894 156.968V149.576H232.318V156.968ZM235.333 161V149.576H236.773V159.72H241.765V161H235.333ZM256.651 150.68C255.424 150.68 254.459 151.091 253.755 151.912C253.051 152.733 252.699 153.859 252.699 155.288C252.699 156.707 253.024 157.832 253.675 158.664C254.336 159.485 255.323 159.896 256.635 159.896C257.136 159.896 257.611 159.853 258.059 159.768C258.507 159.683 258.944 159.576 259.371 159.448V160.696C258.944 160.856 258.502 160.973 258.043 161.048C257.595 161.123 257.056 161.16 256.427 161.16C255.264 161.16 254.294 160.92 253.515 160.44C252.736 159.96 252.15 159.277 251.755 158.392C251.371 157.507 251.179 156.467 251.179 155.272C251.179 154.12 251.387 153.107 251.803 152.232C252.23 151.347 252.854 150.659 253.675 150.168C254.496 149.667 255.494 149.416 256.667 149.416C257.872 149.416 258.923 149.64 259.819 150.088L259.243 151.304C258.891 151.144 258.496 151 258.059 150.872C257.632 150.744 257.163 150.68 256.651 150.68ZM266.904 161L263.144 150.984H263.08C263.112 151.315 263.139 151.763 263.16 152.328C263.182 152.883 263.192 153.464 263.192 154.072V161H261.864V149.576H263.992L267.512 158.936H267.576L271.16 149.576H273.272V161H271.848V153.976C271.848 153.421 271.859 152.872 271.88 152.328C271.912 151.784 271.939 151.341 271.96 151H271.896L268.088 161H266.904ZM282.86 157.944C282.86 158.957 282.492 159.747 281.756 160.312C281.02 160.877 280.028 161.16 278.78 161.16C278.14 161.16 277.548 161.112 277.004 161.016C276.46 160.92 276.007 160.787 275.644 160.616V159.24C276.028 159.411 276.503 159.565 277.068 159.704C277.644 159.843 278.236 159.912 278.844 159.912C279.697 159.912 280.337 159.747 280.764 159.416C281.201 159.085 281.42 158.637 281.42 158.072C281.42 157.699 281.34 157.384 281.18 157.128C281.02 156.872 280.743 156.637 280.348 156.424C279.964 156.2 279.425 155.965 278.732 155.72C277.761 155.368 277.025 154.936 276.524 154.424C276.033 153.912 275.788 153.213 275.788 152.328C275.788 151.72 275.943 151.203 276.252 150.776C276.561 150.339 276.988 150.003 277.532 149.768C278.087 149.533 278.721 149.416 279.436 149.416C280.065 149.416 280.641 149.475 281.164 149.592C281.687 149.709 282.161 149.864 282.588 150.056L282.14 151.288C281.745 151.117 281.313 150.973 280.844 150.856C280.385 150.739 279.905 150.68 279.404 150.68C278.689 150.68 278.151 150.835 277.788 151.144C277.425 151.443 277.244 151.843 277.244 152.344C277.244 152.728 277.324 153.048 277.484 153.304C277.644 153.56 277.905 153.789 278.268 153.992C278.631 154.195 279.121 154.413 279.74 154.648C280.412 154.893 280.977 155.16 281.436 155.448C281.905 155.725 282.257 156.061 282.492 156.456C282.737 156.851 282.86 157.347 282.86 157.944Z" fill="#8B8B8B"/>
<path d="M160.105 82.8372H167.999V97.4454C167.95 98.5766 167.876 99.6341 167.777 100.618C167.679 101.552 167.581 102.389 167.482 103.126C167.04 104.946 166.499 106.397 165.859 107.479C165.22 108.561 164.236 109.545 162.908 110.43C161.58 111.267 160.154 111.808 158.629 112.054C157.104 112.299 155.555 112.422 153.981 112.422H154.35C152.776 112.422 151.202 112.25 149.628 111.906C148.054 111.562 146.628 111.021 145.349 110.283C144.709 109.889 144.168 109.471 143.726 109.029C143.283 108.586 142.889 108.094 142.545 107.553C142.201 106.963 141.881 106.323 141.586 105.635C141.34 104.897 141.119 104.061 140.922 103.126C140.774 102.389 140.652 101.552 140.553 100.618C140.504 99.6341 140.455 98.5766 140.406 97.4454V82.8372H148.447V97.5929C148.546 98.8226 148.62 99.8063 148.669 100.544C148.669 100.938 148.718 101.356 148.816 101.798C148.915 102.192 149.038 102.634 149.185 103.126C149.628 104.159 150.267 104.995 151.103 105.635C151.989 106.274 152.899 106.594 153.833 106.594H154.571C155.506 106.594 156.416 106.299 157.301 105.709C158.235 105.069 158.949 104.184 159.44 103.053C159.736 102.167 159.908 101.38 159.957 100.692C160.055 100.003 160.105 98.8964 160.105 97.3716V82.8372Z" fill="#8B8B8B"/>
<path d="M190.791 82.8372L201.489 112.349H192.045L190.938 108.881H183.855V103.717H189.315L186.659 95.4533L180.24 112.349H171.534L182.527 82.8372H190.791Z" fill="#8B8B8B"/>
<path d="M203.849 82.8372H222.293C223.326 82.8372 224.285 83.0585 225.171 83.5012C226.105 83.8947 226.892 84.4357 227.532 85.1243C228.22 85.7637 228.761 86.5261 229.155 87.4115C229.548 88.2968 229.77 89.2313 229.819 90.2151C229.77 91.2971 229.573 92.2071 229.229 92.9449C228.884 93.6827 228.442 94.3221 227.901 94.8631C227.36 95.4042 226.72 95.896 225.982 96.3387C225.294 96.7322 224.556 97.1503 223.769 97.5929C225.245 98.1832 226.376 99.0193 227.163 100.101C227.999 101.183 228.589 102.389 228.933 103.717C229.327 105.045 229.548 106.471 229.597 107.996C229.696 109.471 229.745 110.922 229.745 112.349H220.818C220.818 110.873 220.793 109.52 220.744 108.291C220.695 107.061 220.523 105.979 220.228 105.045C219.982 104.11 219.613 103.323 219.121 102.684C218.629 102.044 217.965 101.528 217.129 101.134C216.686 101.036 216.145 100.938 215.506 100.839C215.161 100.79 214.866 100.741 214.62 100.692C214.424 100.642 214.276 100.593 214.178 100.544V95.3796C214.62 95.3796 215.211 95.3796 215.948 95.3796C216.735 95.3796 217.473 95.2074 218.162 94.8631C218.9 94.5188 219.514 94.1007 220.006 93.6089C220.547 93.117 220.818 92.4776 220.818 91.6906C220.818 91.5431 220.744 91.2234 220.596 90.7315C220.449 90.2396 220.252 89.8462 220.006 89.551C219.76 89.2559 219.49 89.0592 219.195 88.9608C218.949 88.8133 218.457 88.7395 217.719 88.7395H211.595V112.349H203.849V82.8372Z" fill="#8B8B8B"/>
<path d="M233.135 82.8372V88.8133H241.398V112.349H249.514V88.8133H257.777V82.911L257.63 82.8372H233.135Z" fill="#8B8B8B"/>
<path d="M261.38 82.8372H285.875V88.7395H269.496V106.446H286.022V112.349H261.38V82.8372ZM271.783 100.175V95.0107H284.325V100.175H271.783Z" fill="#8B8B8B"/>
<path d="M289.552 82.8372H307.996C309.029 82.8372 309.988 83.0585 310.874 83.5012C311.808 83.8947 312.595 84.4357 313.235 85.1243C313.923 85.7637 314.464 86.5261 314.858 87.4115C315.251 88.2968 315.473 89.2313 315.522 90.2151C315.473 91.2971 315.276 92.2071 314.932 92.9449C314.587 93.6827 314.145 94.3221 313.604 94.8631C313.062 95.4042 312.423 95.896 311.685 96.3387C310.997 96.7322 310.259 97.1503 309.472 97.5929C310.947 98.1832 312.079 99.0193 312.866 100.101C313.702 101.183 314.292 102.389 314.636 103.717C315.03 105.045 315.251 106.471 315.3 107.996C315.399 109.471 315.448 110.922 315.448 112.349H306.521C306.521 110.873 306.496 109.52 306.447 108.291C306.398 107.061 306.226 105.979 305.931 105.045C305.685 104.11 305.316 103.323 304.824 102.684C304.332 102.044 303.668 101.528 302.832 101.134C302.389 101.036 301.848 100.938 301.209 100.839C300.864 100.79 300.569 100.741 300.323 100.692C300.127 100.642 299.979 100.593 299.881 100.544V95.3796C300.323 95.3796 300.914 95.3796 301.651 95.3796C302.438 95.3796 303.176 95.2074 303.865 94.8631C304.603 94.5188 305.217 94.1007 305.709 93.6089C306.25 93.117 306.521 92.4776 306.521 91.6906C306.521 91.5431 306.447 91.2234 306.299 90.7315C306.152 90.2396 305.955 89.8462 305.709 89.551C305.463 89.2559 305.193 89.0592 304.898 88.9608C304.652 88.8133 304.16 88.7395 303.422 88.7395H297.298V112.349H289.552V82.8372Z" fill="#8B8B8B"/>
<path d="M318.617 103.2H326.585C327.126 104.184 327.864 104.995 328.798 105.635C329.733 106.274 330.864 106.594 332.192 106.594C332.586 106.594 333.053 106.545 333.594 106.446C334.135 106.348 334.627 106.2 335.069 106.004C335.512 105.758 335.881 105.463 336.176 105.118C336.52 104.774 336.693 104.356 336.693 103.864C336.693 102.93 336.25 102.216 335.365 101.725C334.479 101.233 333.372 100.79 332.044 100.397C330.766 100.003 329.339 99.6341 327.765 99.2898C326.683 98.9947 325.601 98.6504 324.519 98.2569C323.437 97.8143 322.478 97.2978 321.642 96.7076C320.855 96.0682 320.191 95.3058 319.65 94.4204C319.158 93.5351 318.912 92.4284 318.912 91.1004C318.912 89.4281 319.305 88.0509 320.092 86.9688C320.928 85.8375 321.961 84.9768 323.191 84.3865C324.47 83.7471 325.872 83.329 327.396 83.1323C328.97 82.8864 330.495 82.7634 331.971 82.7634C333.25 82.7634 334.627 82.8618 336.102 83.0585C337.627 83.2061 339.029 83.5504 340.308 84.0914C341.587 84.6325 342.644 85.4194 343.48 86.4523C344.316 87.4852 344.734 88.8133 344.734 90.4364L344.808 91.1004H336.619C335.979 89.8708 335.315 89.0838 334.627 88.7395C333.938 88.3952 333.028 88.223 331.897 88.223C331.405 88.223 330.938 88.2722 330.495 88.3706C330.102 88.4198 329.733 88.5427 329.388 88.7395C329.093 88.9362 328.847 89.2067 328.651 89.551C328.503 89.8462 328.429 90.2396 328.429 90.7315C328.429 90.8791 328.405 91.0512 328.356 91.248C328.356 91.4447 328.38 91.6414 328.429 91.8382C328.478 92.0349 328.552 92.2071 328.651 92.3546C328.798 92.453 328.995 92.5268 329.241 92.576C330.028 92.7727 330.839 92.9695 331.676 93.1662C332.561 93.3629 333.471 93.5597 334.405 93.7564C336.274 94.1007 338.045 94.6418 339.717 95.3796C341.39 96.1174 342.767 97.1011 343.849 98.3307C344.98 99.5604 345.546 101.159 345.546 103.126C345.546 104.799 345.128 106.225 344.292 107.406C343.456 108.537 342.398 109.496 341.119 110.283C339.84 111.021 338.414 111.562 336.84 111.906C335.266 112.25 333.717 112.422 332.192 112.422C330.569 112.422 328.97 112.275 327.396 111.98C325.822 111.635 324.371 111.094 323.043 110.357C321.765 109.619 320.707 108.684 319.871 107.553C319.084 106.373 318.666 104.922 318.617 103.2Z" fill="#8B8B8B"/>
<path d="M55 73H56.9674V112.349H55V73ZM62.8697 73H65.8209V112.349H62.8697V73ZM70.7395 73H74.6743V112.349H70.7395V73ZM78.6092 73H83.5278V112.349H78.6092V73ZM86.4789 73H93.365V112.349H86.4789V73ZM116.187 80.673C115.728 80.673 115.138 80.7714 114.416 80.9681C113.761 81.0993 113.138 81.296 112.547 81.5583C111.957 81.8207 111.4 82.2141 110.875 82.7388C110.613 83.0011 110.383 83.2962 110.187 83.6241C109.99 83.8865 109.793 84.2144 109.596 84.6079C109.4 84.9358 109.203 85.362 109.006 85.8867C108.875 86.3458 108.711 86.936 108.514 87.6574C108.449 89.2313 108.383 90.5429 108.317 91.5922C108.317 92.6415 108.317 93.3957 108.317 93.8548C108.317 94.7729 108.383 95.7239 108.514 96.7076C108.645 97.6913 108.973 98.7734 109.498 99.9538C110.154 101.397 111.039 102.544 112.154 103.397C113.334 104.315 114.285 104.774 115.007 104.774L115.794 104.676C115.794 104.151 115.564 103.364 115.105 102.315C114.646 101.265 113.695 100.413 112.252 99.7571C114.81 97.0683 117.761 95.4943 121.106 95.0353C122.549 95.8222 123.532 96.7732 124.057 97.888C124.057 97.0355 124.057 96.2485 124.057 95.5271C124.057 94.8713 124.057 94.3139 124.057 93.8548C124.123 93.3957 124.123 92.6415 124.057 91.5922C123.991 90.5429 123.926 89.1657 123.86 87.4606C123.467 86.149 123.073 85.1325 122.68 84.4111C122.286 83.6897 121.86 83.0995 121.401 82.6404C120.679 81.9846 119.794 81.4928 118.745 81.1648C117.761 80.8369 116.909 80.673 116.187 80.673ZM117.958 112.447H116.876C114.777 112.447 112.613 112.218 110.383 111.758C108.219 111.299 106.284 110.578 104.579 109.594C102.809 108.545 101.53 107.299 100.743 105.856C99.8903 104.413 99.1689 102.479 98.5787 100.052C98.1852 98.0848 97.9884 96.3141 97.9884 94.7401C97.9228 93.2318 97.9556 91.6578 98.0868 90.0183C98.218 88.3788 98.3819 86.8048 98.5787 85.2965C99.1689 83.0011 99.9231 81.1321 100.841 79.6893C101.825 78.2465 103.104 77.0004 104.678 75.9512C105.53 75.4265 106.383 75.0002 107.235 74.6723C108.153 74.2788 109.137 73.9509 110.187 73.6886C112.351 73.2295 114.056 73 115.302 73H117.269C118.778 73 120.647 73.2295 122.876 73.6886C123.926 73.9509 124.909 74.2788 125.828 74.6723C126.811 75.0002 127.729 75.4265 128.582 75.9512C130.222 77.0004 131.5 78.2465 132.419 79.6893C133.337 81.1321 134.091 83.0011 134.681 85.2965C134.747 86.0834 134.812 86.8704 134.878 87.6574C135.009 88.4444 135.107 89.2313 135.173 90.0183C135.37 91.6578 135.402 93.2318 135.271 94.7401C135.206 96.2485 135.009 98.0192 134.681 100.052C134.091 102.479 133.369 104.413 132.517 105.856C131.664 107.365 131.14 108.217 130.943 108.414C132.058 110.709 133.337 112.152 134.779 112.742C131.959 115.3 129.008 116.874 125.926 117.464C123.959 116.677 122.549 115.693 121.696 114.513C120.909 113.398 120.384 112.742 120.122 112.545C119.925 112.414 119.204 112.381 117.958 112.447Z" fill="#8B8B8B"/>
</svg>
