<svg width="400" height="225" viewBox="0 0 400 225" fill="none" xmlns="http://www.w3.org/2000/svg">
<path d="M87.608 150H85.928L79.816 140.512H79.752C79.7733 140.885 79.8 141.349 79.832 141.904C79.864 142.459 79.88 143.029 79.88 143.616V150H78.552V138.576H80.216L86.312 148.032H86.376C86.3653 147.861 86.3493 147.605 86.328 147.264C86.3173 146.923 86.3013 146.549 86.28 146.144C86.2693 145.739 86.264 145.365 86.264 145.024V138.576H87.608V150ZM97.0923 150H90.7083V138.576H97.0923V139.84H92.1483V143.408H96.8043V144.656H92.1483V148.736H97.0923V150ZM112.719 138.576L109.679 150H108.223L105.999 142.512C105.914 142.203 105.828 141.893 105.743 141.584C105.658 141.275 105.588 141.003 105.535 140.768C105.482 140.523 105.444 140.352 105.423 140.256C105.412 140.395 105.354 140.693 105.247 141.152C105.151 141.6 105.028 142.069 104.879 142.56L102.719 150H101.263L98.2389 138.576H99.7429L101.519 145.552C101.647 146.043 101.754 146.517 101.839 146.976C101.935 147.435 102.01 147.867 102.063 148.272C102.116 147.856 102.196 147.403 102.303 146.912C102.41 146.421 102.532 145.941 102.671 145.472L104.687 138.576H106.175L108.271 145.52C108.42 146.011 108.548 146.501 108.655 146.992C108.762 147.472 108.842 147.899 108.895 148.272C108.948 147.877 109.023 147.451 109.119 146.992C109.215 146.523 109.327 146.037 109.455 145.536L111.215 138.576H112.719ZM120.954 146.944C120.954 147.957 120.586 148.747 119.85 149.312C119.114 149.877 118.122 150.16 116.874 150.16C116.234 150.16 115.642 150.112 115.098 150.016C114.554 149.92 114.101 149.787 113.738 149.616V148.24C114.122 148.411 114.597 148.565 115.162 148.704C115.738 148.843 116.33 148.912 116.938 148.912C117.791 148.912 118.431 148.747 118.858 148.416C119.295 148.085 119.514 147.637 119.514 147.072C119.514 146.699 119.434 146.384 119.274 146.128C119.114 145.872 118.837 145.637 118.442 145.424C118.058 145.2 117.519 144.965 116.826 144.72C115.855 144.368 115.119 143.936 114.618 143.424C114.127 142.912 113.882 142.213 113.882 141.328C113.882 140.72 114.037 140.203 114.346 139.776C114.655 139.339 115.082 139.003 115.626 138.768C116.181 138.533 116.815 138.416 117.53 138.416C118.159 138.416 118.735 138.475 119.258 138.592C119.781 138.709 120.255 138.864 120.682 139.056L120.234 140.288C119.839 140.117 119.407 139.973 118.938 139.856C118.479 139.739 117.999 139.68 117.498 139.68C116.783 139.68 116.245 139.835 115.882 140.144C115.519 140.443 115.338 140.843 115.338 141.344C115.338 141.728 115.418 142.048 115.578 142.304C115.738 142.56 115.999 142.789 116.362 142.992C116.725 143.195 117.215 143.413 117.834 143.648C118.506 143.893 119.071 144.16 119.53 144.448C119.999 144.725 120.351 145.061 120.586 145.456C120.831 145.851 120.954 146.347 120.954 146.944ZM123.255 150V138.576H124.695V148.72H129.687V150H123.255ZM138.03 150H131.646V138.576H138.03V139.84H133.086V143.408H137.742V144.656H133.086V148.736H138.03V150ZM144.152 150H142.712V139.84H139.144V138.576H147.704V139.84H144.152V150ZM153.356 150H151.916V139.84H148.348V138.576H156.908V139.84H153.356V150ZM165.014 150H158.63V138.576H165.014V139.84H160.07V143.408H164.726V144.656H160.07V148.736H165.014V150ZM170.673 138.576C172.091 138.576 173.137 138.848 173.809 139.392C174.491 139.925 174.833 140.736 174.833 141.824C174.833 142.432 174.721 142.939 174.497 143.344C174.273 143.749 173.985 144.075 173.633 144.32C173.291 144.555 172.929 144.741 172.545 144.88L175.681 150H174.001L171.233 145.28H168.961V150H167.521V138.576H170.673ZM170.593 139.824H168.961V144.064H170.673C171.601 144.064 172.278 143.883 172.705 143.52C173.131 143.147 173.345 142.603 173.345 141.888C173.345 141.141 173.121 140.613 172.673 140.304C172.225 139.984 171.531 139.824 170.593 139.824Z" fill="white"/>
<path d="M201.168 150H199.728V139.84H196.16V138.576H204.72V139.84H201.168V150ZM209.595 138.576C211.013 138.576 212.059 138.848 212.731 139.392C213.413 139.925 213.755 140.736 213.755 141.824C213.755 142.432 213.643 142.939 213.419 143.344C213.195 143.749 212.907 144.075 212.555 144.32C212.213 144.555 211.851 144.741 211.467 144.88L214.603 150H212.923L210.155 145.28H207.883V150H206.443V138.576H209.595ZM209.515 139.824H207.883V144.064H209.595C210.523 144.064 211.2 143.883 211.627 143.52C212.053 143.147 212.267 142.603 212.267 141.888C212.267 141.141 212.043 140.613 211.595 140.304C211.147 139.984 210.453 139.824 209.515 139.824ZM223.564 150L222.188 146.464H217.66L216.3 150H214.844L219.308 138.528H220.604L225.052 150H223.564ZM220.476 141.728C220.444 141.643 220.39 141.488 220.316 141.264C220.241 141.04 220.166 140.811 220.092 140.576C220.028 140.331 219.974 140.144 219.932 140.016C219.857 140.347 219.772 140.672 219.676 140.992C219.58 141.301 219.5 141.547 219.436 141.728L218.14 145.184H221.756L220.476 141.728ZM235.671 150H233.991L227.879 140.512H227.815C227.836 140.885 227.863 141.349 227.895 141.904C227.927 142.459 227.943 143.029 227.943 143.616V150H226.615V138.576H228.279L234.375 148.032H234.439C234.428 147.861 234.412 147.605 234.391 147.264C234.38 146.923 234.364 146.549 234.343 146.144C234.332 145.739 234.327 145.365 234.327 145.024V138.576H235.671V150ZM245.251 146.944C245.251 147.957 244.883 148.747 244.147 149.312C243.411 149.877 242.419 150.16 241.171 150.16C240.531 150.16 239.939 150.112 239.395 150.016C238.851 149.92 238.397 149.787 238.035 149.616V148.24C238.419 148.411 238.893 148.565 239.459 148.704C240.035 148.843 240.627 148.912 241.235 148.912C242.088 148.912 242.728 148.747 243.155 148.416C243.592 148.085 243.811 147.637 243.811 147.072C243.811 146.699 243.731 146.384 243.571 146.128C243.411 145.872 243.133 145.637 242.739 145.424C242.355 145.2 241.816 144.965 241.123 144.72C240.152 144.368 239.416 143.936 238.915 143.424C238.424 142.912 238.179 142.213 238.179 141.328C238.179 140.72 238.333 140.203 238.643 139.776C238.952 139.339 239.379 139.003 239.923 138.768C240.477 138.533 241.112 138.416 241.827 138.416C242.456 138.416 243.032 138.475 243.555 138.592C244.077 138.709 244.552 138.864 244.979 139.056L244.531 140.288C244.136 140.117 243.704 139.973 243.235 139.856C242.776 139.739 242.296 139.68 241.795 139.68C241.08 139.68 240.541 139.835 240.179 140.144C239.816 140.443 239.635 140.843 239.635 141.344C239.635 141.728 239.715 142.048 239.875 142.304C240.035 142.56 240.296 142.789 240.659 142.992C241.021 143.195 241.512 143.413 242.131 143.648C242.803 143.893 243.368 144.16 243.827 144.448C244.296 144.725 244.648 145.061 244.883 145.456C245.128 145.851 245.251 146.347 245.251 146.944ZM254.72 150L253.344 146.464H248.816L247.456 150H246L250.464 138.528H251.76L256.208 150H254.72ZM251.632 141.728C251.6 141.643 251.547 141.488 251.472 141.264C251.397 141.04 251.323 140.811 251.248 140.576C251.184 140.331 251.131 140.144 251.088 140.016C251.013 140.347 250.928 140.672 250.832 140.992C250.736 141.301 250.656 141.547 250.592 141.728L249.296 145.184H252.912L251.632 141.728ZM262.354 139.68C261.128 139.68 260.162 140.091 259.458 140.912C258.754 141.733 258.402 142.859 258.402 144.288C258.402 145.707 258.728 146.832 259.378 147.664C260.04 148.485 261.026 148.896 262.338 148.896C262.84 148.896 263.314 148.853 263.762 148.768C264.21 148.683 264.648 148.576 265.074 148.448V149.696C264.648 149.856 264.205 149.973 263.746 150.048C263.298 150.123 262.76 150.16 262.13 150.16C260.968 150.16 259.997 149.92 259.218 149.44C258.44 148.96 257.853 148.277 257.458 147.392C257.074 146.507 256.882 145.467 256.882 144.272C256.882 143.12 257.09 142.107 257.506 141.232C257.933 140.347 258.557 139.659 259.378 139.168C260.2 138.667 261.197 138.416 262.37 138.416C263.576 138.416 264.626 138.64 265.522 139.088L264.946 140.304C264.594 140.144 264.2 140 263.762 139.872C263.336 139.744 262.866 139.68 262.354 139.68ZM271.184 150H269.744V139.84H266.176V138.576H274.736V139.84H271.184V150ZM279.674 150H275.546V149.168L276.89 148.864V139.728L275.546 139.408V138.576H279.674V139.408L278.33 139.728V148.864L279.674 149.168V150ZM291.848 144.272C291.848 145.456 291.645 146.491 291.24 147.376C290.845 148.251 290.259 148.933 289.48 149.424C288.701 149.915 287.736 150.16 286.584 150.16C285.4 150.16 284.413 149.915 283.624 149.424C282.845 148.933 282.264 148.245 281.88 147.36C281.496 146.475 281.304 145.44 281.304 144.256C281.304 143.083 281.496 142.059 281.88 141.184C282.264 140.309 282.845 139.627 283.624 139.136C284.413 138.645 285.405 138.4 286.6 138.4C287.741 138.4 288.701 138.645 289.48 139.136C290.259 139.616 290.845 140.299 291.24 141.184C291.645 142.059 291.848 143.088 291.848 144.272ZM282.824 144.272C282.824 145.712 283.128 146.848 283.736 147.68C284.344 148.501 285.293 148.912 286.584 148.912C287.885 148.912 288.835 148.501 289.432 147.68C290.029 146.848 290.328 145.712 290.328 144.272C290.328 142.832 290.029 141.707 289.432 140.896C288.835 140.075 287.891 139.664 286.6 139.664C285.309 139.664 284.355 140.075 283.736 140.896C283.128 141.707 282.824 142.832 282.824 144.272ZM303.436 150H301.756L295.644 140.512H295.58C295.601 140.885 295.628 141.349 295.66 141.904C295.692 142.459 295.708 143.029 295.708 143.616V150H294.38V138.576H296.044L302.14 148.032H302.204C302.193 147.861 302.177 147.605 302.156 147.264C302.145 146.923 302.129 146.549 302.108 146.144C302.097 145.739 302.092 145.365 302.092 145.024V138.576H303.436V150ZM313.704 150L312.328 146.464H307.8L306.44 150H304.984L309.448 138.528H310.744L315.192 150H313.704ZM310.616 141.728C310.584 141.643 310.531 141.488 310.456 141.264C310.382 141.04 310.307 140.811 310.232 140.576C310.168 140.331 310.115 140.144 310.072 140.016C309.998 140.347 309.912 140.672 309.816 140.992C309.72 141.301 309.64 141.547 309.576 141.728L308.28 145.184H311.896L310.616 141.728ZM316.755 150V138.576H318.195V148.72H323.187V150H316.755Z" fill="white"/>
<path d="M141.576 161.576C143.069 161.576 144.157 161.869 144.84 162.456C145.523 163.043 145.864 163.869 145.864 164.936C145.864 165.565 145.72 166.157 145.432 166.712C145.155 167.256 144.68 167.699 144.008 168.04C143.347 168.381 142.445 168.552 141.304 168.552H139.992V173H138.552V161.576H141.576ZM141.448 162.808H139.992V167.32H141.144C142.232 167.32 143.043 167.144 143.576 166.792C144.109 166.44 144.376 165.843 144.376 165C144.376 164.264 144.141 163.715 143.672 163.352C143.203 162.989 142.461 162.808 141.448 162.808ZM151.391 161.576C152.81 161.576 153.856 161.848 154.528 162.392C155.21 162.925 155.552 163.736 155.552 164.824C155.552 165.432 155.44 165.939 155.216 166.344C154.992 166.749 154.704 167.075 154.352 167.32C154.01 167.555 153.648 167.741 153.264 167.88L156.4 173H154.72L151.952 168.28H149.68V173H148.24V161.576H151.391ZM151.312 162.824H149.68V167.064H151.391C152.32 167.064 152.997 166.883 153.424 166.52C153.85 166.147 154.064 165.603 154.064 164.888C154.064 164.141 153.84 163.613 153.392 163.304C152.944 162.984 152.25 162.824 151.312 162.824ZM168.161 167.272C168.161 168.456 167.958 169.491 167.553 170.376C167.158 171.251 166.571 171.933 165.793 172.424C165.014 172.915 164.049 173.16 162.897 173.16C161.713 173.16 160.726 172.915 159.937 172.424C159.158 171.933 158.577 171.245 158.193 170.36C157.809 169.475 157.617 168.44 157.617 167.256C157.617 166.083 157.809 165.059 158.193 164.184C158.577 163.309 159.158 162.627 159.937 162.136C160.726 161.645 161.718 161.4 162.913 161.4C164.054 161.4 165.014 161.645 165.793 162.136C166.571 162.616 167.158 163.299 167.553 164.184C167.958 165.059 168.161 166.088 168.161 167.272ZM159.137 167.272C159.137 168.712 159.441 169.848 160.049 170.68C160.657 171.501 161.606 171.912 162.897 171.912C164.198 171.912 165.147 171.501 165.745 170.68C166.342 169.848 166.641 168.712 166.641 167.272C166.641 165.832 166.342 164.707 165.745 163.896C165.147 163.075 164.203 162.664 162.913 162.664C161.622 162.664 160.667 163.075 160.049 163.896C159.441 164.707 159.137 165.832 159.137 167.272ZM175.733 173L171.973 162.984H171.909C171.941 163.315 171.967 163.763 171.989 164.328C172.01 164.883 172.021 165.464 172.021 166.072V173H170.693V161.576H172.821L176.341 170.936H176.405L179.989 161.576H182.101V173H180.677V165.976C180.677 165.421 180.687 164.872 180.709 164.328C180.741 163.784 180.767 163.341 180.789 163H180.725L176.917 173H175.733ZM195.176 167.272C195.176 168.456 194.974 169.491 194.568 170.376C194.174 171.251 193.587 171.933 192.808 172.424C192.03 172.915 191.064 173.16 189.912 173.16C188.728 173.16 187.742 172.915 186.952 172.424C186.174 171.933 185.592 171.245 185.208 170.36C184.824 169.475 184.632 168.44 184.632 167.256C184.632 166.083 184.824 165.059 185.208 164.184C185.592 163.309 186.174 162.627 186.952 162.136C187.742 161.645 188.734 161.4 189.928 161.4C191.07 161.4 192.03 161.645 192.808 162.136C193.587 162.616 194.174 163.299 194.568 164.184C194.974 165.059 195.176 166.088 195.176 167.272ZM186.152 167.272C186.152 168.712 186.456 169.848 187.064 170.68C187.672 171.501 188.622 171.912 189.912 171.912C191.214 171.912 192.163 171.501 192.76 170.68C193.358 169.848 193.656 168.712 193.656 167.272C193.656 165.832 193.358 164.707 192.76 163.896C192.163 163.075 191.219 162.664 189.928 162.664C188.638 162.664 187.683 163.075 187.064 163.896C186.456 164.707 186.152 165.832 186.152 167.272ZM200.84 173H199.4V162.84H195.832V161.576H204.392V162.84H200.84V173ZM209.331 173H205.203V172.168L206.547 171.864V162.728L205.203 162.408V161.576H209.331V162.408L207.987 162.728V171.864L209.331 172.168V173ZM221.504 167.272C221.504 168.456 221.302 169.491 220.896 170.376C220.502 171.251 219.915 171.933 219.136 172.424C218.358 172.915 217.392 173.16 216.24 173.16C215.056 173.16 214.07 172.915 213.28 172.424C212.502 171.933 211.92 171.245 211.536 170.36C211.152 169.475 210.96 168.44 210.96 167.256C210.96 166.083 211.152 165.059 211.536 164.184C211.92 163.309 212.502 162.627 213.28 162.136C214.07 161.645 215.062 161.4 216.256 161.4C217.398 161.4 218.358 161.645 219.136 162.136C219.915 162.616 220.502 163.299 220.896 164.184C221.302 165.059 221.504 166.088 221.504 167.272ZM212.48 167.272C212.48 168.712 212.784 169.848 213.392 170.68C214 171.501 214.95 171.912 216.24 171.912C217.542 171.912 218.491 171.501 219.088 170.68C219.686 169.848 219.984 168.712 219.984 167.272C219.984 165.832 219.686 164.707 219.088 163.896C218.491 163.075 217.547 162.664 216.256 162.664C214.966 162.664 214.011 163.075 213.392 163.896C212.784 164.707 212.48 165.832 212.48 167.272ZM233.092 173H231.412L225.3 163.512H225.236C225.258 163.885 225.284 164.349 225.316 164.904C225.348 165.459 225.364 166.029 225.364 166.616V173H224.036V161.576H225.7L231.796 171.032H231.86C231.85 170.861 231.834 170.605 231.812 170.264C231.802 169.923 231.786 169.549 231.764 169.144C231.754 168.739 231.748 168.365 231.748 168.024V161.576H233.092V173ZM243.361 173L241.985 169.464H237.457L236.097 173H234.641L239.105 161.528H240.401L244.849 173H243.361ZM240.273 164.728C240.241 164.643 240.187 164.488 240.113 164.264C240.038 164.04 239.963 163.811 239.889 163.576C239.825 163.331 239.771 163.144 239.729 163.016C239.654 163.347 239.569 163.672 239.473 163.992C239.377 164.301 239.297 164.547 239.233 164.728L237.937 168.184H241.553L240.273 164.728ZM246.411 173V161.576H247.851V171.72H252.843V173H246.411Z" fill="white"/>
<path d="M91.15 120.46C91.15 120.7 91.12 120.88 91.06 121C91.06 121.18 91.06 121.36 91.06 121.54H90.34L91.15 120.46ZM84.49 93.91C84.43 94.21 84.4 94.6 84.4 95.08V96.16C84.22 96.22 83.98 96.25 83.68 96.25C83.38 96.25 83.11 96.25 82.87 96.25C82.63 96.19 82.39 96.16 82.15 96.16C82.51 95.8 82.87 95.44 83.23 95.08C83.65 94.72 84.07 94.33 84.49 93.91ZM91.69 63.49C91.69 64.33 91.69 65.17 91.69 66.01C91.69 66.79 91.63 67.6 91.51 68.44H89.62C89.32 68.44 89.02 68.44 88.72 68.44C88.42 68.44 88.12 68.38 87.82 68.26C88.48 67.42 89.11 66.61 89.71 65.83C90.37 65.05 91.03 64.27 91.69 63.49ZM64.6 60.25C64.84 59.89 65.08 59.56 65.32 59.26C65.56 58.9 65.8 58.57 66.04 58.27C66.28 58.33 66.64 58.36 67.12 58.36C67.48 58.36 67.84 58.36 68.2 58.36C68.56 58.3 68.92 58.27 69.28 58.27C68.5 59.47 67.66 60.64 66.76 61.78C65.92 62.92 65.08 64.06 64.24 65.2L64.6 60.25ZM91.24 111.55C91.18 112.45 91.18 113.32 91.24 114.16C91.3 115 91.3 115.84 91.24 116.68C91.24 117.46 91.15 118.27 90.97 119.11C90.79 119.95 90.46 120.76 89.98 121.54C88.78 121.48 87.61 121.42 86.47 121.36C85.39 121.36 84.28 121.36 83.14 121.36C85.36 118 87.85 114.76 90.61 111.64L91.24 111.55ZM87.73 58.36C88.09 58.3 88.45 58.27 88.81 58.27C89.23 58.27 89.86 58.24 90.7 58.18L91.69 58.27C91.69 58.87 91.42 59.62 90.88 60.52C90.4 61.36 89.8 62.26 89.08 63.22C88.36 64.12 87.61 65.02 86.83 65.92C86.11 66.82 85.48 67.6 84.94 68.26C84.28 68.26 83.65 68.26 83.05 68.26C82.51 68.2 81.94 68.17 81.34 68.17H80.44C81.7 66.55 82.93 64.93 84.13 63.31C85.33 61.69 86.53 60.04 87.73 58.36ZM64.06 71.95V70.42C65.8 68.5 67.42 66.52 68.92 64.48C70.42 62.44 71.92 60.37 73.42 58.27C73.9 58.27 74.35 58.3 74.77 58.36C75.19 58.42 75.64 58.45 76.12 58.45C76.54 58.45 76.84 58.42 77.02 58.36C75.1 61.36 73.06 64.27 70.9 67.09C68.8 69.85 66.52 72.49 64.06 75.01V71.95ZM76.3 111.73C76.78 111.79 77.23 111.82 77.65 111.82C78.13 111.82 78.61 111.82 79.09 111.82C79.57 111.82 80.02 111.82 80.44 111.82C80.92 111.82 81.4 111.79 81.88 111.73C80.62 113.29 79.42 114.88 78.28 116.5C77.14 118.06 76.03 119.68 74.95 121.36C74.65 121.3 74.32 121.27 73.96 121.27C73.6 121.27 73.24 121.27 72.88 121.27C72.22 121.27 71.53 121.27 70.81 121.27C70.15 121.33 69.49 121.36 68.83 121.36C71.11 117.76 73.66 114.28 76.48 110.92C76.48 111.04 76.45 111.19 76.39 111.37C76.33 111.49 76.3 111.61 76.3 111.73ZM83.05 111.73C84.25 111.67 85.39 111.64 86.47 111.64C87.61 111.64 88.78 111.64 89.98 111.64C88.6 113.2 87.31 114.82 86.11 116.5C84.91 118.12 83.71 119.8 82.51 121.54C81.85 121.48 81.22 121.42 80.62 121.36C80.08 121.36 79.48 121.36 78.82 121.36C78.34 121.36 77.89 121.36 77.47 121.36C77.11 121.42 76.69 121.45 76.21 121.45C77.23 119.71 78.31 118.06 79.45 116.5C80.65 114.94 81.85 113.35 83.05 111.73ZM64.33 90.67C64.21 89.89 64.15 89.17 64.15 88.51C64.21 87.79 64.18 87.07 64.06 86.35C66.34 84.31 68.5 82.21 70.54 80.05C72.64 77.83 74.65 75.55 76.57 73.21V78.43C74.65 80.65 72.67 82.78 70.63 84.82C68.59 86.8 66.49 88.75 64.33 90.67ZM76.48 81.4C76.54 81.58 76.57 81.82 76.57 82.12C76.57 82.42 76.54 82.69 76.48 82.93C76.48 83.11 76.48 83.35 76.48 83.65V84.1C76.78 84.16 77.23 84.19 77.83 84.19H78.37C76.09 86.59 73.78 88.93 71.44 91.21C69.1 93.43 66.7 95.65 64.24 97.87V95.62C64.24 95.26 64.24 94.9 64.24 94.54C64.24 94.12 64.27 93.7 64.33 93.28C66.43 91.36 68.5 89.44 70.54 87.52C72.58 85.54 74.56 83.5 76.48 81.4ZM63.97 120.55V119.02C63.97 118.78 63.97 118.57 63.97 118.39C63.97 118.15 63.94 117.88 63.88 117.58C65.92 114.88 67.99 112.27 70.09 109.75C72.19 107.17 74.32 104.65 76.48 102.19C76.48 103.33 76.48 104.47 76.48 105.61C76.48 106.75 76.45 107.89 76.39 109.03C74.77 111.07 73.21 113.11 71.71 115.15C70.21 117.19 68.71 119.26 67.21 121.36C67.03 121.42 66.79 121.45 66.49 121.45H63.97V120.55ZM64.06 82.21V78.79C67.24 75.73 70.12 72.49 72.7 69.07C75.34 65.59 77.89 62.05 80.35 58.45C80.59 58.39 80.95 58.36 81.43 58.36C81.73 58.36 82.03 58.39 82.33 58.45C82.69 58.45 83.02 58.45 83.32 58.45C83.8 58.45 84.16 58.42 84.4 58.36C83.26 60.1 82.12 61.75 80.98 63.31C79.84 64.87 78.67 66.46 77.47 68.08H76.75C76.75 68.26 76.72 68.44 76.66 68.62C76.66 68.74 76.66 68.92 76.66 69.16C74.74 71.68 72.73 74.11 70.63 76.45C68.59 78.79 66.4 81.01 64.06 83.11V82.21ZM64.06 105.88C64.06 105.22 64.09 104.53 64.15 103.81C64.21 103.09 64.24 102.4 64.24 101.74C64.24 101.5 64.21 101.29 64.15 101.11C64.15 100.87 64.15 100.63 64.15 100.39C66.97 97.69 69.73 94.99 72.43 92.29C75.19 89.59 77.92 86.83 80.62 84.01C80.92 84.01 81.19 84.04 81.43 84.1C81.73 84.1 82.12 84.1 82.6 84.1L84.31 84.01V85C80.89 88.54 77.47 92.02 74.05 95.44C70.69 98.8 67.36 102.28 64.06 105.88ZM84.4 86.98C84.34 87.46 84.31 87.91 84.31 88.33C84.31 88.69 84.31 89.11 84.31 89.59V92.2C83.65 92.86 82.99 93.55 82.33 94.27C81.67 94.93 81.01 95.62 80.35 96.34C79.69 96.22 79.03 96.19 78.37 96.25C77.77 96.25 77.14 96.22 76.48 96.16V100.21C74.26 102.61 72.1 105.04 70 107.5C67.96 109.9 65.92 112.36 63.88 114.88C63.88 114.04 63.91 113.2 63.97 112.36C64.03 111.46 64.06 110.59 64.06 109.75C64.06 109.45 64.03 109.18 63.97 108.94C63.97 108.64 63.97 108.34 63.97 108.04C67.27 104.38 70.63 100.84 74.05 97.42C77.47 93.94 80.92 90.46 84.4 86.98Z" fill="#A598FF"/>
<path d="M125.886 59.8C125.946 59.32 126.036 58.93 126.156 58.63C126.336 58.33 126.516 58.06 126.696 57.82C126.936 57.58 127.236 57.46 127.596 57.46C127.356 57.82 127.086 58.21 126.786 58.63C126.486 58.99 126.186 59.38 125.886 59.8ZM110.406 119.02C110.346 119.26 110.316 119.62 110.316 120.1V122.17H109.956C109.716 122.17 109.506 122.14 109.326 122.08C109.206 122.08 109.026 122.08 108.786 122.08C108.486 122.08 108.276 122.11 108.156 122.17C108.576 121.63 108.936 121.09 109.236 120.55C109.596 120.01 109.986 119.5 110.406 119.02ZM98.2558 65.11C98.3758 64.33 98.4058 63.58 98.3458 62.86C98.3458 62.14 98.4058 61.42 98.5258 60.7C99.0058 60.22 99.4558 59.71 99.8758 59.17C100.296 58.57 100.746 58 101.226 57.46L101.496 57.37H103.656C103.836 57.37 104.016 57.4 104.196 57.46C104.376 57.46 104.556 57.46 104.736 57.46C103.716 58.78 102.666 60.1 101.586 61.42C100.566 62.68 99.4558 63.91 98.2558 65.11ZM123.366 111.64C122.826 113.44 122.256 115.24 121.656 117.04C121.056 118.78 120.426 120.52 119.766 122.26C119.586 122.2 119.346 122.17 119.046 122.17C118.806 122.17 118.596 122.17 118.416 122.17C118.236 122.23 118.026 122.26 117.786 122.26C116.946 122.26 116.436 121.81 116.256 120.91C117.396 119.29 118.566 117.73 119.766 116.23C120.966 114.67 122.166 113.14 123.366 111.64ZM110.676 109.75C110.676 111.01 110.646 112.3 110.586 113.62C110.526 114.88 110.496 116.14 110.496 117.4C109.896 118.24 109.296 119.02 108.696 119.74C108.156 120.46 107.556 121.21 106.896 121.99C105.816 122.05 104.736 122.11 103.656 122.17C102.576 122.23 101.466 122.32 100.326 122.44C102.006 120.28 103.716 118.15 105.456 116.05C107.196 113.95 108.936 111.85 110.676 109.75ZM122.826 73.03C123.126 71.65 123.426 70.3 123.726 68.98C124.086 67.66 124.416 66.34 124.716 65.02C125.736 63.82 126.696 62.59 127.596 61.33C128.496 60.07 129.426 58.81 130.386 57.55C130.806 57.49 131.226 57.46 131.646 57.46C132.066 57.46 132.486 57.46 132.906 57.46H135.426C131.406 62.62 127.206 67.81 122.826 73.03ZM109.326 57.37C109.626 57.37 109.926 57.37 110.226 57.37C110.586 57.31 110.916 57.28 111.216 57.28C111.216 57.58 111.246 57.88 111.306 58.18C111.426 58.42 111.516 58.69 111.576 58.99C109.476 61.75 107.316 64.45 105.096 67.09C102.936 69.67 100.566 72.16 97.9858 74.56C98.0458 74.32 98.0758 74.08 98.0758 73.84C98.0758 73.6 98.0758 73.36 98.0758 73.12C98.0758 72.64 98.0458 72.16 97.9858 71.68C97.9858 71.2 97.9858 70.72 97.9858 70.24C99.9058 68.14 101.796 66.04 103.656 63.94C105.516 61.84 107.256 59.65 108.876 57.37H109.326ZM97.9858 82.75C97.9858 82.33 97.9858 81.91 97.9858 81.49C98.0458 81.07 98.0758 80.65 98.0758 80.23C98.0758 79.93 98.0458 79.63 97.9858 79.33C97.9858 78.97 97.9558 78.64 97.8958 78.34C100.596 76 103.116 73.51 105.456 70.87C107.796 68.23 110.046 65.5 112.206 62.68C112.386 63.4 112.506 64.12 112.566 64.84C112.686 65.5 112.836 66.22 113.016 67C110.736 69.88 108.336 72.64 105.816 75.28C103.296 77.92 100.686 80.41 97.9858 82.75ZM110.586 103.99V108.04C108.486 110.32 106.446 112.66 104.466 115.06C102.546 117.46 100.596 119.89 98.6158 122.35H98.1658C98.1058 122.05 98.0758 121.72 98.0758 121.36C98.0758 121 98.0758 120.67 98.0758 120.37C98.0758 119.83 98.0758 119.32 98.0758 118.84C98.1358 118.3 98.1658 117.79 98.1658 117.31C98.1658 117.01 98.1658 116.71 98.1658 116.41C98.1658 116.05 98.1358 115.72 98.0758 115.42C100.176 113.14 102.246 110.89 104.286 108.67C106.386 106.45 108.486 104.23 110.586 102.01V103.99ZM98.1658 90.22C98.0458 89.44 97.9858 88.72 97.9858 88.06C98.0458 87.34 98.0458 86.62 97.9858 85.9C100.866 83.44 103.596 80.92 106.176 78.34C108.756 75.76 111.186 73.03 113.466 70.15C113.646 70.87 113.766 71.59 113.826 72.31C113.946 73.03 114.096 73.75 114.276 74.47C111.876 77.35 109.296 80.08 106.536 82.66C103.836 85.18 101.046 87.7 98.1658 90.22ZM98.1658 97.51C98.1058 96.73 98.0758 95.98 98.0758 95.26C98.1358 94.54 98.1058 93.79 97.9858 93.01C100.986 90.49 103.866 87.94 106.626 85.36C109.446 82.72 112.146 79.96 114.726 77.08C114.906 77.8 115.026 78.52 115.086 79.24C115.206 79.9 115.326 80.59 115.446 81.31C112.746 84.19 109.956 86.95 107.076 89.59C104.196 92.23 101.226 94.87 98.1658 97.51ZM126.426 112.45C126.426 111.73 126.426 111.01 126.426 110.29C126.426 109.51 126.456 108.76 126.516 108.04C128.436 105.88 130.416 103.81 132.456 101.83C134.556 99.85 136.686 97.9 138.846 95.98V103.54C136.566 105.58 134.376 107.71 132.276 109.93C130.236 112.09 128.286 114.37 126.426 116.77V112.45ZM120.756 83.29C120.876 82.15 121.086 81.04 121.386 79.96C121.686 78.82 121.926 77.68 122.106 76.54C124.866 73.36 127.566 70.21 130.206 67.09C132.906 63.91 135.606 60.7 138.306 57.46C138.366 57.46 138.426 57.46 138.486 57.46C138.546 57.4 138.636 57.37 138.756 57.37C138.756 58.39 138.756 59.41 138.756 60.43C138.756 61.45 138.786 62.47 138.846 63.49C135.786 66.79 132.756 70.12 129.756 73.48C126.816 76.78 123.816 80.05 120.756 83.29ZM98.2558 105.25C98.1958 104.83 98.1658 104.41 98.1658 103.99C98.1658 103.57 98.1658 103.12 98.1658 102.64C98.1658 102.16 98.1658 101.74 98.1658 101.38C98.1658 100.96 98.1958 100.51 98.2558 100.03C101.316 97.33 104.286 94.6 107.166 91.84C110.106 89.08 113.016 86.26 115.896 83.38C116.136 84.04 116.256 84.73 116.256 85.45C116.316 86.11 116.466 86.77 116.706 87.43C113.646 90.49 110.586 93.49 107.526 96.43C104.466 99.37 101.376 102.31 98.2558 105.25ZM119.046 91.75C119.286 90.79 119.496 89.8 119.676 88.78C119.916 87.76 120.096 86.74 120.216 85.72C123.336 82.42 126.426 79.12 129.486 75.82C132.606 72.52 135.726 69.22 138.846 65.92C138.846 66.94 138.846 67.93 138.846 68.89C138.846 69.85 138.816 70.84 138.756 71.86C135.336 75.1 132.036 78.4 128.856 81.76C125.676 85.12 122.406 88.45 119.046 91.75ZM110.676 100.03L110.766 100.21C108.606 102.37 106.476 104.56 104.376 106.78C102.336 108.94 100.266 111.1 98.1658 113.26C98.2258 112.66 98.2558 112.09 98.2558 111.55C98.3158 110.95 98.3458 110.32 98.3458 109.66C98.3458 109.24 98.3158 108.85 98.2558 108.49C98.2558 108.13 98.2258 107.74 98.1658 107.32C101.346 104.26 104.496 101.23 107.616 98.23C110.736 95.23 113.856 92.17 116.976 89.05C117.156 89.71 117.306 90.37 117.426 91.03C117.606 91.69 117.726 92.38 117.786 93.1C116.586 94.3 115.386 95.5 114.186 96.7C113.046 97.84 111.906 99.01 110.766 100.21L110.676 100.03ZM126.336 121.45C126.336 120.85 126.336 120.25 126.336 119.65C126.396 119.05 126.426 118.45 126.426 117.85V117.13C128.346 114.73 130.326 112.42 132.366 110.2C134.406 107.98 136.566 105.82 138.846 103.72C138.846 106.9 138.816 110.02 138.756 113.08C138.756 116.14 138.636 119.26 138.396 122.44L126.336 122.17V121.45ZM126.606 107.23C126.666 106.03 126.696 104.89 126.696 103.81C126.696 102.67 126.696 101.5 126.696 100.3C126.156 102.04 125.646 103.75 125.166 105.43C124.746 107.11 124.296 108.79 123.816 110.47C122.436 112.03 121.086 113.65 119.766 115.33C118.506 116.95 117.276 118.6 116.076 120.28C115.716 119.26 115.386 118.24 115.086 117.22C114.846 116.14 114.576 115.09 114.276 114.07C117.936 109.39 121.806 104.98 125.886 100.84C129.966 96.64 134.256 92.59 138.756 88.69V92.92C138.756 93.34 138.756 93.76 138.756 94.18C138.756 94.54 138.786 94.93 138.846 95.35C136.686 97.27 134.586 99.22 132.546 101.2C130.506 103.12 128.526 105.13 126.606 107.23ZM114.006 112.9C113.706 112 113.466 111.1 113.286 110.2C113.106 109.24 112.926 108.31 112.746 107.41C116.826 102.73 121.026 98.26 125.346 94C129.726 89.68 134.226 85.45 138.846 81.31V87.43C134.346 91.39 130.026 95.47 125.886 99.67C121.746 103.87 117.786 108.28 114.006 112.9ZM112.296 106.15C112.116 105.37 111.906 104.62 111.666 103.9C111.486 103.12 111.306 102.34 111.126 101.56C112.266 100.36 113.406 99.16 114.546 97.96C115.746 96.76 116.946 95.56 118.146 94.36L118.326 95.35L118.686 93.82C122.046 90.46 125.376 87.1 128.676 83.74C132.036 80.32 135.426 76.99 138.846 73.75V74.38C138.846 75.16 138.816 75.94 138.756 76.72C138.696 77.5 138.666 78.31 138.666 79.15V79.87C134.046 84.07 129.546 88.36 125.166 92.74C120.786 97.06 116.496 101.53 112.296 106.15ZM155.173 121.36H154.723L155.263 120.46L155.173 121.36ZM172.813 117.04C172.873 117.76 172.963 118.51 173.083 119.29C173.203 120.01 173.323 120.76 173.443 121.54C172.903 121.54 172.333 121.51 171.733 121.45C171.193 121.45 170.623 121.45 170.023 121.45H169.123C169.783 120.67 170.383 119.92 170.923 119.2C171.463 118.42 172.093 117.7 172.813 117.04ZM150.403 74.56C150.703 73 151.033 71.5 151.393 70.06C151.813 68.56 152.173 67.03 152.473 65.47C153.133 64.45 153.763 63.4 154.363 62.32C155.023 61.18 155.683 60.07 156.343 58.99H160.393C157.273 64.51 153.943 69.7 150.403 74.56ZM171.643 110.02C171.763 111.16 171.913 112.3 172.093 113.44C172.333 114.58 172.573 115.72 172.813 116.86C172.033 117.58 171.343 118.33 170.743 119.11C170.143 119.89 169.513 120.7 168.853 121.54C167.653 121.48 166.453 121.42 165.253 121.36C164.113 121.36 162.943 121.36 161.743 121.36C163.303 119.38 164.893 117.43 166.513 115.51C168.133 113.59 169.843 111.76 171.643 110.02ZM159.943 104.71C159.883 103.87 159.823 103.03 159.763 102.19C159.763 101.35 159.703 100.51 159.583 99.67C161.143 98.11 162.703 96.52 164.263 94.9C165.823 93.28 167.383 91.69 168.943 90.13C169.063 91.03 169.153 91.93 169.213 92.83C169.333 93.67 169.453 94.51 169.573 95.35C168.013 96.91 166.393 98.47 164.713 100.03C163.093 101.59 161.503 103.15 159.943 104.71ZM161.293 121.09C161.113 119.65 161.023 118.18 161.023 116.68V115.24L159.313 115.33C162.793 110.89 166.573 106.87 170.653 103.27C170.833 105.37 171.103 107.38 171.463 109.3C169.543 111.1 167.743 112.99 166.063 114.97C164.443 116.95 162.853 118.99 161.293 121.09ZM148.243 86.8C148.423 85.66 148.573 84.52 148.693 83.38C148.873 82.24 149.083 81.13 149.323 80.05C152.023 76.75 154.513 73.33 156.793 69.79C159.133 66.25 161.353 62.65 163.453 58.99C163.573 58.87 163.813 58.81 164.173 58.81C164.473 58.81 164.683 58.96 164.803 59.26C164.983 59.56 165.103 59.95 165.163 60.43C165.283 60.85 165.373 61.33 165.433 61.87C165.493 62.35 165.553 62.77 165.613 63.13C162.973 67.27 160.273 71.35 157.513 75.37C154.753 79.39 151.663 83.2 148.243 86.8ZM157.243 102.01C157.243 102.91 157.183 103.78 157.063 104.62C157.003 105.46 156.973 106.33 156.973 107.23V107.95C154.993 110.17 153.043 112.42 151.123 114.7C149.203 116.98 147.313 119.26 145.453 121.54H144.913H143.023C143.263 120.52 143.443 119.56 143.563 118.66C143.683 117.7 143.863 116.71 144.103 115.69C146.263 113.41 148.423 111.13 150.583 108.85C152.803 106.51 155.023 104.23 157.243 102.01ZM147.253 95.71C147.433 94.81 147.523 93.91 147.523 93.01C147.583 92.05 147.703 91.12 147.883 90.22C151.483 86.74 154.723 82.99 157.603 78.97C160.483 74.95 163.303 70.87 166.063 66.73C166.243 67.69 166.423 68.65 166.603 69.61C166.783 70.57 166.933 71.56 167.053 72.58C163.993 76.66 160.873 80.68 157.693 84.64C154.573 88.6 151.093 92.29 147.253 95.71ZM156.793 109.66C156.673 109.9 156.613 110.23 156.613 110.65V111.37C157.273 111.37 157.903 111.37 158.503 111.37C159.103 111.37 159.733 111.31 160.393 111.19C160.333 110.35 160.273 109.51 160.213 108.67C160.213 107.83 160.183 106.99 160.123 106.15C161.683 104.47 163.243 102.85 164.803 101.29C166.423 99.73 168.073 98.17 169.753 96.61C169.753 97.57 169.813 98.5 169.933 99.4C170.113 100.3 170.263 101.23 170.383 102.19C165.943 106.27 161.833 110.65 158.053 115.33H157.603C157.303 115.33 157.003 115.33 156.703 115.33C156.463 115.27 156.193 115.24 155.893 115.24V115.78C155.893 117.16 155.623 118.21 155.083 118.93C154.603 119.65 154.063 120.46 153.463 121.36C152.623 121.36 151.753 121.36 150.853 121.36C150.013 121.42 149.173 121.45 148.333 121.45H147.073C148.633 119.41 150.193 117.43 151.753 115.51C153.373 113.53 155.053 111.58 156.793 109.66ZM146.083 104.08C146.323 103.12 146.473 102.19 146.533 101.29C146.653 100.39 146.773 99.46 146.893 98.5C150.853 95.08 154.453 91.42 157.693 87.52C160.933 83.62 164.143 79.63 167.323 75.55C167.503 76.51 167.653 77.44 167.773 78.34C167.893 79.24 168.013 80.17 168.133 81.13C164.713 85.21 161.173 89.17 157.513 93.01C153.913 96.85 150.103 100.54 146.083 104.08ZM157.603 96.7V97.06C157.603 97.6 157.543 98.14 157.423 98.68C157.363 99.16 157.333 99.67 157.333 100.21C155.233 102.31 153.103 104.44 150.943 106.6C148.783 108.76 146.653 110.92 144.553 113.08C144.853 112 145.063 110.92 145.183 109.84C145.363 108.7 145.543 107.59 145.723 106.51C149.743 102.85 153.613 99.1 157.333 95.26C161.113 91.42 164.743 87.43 168.223 83.29C168.403 84.13 168.523 85 168.583 85.9C168.703 86.8 168.793 87.67 168.853 88.51C167.293 90.13 165.703 91.75 164.083 93.37C162.523 94.93 160.963 96.52 159.403 98.14V97.69C159.403 97.27 159.373 96.94 159.313 96.7H157.603ZM177.449 63.4C177.509 62.86 177.539 62.32 177.539 61.78C177.599 61.18 177.659 60.61 177.719 60.07C178.079 60.19 178.379 60.25 178.619 60.25C178.739 60.25 179.039 60.19 179.519 60.07C179.219 60.67 178.889 61.24 178.529 61.78C178.169 62.32 177.809 62.86 177.449 63.4ZM189.059 120.28C188.879 120.34 188.579 120.37 188.159 120.37C187.739 120.37 187.349 120.34 186.989 120.28C186.629 120.22 186.239 120.19 185.819 120.19C185.399 120.19 185.099 120.22 184.919 120.28C185.579 118.96 186.269 117.7 186.989 116.5C187.769 115.3 188.579 114.1 189.419 112.9C189.299 114.16 189.209 115.42 189.149 116.68C189.149 117.88 189.119 119.08 189.059 120.28ZM177.179 74.83C177.179 73.99 177.179 73.12 177.179 72.22C177.239 71.32 177.299 70.45 177.359 69.61C178.439 68.11 179.429 66.58 180.329 65.02C181.289 63.4 182.249 61.81 183.209 60.25H186.899C185.399 62.77 183.839 65.26 182.219 67.72C180.599 70.18 178.919 72.55 177.179 74.83ZM177.359 83.38C177.299 83.02 177.269 82.66 177.269 82.3C177.269 81.94 177.269 81.58 177.269 81.22V78.97C179.609 76.21 181.769 73.36 183.749 70.42C185.789 67.42 187.769 64.39 189.689 61.33C189.749 61.63 189.779 61.9 189.779 62.14C189.779 62.32 189.779 62.56 189.779 62.86C189.779 63.4 189.749 63.94 189.689 64.48C189.689 65.02 189.689 65.53 189.689 66.01C189.689 66.31 189.689 66.58 189.689 66.82C189.689 67 189.719 67.24 189.779 67.54C187.859 70.3 185.879 73.03 183.839 75.73C181.799 78.37 179.639 80.92 177.359 83.38ZM189.689 104.08C189.689 105.22 189.659 106.36 189.599 107.5C189.539 108.58 189.479 109.66 189.419 110.74C188.279 112.24 187.229 113.8 186.269 115.42C185.369 116.98 184.439 118.6 183.479 120.28C183.299 120.28 183.089 120.28 182.849 120.28C182.669 120.22 182.489 120.19 182.309 120.19C181.649 120.19 180.989 120.22 180.329 120.28C179.729 120.34 179.099 120.37 178.439 120.37H177.809C179.489 117.25 181.289 114.25 183.209 111.37C185.189 108.49 187.349 105.7 189.689 103V104.08ZM177.629 90.67C177.629 89.95 177.599 89.26 177.539 88.6C177.479 87.88 177.449 87.16 177.449 86.44C179.729 84.22 181.859 81.91 183.839 79.51C185.819 77.05 187.799 74.56 189.779 72.04V77.62C187.799 79.9 185.819 82.15 183.839 84.37C181.859 86.53 179.789 88.63 177.629 90.67ZM177.359 97.87C177.359 97.09 177.389 96.34 177.449 95.62C177.509 94.84 177.539 94.06 177.539 93.28C179.639 91.24 181.679 89.17 183.659 87.07C185.639 84.97 187.619 82.84 189.599 80.68V81.58C189.599 82.24 189.569 82.9 189.509 83.56C189.509 84.16 189.509 84.79 189.509 85.45C187.469 87.55 185.429 89.62 183.389 91.66C181.349 93.7 179.339 95.77 177.359 97.87ZM177.089 106.96C177.029 106.66 176.999 106.39 176.999 106.15C176.999 105.91 176.999 105.64 176.999 105.34C176.999 104.5 177.029 103.69 177.089 102.91C177.149 102.13 177.179 101.32 177.179 100.48C179.099 98.32 181.079 96.22 183.119 94.18C185.219 92.08 187.319 89.98 189.419 87.88V90.49C189.419 90.97 189.419 91.42 189.419 91.84C189.419 92.2 189.449 92.59 189.509 93.01C185.009 97.27 180.869 101.92 177.089 106.96ZM176.909 118.75C176.969 117.25 176.999 115.78 176.999 114.34C176.999 112.84 176.999 111.37 176.999 109.93C178.919 107.23 180.899 104.65 182.939 102.19C185.039 99.73 187.229 97.36 189.509 95.08C189.569 95.44 189.599 95.83 189.599 96.25C189.599 96.61 189.599 96.97 189.599 97.33V99.13C189.599 99.43 189.599 99.73 189.599 100.03C189.599 100.27 189.629 100.54 189.689 100.84C187.169 103.54 184.859 106.39 182.759 109.39C180.719 112.39 178.769 115.51 176.909 118.75ZM196.34 61.78C196.34 61.36 196.37 60.97 196.43 60.61C196.49 60.19 196.55 59.77 196.61 59.35C196.91 59.41 197.33 59.44 197.87 59.44C197.63 59.92 197.36 60.4 197.06 60.88C196.82 61.3 196.58 61.75 196.34 62.23V61.78ZM218.12 117.22C218.12 117.88 218.09 118.57 218.03 119.29C218.03 120.01 217.97 120.7 217.85 121.36H217.31C217.01 121.36 216.68 121.33 216.32 121.27C215.96 121.27 215.6 121.27 215.24 121.27C215.72 120.55 216.2 119.86 216.68 119.2C217.16 118.54 217.64 117.88 218.12 117.22ZM195.71 74.83C195.83 73.87 195.89 72.91 195.89 71.95C195.89 70.99 195.92 70.03 195.98 69.07C197.96 66.01 199.79 62.89 201.47 59.71C202.07 59.77 202.64 59.8 203.18 59.8C203.72 59.8 204.29 59.83 204.89 59.89C203.45 62.47 201.98 65.02 200.48 67.54C199.04 70 197.45 72.43 195.71 74.83ZM216.95 111.37C217.55 111.37 218 111.34 218.3 111.28C218.18 112.12 218.12 112.99 218.12 113.89C218.18 114.79 218.18 115.66 218.12 116.5C217.58 117.28 216.98 118.06 216.32 118.84C215.72 119.56 215.15 120.31 214.61 121.09C213.59 121.09 212.57 121.09 211.55 121.09C210.59 121.09 209.6 121.03 208.58 120.91C209.66 119.29 210.77 117.67 211.91 116.05C213.05 114.43 214.28 112.87 215.6 111.37H216.95ZM208.85 111.55C209.75 111.55 210.62 111.52 211.46 111.46C212.36 111.4 213.26 111.37 214.16 111.37C212.96 112.87 211.79 114.4 210.65 115.96C209.57 117.52 208.52 119.17 207.5 120.91C206.48 120.79 205.49 120.76 204.53 120.82C203.63 120.88 202.73 120.82 201.83 120.64C202.85 119.08 203.84 117.52 204.8 115.96C205.76 114.4 206.81 112.93 207.95 111.55H208.85ZM208.49 59.98C208.49 61.06 208.46 62.17 208.4 63.31C208.34 64.39 208.31 65.47 208.31 66.55C206.39 69.61 204.41 72.64 202.37 75.64C200.33 78.58 198.11 81.4 195.71 84.1C195.71 83.56 195.68 83.02 195.62 82.48C195.62 81.94 195.62 81.4 195.62 80.86C195.62 80.56 195.62 80.29 195.62 80.05C195.62 79.81 195.65 79.54 195.71 79.24C198.11 76.3 200.3 73.21 202.28 69.97C204.26 66.73 206.21 63.43 208.13 60.07L208.49 59.98ZM195.98 91.66C195.92 90.94 195.89 90.25 195.89 89.59C195.89 88.87 195.86 88.15 195.8 87.43C198.2 85.03 200.39 82.48 202.37 79.78C204.41 77.08 206.39 74.35 208.31 71.59C208.31 72.61 208.28 73.66 208.22 74.74C208.16 75.76 208.13 76.78 208.13 77.8C206.27 80.32 204.35 82.75 202.37 85.09C200.39 87.37 198.26 89.56 195.98 91.66ZM195.98 95.71V94.18C198.26 92.2 200.39 90.13 202.37 87.97C204.35 85.75 206.27 83.5 208.13 81.22C208.07 82.06 208.04 82.93 208.04 83.83C208.04 84.73 208.01 85.6 207.95 86.44C206.09 88.6 204.14 90.7 202.1 92.74C200.12 94.78 198.08 96.76 195.98 98.68V95.71ZM195.35 119.11C199.13 113.35 203.39 107.92 208.13 102.82C208.13 103.66 208.1 104.5 208.04 105.34C207.98 106.18 207.95 107.02 207.95 107.86C207.95 108.16 207.95 108.46 207.95 108.76C207.95 109 207.98 109.27 208.04 109.57C206.6 111.31 205.25 113.11 203.99 114.97C202.73 116.83 201.5 118.72 200.3 120.64H199.76C199.28 120.64 198.77 120.67 198.23 120.73C197.69 120.73 197.18 120.73 196.7 120.73C196.46 120.73 196.22 120.73 195.98 120.73C195.74 120.73 195.5 120.7 195.26 120.64L195.35 119.11ZM195.62 106.51C195.68 105.67 195.71 104.8 195.71 103.9C195.77 102.94 195.86 102.01 195.98 101.11C198.02 99.07 200.06 97.06 202.1 95.08C204.14 93.1 206.12 91.06 208.04 88.96C207.98 89.74 207.92 90.55 207.86 91.39C207.86 92.17 207.86 92.95 207.86 93.73C203.78 97.93 199.7 102.19 195.62 106.51ZM195.35 116.32C195.35 115.3 195.38 114.28 195.44 113.26C195.5 112.24 195.53 111.19 195.53 110.11V109.03C197.51 106.75 199.52 104.5 201.56 102.28C203.66 100 205.79 97.81 207.95 95.71V96.43C207.95 97.03 207.95 97.63 207.95 98.23C208.01 98.83 208.04 99.46 208.04 100.12V100.93C205.7 103.33 203.48 105.82 201.38 108.4C199.28 110.98 197.27 113.62 195.35 116.32ZM241.346 65.2C241.346 64.18 241.376 63.19 241.436 62.23C241.556 61.27 241.766 60.34 242.066 59.44C242.606 59.44 243.146 59.47 243.686 59.53C244.286 59.53 244.856 59.56 245.396 59.62C244.736 60.58 244.046 61.54 243.326 62.5C242.666 63.4 242.006 64.3 241.346 65.2ZM270.416 108.94C270.236 110.32 269.936 111.64 269.516 112.9C269.156 114.16 268.616 115.3 267.896 116.32C267.176 117.34 266.276 118.24 265.196 119.02C264.116 119.74 262.766 120.22 261.146 120.46C263.846 116.44 266.936 112.6 270.416 108.94ZM258.626 70.69C258.626 69.55 258.146 68.8 257.186 68.44C258.266 67.06 259.286 65.68 260.246 64.3C261.266 62.86 262.286 61.45 263.306 60.07C263.966 60.13 264.536 60.28 265.016 60.52C265.556 60.76 266.096 61.03 266.636 61.33L266.996 61.78C265.616 63.52 264.206 65.26 262.766 67C261.386 68.74 260.006 70.48 258.626 72.22C258.686 72.16 258.716 72.01 258.716 71.77C258.716 71.65 258.686 71.53 258.626 71.41C258.626 71.23 258.626 71.08 258.626 70.96V70.69ZM241.076 72.94C241.076 72.52 241.076 72.13 241.076 71.77C241.076 71.41 241.106 71.02 241.166 70.6C242.666 68.86 244.076 67.09 245.396 65.29C246.776 63.43 248.066 61.54 249.266 59.62H249.806C250.166 59.62 250.526 59.65 250.886 59.71C251.306 59.71 251.696 59.71 252.056 59.71C252.476 59.71 252.776 59.68 252.956 59.62C251.216 62.38 249.356 65.08 247.376 67.72C245.396 70.3 243.296 72.82 241.076 75.28V72.94ZM258.716 80.41C258.716 79.57 258.716 78.73 258.716 77.89C258.716 77.05 258.686 76.21 258.626 75.37C260.306 73.39 261.956 71.44 263.576 69.52C265.256 67.6 266.906 65.62 268.526 63.58C269.426 64.9 270.026 66.28 270.326 67.72C268.406 69.88 266.456 72.01 264.476 74.11C262.556 76.15 260.636 78.25 258.716 80.41ZM253.586 74.11V78.25C251.666 80.47 249.686 82.63 247.646 84.73C245.666 86.77 243.566 88.75 241.346 90.67C241.346 89.95 241.346 89.26 241.346 88.6C241.346 87.88 241.316 87.13 241.256 86.35C243.536 84.37 245.666 82.27 247.646 80.05C249.686 77.77 251.666 75.43 253.586 73.03V74.11ZM258.536 87.79C258.536 86.95 258.536 86.14 258.536 85.36C258.536 84.52 258.566 83.68 258.626 82.84C260.606 80.74 262.586 78.67 264.566 76.63C266.546 74.59 268.556 72.52 270.596 70.42L270.686 71.14C270.686 71.62 270.656 72.16 270.596 72.76C270.596 73.3 270.596 73.84 270.596 74.38C270.596 74.68 270.596 74.95 270.596 75.19C270.596 75.43 270.626 75.7 270.686 76C268.586 77.92 266.546 79.87 264.566 81.85C262.586 83.77 260.576 85.75 258.536 87.79ZM241.346 97.87C241.346 97.09 241.346 96.34 241.346 95.62C241.346 94.84 241.406 94.06 241.526 93.28C243.626 91.36 245.666 89.41 247.646 87.43C249.626 85.39 251.576 83.32 253.496 81.22C253.496 81.7 253.496 82.21 253.496 82.75C253.556 83.29 253.586 83.8 253.586 84.28C253.586 84.58 253.586 84.85 253.586 85.09C253.586 85.27 253.556 85.51 253.496 85.81C251.576 87.91 249.596 89.95 247.556 91.93C245.516 93.91 243.446 95.89 241.346 97.87ZM258.716 94.9C258.656 94.06 258.596 93.19 258.536 92.29C258.536 91.39 258.536 90.52 258.536 89.68C262.436 85.78 266.456 81.94 270.596 78.16C270.656 78.82 270.686 79.48 270.686 80.14C270.686 80.8 270.686 81.46 270.686 82.12V83.74C268.586 85.48 266.546 87.31 264.566 89.23C262.586 91.09 260.636 92.98 258.716 94.9ZM253.586 102.19C253.526 103.39 253.496 104.59 253.496 105.79C253.496 106.99 253.436 108.19 253.316 109.39C251.936 111.25 250.586 113.08 249.266 114.88C248.006 116.62 246.776 118.45 245.576 120.37C244.796 120.49 244.016 120.55 243.236 120.55C242.456 120.49 241.676 120.52 240.896 120.64L240.806 118.39C242.846 115.57 244.916 112.81 247.016 110.11C249.116 107.41 251.306 104.77 253.586 102.19ZM253.586 88.15C253.646 88.45 253.676 88.87 253.676 89.41C253.676 89.71 253.646 90.04 253.586 90.4C253.586 90.76 253.586 91.09 253.586 91.39C253.586 91.93 253.616 92.35 253.676 92.65C251.516 94.81 249.386 97 247.286 99.22C245.186 101.44 243.086 103.69 240.986 105.97C241.046 105.07 241.076 104.14 241.076 103.18C241.136 102.22 241.196 101.29 241.256 100.39C243.296 98.35 245.366 96.34 247.466 94.36C249.566 92.32 251.606 90.25 253.586 88.15ZM258.716 103C258.716 102.34 258.716 101.65 258.716 100.93C258.776 100.21 258.806 99.52 258.806 98.86C258.806 98.5 258.806 98.17 258.806 97.87C258.806 97.51 258.776 97.15 258.716 96.79C260.636 94.87 262.586 92.98 264.566 91.12C266.546 89.26 268.586 87.46 270.686 85.72V91.75C268.586 93.49 266.516 95.29 264.476 97.15C262.496 99.01 260.576 100.96 258.716 103ZM253.766 68.44V68.98C251.846 71.56 249.866 74.05 247.826 76.45C245.786 78.85 243.566 81.13 241.166 83.29C241.106 82.93 241.076 82.6 241.076 82.3C241.076 81.94 241.076 81.58 241.076 81.22V79.06C243.956 76.18 246.626 73.12 249.086 69.88C251.606 66.58 254.006 63.22 256.286 59.8C256.346 59.68 256.466 59.62 256.646 59.62C256.766 59.62 256.886 59.65 257.006 59.71C257.126 59.71 257.246 59.71 257.366 59.71C257.786 59.71 258.176 59.71 258.536 59.71C258.896 59.65 259.286 59.62 259.706 59.62H260.336C259.316 61.12 258.296 62.62 257.276 64.12C256.316 65.56 255.266 67 254.126 68.44H253.766ZM253.766 94.63C253.766 95.53 253.736 96.46 253.676 97.42C253.676 98.32 253.676 99.19 253.676 100.03C251.396 102.55 249.176 105.1 247.016 107.68C244.916 110.2 242.876 112.81 240.896 115.51V114.07C240.896 113.11 240.896 112.18 240.896 111.28C240.956 110.38 240.986 109.42 240.986 108.4C243.026 106.06 245.126 103.75 247.286 101.47C249.446 99.19 251.606 96.91 253.766 94.63ZM260.426 120.46C259.766 120.58 259.106 120.64 258.446 120.64C257.846 120.64 257.216 120.64 256.556 120.64L255.026 120.46C254.906 120.52 254.726 120.55 254.486 120.55H254.036C256.376 116.95 258.896 113.5 261.596 110.2C264.296 106.84 267.266 103.72 270.506 100.84C270.446 102.04 270.416 103.27 270.416 104.53C270.416 105.73 270.386 106.96 270.326 108.22C268.406 110.14 266.636 112.12 265.016 114.16C263.456 116.14 261.926 118.24 260.426 120.46ZM254.126 111.73H255.926C256.586 111.73 257.156 111.52 257.636 111.1C258.176 110.62 258.446 110.02 258.446 109.3V109.12C258.506 108.4 258.536 107.68 258.536 106.96C258.596 106.18 258.656 105.43 258.716 104.71C260.576 102.61 262.496 100.63 264.476 98.77C266.456 96.85 268.526 94.96 270.686 93.1C270.626 93.52 270.596 93.94 270.596 94.36C270.596 94.72 270.596 95.11 270.596 95.53V99.58C267.116 102.64 263.936 105.94 261.056 109.48C258.176 112.96 255.476 116.62 252.956 120.46H249.086C248.726 120.46 248.366 120.46 248.006 120.46C247.646 120.46 247.286 120.49 246.926 120.55C247.946 118.99 248.966 117.46 249.986 115.96C251.066 114.4 252.176 112.87 253.316 111.37L253.226 111.73H254.126ZM304.373 120.46C304.373 120.7 304.343 120.88 304.283 121C304.283 121.18 304.283 121.36 304.283 121.54H303.563L304.373 120.46ZM297.713 93.91C297.653 94.21 297.623 94.6 297.623 95.08V96.16C297.443 96.22 297.203 96.25 296.903 96.25C296.603 96.25 296.333 96.25 296.093 96.25C295.853 96.19 295.613 96.16 295.373 96.16C295.733 95.8 296.093 95.44 296.453 95.08C296.873 94.72 297.293 94.33 297.713 93.91ZM304.913 63.49C304.913 64.33 304.913 65.17 304.913 66.01C304.913 66.79 304.853 67.6 304.733 68.44H302.843C302.543 68.44 302.243 68.44 301.943 68.44C301.643 68.44 301.343 68.38 301.043 68.26C301.703 67.42 302.333 66.61 302.933 65.83C303.593 65.05 304.253 64.27 304.913 63.49ZM277.823 60.25C278.063 59.89 278.303 59.56 278.543 59.26C278.783 58.9 279.023 58.57 279.263 58.27C279.503 58.33 279.863 58.36 280.343 58.36C280.703 58.36 281.063 58.36 281.423 58.36C281.783 58.3 282.143 58.27 282.503 58.27C281.723 59.47 280.883 60.64 279.983 61.78C279.143 62.92 278.303 64.06 277.463 65.2L277.823 60.25ZM304.463 111.55C304.403 112.45 304.403 113.32 304.463 114.16C304.523 115 304.523 115.84 304.463 116.68C304.463 117.46 304.373 118.27 304.193 119.11C304.013 119.95 303.683 120.76 303.203 121.54C302.003 121.48 300.833 121.42 299.693 121.36C298.613 121.36 297.503 121.36 296.363 121.36C298.583 118 301.073 114.76 303.833 111.64L304.463 111.55ZM300.953 58.36C301.313 58.3 301.673 58.27 302.033 58.27C302.453 58.27 303.083 58.24 303.923 58.18L304.913 58.27C304.913 58.87 304.643 59.62 304.103 60.52C303.623 61.36 303.023 62.26 302.303 63.22C301.583 64.12 300.833 65.02 300.053 65.92C299.333 66.82 298.703 67.6 298.163 68.26C297.503 68.26 296.873 68.26 296.273 68.26C295.733 68.2 295.163 68.17 294.563 68.17H293.663C294.923 66.55 296.153 64.93 297.353 63.31C298.553 61.69 299.753 60.04 300.953 58.36ZM277.283 71.95V70.42C279.023 68.5 280.643 66.52 282.143 64.48C283.643 62.44 285.143 60.37 286.643 58.27C287.123 58.27 287.573 58.3 287.993 58.36C288.413 58.42 288.863 58.45 289.343 58.45C289.763 58.45 290.063 58.42 290.243 58.36C288.323 61.36 286.283 64.27 284.123 67.09C282.023 69.85 279.743 72.49 277.283 75.01V71.95ZM289.523 111.73C290.003 111.79 290.453 111.82 290.873 111.82C291.353 111.82 291.833 111.82 292.313 111.82C292.793 111.82 293.243 111.82 293.663 111.82C294.143 111.82 294.623 111.79 295.103 111.73C293.843 113.29 292.643 114.88 291.503 116.5C290.363 118.06 289.253 119.68 288.173 121.36C287.873 121.3 287.543 121.27 287.183 121.27C286.823 121.27 286.463 121.27 286.103 121.27C285.443 121.27 284.753 121.27 284.033 121.27C283.373 121.33 282.713 121.36 282.053 121.36C284.333 117.76 286.883 114.28 289.703 110.92C289.703 111.04 289.673 111.19 289.613 111.37C289.553 111.49 289.523 111.61 289.523 111.73ZM296.273 111.73C297.473 111.67 298.613 111.64 299.693 111.64C300.833 111.64 302.003 111.64 303.203 111.64C301.823 113.2 300.533 114.82 299.333 116.5C298.133 118.12 296.933 119.8 295.733 121.54C295.073 121.48 294.443 121.42 293.843 121.36C293.303 121.36 292.703 121.36 292.043 121.36C291.563 121.36 291.113 121.36 290.693 121.36C290.333 121.42 289.913 121.45 289.433 121.45C290.453 119.71 291.533 118.06 292.673 116.5C293.873 114.94 295.073 113.35 296.273 111.73ZM277.553 90.67C277.433 89.89 277.373 89.17 277.373 88.51C277.433 87.79 277.403 87.07 277.283 86.35C279.563 84.31 281.723 82.21 283.763 80.05C285.863 77.83 287.873 75.55 289.793 73.21V78.43C287.873 80.65 285.893 82.78 283.853 84.82C281.813 86.8 279.713 88.75 277.553 90.67ZM289.703 81.4C289.763 81.58 289.793 81.82 289.793 82.12C289.793 82.42 289.763 82.69 289.703 82.93C289.703 83.11 289.703 83.35 289.703 83.65V84.1C290.003 84.16 290.453 84.19 291.053 84.19H291.593C289.313 86.59 287.003 88.93 284.663 91.21C282.323 93.43 279.923 95.65 277.463 97.87V95.62C277.463 95.26 277.463 94.9 277.463 94.54C277.463 94.12 277.493 93.7 277.553 93.28C279.653 91.36 281.723 89.44 283.763 87.52C285.803 85.54 287.783 83.5 289.703 81.4ZM277.193 120.55V119.02C277.193 118.78 277.193 118.57 277.193 118.39C277.193 118.15 277.163 117.88 277.103 117.58C279.143 114.88 281.213 112.27 283.313 109.75C285.413 107.17 287.543 104.65 289.703 102.19C289.703 103.33 289.703 104.47 289.703 105.61C289.703 106.75 289.673 107.89 289.613 109.03C287.993 111.07 286.433 113.11 284.933 115.15C283.433 117.19 281.933 119.26 280.433 121.36C280.253 121.42 280.013 121.45 279.713 121.45H277.193V120.55ZM277.283 82.21V78.79C280.463 75.73 283.343 72.49 285.923 69.07C288.563 65.59 291.113 62.05 293.573 58.45C293.813 58.39 294.173 58.36 294.653 58.36C294.953 58.36 295.253 58.39 295.553 58.45C295.913 58.45 296.243 58.45 296.543 58.45C297.023 58.45 297.383 58.42 297.623 58.36C296.483 60.1 295.343 61.75 294.203 63.31C293.063 64.87 291.893 66.46 290.693 68.08H289.973C289.973 68.26 289.943 68.44 289.883 68.62C289.883 68.74 289.883 68.92 289.883 69.16C287.963 71.68 285.953 74.11 283.853 76.45C281.813 78.79 279.623 81.01 277.283 83.11V82.21ZM277.283 105.88C277.283 105.22 277.313 104.53 277.373 103.81C277.433 103.09 277.463 102.4 277.463 101.74C277.463 101.5 277.433 101.29 277.373 101.11C277.373 100.87 277.373 100.63 277.373 100.39C280.193 97.69 282.953 94.99 285.653 92.29C288.413 89.59 291.143 86.83 293.843 84.01C294.143 84.01 294.413 84.04 294.653 84.1C294.953 84.1 295.343 84.1 295.823 84.1L297.533 84.01V85C294.113 88.54 290.693 92.02 287.273 95.44C283.913 98.8 280.583 102.28 277.283 105.88ZM297.623 86.98C297.563 87.46 297.533 87.91 297.533 88.33C297.533 88.69 297.533 89.11 297.533 89.59V92.2C296.873 92.86 296.213 93.55 295.553 94.27C294.893 94.93 294.233 95.62 293.573 96.34C292.913 96.22 292.253 96.19 291.593 96.25C290.993 96.25 290.363 96.22 289.703 96.16V100.21C287.483 102.61 285.323 105.04 283.223 107.5C281.183 109.9 279.143 112.36 277.103 114.88C277.103 114.04 277.133 113.2 277.193 112.36C277.253 111.46 277.283 110.59 277.283 109.75C277.283 109.45 277.253 109.18 277.193 108.94C277.193 108.64 277.193 108.34 277.193 108.04C280.493 104.38 283.853 100.84 287.273 97.42C290.693 93.94 294.143 90.46 297.623 86.98ZM327.858 120.28C327.438 120.22 327.048 120.19 326.688 120.19C326.328 120.13 325.938 120.07 325.518 120.01C326.178 118.93 326.838 117.82 327.498 116.68C328.158 115.54 328.848 114.46 329.568 113.44C329.268 114.58 328.938 115.72 328.578 116.86C328.278 117.94 328.038 119.08 327.858 120.28ZM325.158 66.1C325.338 64.84 325.548 63.49 325.788 62.05C326.028 60.61 326.448 59.29 327.048 58.09H331.188C330.168 59.47 329.178 60.82 328.218 62.14C327.258 63.46 326.238 64.78 325.158 66.1ZM309.318 66.37C309.258 65.71 309.138 65.11 308.958 64.57C308.838 63.97 308.778 63.34 308.778 62.68C309.378 61.9 310.008 61.15 310.668 60.43C311.388 59.71 312.018 58.93 312.558 58.09C312.738 58.15 312.918 58.18 313.098 58.18C313.338 58.18 313.548 58.18 313.728 58.18C314.148 58.18 314.538 58.18 314.898 58.18C315.258 58.12 315.648 58.09 316.068 58.09C315.048 59.47 313.968 60.88 312.828 62.32C311.748 63.7 310.578 65.05 309.318 66.37ZM310.398 73.93C310.338 73.27 310.248 72.67 310.128 72.13C310.068 71.59 309.978 71.02 309.858 70.42C311.778 68.56 313.578 66.58 315.258 64.48C316.938 62.38 318.558 60.25 320.118 58.09H320.748V58.54C320.748 59.08 320.778 59.62 320.838 60.16C320.958 60.64 321.078 61.12 321.198 61.6C319.578 63.82 317.868 65.98 316.068 68.08C314.268 70.12 312.378 72.07 310.398 73.93ZM321.738 65.38C321.858 66.1 321.948 66.82 322.008 67.54C322.068 68.26 322.158 68.95 322.278 69.61C320.658 71.65 318.918 73.6 317.058 75.46C315.258 77.26 313.398 79 311.478 80.68C311.418 80.08 311.328 79.51 311.208 78.97C311.088 78.37 310.968 77.77 310.848 77.17C312.888 75.43 314.808 73.57 316.608 71.59C318.408 69.55 320.118 67.48 321.738 65.38ZM322.728 72.76C322.848 73.48 322.938 74.17 322.998 74.83C323.118 75.49 323.238 76.15 323.358 76.81C321.618 78.55 319.848 80.29 318.048 82.03C316.248 83.77 314.418 85.48 312.558 87.16C312.438 86.5 312.348 85.87 312.288 85.27C312.228 84.67 312.138 84.04 312.018 83.38C313.938 81.7 315.798 79.99 317.598 78.25C319.398 76.51 321.108 74.68 322.728 72.76ZM323.718 76.36C323.898 75.4 324.048 74.47 324.168 73.57C324.288 72.61 324.408 71.65 324.528 70.69C326.268 68.59 327.978 66.52 329.658 64.48C331.338 62.38 332.988 60.25 334.608 58.09C334.848 58.15 335.178 58.18 335.598 58.18C336.018 58.18 336.378 58.18 336.678 58.18C337.038 58.12 337.428 58.09 337.848 58.09H338.568L338.298 59.53C335.898 62.41 333.498 65.26 331.098 68.08C328.758 70.9 326.298 73.66 323.718 76.36ZM324.438 120.01C323.778 119.95 323.088 119.89 322.368 119.83C321.708 119.77 321.048 119.74 320.388 119.74C320.088 119.74 319.818 119.74 319.578 119.74C319.338 119.74 319.068 119.77 318.768 119.83C320.748 116.23 322.848 112.75 325.068 109.39C327.348 106.03 329.838 102.76 332.538 99.58C332.178 101.5 331.758 103.39 331.278 105.25C330.858 107.05 330.468 108.91 330.108 110.83C329.148 112.39 328.188 113.92 327.228 115.42C326.268 116.86 325.338 118.39 324.438 120.01ZM316.878 119.74C316.758 118.48 316.578 117.25 316.338 116.05C316.158 114.79 315.978 113.53 315.798 112.27C318.558 108.25 321.408 104.35 324.348 100.57C327.288 96.73 330.558 93.13 334.158 89.77C333.978 91.03 333.798 92.29 333.618 93.55C333.498 94.81 333.288 96.1 332.988 97.42C329.868 100.84 327.018 104.44 324.438 108.22C321.858 111.94 319.428 115.78 317.148 119.74H316.878ZM315.528 109.93C315.408 108.85 315.258 107.8 315.078 106.78C314.958 105.7 314.808 104.62 314.628 103.54C317.748 99.58 320.988 95.74 324.348 92.02C327.768 88.3 331.368 84.73 335.148 81.31C335.028 82.39 334.878 83.47 334.698 84.55C334.578 85.57 334.458 86.59 334.338 87.61C330.678 90.97 327.318 94.51 324.258 98.23C321.198 101.95 318.288 105.85 315.528 109.93ZM314.358 101.11C314.178 100.27 314.028 99.4 313.908 98.5C313.848 97.6 313.758 96.73 313.638 95.89C317.358 91.93 321.108 88.09 324.888 84.37C328.668 80.59 332.448 76.75 336.228 72.85C336.108 73.87 335.958 74.89 335.778 75.91C335.658 76.93 335.538 77.95 335.418 78.97C327.918 85.93 320.898 93.31 314.358 101.11ZM313.458 93.64C313.398 92.92 313.278 92.23 313.098 91.57C312.978 90.91 312.918 90.22 312.918 89.5C317.418 85.48 321.678 81.28 325.698 76.9C329.778 72.52 333.798 68.08 337.758 63.58C337.638 64.66 337.488 65.74 337.308 66.82C337.128 67.84 336.978 68.86 336.858 69.88C333.018 73.9 329.148 77.89 325.248 81.85C321.348 85.75 317.418 89.68 313.458 93.64Z" fill="white"/>
</svg>
