<svg width="400" height="225" viewBox="0 0 400 225" fill="none" xmlns="http://www.w3.org/2000/svg">
<rect x="365.5" y="78.5" width="13" height="13" stroke="#8B8B8B" stroke-width="3"/>
<path d="M356.75 100.861L344 93.5L356.75 86.1388L356.75 100.861Z" stroke="#8B8B8B" stroke-width="3"/>
<circle cx="372" cy="105" r="6.5" stroke="#8B8B8B" stroke-width="3"/>
<path d="M103.18 131.944C103.18 132.957 102.812 133.747 102.076 134.312C101.34 134.877 100.348 135.16 99.1004 135.16C98.4604 135.16 97.8684 135.112 97.3244 135.016C96.7804 134.92 96.3271 134.787 95.9644 134.616V133.24C96.3484 133.411 96.8231 133.565 97.3884 133.704C97.9644 133.843 98.5564 133.912 99.1644 133.912C100.018 133.912 100.658 133.747 101.084 133.416C101.522 133.085 101.74 132.637 101.74 132.072C101.74 131.699 101.66 131.384 101.5 131.128C101.34 130.872 101.063 130.637 100.668 130.424C100.284 130.2 99.7458 129.965 99.0524 129.72C98.0818 129.368 97.3458 128.936 96.8444 128.424C96.3538 127.912 96.1084 127.213 96.1084 126.328C96.1084 125.72 96.2631 125.203 96.5724 124.776C96.8818 124.339 97.3084 124.003 97.8524 123.768C98.4071 123.533 99.0418 123.416 99.7564 123.416C100.386 123.416 100.962 123.475 101.484 123.592C102.007 123.709 102.482 123.864 102.908 124.056L102.46 125.288C102.066 125.117 101.634 124.973 101.164 124.856C100.706 124.739 100.226 124.68 99.7244 124.68C99.0098 124.68 98.4711 124.835 98.1084 125.144C97.7458 125.443 97.5644 125.843 97.5644 126.344C97.5644 126.728 97.6444 127.048 97.8044 127.304C97.9644 127.56 98.2258 127.789 98.5884 127.992C98.9511 128.195 99.4418 128.413 100.06 128.648C100.732 128.893 101.298 129.16 101.756 129.448C102.226 129.725 102.578 130.061 102.812 130.456C103.058 130.851 103.18 131.347 103.18 131.944ZM111.866 135H105.482V123.576H111.866V124.84H106.922V128.408H111.578V129.656H106.922V133.736H111.866V135ZM121.54 135L120.164 131.464H115.636L114.276 135H112.82L117.284 123.528H118.58L123.028 135H121.54ZM118.452 126.728C118.42 126.643 118.367 126.488 118.292 126.264C118.218 126.04 118.143 125.811 118.068 125.576C118.004 125.331 117.951 125.144 117.908 125.016C117.834 125.347 117.748 125.672 117.652 125.992C117.556 126.301 117.476 126.547 117.412 126.728L116.116 130.184H119.732L118.452 126.728ZM127.743 123.576C129.162 123.576 130.207 123.848 130.879 124.392C131.562 124.925 131.903 125.736 131.903 126.824C131.903 127.432 131.791 127.939 131.567 128.344C131.343 128.749 131.055 129.075 130.703 129.32C130.362 129.555 129.999 129.741 129.615 129.88L132.751 135H131.071L128.303 130.28H126.031V135H124.591V123.576H127.743ZM127.663 124.824H126.031V129.064H127.743C128.671 129.064 129.348 128.883 129.775 128.52C130.202 128.147 130.415 127.603 130.415 126.888C130.415 126.141 130.191 125.613 129.743 125.304C129.295 124.984 128.602 124.824 127.663 124.824ZM139.44 124.68C138.214 124.68 137.248 125.091 136.544 125.912C135.84 126.733 135.488 127.859 135.488 129.288C135.488 130.707 135.814 131.832 136.464 132.664C137.126 133.485 138.112 133.896 139.424 133.896C139.926 133.896 140.4 133.853 140.848 133.768C141.296 133.683 141.734 133.576 142.16 133.448V134.696C141.734 134.856 141.291 134.973 140.832 135.048C140.384 135.123 139.846 135.16 139.216 135.16C138.054 135.16 137.083 134.92 136.304 134.44C135.526 133.96 134.939 133.277 134.544 132.392C134.16 131.507 133.968 130.467 133.968 129.272C133.968 128.12 134.176 127.107 134.592 126.232C135.019 125.347 135.643 124.659 136.464 124.168C137.286 123.667 138.283 123.416 139.456 123.416C140.662 123.416 141.712 123.64 142.608 124.088L142.032 125.304C141.68 125.144 141.286 125 140.848 124.872C140.422 124.744 139.952 124.68 139.44 124.68ZM153.39 135H151.95V129.672H146.094V135H144.654V123.576H146.094V128.408H151.95V123.576H153.39V135ZM171.712 135L170.336 131.464H165.808L164.448 135H162.992L167.456 123.528H168.752L173.2 135H171.712ZM168.624 126.728C168.592 126.643 168.539 126.488 168.464 126.264C168.39 126.04 168.315 125.811 168.24 125.576C168.176 125.331 168.123 125.144 168.08 125.016C168.006 125.347 167.92 125.672 167.824 125.992C167.728 126.301 167.648 126.547 167.584 126.728L166.288 130.184H169.904L168.624 126.728ZM183.819 135H182.139L176.027 125.512H175.963C175.984 125.885 176.011 126.349 176.043 126.904C176.075 127.459 176.091 128.029 176.091 128.616V135H174.763V123.576H176.427L182.523 133.032H182.587C182.576 132.861 182.56 132.605 182.539 132.264C182.528 131.923 182.512 131.549 182.491 131.144C182.48 130.739 182.475 130.365 182.475 130.024V123.576H183.819V135ZM189.895 129.192L192.871 123.576H194.423L190.615 130.568V135H189.175V130.632L185.367 123.576H186.935L189.895 129.192ZM212.061 123.576L207.981 135H206.541L202.461 123.576H203.965L206.541 130.904C206.712 131.373 206.856 131.816 206.973 132.232C207.09 132.637 207.186 133.027 207.261 133.4C207.336 133.027 207.432 132.632 207.549 132.216C207.666 131.8 207.81 131.352 207.981 130.872L210.541 123.576H212.061ZM216.823 135H212.695V134.168L214.039 133.864V124.728L212.695 124.408V123.576H216.823V124.408L215.479 124.728V133.864L216.823 134.168V135ZM228.181 129.176C228.181 131.107 227.653 132.563 226.597 133.544C225.551 134.515 224.09 135 222.213 135H219.029V123.576H222.549C223.701 123.576 224.698 123.789 225.541 124.216C226.383 124.643 227.034 125.272 227.493 126.104C227.951 126.925 228.181 127.949 228.181 129.176ZM226.661 129.224C226.661 127.699 226.282 126.584 225.525 125.88C224.778 125.165 223.717 124.808 222.341 124.808H220.469V133.768H222.021C225.114 133.768 226.661 132.253 226.661 129.224ZM237.1 135H230.716V123.576H237.1V124.84H232.156V128.408H236.812V129.656H232.156V133.736H237.1V135ZM249.575 129.272C249.575 130.456 249.372 131.491 248.967 132.376C248.572 133.251 247.985 133.933 247.207 134.424C246.428 134.915 245.463 135.16 244.311 135.16C243.127 135.16 242.14 134.915 241.351 134.424C240.572 133.933 239.991 133.245 239.607 132.36C239.223 131.475 239.031 130.44 239.031 129.256C239.031 128.083 239.223 127.059 239.607 126.184C239.991 125.309 240.572 124.627 241.351 124.136C242.14 123.645 243.132 123.4 244.327 123.4C245.468 123.4 246.428 123.645 247.207 124.136C247.985 124.616 248.572 125.299 248.967 126.184C249.372 127.059 249.575 128.088 249.575 129.272ZM240.551 129.272C240.551 130.712 240.855 131.848 241.463 132.68C242.071 133.501 243.02 133.912 244.311 133.912C245.612 133.912 246.561 133.501 247.159 132.68C247.756 131.848 248.055 130.712 248.055 129.272C248.055 127.832 247.756 126.707 247.159 125.896C246.561 125.075 245.617 124.664 244.327 124.664C243.036 124.664 242.081 125.075 241.463 125.896C240.855 126.707 240.551 127.832 240.551 129.272ZM265.098 128.968H269.05V134.568C268.431 134.771 267.807 134.92 267.178 135.016C266.549 135.112 265.834 135.16 265.034 135.16C263.85 135.16 262.853 134.925 262.042 134.456C261.231 133.976 260.613 133.299 260.186 132.424C259.77 131.539 259.562 130.493 259.562 129.288C259.562 128.093 259.797 127.059 260.266 126.184C260.735 125.309 261.407 124.632 262.282 124.152C263.167 123.661 264.234 123.416 265.482 123.416C266.122 123.416 266.725 123.475 267.29 123.592C267.866 123.709 268.399 123.875 268.89 124.088L268.346 125.336C267.941 125.155 267.482 125 266.97 124.872C266.469 124.744 265.946 124.68 265.402 124.68C264.037 124.68 262.97 125.091 262.202 125.912C261.445 126.733 261.066 127.859 261.066 129.288C261.066 130.195 261.21 131 261.498 131.704C261.797 132.397 262.261 132.941 262.89 133.336C263.519 133.72 264.346 133.912 265.37 133.912C265.871 133.912 266.298 133.885 266.65 133.832C267.002 133.779 267.322 133.715 267.61 133.64V130.248H265.098V128.968ZM278.947 135L277.571 131.464H273.043L271.683 135H270.227L274.691 123.528H275.987L280.435 135H278.947ZM275.859 126.728C275.827 126.643 275.773 126.488 275.699 126.264C275.624 126.04 275.549 125.811 275.475 125.576C275.411 125.331 275.357 125.144 275.315 125.016C275.24 125.347 275.155 125.672 275.059 125.992C274.963 126.301 274.883 126.547 274.819 126.728L273.523 130.184H277.139L275.859 126.728ZM287.037 135L283.277 124.984H283.213C283.245 125.315 283.272 125.763 283.293 126.328C283.315 126.883 283.325 127.464 283.325 128.072V135H281.997V123.576H284.125L287.645 132.936H287.709L291.293 123.576H293.405V135H291.981V127.976C291.981 127.421 291.992 126.872 292.013 126.328C292.045 125.784 292.072 125.341 292.093 125H292.029L288.221 135H287.037ZM302.897 135H296.513V123.576H302.897V124.84H297.953V128.408H302.609V129.656H297.953V133.736H302.897V135ZM126.642 154L125.266 150.464H120.738L119.378 154H117.922L122.386 142.528H123.682L128.13 154H126.642ZM123.554 145.728C123.522 145.643 123.469 145.488 123.394 145.264C123.319 145.04 123.245 144.811 123.17 144.576C123.106 144.331 123.053 144.144 123.01 144.016C122.935 144.347 122.85 144.672 122.754 144.992C122.658 145.301 122.578 145.547 122.514 145.728L121.218 149.184H124.834L123.554 145.728ZM138.749 154H137.069L130.957 144.512H130.893C130.914 144.885 130.941 145.349 130.973 145.904C131.005 146.459 131.021 147.029 131.021 147.616V154H129.693V142.576H131.357L137.453 152.032H137.517C137.506 151.861 137.49 151.605 137.469 151.264C137.458 150.923 137.442 150.549 137.421 150.144C137.41 149.739 137.405 149.365 137.405 149.024V142.576H138.749V154ZM151.001 148.176C151.001 150.107 150.473 151.563 149.417 152.544C148.372 153.515 146.91 154 145.033 154H141.849V142.576H145.369C146.521 142.576 147.518 142.789 148.361 143.216C149.204 143.643 149.854 144.272 150.313 145.104C150.772 145.925 151.001 146.949 151.001 148.176ZM149.481 148.224C149.481 146.699 149.102 145.584 148.345 144.88C147.598 144.165 146.537 143.808 145.161 143.808H143.289V152.768H144.841C147.934 152.768 149.481 151.253 149.481 148.224ZM164.832 142.576C166.261 142.576 167.338 142.789 168.064 143.216C168.8 143.632 169.168 144.363 169.168 145.408C169.168 146.08 168.981 146.64 168.608 147.088C168.234 147.525 167.696 147.808 166.992 147.936V148.016C167.472 148.091 167.904 148.229 168.288 148.432C168.682 148.635 168.992 148.923 169.216 149.296C169.44 149.669 169.552 150.155 169.552 150.752C169.552 151.787 169.194 152.587 168.48 153.152C167.776 153.717 166.81 154 165.584 154H161.568V142.576H164.832ZM165.12 147.44C166.101 147.44 166.773 147.285 167.136 146.976C167.498 146.656 167.68 146.187 167.68 145.568C167.68 144.939 167.456 144.491 167.008 144.224C166.57 143.947 165.866 143.808 164.896 143.808H163.008V147.44H165.12ZM163.008 148.64V152.784H165.312C166.325 152.784 167.029 152.587 167.424 152.192C167.818 151.797 168.016 151.28 168.016 150.64C168.016 150.043 167.808 149.563 167.392 149.2C166.986 148.827 166.256 148.64 165.2 148.64H163.008ZM180.662 149.968C180.662 150.757 180.502 151.472 180.182 152.112C179.862 152.741 179.371 153.243 178.71 153.616C178.059 153.979 177.227 154.16 176.214 154.16C174.795 154.16 173.713 153.776 172.966 153.008C172.23 152.229 171.862 151.205 171.862 149.936V142.576H173.302V149.984C173.302 150.912 173.547 151.632 174.038 152.144C174.539 152.656 175.291 152.912 176.294 152.912C177.329 152.912 178.075 152.64 178.534 152.096C179.003 151.541 179.238 150.832 179.238 149.968V142.576H180.662V149.968ZM186.653 148.192L189.629 142.576H191.181L187.373 149.568V154H185.933V149.632L182.125 142.576H183.693L186.653 148.192ZM203.987 154H199.859V153.168L201.203 152.864V143.728L199.859 143.408V142.576H203.987V143.408L202.643 143.728V152.864L203.987 153.168V154ZM209.809 154H208.369V143.84H204.801V142.576H213.361V143.84H209.809V154ZM233.083 148.272C233.083 149.456 232.88 150.491 232.475 151.376C232.08 152.251 231.493 152.933 230.715 153.424C229.936 153.915 228.971 154.16 227.819 154.16C226.635 154.16 225.648 153.915 224.859 153.424C224.08 152.933 223.499 152.245 223.115 151.36C222.731 150.475 222.539 149.44 222.539 148.256C222.539 147.083 222.731 146.059 223.115 145.184C223.499 144.309 224.08 143.627 224.859 143.136C225.648 142.645 226.64 142.4 227.835 142.4C228.976 142.4 229.936 142.645 230.715 143.136C231.493 143.616 232.08 144.299 232.475 145.184C232.88 146.059 233.083 147.088 233.083 148.272ZM224.059 148.272C224.059 149.712 224.363 150.848 224.971 151.68C225.579 152.501 226.528 152.912 227.819 152.912C229.12 152.912 230.069 152.501 230.667 151.68C231.264 150.848 231.562 149.712 231.562 148.272C231.562 146.832 231.264 145.707 230.667 144.896C230.069 144.075 229.125 143.664 227.835 143.664C226.544 143.664 225.589 144.075 224.971 144.896C224.363 145.707 224.059 146.832 224.059 148.272ZM244.671 154H242.991L236.879 144.512H236.815C236.836 144.885 236.863 145.349 236.895 145.904C236.927 146.459 236.943 147.029 236.943 147.616V154H235.615V142.576H237.279L243.375 152.032H243.439C243.428 151.861 243.412 151.605 243.391 151.264C243.38 150.923 243.364 150.549 243.343 150.144C243.332 149.739 243.327 149.365 243.327 149.024V142.576H244.671V154ZM247.771 154V142.576H249.211V152.72H254.203V154H247.771ZM259.377 154H255.249V153.168L256.593 152.864V143.728L255.249 143.408V142.576H259.377V143.408L258.033 143.728V152.864L259.377 153.168V154ZM270.639 154H268.959L262.847 144.512H262.783C262.805 144.885 262.831 145.349 262.863 145.904C262.895 146.459 262.911 147.029 262.911 147.616V154H261.583V142.576H263.247L269.343 152.032H269.407C269.397 151.861 269.381 151.605 269.359 151.264C269.349 150.923 269.333 150.549 269.311 150.144C269.301 149.739 269.295 149.365 269.295 149.024V142.576H270.639V154ZM280.124 154H273.74V142.576H280.124V143.84H275.18V147.408H279.836V148.656H275.18V152.736H280.124V154Z" fill="#8B8B8B"/>
<path d="M29.1836 101.852H51.1562V97.8281H36.2734C35.388 97.8281 34.9453 97.2357 34.9453 96.0508V92.4766C34.9453 91.2786 35.388 90.6797 36.2734 90.6797H53.7539C54.6393 90.6797 55.082 91.2786 55.082 92.4766C55.082 94.1172 55.1016 96.5716 55.1406 99.8398C55.1797 103.108 55.1992 105.562 55.1992 107.203C55.1992 108.401 54.7565 109 53.8711 109H24.8672C24.5156 109 24.1836 108.857 23.8711 108.57C23.5716 108.284 23.4219 107.965 23.4219 107.613V79.0391C23.4219 78.1667 23.9036 77.7305 24.8672 77.7305L53.8711 77.7695C54.7565 77.7695 55.1992 78.362 55.1992 79.5469C55.1992 80.6667 55.1927 81.7799 55.1797 82.8867L55.1602 86.1875C55.1602 87.0599 54.8281 87.4961 54.1641 87.4961H52.1719C51.4948 87.4961 51.1562 87.0599 51.1562 86.1875V84.918H29.1836V101.852ZM68.207 101.969H87.2305L80.0234 84.293C79.7109 83.8503 78.8776 83.6289 77.5234 83.6289C76.1823 83.6289 75.3555 83.8568 75.043 84.3125L68.207 101.969ZM60.9609 109C60.3359 109 59.9323 108.714 59.75 108.141C59.5677 107.568 59.6133 106.956 59.8867 106.305L70.9805 79.1367C71.332 78.2643 71.8919 77.8281 72.6602 77.8281H80.8047C81.5599 77.8281 82.1198 78.2643 82.4844 79.1367L93.5391 106.168C93.7995 106.819 93.8646 107.457 93.7344 108.082C93.6042 108.694 93.2266 109 92.6016 109H60.9609ZM98.832 77.7891L126.684 77.9258C127.66 77.9258 128.461 78.3685 129.086 79.2539C130.557 81.2721 132.751 84.3255 135.668 88.4141C136.241 89.2344 136.527 90.2956 136.527 91.5977V107.438C136.527 108.466 136.195 108.98 135.531 108.98H132.621C131.957 108.98 131.625 108.466 131.625 107.438V92.418L126.137 85.0742L116.234 85.0547L118.598 88.4141C119.171 89.2344 119.457 90.2956 119.457 91.5977V107.438C119.457 108.466 119.125 108.98 118.461 108.98H115.551C114.887 108.98 114.555 108.466 114.555 107.438V92.418L109.066 85.0742L103.148 85.0547V107.652C103.148 108.538 102.667 108.98 101.703 108.98H98.832C97.8815 108.98 97.4062 108.538 97.4062 107.652V79.0977C97.4062 78.2253 97.8815 77.7891 98.832 77.7891ZM146.664 90.7578H171.312C172.198 90.7578 172.641 91.3503 172.641 92.5352V96.1289C172.641 97.3138 172.198 97.9062 171.312 97.9062H146.664V99.8203H146.645V101.852H171.312C172.198 101.852 172.641 102.444 172.641 103.629V107.203C172.641 108.401 172.198 109 171.312 109H142.309C141.423 109 140.98 108.401 140.98 107.203V79.7031C140.98 78.5052 141.423 77.9062 142.309 77.9062H171.312C172.198 77.9062 172.641 78.5052 172.641 79.7031V83.2773C172.641 84.4622 172.198 85.0547 171.312 85.0547H146.664V90.7578ZM229.594 77.7109C230.258 77.7109 230.59 78.1471 230.59 79.0195V97.125C230.59 98.2448 230.238 99.2279 229.535 100.074L226.371 103.902C225.395 105.074 224.327 106.337 223.168 107.691C222.426 108.564 221.43 109 220.18 109H197.973C197.009 109 196.527 108.564 196.527 107.691V79.1172C196.527 78.2448 197.009 77.8086 197.973 77.8086L229.594 77.7109ZM202.27 84.8594V101.852H219.867L226.586 94.0586V84.8594H202.27ZM267.172 77.7305C268.031 77.7305 268.591 77.7891 268.852 77.9062C269.307 78.1146 269.535 78.5898 269.535 79.332V107.379C269.535 107.848 269.32 108.238 268.891 108.551C268.513 108.824 268.077 108.961 267.582 108.961L236.898 109C235.948 109 235.473 108.564 235.473 107.691V78.9805C235.473 78.1081 235.948 77.6719 236.898 77.6719L267.172 77.7305ZM241.215 84.8398V101.812H265.531V84.8398H241.215ZM280.844 101.871H305.531C306.43 101.871 306.879 102.464 306.879 103.648V107.223C306.879 108.408 306.43 109 305.531 109H276.527C276.189 109 275.863 108.857 275.551 108.57C275.251 108.284 275.102 107.971 275.102 107.633V79.0586C275.102 78.1862 275.583 77.75 276.547 77.75L305.531 77.7891C306.43 77.7891 306.879 78.3815 306.879 79.5664C306.879 80.6862 306.872 81.7995 306.859 82.9062L306.84 86.207C306.84 87.0794 306.508 87.5156 305.844 87.5156H303.832C303.168 87.5156 302.836 87.0794 302.836 86.207V84.9375H280.844V101.871ZM312.543 77.8086H315.414C316.378 77.8086 316.859 78.2448 316.859 79.1172V90.7578H326.566L339.691 79.1172C340.173 78.6875 340.772 78.349 341.488 78.1016C341.632 78.0625 341.775 78.043 341.918 78.043C342.478 78.043 343.025 78.4141 343.559 79.1562C344.223 80.0807 344.561 80.7122 344.574 81.0508C344.587 81.3763 344.294 81.806 343.695 82.3398C341.208 84.5273 337.517 87.8411 332.621 92.2812C331.957 92.9062 331.625 93.5117 331.625 94.0977C331.625 94.7096 331.99 95.3151 332.719 95.9141L343.695 104.918C344.229 105.465 344.509 105.914 344.535 106.266C344.548 106.708 344.242 107.275 343.617 107.965C342.992 108.655 342.452 108.98 341.996 108.941C341.501 108.915 341 108.714 340.492 108.336L326.566 97.9062H316.859V107.691C316.859 108.564 316.378 109 315.414 109H312.543C311.579 109 311.098 108.564 311.098 107.691V79.1172C311.098 78.2448 311.579 77.8086 312.543 77.8086Z" fill="#8B8B8B"/>
</svg>
