<svg width="400" height="225" viewBox="0 0 400 225" fill="none" xmlns="http://www.w3.org/2000/svg">
<path d="M59.6606 130.272C59.6606 131.456 59.458 132.491 59.0526 133.376C58.658 134.251 58.0713 134.933 57.2926 135.424C56.514 135.915 55.5486 136.16 54.3966 136.16C53.2126 136.16 52.226 135.915 51.4366 135.424C50.658 134.933 50.0766 134.245 49.6926 133.36C49.3086 132.475 49.1166 131.44 49.1166 130.256C49.1166 129.083 49.3086 128.059 49.6926 127.184C50.0766 126.309 50.658 125.627 51.4366 125.136C52.226 124.645 53.218 124.4 54.4126 124.4C55.554 124.4 56.514 124.645 57.2926 125.136C58.0713 125.616 58.658 126.299 59.0526 127.184C59.458 128.059 59.6606 129.088 59.6606 130.272ZM50.6366 130.272C50.6366 131.712 50.9406 132.848 51.5486 133.68C52.1566 134.501 53.106 134.912 54.3966 134.912C55.698 134.912 56.6473 134.501 57.2446 133.68C57.842 132.848 58.1406 131.712 58.1406 130.272C58.1406 128.832 57.842 127.707 57.2446 126.896C56.6473 126.075 55.7033 125.664 54.4126 125.664C53.122 125.664 52.1673 126.075 51.5486 126.896C50.9406 127.707 50.6366 128.832 50.6366 130.272ZM63.6326 136H62.1926V124.576H68.5766V125.84H63.6326V129.888H68.2726V131.152H63.6326V136ZM71.9295 136H70.4895V124.576H76.8735V125.84H71.9295V129.888H76.5695V131.152H71.9295V136ZM82.0024 136H77.8744V135.168L79.2184 134.864V125.728L77.8744 125.408V124.576H82.0024V125.408L80.6584 125.728V134.864L82.0024 135.168V136ZM89.1043 125.68C87.8776 125.68 86.9123 126.091 86.2083 126.912C85.5043 127.733 85.1523 128.859 85.1523 130.288C85.1523 131.707 85.4776 132.832 86.1283 133.664C86.7896 134.485 87.7763 134.896 89.0883 134.896C89.5896 134.896 90.0643 134.853 90.5123 134.768C90.9603 134.683 91.3976 134.576 91.8243 134.448V135.696C91.3976 135.856 90.9549 135.973 90.4963 136.048C90.0483 136.123 89.5096 136.16 88.8803 136.16C87.7176 136.16 86.7469 135.92 85.9683 135.44C85.1896 134.96 84.6029 134.277 84.2083 133.392C83.8243 132.507 83.6323 131.467 83.6323 130.272C83.6323 129.12 83.8403 128.107 84.2563 127.232C84.6829 126.347 85.3069 125.659 86.1283 125.168C86.9496 124.667 87.9469 124.416 89.1203 124.416C90.3256 124.416 91.3763 124.64 92.2723 125.088L91.6962 126.304C91.3443 126.144 90.9496 126 90.5123 125.872C90.0856 125.744 89.6163 125.68 89.1043 125.68ZM97.5336 136H93.4056V135.168L94.7496 134.864V125.728L93.4056 125.408V124.576H97.5336V125.408L96.1896 125.728V134.864L97.5336 135.168V136ZM106.908 136L105.532 132.464H101.004L99.6435 136H98.1875L102.652 124.528H103.948L108.396 136H106.908ZM103.82 127.728C103.788 127.643 103.734 127.488 103.66 127.264C103.585 127.04 103.51 126.811 103.436 126.576C103.372 126.331 103.318 126.144 103.276 126.016C103.201 126.347 103.116 126.672 103.02 126.992C102.924 127.301 102.844 127.547 102.78 127.728L101.484 131.184H105.1L103.82 127.728ZM109.958 136V124.576H111.398V134.72H116.39V136H109.958ZM139.5 124.576L136.46 136H135.004L132.78 128.512C132.695 128.203 132.609 127.893 132.524 127.584C132.439 127.275 132.369 127.003 132.316 126.768C132.263 126.523 132.225 126.352 132.204 126.256C132.193 126.395 132.135 126.693 132.028 127.152C131.932 127.6 131.809 128.069 131.66 128.56L129.5 136H128.044L125.02 124.576H126.524L128.3 131.552C128.428 132.043 128.535 132.517 128.62 132.976C128.716 133.435 128.791 133.867 128.844 134.272C128.897 133.856 128.977 133.403 129.084 132.912C129.191 132.421 129.313 131.941 129.452 131.472L131.468 124.576H132.956L135.052 131.52C135.201 132.011 135.329 132.501 135.436 132.992C135.543 133.472 135.623 133.899 135.676 134.272C135.729 133.877 135.804 133.451 135.9 132.992C135.996 132.523 136.108 132.037 136.236 131.536L137.996 124.576H139.5ZM147.639 136H141.255V124.576H147.639V125.84H142.695V129.408H147.351V130.656H142.695V134.736H147.639V136ZM153.41 124.576C154.839 124.576 155.916 124.789 156.642 125.216C157.378 125.632 157.746 126.363 157.746 127.408C157.746 128.08 157.559 128.64 157.186 129.088C156.812 129.525 156.274 129.808 155.57 129.936V130.016C156.05 130.091 156.482 130.229 156.866 130.432C157.26 130.635 157.57 130.923 157.794 131.296C158.018 131.669 158.13 132.155 158.13 132.752C158.13 133.787 157.772 134.587 157.058 135.152C156.354 135.717 155.388 136 154.162 136H150.146V124.576H153.41ZM153.698 129.44C154.679 129.44 155.351 129.285 155.714 128.976C156.076 128.656 156.258 128.187 156.258 127.568C156.258 126.939 156.034 126.491 155.586 126.224C155.148 125.947 154.444 125.808 153.474 125.808H151.586V129.44H153.698ZM151.586 130.64V134.784H153.89C154.903 134.784 155.607 134.587 156.002 134.192C156.396 133.797 156.594 133.28 156.594 132.64C156.594 132.043 156.386 131.563 155.97 131.2C155.564 130.827 154.834 130.64 153.778 130.64H151.586ZM167.032 132.944C167.032 133.957 166.664 134.747 165.928 135.312C165.192 135.877 164.2 136.16 162.952 136.16C162.312 136.16 161.72 136.112 161.176 136.016C160.632 135.92 160.179 135.787 159.816 135.616V134.24C160.2 134.411 160.675 134.565 161.24 134.704C161.816 134.843 162.408 134.912 163.016 134.912C163.869 134.912 164.509 134.747 164.936 134.416C165.373 134.085 165.592 133.637 165.592 133.072C165.592 132.699 165.512 132.384 165.352 132.128C165.192 131.872 164.915 131.637 164.52 131.424C164.136 131.2 163.597 130.965 162.904 130.72C161.933 130.368 161.197 129.936 160.696 129.424C160.205 128.912 159.96 128.213 159.96 127.328C159.96 126.72 160.115 126.203 160.424 125.776C160.733 125.339 161.16 125.003 161.704 124.768C162.259 124.533 162.893 124.416 163.608 124.416C164.237 124.416 164.813 124.475 165.336 124.592C165.859 124.709 166.333 124.864 166.76 125.056L166.312 126.288C165.917 126.117 165.485 125.973 165.016 125.856C164.557 125.739 164.077 125.68 163.576 125.68C162.861 125.68 162.323 125.835 161.96 126.144C161.597 126.443 161.416 126.843 161.416 127.344C161.416 127.728 161.496 128.048 161.656 128.304C161.816 128.56 162.077 128.789 162.44 128.992C162.803 129.195 163.293 129.413 163.912 129.648C164.584 129.893 165.149 130.16 165.608 130.448C166.077 130.725 166.429 131.061 166.664 131.456C166.909 131.851 167.032 132.347 167.032 132.944ZM172.549 136H168.421V135.168L169.765 134.864V125.728L168.421 125.408V124.576H172.549V125.408L171.205 125.728V134.864L172.549 135.168V136ZM178.371 136H176.931V125.84H173.363V124.576H181.923V125.84H178.371V136ZM190.03 136H183.646V124.576H190.03V125.84H185.086V129.408H189.742V130.656H185.086V134.736H190.03V136ZM202.008 136H200.568V124.576H206.952V125.84H202.008V129.888H206.648V131.152H202.008V136ZM218.833 130.272C218.833 131.456 218.63 132.491 218.225 133.376C217.83 134.251 217.243 134.933 216.465 135.424C215.686 135.915 214.721 136.16 213.569 136.16C212.385 136.16 211.398 135.915 210.609 135.424C209.83 134.933 209.249 134.245 208.865 133.36C208.481 132.475 208.289 131.44 208.289 130.256C208.289 129.083 208.481 128.059 208.865 127.184C209.249 126.309 209.83 125.627 210.609 125.136C211.398 124.645 212.39 124.4 213.585 124.4C214.726 124.4 215.686 124.645 216.465 125.136C217.243 125.616 217.83 126.299 218.225 127.184C218.63 128.059 218.833 129.088 218.833 130.272ZM209.809 130.272C209.809 131.712 210.113 132.848 210.721 133.68C211.329 134.501 212.278 134.912 213.569 134.912C214.87 134.912 215.819 134.501 216.417 133.68C217.014 132.848 217.312 131.712 217.312 130.272C217.312 128.832 217.014 127.707 216.417 126.896C215.819 126.075 214.875 125.664 213.585 125.664C212.294 125.664 211.339 126.075 210.721 126.896C210.113 127.707 209.809 128.832 209.809 130.272ZM224.516 124.576C225.935 124.576 226.981 124.848 227.653 125.392C228.335 125.925 228.677 126.736 228.677 127.824C228.677 128.432 228.565 128.939 228.341 129.344C228.117 129.749 227.829 130.075 227.477 130.32C227.135 130.555 226.773 130.741 226.389 130.88L229.525 136H227.845L225.077 131.28H222.805V136H221.365V124.576H224.516ZM224.437 125.824H222.805V130.064H224.516C225.445 130.064 226.122 129.883 226.549 129.52C226.975 129.147 227.189 128.603 227.189 127.888C227.189 127.141 226.965 126.613 226.517 126.304C226.069 125.984 225.375 125.824 224.437 125.824ZM242.965 136H241.525V125.84H237.957V124.576H246.517V125.84H242.965V136ZM256.976 136H255.536V130.672H249.68V136H248.24V124.576H249.68V129.408H255.536V124.576H256.976V136ZM263.315 136H259.187V135.168L260.531 134.864V125.728L259.187 125.408V124.576H263.315V125.408L261.971 125.728V134.864L263.315 135.168V136ZM272.001 132.944C272.001 133.957 271.633 134.747 270.897 135.312C270.161 135.877 269.169 136.16 267.921 136.16C267.281 136.16 266.689 136.112 266.145 136.016C265.601 135.92 265.147 135.787 264.785 135.616V134.24C265.169 134.411 265.643 134.565 266.209 134.704C266.785 134.843 267.377 134.912 267.985 134.912C268.838 134.912 269.478 134.747 269.905 134.416C270.342 134.085 270.561 133.637 270.561 133.072C270.561 132.699 270.481 132.384 270.321 132.128C270.161 131.872 269.883 131.637 269.489 131.424C269.105 131.2 268.566 130.965 267.873 130.72C266.902 130.368 266.166 129.936 265.665 129.424C265.174 128.912 264.929 128.213 264.929 127.328C264.929 126.72 265.083 126.203 265.393 125.776C265.702 125.339 266.129 125.003 266.673 124.768C267.227 124.533 267.862 124.416 268.577 124.416C269.206 124.416 269.782 124.475 270.305 124.592C270.827 124.709 271.302 124.864 271.729 125.056L271.281 126.288C270.886 126.117 270.454 125.973 269.985 125.856C269.526 125.739 269.046 125.68 268.545 125.68C267.83 125.68 267.291 125.835 266.929 126.144C266.566 126.443 266.385 126.843 266.385 127.344C266.385 127.728 266.465 128.048 266.625 128.304C266.785 128.56 267.046 128.789 267.409 128.992C267.771 129.195 268.262 129.413 268.881 129.648C269.553 129.893 270.118 130.16 270.577 130.448C271.046 130.725 271.398 131.061 271.633 131.456C271.878 131.851 272.001 132.347 272.001 132.944ZM282.333 136V124.576H283.773V134.72H288.765V136H282.333ZM300.379 130.272C300.379 131.456 300.177 132.491 299.771 133.376C299.377 134.251 298.79 134.933 298.011 135.424C297.233 135.915 296.267 136.16 295.115 136.16C293.931 136.16 292.945 135.915 292.155 135.424C291.377 134.933 290.795 134.245 290.411 133.36C290.027 132.475 289.835 131.44 289.835 130.256C289.835 129.083 290.027 128.059 290.411 127.184C290.795 126.309 291.377 125.627 292.155 125.136C292.945 124.645 293.937 124.4 295.131 124.4C296.273 124.4 297.233 124.645 298.011 125.136C298.79 125.616 299.377 126.299 299.771 127.184C300.177 128.059 300.379 129.088 300.379 130.272ZM291.355 130.272C291.355 131.712 291.659 132.848 292.267 133.68C292.875 134.501 293.825 134.912 295.115 134.912C296.417 134.912 297.366 134.501 297.963 133.68C298.561 132.848 298.859 131.712 298.859 130.272C298.859 128.832 298.561 127.707 297.963 126.896C297.366 126.075 296.422 125.664 295.131 125.664C293.841 125.664 292.886 126.075 292.267 126.896C291.659 127.707 291.355 128.832 291.355 130.272ZM311.967 136H310.287L304.175 126.512H304.111C304.133 126.885 304.159 127.349 304.191 127.904C304.223 128.459 304.239 129.029 304.239 129.616V136H302.911V124.576H304.575L310.671 134.032H310.735C310.725 133.861 310.709 133.605 310.687 133.264C310.677 132.923 310.661 132.549 310.639 132.144C310.629 131.739 310.623 131.365 310.623 131.024V124.576H311.967V136ZM324.22 130.176C324.22 132.107 323.692 133.563 322.636 134.544C321.59 135.515 320.129 136 318.252 136H315.068V124.576H318.588C319.74 124.576 320.737 124.789 321.58 125.216C322.422 125.643 323.073 126.272 323.532 127.104C323.99 127.925 324.22 128.949 324.22 130.176ZM322.7 130.224C322.7 128.699 322.321 127.584 321.564 126.88C320.817 126.165 319.756 125.808 318.38 125.808H316.508V134.768H318.06C321.153 134.768 322.7 133.253 322.7 130.224ZM336.723 130.272C336.723 131.456 336.52 132.491 336.115 133.376C335.72 134.251 335.134 134.933 334.355 135.424C333.576 135.915 332.611 136.16 331.459 136.16C330.275 136.16 329.288 135.915 328.499 135.424C327.72 134.933 327.139 134.245 326.755 133.36C326.371 132.475 326.179 131.44 326.179 130.256C326.179 129.083 326.371 128.059 326.755 127.184C327.139 126.309 327.72 125.627 328.499 125.136C329.288 124.645 330.28 124.4 331.475 124.4C332.616 124.4 333.576 124.645 334.355 125.136C335.134 125.616 335.72 126.299 336.115 127.184C336.52 128.059 336.723 129.088 336.723 130.272ZM327.699 130.272C327.699 131.712 328.003 132.848 328.611 133.68C329.219 134.501 330.168 134.912 331.459 134.912C332.76 134.912 333.71 134.501 334.307 133.68C334.904 132.848 335.203 131.712 335.203 130.272C335.203 128.832 334.904 127.707 334.307 126.896C333.71 126.075 332.766 125.664 331.475 125.664C330.184 125.664 329.23 126.075 328.611 126.896C328.003 127.707 327.699 128.832 327.699 130.272ZM348.311 136H346.631L340.519 126.512H340.455C340.476 126.885 340.503 127.349 340.535 127.904C340.567 128.459 340.583 129.029 340.583 129.616V136H339.255V124.576H340.919L347.015 134.032H347.079C347.068 133.861 347.052 133.605 347.031 133.264C347.02 132.923 347.004 132.549 346.983 132.144C346.972 131.739 346.967 131.365 346.967 131.024V124.576H348.311V136ZM70.7926 143.576C72.2219 143.576 73.2992 143.789 74.0246 144.216C74.7606 144.632 75.1286 145.363 75.1286 146.408C75.1286 147.08 74.9419 147.64 74.5686 148.088C74.1952 148.525 73.6566 148.808 72.9526 148.936V149.016C73.4326 149.091 73.8646 149.229 74.2486 149.432C74.6432 149.635 74.9526 149.923 75.1766 150.296C75.4006 150.669 75.5126 151.155 75.5126 151.752C75.5126 152.787 75.1552 153.587 74.4406 154.152C73.7366 154.717 72.7712 155 71.5446 155H67.5286V143.576H70.7926ZM71.0806 148.44C72.0619 148.44 72.7339 148.285 73.0966 147.976C73.4592 147.656 73.6406 147.187 73.6406 146.568C73.6406 145.939 73.4166 145.491 72.9686 145.224C72.5312 144.947 71.8272 144.808 70.8566 144.808H68.9686V148.44H71.0806ZM68.9686 149.64V153.784H71.2726C72.2859 153.784 72.9899 153.587 73.3846 153.192C73.7792 152.797 73.9766 152.28 73.9766 151.64C73.9766 151.043 73.7686 150.563 73.3526 150.2C72.9472 149.827 72.2166 149.64 71.1606 149.64H68.9686ZM85.1028 155L83.7268 151.464H79.1988L77.8388 155H76.3828L80.8468 143.528H82.1428L86.5908 155H85.1028ZM82.0148 146.728C81.9828 146.643 81.9295 146.488 81.8548 146.264C81.7801 146.04 81.7055 145.811 81.6308 145.576C81.5668 145.331 81.5135 145.144 81.4708 145.016C81.3961 145.347 81.3108 145.672 81.2148 145.992C81.1188 146.301 81.0388 146.547 80.9748 146.728L79.6788 150.184H83.2948L82.0148 146.728ZM94.6336 151.944C94.6336 152.957 94.2656 153.747 93.5296 154.312C92.7936 154.877 91.8016 155.16 90.5536 155.16C89.9136 155.16 89.3216 155.112 88.7776 155.016C88.2336 154.92 87.7802 154.787 87.4176 154.616V153.24C87.8016 153.411 88.2762 153.565 88.8416 153.704C89.4176 153.843 90.0096 153.912 90.6176 153.912C91.4709 153.912 92.1109 153.747 92.5376 153.416C92.9749 153.085 93.1936 152.637 93.1936 152.072C93.1936 151.699 93.1136 151.384 92.9536 151.128C92.7936 150.872 92.5162 150.637 92.1216 150.424C91.7376 150.2 91.1989 149.965 90.5056 149.72C89.5349 149.368 88.7989 148.936 88.2976 148.424C87.8069 147.912 87.5616 147.213 87.5616 146.328C87.5616 145.72 87.7162 145.203 88.0256 144.776C88.3349 144.339 88.7616 144.003 89.3056 143.768C89.8602 143.533 90.4949 143.416 91.2096 143.416C91.8389 143.416 92.4149 143.475 92.9376 143.592C93.4602 143.709 93.9349 143.864 94.3616 144.056L93.9136 145.288C93.5189 145.117 93.0869 144.973 92.6176 144.856C92.1589 144.739 91.6789 144.68 91.1776 144.68C90.4629 144.68 89.9242 144.835 89.5616 145.144C89.1989 145.443 89.0176 145.843 89.0176 146.344C89.0176 146.728 89.0976 147.048 89.2576 147.304C89.4176 147.56 89.6789 147.789 90.0416 147.992C90.4042 148.195 90.8949 148.413 91.5136 148.648C92.1856 148.893 92.7509 149.16 93.2096 149.448C93.6789 149.725 94.0309 150.061 94.2656 150.456C94.5109 150.851 94.6336 151.347 94.6336 151.944ZM103.319 155H96.9348V143.576H103.319V144.84H98.3748V148.408H103.031V149.656H98.3748V153.736H103.319V155ZM114.977 149.176C114.977 151.107 114.449 152.563 113.393 153.544C112.348 154.515 110.887 155 109.009 155H105.825V143.576H109.345C110.497 143.576 111.495 143.789 112.337 144.216C113.18 144.643 113.831 145.272 114.289 146.104C114.748 146.925 114.977 147.949 114.977 149.176ZM113.457 149.224C113.457 147.699 113.079 146.584 112.321 145.88C111.575 145.165 110.513 144.808 109.137 144.808H107.265V153.768H108.817C111.911 153.768 113.457 152.253 113.457 149.224ZM130.44 144.68C129.214 144.68 128.248 145.091 127.544 145.912C126.84 146.733 126.488 147.859 126.488 149.288C126.488 150.707 126.814 151.832 127.464 152.664C128.126 153.485 129.112 153.896 130.424 153.896C130.926 153.896 131.4 153.853 131.848 153.768C132.296 153.683 132.734 153.576 133.16 153.448V154.696C132.734 154.856 132.291 154.973 131.832 155.048C131.384 155.123 130.846 155.16 130.216 155.16C129.054 155.16 128.083 154.92 127.304 154.44C126.526 153.96 125.939 153.277 125.544 152.392C125.16 151.507 124.968 150.467 124.968 149.272C124.968 148.12 125.176 147.107 125.592 146.232C126.019 145.347 126.643 144.659 127.464 144.168C128.286 143.667 129.283 143.416 130.456 143.416C131.662 143.416 132.712 143.64 133.608 144.088L133.032 145.304C132.68 145.144 132.286 145 131.848 144.872C131.422 144.744 130.952 144.68 130.44 144.68ZM145.309 149.272C145.309 150.456 145.106 151.491 144.701 152.376C144.306 153.251 143.72 153.933 142.941 154.424C142.162 154.915 141.197 155.16 140.045 155.16C138.861 155.16 137.874 154.915 137.085 154.424C136.306 153.933 135.725 153.245 135.341 152.36C134.957 151.475 134.765 150.44 134.765 149.256C134.765 148.083 134.957 147.059 135.341 146.184C135.725 145.309 136.306 144.627 137.085 144.136C137.874 143.645 138.866 143.4 140.061 143.4C141.202 143.4 142.162 143.645 142.941 144.136C143.72 144.616 144.306 145.299 144.701 146.184C145.106 147.059 145.309 148.088 145.309 149.272ZM136.285 149.272C136.285 150.712 136.589 151.848 137.197 152.68C137.805 153.501 138.754 153.912 140.045 153.912C141.346 153.912 142.296 153.501 142.893 152.68C143.49 151.848 143.789 150.712 143.789 149.272C143.789 147.832 143.49 146.707 142.893 145.896C142.296 145.075 141.352 144.664 140.061 144.664C138.77 144.664 137.816 145.075 137.197 145.896C136.589 146.707 136.285 147.832 136.285 149.272ZM156.897 155H155.217L149.105 145.512H149.041C149.062 145.885 149.089 146.349 149.121 146.904C149.153 147.459 149.169 148.029 149.169 148.616V155H147.841V143.576H149.505L155.601 153.032H155.665C155.654 152.861 155.638 152.605 155.617 152.264C155.606 151.923 155.59 151.549 155.569 151.144C155.558 150.739 155.553 150.365 155.553 150.024V143.576H156.897V155ZM166.477 151.944C166.477 152.957 166.109 153.747 165.373 154.312C164.637 154.877 163.645 155.16 162.397 155.16C161.757 155.16 161.165 155.112 160.621 155.016C160.077 154.92 159.624 154.787 159.261 154.616V153.24C159.645 153.411 160.12 153.565 160.685 153.704C161.261 153.843 161.853 153.912 162.461 153.912C163.315 153.912 163.955 153.747 164.381 153.416C164.819 153.085 165.037 152.637 165.037 152.072C165.037 151.699 164.957 151.384 164.797 151.128C164.637 150.872 164.36 150.637 163.965 150.424C163.581 150.2 163.043 149.965 162.349 149.72C161.379 149.368 160.643 148.936 160.141 148.424C159.651 147.912 159.405 147.213 159.405 146.328C159.405 145.72 159.56 145.203 159.869 144.776C160.179 144.339 160.605 144.003 161.149 143.768C161.704 143.533 162.339 143.416 163.053 143.416C163.683 143.416 164.259 143.475 164.781 143.592C165.304 143.709 165.779 143.864 166.205 144.056L165.757 145.288C165.363 145.117 164.931 144.973 164.461 144.856C164.003 144.739 163.523 144.68 163.021 144.68C162.307 144.68 161.768 144.835 161.405 145.144C161.043 145.443 160.861 145.843 160.861 146.344C160.861 146.728 160.941 147.048 161.101 147.304C161.261 147.56 161.523 147.789 161.885 147.992C162.248 148.195 162.739 148.413 163.357 148.648C164.029 148.893 164.595 149.16 165.053 149.448C165.523 149.725 165.875 150.061 166.109 150.456C166.355 150.851 166.477 151.347 166.477 151.944ZM172.395 155H170.955V144.84H167.387V143.576H175.947V144.84H172.395V155ZM180.821 143.576C182.24 143.576 183.285 143.848 183.957 144.392C184.64 144.925 184.981 145.736 184.981 146.824C184.981 147.432 184.869 147.939 184.645 148.344C184.421 148.749 184.133 149.075 183.781 149.32C183.44 149.555 183.077 149.741 182.693 149.88L185.829 155H184.149L181.381 150.28H179.109V155H177.669V143.576H180.821ZM180.741 144.824H179.109V149.064H180.821C181.749 149.064 182.427 148.883 182.853 148.52C183.28 148.147 183.493 147.603 183.493 146.888C183.493 146.141 183.269 145.613 182.821 145.304C182.373 144.984 181.68 144.824 180.741 144.824ZM196.31 150.968C196.31 151.757 196.15 152.472 195.83 153.112C195.51 153.741 195.02 154.243 194.358 154.616C193.708 154.979 192.876 155.16 191.862 155.16C190.444 155.16 189.361 154.776 188.614 154.008C187.878 153.229 187.51 152.205 187.51 150.936V143.576H188.95V150.984C188.95 151.912 189.196 152.632 189.686 153.144C190.188 153.656 190.94 153.912 191.942 153.912C192.977 153.912 193.724 153.64 194.182 153.096C194.652 152.541 194.886 151.832 194.886 150.968V143.576H196.31V150.968ZM204.221 144.68C202.995 144.68 202.029 145.091 201.325 145.912C200.621 146.733 200.269 147.859 200.269 149.288C200.269 150.707 200.595 151.832 201.245 152.664C201.907 153.485 202.893 153.896 204.205 153.896C204.707 153.896 205.181 153.853 205.629 153.768C206.077 153.683 206.515 153.576 206.941 153.448V154.696C206.515 154.856 206.072 154.973 205.613 155.048C205.165 155.123 204.627 155.16 203.997 155.16C202.835 155.16 201.864 154.92 201.085 154.44C200.307 153.96 199.72 153.277 199.325 152.392C198.941 151.507 198.749 150.467 198.749 149.272C198.749 148.12 198.957 147.107 199.373 146.232C199.8 145.347 200.424 144.659 201.245 144.168C202.067 143.667 203.064 143.416 204.237 143.416C205.443 143.416 206.493 143.64 207.389 144.088L206.813 145.304C206.461 145.144 206.067 145 205.629 144.872C205.203 144.744 204.733 144.68 204.221 144.68ZM213.051 155H211.611V144.84H208.043V143.576H216.603V144.84H213.051V155ZM221.541 155H217.413V154.168L218.757 153.864V144.728L217.413 144.408V143.576H221.541V144.408L220.197 144.728V153.864L221.541 154.168V155ZM233.715 149.272C233.715 150.456 233.513 151.491 233.107 152.376C232.713 153.251 232.126 153.933 231.347 154.424C230.569 154.915 229.603 155.16 228.451 155.16C227.267 155.16 226.281 154.915 225.491 154.424C224.713 153.933 224.131 153.245 223.747 152.36C223.363 151.475 223.171 150.44 223.171 149.256C223.171 148.083 223.363 147.059 223.747 146.184C224.131 145.309 224.713 144.627 225.491 144.136C226.281 143.645 227.273 143.4 228.467 143.4C229.609 143.4 230.569 143.645 231.347 144.136C232.126 144.616 232.713 145.299 233.107 146.184C233.513 147.059 233.715 148.088 233.715 149.272ZM224.691 149.272C224.691 150.712 224.995 151.848 225.603 152.68C226.211 153.501 227.161 153.912 228.451 153.912C229.753 153.912 230.702 153.501 231.299 152.68C231.897 151.848 232.195 150.712 232.195 149.272C232.195 147.832 231.897 146.707 231.299 145.896C230.702 145.075 229.758 144.664 228.467 144.664C227.177 144.664 226.222 145.075 225.603 145.896C224.995 146.707 224.691 147.832 224.691 149.272ZM245.303 155H243.623L237.511 145.512H237.447C237.469 145.885 237.495 146.349 237.527 146.904C237.559 147.459 237.575 148.029 237.575 148.616V155H236.247V143.576H237.911L244.007 153.032H244.071C244.061 152.861 244.045 152.605 244.023 152.264C244.013 151.923 243.997 151.549 243.975 151.144C243.965 150.739 243.959 150.365 243.959 150.024V143.576H245.303V155ZM261.331 144.68C260.104 144.68 259.139 145.091 258.435 145.912C257.731 146.733 257.379 147.859 257.379 149.288C257.379 150.707 257.704 151.832 258.355 152.664C259.016 153.485 260.003 153.896 261.315 153.896C261.816 153.896 262.291 153.853 262.739 153.768C263.187 153.683 263.624 153.576 264.051 153.448V154.696C263.624 154.856 263.181 154.973 262.723 155.048C262.275 155.123 261.736 155.16 261.107 155.16C259.944 155.16 258.973 154.92 258.195 154.44C257.416 153.96 256.829 153.277 256.435 152.392C256.051 151.507 255.859 150.467 255.859 149.272C255.859 148.12 256.067 147.107 256.483 146.232C256.909 145.347 257.533 144.659 258.355 144.168C259.176 143.667 260.173 143.416 261.347 143.416C262.552 143.416 263.603 143.64 264.499 144.088L263.923 145.304C263.571 145.144 263.176 145 262.739 144.872C262.312 144.744 261.843 144.68 261.331 144.68ZM276.2 149.272C276.2 150.456 275.997 151.491 275.592 152.376C275.197 153.251 274.61 153.933 273.832 154.424C273.053 154.915 272.088 155.16 270.936 155.16C269.752 155.16 268.765 154.915 267.976 154.424C267.197 153.933 266.616 153.245 266.232 152.36C265.848 151.475 265.656 150.44 265.656 149.256C265.656 148.083 265.848 147.059 266.232 146.184C266.616 145.309 267.197 144.627 267.976 144.136C268.765 143.645 269.757 143.4 270.952 143.4C272.093 143.4 273.053 143.645 273.832 144.136C274.61 144.616 275.197 145.299 275.592 146.184C275.997 147.059 276.2 148.088 276.2 149.272ZM267.176 149.272C267.176 150.712 267.48 151.848 268.088 152.68C268.696 153.501 269.645 153.912 270.936 153.912C272.237 153.912 273.186 153.501 273.784 152.68C274.381 151.848 274.68 150.712 274.68 149.272C274.68 147.832 274.381 146.707 273.784 145.896C273.186 145.075 272.242 144.664 270.952 144.664C269.661 144.664 268.706 145.075 268.088 145.896C267.48 146.707 267.176 147.832 267.176 149.272ZM283.772 155L280.012 144.984H279.948C279.98 145.315 280.006 145.763 280.028 146.328C280.049 146.883 280.06 147.464 280.06 148.072V155H278.732V143.576H280.86L284.38 152.936H284.444L288.028 143.576H290.14V155H288.716V147.976C288.716 147.421 288.726 146.872 288.748 146.328C288.78 145.784 288.806 145.341 288.828 145H288.764L284.956 155H283.772ZM296.271 143.576C297.765 143.576 298.853 143.869 299.535 144.456C300.218 145.043 300.559 145.869 300.559 146.936C300.559 147.565 300.415 148.157 300.127 148.712C299.85 149.256 299.375 149.699 298.703 150.04C298.042 150.381 297.141 150.552 295.999 150.552H294.687V155H293.247V143.576H296.271ZM296.143 144.808H294.687V149.32H295.839C296.927 149.32 297.738 149.144 298.271 148.792C298.805 148.44 299.071 147.843 299.071 147C299.071 146.264 298.837 145.715 298.367 145.352C297.898 144.989 297.157 144.808 296.143 144.808ZM309.306 155L307.93 151.464H303.402L302.042 155H300.586L305.05 143.528H306.346L310.794 155H309.306ZM306.218 146.728C306.186 146.643 306.133 146.488 306.058 146.264C305.983 146.04 305.909 145.811 305.834 145.576C305.77 145.331 305.717 145.144 305.674 145.016C305.599 145.347 305.514 145.672 305.418 145.992C305.322 146.301 305.242 146.547 305.178 146.728L303.882 150.184H307.498L306.218 146.728ZM321.413 155H319.733L313.621 145.512H313.557C313.578 145.885 313.605 146.349 313.637 146.904C313.669 147.459 313.685 148.029 313.685 148.616V155H312.357V143.576H314.021L320.117 153.032H320.181C320.17 152.861 320.154 152.605 320.133 152.264C320.122 151.923 320.106 151.549 320.085 151.144C320.074 150.739 320.069 150.365 320.069 150.024V143.576H321.413V155ZM327.489 149.192L330.465 143.576H332.017L328.209 150.568V155H326.769V150.632L322.961 143.576H324.529L327.489 149.192Z" fill="white"/>
<path d="M27.8594 113H24.8594V90.25H27.8594V113ZM41.7006 102.422L38.9194 105.312V113H35.9194V90.25H38.9194V101.5L49.0287 90.25H52.6537L43.7006 100.297L53.3569 113H49.7631L41.7006 102.422ZM75.5419 102.359C75.5419 104.589 75.1669 106.536 74.4169 108.203C73.6669 109.859 72.6044 111.125 71.2294 112C69.8544 112.875 68.2502 113.312 66.4169 113.312C64.6252 113.312 63.0367 112.875 61.6512 112C60.2658 111.115 59.1877 109.859 58.4169 108.234C57.6565 106.599 57.2658 104.708 57.245 102.562V100.922C57.245 98.7344 57.6252 96.8021 58.3856 95.125C59.146 93.4479 60.219 92.1667 61.6044 91.2812C63.0002 90.3854 64.594 89.9375 66.3856 89.9375C68.2085 89.9375 69.8127 90.3802 71.1981 91.2656C72.594 92.1406 73.6669 93.4167 74.4169 95.0938C75.1669 96.7604 75.5419 98.7031 75.5419 100.922V102.359ZM72.5575 100.891C72.5575 98.1927 72.0158 96.125 70.9325 94.6875C69.8492 93.2396 68.3335 92.5156 66.3856 92.5156C64.4898 92.5156 62.995 93.2396 61.9012 94.6875C60.8179 96.125 60.2606 98.125 60.2294 100.688V102.359C60.2294 104.974 60.7762 107.031 61.87 108.531C62.9742 110.021 64.4898 110.766 66.4169 110.766C68.3544 110.766 69.8544 110.062 70.9169 108.656C71.9794 107.24 72.5262 105.214 72.5575 102.578V100.891ZM89.305 102.859C86.7321 102.12 84.8571 101.214 83.68 100.141C82.5133 99.0573 81.93 97.724 81.93 96.1406C81.93 94.349 82.6435 92.8698 84.0706 91.7031C85.5081 90.526 87.3727 89.9375 89.6644 89.9375C91.2269 89.9375 92.6175 90.2396 93.8363 90.8438C95.0654 91.4479 96.0133 92.2812 96.68 93.3438C97.3571 94.4062 97.6956 95.5677 97.6956 96.8281H94.68C94.68 95.4531 94.2425 94.375 93.3675 93.5938C92.4925 92.8021 91.2581 92.4062 89.6644 92.4062C88.1852 92.4062 87.029 92.7344 86.1956 93.3906C85.3727 94.0365 84.9613 94.9375 84.9613 96.0938C84.9613 97.0208 85.3519 97.8073 86.1331 98.4531C86.9248 99.0885 88.2633 99.6719 90.1488 100.203C92.0446 100.734 93.5238 101.323 94.5863 101.969C95.6592 102.604 96.4508 103.349 96.9613 104.203C97.4821 105.057 97.7425 106.062 97.7425 107.219C97.7425 109.062 97.0238 110.542 95.5863 111.656C94.1488 112.76 92.2269 113.312 89.8206 113.312C88.2581 113.312 86.7998 113.016 85.4456 112.422C84.0915 111.818 83.0446 110.995 82.305 109.953C81.5758 108.911 81.2113 107.729 81.2113 106.406H84.2269C84.2269 107.781 84.7321 108.87 85.7425 109.672C86.7633 110.464 88.1227 110.859 89.8206 110.859C91.404 110.859 92.6175 110.536 93.4613 109.891C94.305 109.245 94.7269 108.365 94.7269 107.25C94.7269 106.135 94.3363 105.276 93.555 104.672C92.7738 104.057 91.3571 103.453 89.305 102.859ZM131.394 105.781C131.113 108.188 130.222 110.047 128.722 111.359C127.232 112.661 125.248 113.312 122.769 113.312C120.081 113.312 117.925 112.349 116.3 110.422C114.685 108.495 113.878 105.917 113.878 102.688V100.5C113.878 98.3854 114.253 96.526 115.003 94.9219C115.764 93.3177 116.836 92.0885 118.222 91.2344C119.607 90.3698 121.211 89.9375 123.034 89.9375C125.451 89.9375 127.389 90.6146 128.847 91.9688C130.305 93.3125 131.154 95.1771 131.394 97.5625H128.378C128.118 95.75 127.55 94.4375 126.675 93.625C125.81 92.8125 124.597 92.4062 123.034 92.4062C121.118 92.4062 119.613 93.1146 118.519 94.5312C117.435 95.9479 116.894 97.9635 116.894 100.578V102.781C116.894 105.25 117.409 107.214 118.441 108.672C119.472 110.13 120.915 110.859 122.769 110.859C124.435 110.859 125.711 110.484 126.597 109.734C127.493 108.974 128.086 107.656 128.378 105.781H131.394ZM155.563 102.359C155.563 104.589 155.188 106.536 154.438 108.203C153.688 109.859 152.626 111.125 151.251 112C149.876 112.875 148.271 113.312 146.438 113.312C144.646 113.312 143.058 112.875 141.673 112C140.287 111.115 139.209 109.859 138.438 108.234C137.678 106.599 137.287 104.708 137.266 102.562V100.922C137.266 98.7344 137.646 96.8021 138.407 95.125C139.167 93.4479 140.24 92.1667 141.626 91.2812C143.021 90.3854 144.615 89.9375 146.407 89.9375C148.23 89.9375 149.834 90.3802 151.219 91.2656C152.615 92.1406 153.688 93.4167 154.438 95.0938C155.188 96.7604 155.563 98.7031 155.563 100.922V102.359ZM152.579 100.891C152.579 98.1927 152.037 96.125 150.954 94.6875C149.87 93.2396 148.355 92.5156 146.407 92.5156C144.511 92.5156 143.016 93.2396 141.923 94.6875C140.839 96.125 140.282 98.125 140.251 100.688V102.359C140.251 104.974 140.798 107.031 141.891 108.531C142.995 110.021 144.511 110.766 146.438 110.766C148.376 110.766 149.876 110.062 150.938 108.656C152.001 107.24 152.548 105.214 152.579 102.578V100.891ZM180.107 113H177.092L165.639 95.4688V113H162.623V90.25H165.639L177.123 107.859V90.25H180.107V113ZM194.699 102.859C192.126 102.12 190.251 101.214 189.074 100.141C187.907 99.0573 187.324 97.724 187.324 96.1406C187.324 94.349 188.037 92.8698 189.464 91.7031C190.902 90.526 192.766 89.9375 195.058 89.9375C196.621 89.9375 198.011 90.2396 199.23 90.8438C200.459 91.4479 201.407 92.2812 202.074 93.3438C202.751 94.4062 203.089 95.5677 203.089 96.8281H200.074C200.074 95.4531 199.636 94.375 198.761 93.5938C197.886 92.8021 196.652 92.4062 195.058 92.4062C193.579 92.4062 192.423 92.7344 191.589 93.3906C190.766 94.0365 190.355 94.9375 190.355 96.0938C190.355 97.0208 190.746 97.8073 191.527 98.4531C192.319 99.0885 193.657 99.6719 195.542 100.203C197.438 100.734 198.917 101.323 199.98 101.969C201.053 102.604 201.845 103.349 202.355 104.203C202.876 105.057 203.136 106.062 203.136 107.219C203.136 109.062 202.417 110.542 200.98 111.656C199.542 112.76 197.621 113.312 195.214 113.312C193.652 113.312 192.194 113.016 190.839 112.422C189.485 111.818 188.438 110.995 187.699 109.953C186.97 108.911 186.605 107.729 186.605 106.406H189.621C189.621 107.781 190.126 108.87 191.136 109.672C192.157 110.464 193.516 110.859 195.214 110.859C196.798 110.859 198.011 110.536 198.855 109.891C199.699 109.245 200.121 108.365 200.121 107.25C200.121 106.135 199.73 105.276 198.949 104.672C198.167 104.057 196.751 103.453 194.699 102.859ZM225.274 92.7188H217.962V113H214.977V92.7188H207.681V90.25H225.274V92.7188ZM239.553 103.797H234.209V113H231.194V90.25H238.725C241.288 90.25 243.256 90.8333 244.631 92C246.017 93.1667 246.709 94.8646 246.709 97.0938C246.709 98.5104 246.324 99.7448 245.553 100.797C244.793 101.849 243.73 102.635 242.366 103.156L247.709 112.812V113H244.491L239.553 103.797ZM234.209 101.344H238.819C240.308 101.344 241.491 100.958 242.366 100.188C243.251 99.4167 243.694 98.3854 243.694 97.0938C243.694 95.6875 243.272 94.6094 242.428 93.8594C241.595 93.1094 240.386 92.7292 238.803 92.7188H234.209V101.344ZM269.504 90.25V105.719C269.493 107.865 268.816 109.62 267.473 110.984C266.139 112.349 264.327 113.115 262.035 113.281L261.238 113.312C258.749 113.312 256.764 112.641 255.285 111.297C253.806 109.953 253.056 108.104 253.035 105.75V90.25H256.004V105.656C256.004 107.302 256.457 108.583 257.363 109.5C258.269 110.406 259.561 110.859 261.238 110.859C262.936 110.859 264.233 110.406 265.129 109.5C266.035 108.594 266.488 107.318 266.488 105.672V90.25H269.504ZM293.533 105.781C293.251 108.188 292.361 110.047 290.861 111.359C289.371 112.661 287.387 113.312 284.908 113.312C282.22 113.312 280.064 112.349 278.439 110.422C276.824 108.495 276.017 105.917 276.017 102.688V100.5C276.017 98.3854 276.392 96.526 277.142 94.9219C277.902 93.3177 278.975 92.0885 280.361 91.2344C281.746 90.3698 283.35 89.9375 285.173 89.9375C287.59 89.9375 289.527 90.6146 290.986 91.9688C292.444 93.3125 293.293 95.1771 293.533 97.5625H290.517C290.256 95.75 289.689 94.4375 288.814 93.625C287.949 92.8125 286.736 92.4062 285.173 92.4062C283.256 92.4062 281.751 93.1146 280.658 94.5312C279.574 95.9479 279.033 97.9635 279.033 100.578V102.781C279.033 105.25 279.548 107.214 280.579 108.672C281.611 110.13 283.053 110.859 284.908 110.859C286.574 110.859 287.85 110.484 288.736 109.734C289.631 108.974 290.225 107.656 290.517 105.781H293.533ZM315.452 92.7188H308.139V113H305.155V92.7188H297.858V90.25H315.452V92.7188ZM324.606 113H321.606V90.25H324.606V113ZM350.166 102.359C350.166 104.589 349.791 106.536 349.041 108.203C348.291 109.859 347.228 111.125 345.853 112C344.478 112.875 342.874 113.312 341.041 113.312C339.249 113.312 337.66 112.875 336.275 112C334.89 111.115 333.811 109.859 333.041 108.234C332.28 106.599 331.89 104.708 331.869 102.562V100.922C331.869 98.7344 332.249 96.8021 333.009 95.125C333.77 93.4479 334.843 92.1667 336.228 91.2812C337.624 90.3854 339.218 89.9375 341.009 89.9375C342.832 89.9375 344.436 90.3802 345.822 91.2656C347.218 92.1406 348.291 93.4167 349.041 95.0938C349.791 96.7604 350.166 98.7031 350.166 100.922V102.359ZM347.181 100.891C347.181 98.1927 346.64 96.125 345.556 94.6875C344.473 93.2396 342.957 92.5156 341.009 92.5156C339.114 92.5156 337.619 93.2396 336.525 94.6875C335.442 96.125 334.884 98.125 334.853 100.688V102.359C334.853 104.974 335.4 107.031 336.494 108.531C337.598 110.021 339.114 110.766 341.041 110.766C342.978 110.766 344.478 110.062 345.541 108.656C346.603 107.24 347.15 105.214 347.181 102.578V100.891ZM374.71 113H371.694L360.241 95.4688V113H357.226V90.25H360.241L371.726 107.859V90.25H374.71V113Z" fill="white"/>
<path d="M184.078 42.8116C182.057 42.8116 180.406 44.462 180.406 46.4835V74.3897C180.405 74.487 180.423 74.5836 180.459 74.6739C180.495 74.7642 180.549 74.8464 180.618 74.9157C180.686 74.9851 180.767 75.0401 180.857 75.0776C180.947 75.1152 181.043 75.1345 181.141 75.1345C181.238 75.1345 181.334 75.1152 181.424 75.0776C181.514 75.0401 181.595 74.9851 181.664 74.9157C181.732 74.8464 181.786 74.7642 181.822 74.6739C181.858 74.5836 181.876 74.487 181.875 74.3897V46.4835C181.875 45.2503 182.845 44.2803 184.078 44.2803H187.016H213.307C213.404 44.2817 213.501 44.2637 213.591 44.2274C213.681 44.1912 213.764 44.1373 213.833 44.0689C213.902 44.0006 213.957 43.9192 213.995 43.8294C214.032 43.7396 214.052 43.6433 214.052 43.546C214.052 43.4486 214.032 43.3523 213.995 43.2625C213.957 43.1727 213.902 43.0913 213.833 43.023C213.764 42.9546 213.681 42.9008 213.591 42.8645C213.501 42.8282 213.404 42.8102 213.307 42.8116H187.016H184.078Z" fill="#A598FF"/>
<path fill-rule="evenodd" clip-rule="evenodd" d="M212.719 36.9365V66.3115H214.922C216.155 66.3115 217.125 67.2815 217.125 68.5146C217.125 69.7479 216.155 70.7178 214.922 70.7178H211.984H184.471H184.078C182.057 70.7178 180.406 72.3682 180.406 74.3896C180.406 76.4112 182.057 78.0615 184.078 78.0615H186.281V72.1865H211.984H214.922C216.943 72.1865 218.594 70.5362 218.594 68.5146V43.5459V40.6084C218.594 38.5869 216.943 36.9365 214.922 36.9365H212.719ZM214.187 38.4053H214.922C216.155 38.4053 217.125 39.3752 217.125 40.6084V43.5459V65.7579C216.498 65.2605 215.78 64.8428 214.922 64.8428H214.187V38.4053ZM184.078 72.1865H184.471H184.812V76.5928H184.078C182.845 76.5928 181.875 75.6229 181.875 74.3896C181.875 73.1565 182.845 72.1865 184.078 72.1865Z" fill="#A598FF"/>
<path fill-rule="evenodd" clip-rule="evenodd" d="M194.359 53.0928C194.165 53.0928 193.978 53.1702 193.84 53.3079C193.702 53.4456 193.625 53.6324 193.625 53.8271V62.6396C193.625 62.8344 193.702 63.0212 193.84 63.1589C193.978 63.2966 194.165 63.374 194.359 63.374H206.109C206.304 63.374 206.491 63.2966 206.629 63.1589C206.766 63.0212 206.844 62.8344 206.844 62.6396V53.8271C206.844 53.6324 206.766 53.4456 206.629 53.3079C206.491 53.1702 206.304 53.0928 206.109 53.0928H194.359ZM195.094 54.5615H205.375V61.9053H195.094V54.5615Z" fill="#A598FF"/>
<path d="M200.223 45.7491C200.032 45.7521 199.85 45.8293 199.715 45.9642L192.371 53.308C192.269 53.4107 192.199 53.5415 192.171 53.684C192.142 53.8264 192.157 53.974 192.212 54.1082C192.268 54.2423 192.362 54.357 192.483 54.4377C192.603 54.5184 192.745 54.5615 192.891 54.5616H207.578C207.723 54.5615 207.865 54.5184 207.986 54.4377C208.107 54.357 208.201 54.2423 208.256 54.1082C208.312 53.974 208.326 53.8264 208.298 53.684C208.27 53.5415 208.2 53.4107 208.097 53.308L200.754 45.9642C200.684 45.8947 200.601 45.8397 200.51 45.8027C200.419 45.7657 200.321 45.7476 200.223 45.7491V45.7491ZM200.234 47.5219L205.805 53.0928H194.663L200.234 47.5219Z" fill="#A598FF"/>
<path d="M206.098 48.6864C206.001 48.6879 205.906 48.7084 205.818 48.7467C205.729 48.785 205.649 48.8404 205.582 48.9096C205.515 48.9789 205.462 49.0606 205.427 49.1502C205.391 49.2399 205.373 49.3358 205.375 49.4323V52.4071C205.374 52.5044 205.392 52.6009 205.428 52.6912C205.464 52.7815 205.518 52.8638 205.586 52.9331C205.655 53.0024 205.736 53.0574 205.826 53.095C205.916 53.1326 206.012 53.1518 206.109 53.1518C206.207 53.1518 206.303 53.1326 206.393 53.095C206.483 53.0574 206.564 53.0024 206.632 52.9331C206.701 52.8638 206.755 52.7815 206.791 52.6912C206.827 52.6009 206.845 52.5044 206.844 52.4071V49.4323C206.845 49.3339 206.827 49.2362 206.79 49.145C206.753 49.0539 206.698 48.971 206.629 48.9014C206.559 48.8318 206.476 48.777 206.385 48.74C206.294 48.7031 206.196 48.6849 206.098 48.6864V48.6864ZM198.766 57.4989C198.571 57.4989 198.384 57.5763 198.246 57.7141C198.109 57.8518 198.031 58.0385 198.031 58.2333V62.6395C198.031 62.8343 198.109 63.021 198.246 63.1588C198.384 63.2965 198.571 63.3739 198.766 63.3739H201.703C201.898 63.3739 202.085 63.2965 202.222 63.1588C202.36 63.021 202.437 62.8343 202.438 62.6395V58.2333C202.437 58.0385 202.36 57.8518 202.222 57.7141C202.085 57.5763 201.898 57.4989 201.703 57.4989H198.766ZM199.5 58.9677H200.969V61.9052H199.5V58.9677Z" fill="#A598FF"/>
<path fill-rule="evenodd" clip-rule="evenodd" d="M193.625 64.8428V66.3115H206.844V64.8428H193.625ZM189.219 45.7503V63.3753H190.688V45.7503H189.219ZM186.281 53.0928V56.0303H187.75V53.0928H186.281ZM198.766 67.7803V69.249H201.703V67.7803H198.766Z" fill="#A598FF"/>
</svg>
