<svg width="400" height="225" viewBox="0 0 400 225" fill="none" xmlns="http://www.w3.org/2000/svg">
<path d="M111.395 168H109.955V157.84H106.387V156.576H114.947V157.84H111.395V168ZM125.405 168H123.965V162.672H118.109V168H116.669V156.576H118.109V161.408H123.965V156.576H125.405V168ZM134.913 168H128.529V156.576H134.913V157.84H129.969V161.408H134.625V162.656H129.969V166.736H134.913V168ZM155.418 162.272C155.418 163.456 155.216 164.491 154.81 165.376C154.416 166.251 153.829 166.933 153.05 167.424C152.272 167.915 151.306 168.16 150.154 168.16C148.97 168.16 147.984 167.915 147.194 167.424C146.416 166.933 145.834 166.245 145.45 165.36C145.066 164.475 144.874 163.44 144.874 162.256C144.874 161.083 145.066 160.059 145.45 159.184C145.834 158.309 146.416 157.627 147.194 157.136C147.984 156.645 148.976 156.4 150.17 156.4C151.312 156.4 152.272 156.645 153.05 157.136C153.829 157.616 154.416 158.299 154.81 159.184C155.216 160.059 155.418 161.088 155.418 162.272ZM146.394 162.272C146.394 163.712 146.698 164.848 147.306 165.68C147.914 166.501 148.864 166.912 150.154 166.912C151.456 166.912 152.405 166.501 153.002 165.68C153.6 164.848 153.898 163.712 153.898 162.272C153.898 160.832 153.6 159.707 153.002 158.896C152.405 158.075 151.461 157.664 150.17 157.664C148.88 157.664 147.925 158.075 147.306 158.896C146.698 159.707 146.394 160.832 146.394 162.272ZM159.39 168H157.95V156.576H164.334V157.84H159.39V161.888H164.03V163.152H159.39V168ZM167.687 168H166.247V156.576H172.631V157.84H167.687V161.888H172.327V163.152H167.687V168ZM177.76 168H173.632V167.168L174.976 166.864V157.728L173.632 157.408V156.576H177.76V157.408L176.416 157.728V166.864L177.76 167.168V168ZM184.862 157.68C183.635 157.68 182.67 158.091 181.966 158.912C181.262 159.733 180.91 160.859 180.91 162.288C180.91 163.707 181.235 164.832 181.886 165.664C182.547 166.485 183.534 166.896 184.846 166.896C185.347 166.896 185.822 166.853 186.27 166.768C186.718 166.683 187.155 166.576 187.582 166.448V167.696C187.155 167.856 186.713 167.973 186.254 168.048C185.806 168.123 185.267 168.16 184.638 168.16C183.475 168.16 182.505 167.92 181.726 167.44C180.947 166.96 180.361 166.277 179.966 165.392C179.582 164.507 179.39 163.467 179.39 162.272C179.39 161.12 179.598 160.107 180.014 159.232C180.441 158.347 181.065 157.659 181.886 157.168C182.707 156.667 183.705 156.416 184.878 156.416C186.083 156.416 187.134 156.64 188.03 157.088L187.454 158.304C187.102 158.144 186.707 158 186.27 157.872C185.843 157.744 185.374 157.68 184.862 157.68ZM193.291 168H189.163V167.168L190.507 166.864V157.728L189.163 157.408V156.576H193.291V157.408L191.947 157.728V166.864L193.291 167.168V168ZM202.665 168L201.289 164.464H196.761L195.401 168H193.945L198.409 156.528H199.705L204.153 168H202.665ZM199.577 159.728C199.545 159.643 199.492 159.488 199.417 159.264C199.343 159.04 199.268 158.811 199.193 158.576C199.129 158.331 199.076 158.144 199.033 158.016C198.959 158.347 198.873 158.672 198.777 158.992C198.681 159.301 198.601 159.547 198.537 159.728L197.241 163.184H200.857L199.577 159.728ZM205.716 168V156.576H207.156V166.72H212.148V168H205.716ZM235.258 156.576L232.218 168H230.762L228.538 160.512C228.453 160.203 228.367 159.893 228.282 159.584C228.197 159.275 228.127 159.003 228.074 158.768C228.021 158.523 227.983 158.352 227.962 158.256C227.951 158.395 227.893 158.693 227.786 159.152C227.69 159.6 227.567 160.069 227.418 160.56L225.258 168H223.802L220.778 156.576H222.282L224.058 163.552C224.186 164.043 224.293 164.517 224.378 164.976C224.474 165.435 224.549 165.867 224.602 166.272C224.655 165.856 224.735 165.403 224.842 164.912C224.949 164.421 225.071 163.941 225.21 163.472L227.226 156.576H228.714L230.81 163.52C230.959 164.011 231.087 164.501 231.194 164.992C231.301 165.472 231.381 165.899 231.434 166.272C231.487 165.877 231.562 165.451 231.658 164.992C231.754 164.523 231.866 164.037 231.994 163.536L233.754 156.576H235.258ZM243.397 168H237.013V156.576H243.397V157.84H238.453V161.408H243.109V162.656H238.453V166.736H243.397V168ZM249.168 156.576C250.597 156.576 251.674 156.789 252.4 157.216C253.136 157.632 253.504 158.363 253.504 159.408C253.504 160.08 253.317 160.64 252.944 161.088C252.57 161.525 252.032 161.808 251.328 161.936V162.016C251.808 162.091 252.24 162.229 252.624 162.432C253.018 162.635 253.328 162.923 253.552 163.296C253.776 163.669 253.888 164.155 253.888 164.752C253.888 165.787 253.53 166.587 252.816 167.152C252.112 167.717 251.146 168 249.92 168H245.904V156.576H249.168ZM249.456 161.44C250.437 161.44 251.109 161.285 251.472 160.976C251.834 160.656 252.016 160.187 252.016 159.568C252.016 158.939 251.792 158.491 251.344 158.224C250.906 157.947 250.202 157.808 249.232 157.808H247.344V161.44H249.456ZM247.344 162.64V166.784H249.648C250.661 166.784 251.365 166.587 251.76 166.192C252.154 165.797 252.352 165.28 252.352 164.64C252.352 164.043 252.144 163.563 251.728 163.2C251.322 162.827 250.592 162.64 249.536 162.64H247.344ZM262.79 164.944C262.79 165.957 262.422 166.747 261.686 167.312C260.95 167.877 259.958 168.16 258.71 168.16C258.07 168.16 257.478 168.112 256.934 168.016C256.39 167.92 255.936 167.787 255.574 167.616V166.24C255.958 166.411 256.432 166.565 256.998 166.704C257.574 166.843 258.166 166.912 258.774 166.912C259.627 166.912 260.267 166.747 260.694 166.416C261.131 166.085 261.35 165.637 261.35 165.072C261.35 164.699 261.27 164.384 261.11 164.128C260.95 163.872 260.672 163.637 260.278 163.424C259.894 163.2 259.355 162.965 258.662 162.72C257.691 162.368 256.955 161.936 256.454 161.424C255.963 160.912 255.718 160.213 255.718 159.328C255.718 158.72 255.872 158.203 256.182 157.776C256.491 157.339 256.918 157.003 257.462 156.768C258.016 156.533 258.651 156.416 259.366 156.416C259.995 156.416 260.571 156.475 261.094 156.592C261.616 156.709 262.091 156.864 262.518 157.056L262.07 158.288C261.675 158.117 261.243 157.973 260.774 157.856C260.315 157.739 259.835 157.68 259.334 157.68C258.619 157.68 258.08 157.835 257.718 158.144C257.355 158.443 257.174 158.843 257.174 159.344C257.174 159.728 257.254 160.048 257.414 160.304C257.574 160.56 257.835 160.789 258.198 160.992C258.56 161.195 259.051 161.413 259.67 161.648C260.342 161.893 260.907 162.16 261.366 162.448C261.835 162.725 262.187 163.061 262.422 163.456C262.667 163.851 262.79 164.347 262.79 164.944ZM268.307 168H264.179V167.168L265.523 166.864V157.728L264.179 157.408V156.576H268.307V157.408L266.963 157.728V166.864L268.307 167.168V168ZM274.129 168H272.689V157.84H269.121V156.576H277.681V157.84H274.129V168ZM285.788 168H279.404V156.576H285.788V157.84H280.844V161.408H285.5V162.656H280.844V166.736H285.788V168ZM140.708 180.272C140.708 181.456 140.505 182.491 140.1 183.376C139.705 184.251 139.118 184.933 138.34 185.424C137.561 185.915 136.596 186.16 135.444 186.16C134.26 186.16 133.273 185.915 132.484 185.424C131.705 184.933 131.124 184.245 130.74 183.36C130.356 182.475 130.164 181.44 130.164 180.256C130.164 179.083 130.356 178.059 130.74 177.184C131.124 176.309 131.705 175.627 132.484 175.136C133.273 174.645 134.265 174.4 135.46 174.4C136.601 174.4 137.561 174.645 138.34 175.136C139.118 175.616 139.705 176.299 140.1 177.184C140.505 178.059 140.708 179.088 140.708 180.272ZM131.684 180.272C131.684 181.712 131.988 182.848 132.596 183.68C133.204 184.501 134.153 184.912 135.444 184.912C136.745 184.912 137.694 184.501 138.292 183.68C138.889 182.848 139.188 181.712 139.188 180.272C139.188 178.832 138.889 177.707 138.292 176.896C137.694 176.075 136.75 175.664 135.46 175.664C134.169 175.664 133.214 176.075 132.596 176.896C131.988 177.707 131.684 178.832 131.684 180.272ZM144.68 186H143.24V174.576H149.624V175.84H144.68V179.888H149.32V181.152H144.68V186ZM157.952 189.04C157.696 189.04 157.472 189.019 157.28 188.976C157.088 188.944 156.917 188.896 156.768 188.832V187.616C156.938 187.659 157.12 187.696 157.312 187.728C157.504 187.76 157.706 187.776 157.92 187.776C158.186 187.776 158.437 187.723 158.672 187.616C158.917 187.509 159.114 187.323 159.264 187.056C159.413 186.789 159.488 186.416 159.488 185.936V174.576H160.928V185.824C160.928 186.923 160.656 187.733 160.112 188.256C159.568 188.779 158.848 189.04 157.952 189.04ZM173.911 180.272C173.911 181.456 173.708 182.491 173.303 183.376C172.908 184.251 172.321 184.933 171.543 185.424C170.764 185.915 169.799 186.16 168.647 186.16C167.463 186.16 166.476 185.915 165.687 185.424C164.908 184.933 164.327 184.245 163.943 183.36C163.559 182.475 163.367 181.44 163.367 180.256C163.367 179.083 163.559 178.059 163.943 177.184C164.327 176.309 164.908 175.627 165.687 175.136C166.476 174.645 167.468 174.4 168.663 174.4C169.804 174.4 170.764 174.645 171.543 175.136C172.321 175.616 172.908 176.299 173.303 177.184C173.708 178.059 173.911 179.088 173.911 180.272ZM164.887 180.272C164.887 181.712 165.191 182.848 165.799 183.68C166.407 184.501 167.356 184.912 168.647 184.912C169.948 184.912 170.897 184.501 171.495 183.68C172.092 182.848 172.391 181.712 172.391 180.272C172.391 178.832 172.092 177.707 171.495 176.896C170.897 176.075 169.953 175.664 168.663 175.664C167.372 175.664 166.417 176.075 165.799 176.896C165.191 177.707 164.887 178.832 164.887 180.272ZM182.827 186H176.443V174.576H182.827V175.84H177.883V179.408H182.539V180.656H177.883V184.736H182.827V186ZM185.333 186V174.576H186.773V184.72H191.765V186H185.333ZM200.108 186H193.724V174.576H200.108V175.84H195.164V179.408H199.82V180.656H195.164V184.736H200.108V186ZM211.671 186H209.991L203.879 176.512H203.815C203.836 176.885 203.863 177.349 203.895 177.904C203.927 178.459 203.943 179.029 203.943 179.616V186H202.615V174.576H204.279L210.375 184.032H210.439C210.428 183.861 210.412 183.605 210.391 183.264C210.38 182.923 210.364 182.549 210.343 182.144C210.332 181.739 210.327 181.365 210.327 181.024V174.576H211.671V186ZM221.155 186H214.771V174.576H221.155V175.84H216.211V179.408H220.867V180.656H216.211V184.736H221.155V186ZM240.045 186H238.349L234.301 180.544L233.133 181.568V186H231.693V174.576H233.133V180.208C233.453 179.845 233.778 179.483 234.109 179.12C234.439 178.757 234.77 178.395 235.101 178.032L238.189 174.576H239.869L235.341 179.552L240.045 186ZM244.575 180.192L247.551 174.576H249.103L245.295 181.568V186H243.855V181.632L240.047 174.576H241.615L244.575 180.192ZM250.661 186V174.576H252.101V184.72H257.093V186H250.661ZM262.268 186H258.14V185.168L259.484 184.864V175.728L258.14 175.408V174.576H262.268V175.408L260.924 175.728V184.864L262.268 185.168V186ZM270.858 186H264.474V174.576H270.858V175.84H265.914V179.408H270.57V180.656H265.914V184.736H270.858V186Z" fill="white"/>
<path d="M182.659 78.54C182.659 83.9872 181.041 87.9645 177.806 90.4719C174.614 93.0226 170.439 94.298 165.28 94.298C161.695 94.298 158.919 93.7576 156.951 92.6768C154.984 91.596 154 90.1261 154 88.2671C154 85.5435 155.552 84.1817 158.656 84.1817C161.848 84.1817 163.444 85.9326 163.444 89.4344V91.0556C163.444 92.2661 164.034 92.8713 165.214 92.8713C166.788 92.8713 168.034 92.0067 168.952 90.2774C169.258 89.6722 169.63 88.4617 170.067 86.6459C170.504 84.8734 170.723 82.1498 170.723 78.4751V44.8193C170.723 44.214 170.657 43.4359 170.526 42.4848C170.439 41.4904 169.914 40.4529 168.952 39.3721C168.034 38.248 166.548 37.4915 164.493 37.1024V36H188.692V37.1024C184.626 37.7076 182.593 40.7987 182.593 46.3756L182.659 78.54Z" fill="#A598FF"/>
<path d="M189.668 82.7551V81.7824C191.942 81.5662 193.581 80.7448 194.587 79.3182C195.592 77.8483 196.095 75.557 196.095 72.4443V42.9387C196.095 41.6417 195.68 40.388 194.849 39.1775C194.062 37.967 192.379 37.2321 189.799 36.9727V36H213.408V37.1024C211.878 37.3618 210.654 38.0751 209.736 39.2424C208.555 40.8852 207.965 43.2629 207.965 46.3756V59.2154L218.983 48.9047C219.813 48.1265 220.688 47.197 221.606 46.1162C223.136 44.2573 223.901 42.5496 223.901 40.9933C223.901 38.9614 222.546 37.686 219.835 37.1673L219.901 36H238.001V37.1024C235.247 38.14 233.017 39.1775 231.312 40.2151C229.607 41.2094 228.076 42.3551 226.721 43.652L222.786 47.2186L218.392 51.3689L234.788 76.6594C235.137 77.2214 235.553 77.8051 236.034 78.4103C236.514 78.9723 237.061 79.4911 237.673 79.9666C238.722 80.788 240.1 81.4365 241.805 81.9121V82.7551H217.343L217.278 81.9121C220.032 81.5662 221.409 80.507 221.409 78.7345C221.409 78.2158 221.278 77.5889 221.016 76.854L219.311 74.2601L217.605 71.6013L209.67 59.4748L207.965 61.1609V72.4443C207.965 77.978 209.692 81.0907 213.146 81.7824V82.7551H189.668Z" fill="#A598FF"/>
<path d="M203.783 144V143.027C204.744 143.027 205.641 142.854 206.471 142.509C207.302 142.119 208.024 141.579 208.636 140.887C209.991 139.288 210.669 136.888 210.669 133.689V107.621C210.669 104.465 209.991 102.087 208.636 100.487C207.674 99.3633 206.1 98.6499 203.914 98.3473V97.2449H229.031C234.365 97.2449 238.453 97.9582 241.295 99.3849C245.098 101.33 247 104.638 247 109.307C247 113.414 245.404 116.634 242.213 118.969C239.546 120.871 235.698 121.822 230.671 121.822H222.539V133.689C222.539 136.802 223.26 139.18 224.703 140.822C225.708 141.903 227.282 142.638 229.425 143.027V144H203.783ZM222.539 98.7364V120.59H225.096C228.113 120.59 230.452 119.617 232.113 117.672C233.818 115.683 234.671 112.895 234.671 109.307C234.671 106.064 233.862 103.449 232.244 101.46C230.802 99.6443 228.506 98.7364 225.359 98.7364H222.539Z" fill="#A598FF"/>
<path d="M160.259 144V143.027C162.576 142.638 164.26 141.73 165.309 140.304C166.358 138.877 166.883 136.672 166.883 133.689V107.556C166.883 104.011 166.315 101.655 165.178 100.487C164.128 99.2768 162.489 98.5419 160.259 98.2825V97.2449H186.36C188.328 97.2449 189.989 97.2665 191.344 97.3098C192.7 97.353 193.749 97.4395 194.492 97.5691C195.979 97.6988 197.553 98.1528 199.214 98.9309C200.919 99.7091 202.362 100.963 203.542 102.692C204.635 104.465 205.182 106.345 205.182 108.334C205.182 112.225 203.52 115.078 200.198 116.894C198.799 117.672 196.46 118.407 193.181 119.099C197.028 119.488 200.001 120.395 202.099 121.822C205.422 124.07 207.084 127.334 207.084 131.614C207.084 135.548 205.466 138.726 202.231 141.147C200.569 142.357 198.864 143.157 197.115 143.546C196.285 143.676 195.06 143.784 193.443 143.87C191.869 143.957 189.88 144 187.475 144H160.259ZM178.753 98.8661V118.32H182.753C189.093 118.32 192.262 115.1 192.262 108.658C192.262 102.13 189.311 98.8661 183.409 98.8661H178.753ZM182.884 119.617H178.753V134.467C178.753 137.321 179.125 139.309 179.868 140.433C181.004 142.033 182.775 142.833 185.18 142.833C187.803 142.833 189.967 141.73 191.672 139.526C193.377 137.321 194.23 134.532 194.23 131.16C194.23 127.572 193.224 124.762 191.213 122.73C189.246 120.655 186.469 119.617 182.884 119.617Z" fill="#A598FF"/>
</svg>
