<svg width="400" height="225" viewBox="0 0 400 225" fill="none" xmlns="http://www.w3.org/2000/svg">
<path d="M46.52 129.272C46.52 130.456 46.3173 131.491 45.912 132.376C45.5173 133.251 44.9307 133.933 44.152 134.424C43.3733 134.915 42.408 135.16 41.256 135.16C40.072 135.16 39.0853 134.915 38.296 134.424C37.5173 133.933 36.936 133.245 36.552 132.36C36.168 131.475 35.976 130.44 35.976 129.256C35.976 128.083 36.168 127.059 36.552 126.184C36.936 125.309 37.5173 124.627 38.296 124.136C39.0853 123.645 40.0773 123.4 41.272 123.4C42.4133 123.4 43.3733 123.645 44.152 124.136C44.9307 124.616 45.5173 125.299 45.912 126.184C46.3173 127.059 46.52 128.088 46.52 129.272ZM37.496 129.272C37.496 130.712 37.8 131.848 38.408 132.68C39.016 133.501 39.9653 133.912 41.256 133.912C42.5573 133.912 43.5067 133.501 44.104 132.68C44.7013 131.848 45 130.712 45 129.272C45 127.832 44.7013 126.707 44.104 125.896C43.5067 125.075 42.5627 124.664 41.272 124.664C39.9813 124.664 39.0267 125.075 38.408 125.896C37.8 126.707 37.496 127.832 37.496 129.272ZM50.492 135H49.052V123.576H55.436V124.84H50.492V128.888H55.132V130.152H50.492V135ZM58.7889 135H57.3489V123.576H63.7329V124.84H58.7889V128.888H63.4289V130.152H58.7889V135ZM68.8618 135H64.7338V134.168L66.0778 133.864V124.728L64.7338 124.408V123.576H68.8618V124.408L67.5178 124.728V133.864L68.8618 134.168V135ZM75.9636 124.68C74.737 124.68 73.7716 125.091 73.0676 125.912C72.3636 126.733 72.0116 127.859 72.0116 129.288C72.0116 130.707 72.337 131.832 72.9876 132.664C73.649 133.485 74.6356 133.896 75.9476 133.896C76.449 133.896 76.9236 133.853 77.3716 133.768C77.8196 133.683 78.257 133.576 78.6836 133.448V134.696C78.257 134.856 77.8143 134.973 77.3556 135.048C76.9076 135.123 76.369 135.16 75.7396 135.16C74.577 135.16 73.6063 134.92 72.8276 134.44C72.049 133.96 71.4623 133.277 71.0676 132.392C70.6836 131.507 70.4916 130.467 70.4916 129.272C70.4916 128.12 70.6996 127.107 71.1156 126.232C71.5423 125.347 72.1663 124.659 72.9876 124.168C73.809 123.667 74.8063 123.416 75.9796 123.416C77.185 123.416 78.2356 123.64 79.1316 124.088L78.5556 125.304C78.2036 125.144 77.809 125 77.3716 124.872C76.945 124.744 76.4756 124.68 75.9636 124.68ZM84.393 135H80.265V134.168L81.609 133.864V124.728L80.265 124.408V123.576H84.393V124.408L83.049 124.728V133.864L84.393 134.168V135ZM93.7669 135L92.3909 131.464H87.8629L86.5029 135H85.0469L89.5109 123.528H90.8069L95.2549 135H93.7669ZM90.6789 126.728C90.6469 126.643 90.5935 126.488 90.5189 126.264C90.4442 126.04 90.3695 125.811 90.2949 125.576C90.2309 125.331 90.1775 125.144 90.1349 125.016C90.0602 125.347 89.9749 125.672 89.8789 125.992C89.7829 126.301 89.7029 126.547 89.6389 126.728L88.3429 130.184H91.9589L90.6789 126.728ZM96.8176 135V123.576H98.2576V133.72H103.25V135H96.8176ZM126.36 123.576L123.32 135H121.864L119.64 127.512C119.554 127.203 119.469 126.893 119.384 126.584C119.298 126.275 119.229 126.003 119.176 125.768C119.122 125.523 119.085 125.352 119.064 125.256C119.053 125.395 118.994 125.693 118.888 126.152C118.792 126.6 118.669 127.069 118.52 127.56L116.36 135H114.904L111.88 123.576H113.384L115.16 130.552C115.288 131.043 115.394 131.517 115.48 131.976C115.576 132.435 115.65 132.867 115.704 133.272C115.757 132.856 115.837 132.403 115.944 131.912C116.05 131.421 116.173 130.941 116.312 130.472L118.328 123.576H119.816L121.912 130.52C122.061 131.011 122.189 131.501 122.296 131.992C122.402 132.472 122.482 132.899 122.536 133.272C122.589 132.877 122.664 132.451 122.76 131.992C122.856 131.523 122.968 131.037 123.096 130.536L124.856 123.576H126.36ZM134.499 135H128.115V123.576H134.499V124.84H129.555V128.408H134.211V129.656H129.555V133.736H134.499V135ZM140.269 123.576C141.698 123.576 142.776 123.789 143.501 124.216C144.237 124.632 144.605 125.363 144.605 126.408C144.605 127.08 144.418 127.64 144.045 128.088C143.672 128.525 143.133 128.808 142.429 128.936V129.016C142.909 129.091 143.341 129.229 143.725 129.432C144.12 129.635 144.429 129.923 144.653 130.296C144.877 130.669 144.989 131.155 144.989 131.752C144.989 132.787 144.632 133.587 143.917 134.152C143.213 134.717 142.248 135 141.021 135H137.005V123.576H140.269ZM140.557 128.44C141.538 128.44 142.21 128.285 142.573 127.976C142.936 127.656 143.117 127.187 143.117 126.568C143.117 125.939 142.893 125.491 142.445 125.224C142.008 124.947 141.304 124.808 140.333 124.808H138.445V128.44H140.557ZM138.445 129.64V133.784H140.749C141.762 133.784 142.466 133.587 142.861 133.192C143.256 132.797 143.453 132.28 143.453 131.64C143.453 131.043 143.245 130.563 142.829 130.2C142.424 129.827 141.693 129.64 140.637 129.64H138.445ZM153.891 131.944C153.891 132.957 153.523 133.747 152.787 134.312C152.051 134.877 151.059 135.16 149.811 135.16C149.171 135.16 148.579 135.112 148.035 135.016C147.491 134.92 147.038 134.787 146.675 134.616V133.24C147.059 133.411 147.534 133.565 148.099 133.704C148.675 133.843 149.267 133.912 149.875 133.912C150.729 133.912 151.369 133.747 151.795 133.416C152.233 133.085 152.451 132.637 152.451 132.072C152.451 131.699 152.371 131.384 152.211 131.128C152.051 130.872 151.774 130.637 151.379 130.424C150.995 130.2 150.457 129.965 149.763 129.72C148.793 129.368 148.057 128.936 147.555 128.424C147.065 127.912 146.819 127.213 146.819 126.328C146.819 125.72 146.974 125.203 147.283 124.776C147.593 124.339 148.019 124.003 148.563 123.768C149.118 123.533 149.753 123.416 150.467 123.416C151.097 123.416 151.673 123.475 152.195 123.592C152.718 123.709 153.193 123.864 153.619 124.056L153.171 125.288C152.777 125.117 152.345 124.973 151.875 124.856C151.417 124.739 150.937 124.68 150.435 124.68C149.721 124.68 149.182 124.835 148.819 125.144C148.457 125.443 148.275 125.843 148.275 126.344C148.275 126.728 148.355 127.048 148.515 127.304C148.675 127.56 148.937 127.789 149.299 127.992C149.662 128.195 150.153 128.413 150.771 128.648C151.443 128.893 152.009 129.16 152.467 129.448C152.937 129.725 153.289 130.061 153.523 130.456C153.769 130.851 153.891 131.347 153.891 131.944ZM159.409 135H155.281V134.168L156.625 133.864V124.728L155.281 124.408V123.576H159.409V124.408L158.065 124.728V133.864L159.409 134.168V135ZM165.231 135H163.791V124.84H160.223V123.576H168.783V124.84H165.231V135ZM176.889 135H170.505V123.576H176.889V124.84H171.945V128.408H176.601V129.656H171.945V133.736H176.889V135ZM188.867 135H187.427V123.576H193.811V124.84H188.867V128.888H193.507V130.152H188.867V135ZM205.692 129.272C205.692 130.456 205.489 131.491 205.084 132.376C204.689 133.251 204.103 133.933 203.324 134.424C202.545 134.915 201.58 135.16 200.428 135.16C199.244 135.16 198.257 134.915 197.468 134.424C196.689 133.933 196.108 133.245 195.724 132.36C195.34 131.475 195.148 130.44 195.148 129.256C195.148 128.083 195.34 127.059 195.724 126.184C196.108 125.309 196.689 124.627 197.468 124.136C198.257 123.645 199.249 123.4 200.444 123.4C201.585 123.4 202.545 123.645 203.324 124.136C204.103 124.616 204.689 125.299 205.084 126.184C205.489 127.059 205.692 128.088 205.692 129.272ZM196.668 129.272C196.668 130.712 196.972 131.848 197.58 132.68C198.188 133.501 199.137 133.912 200.428 133.912C201.729 133.912 202.679 133.501 203.276 132.68C203.873 131.848 204.172 130.712 204.172 129.272C204.172 127.832 203.873 126.707 203.276 125.896C202.679 125.075 201.735 124.664 200.444 124.664C199.153 124.664 198.199 125.075 197.58 125.896C196.972 126.707 196.668 127.832 196.668 129.272ZM211.376 123.576C212.795 123.576 213.84 123.848 214.512 124.392C215.195 124.925 215.536 125.736 215.536 126.824C215.536 127.432 215.424 127.939 215.2 128.344C214.976 128.749 214.688 129.075 214.336 129.32C213.995 129.555 213.632 129.741 213.248 129.88L216.384 135H214.704L211.936 130.28H209.664V135H208.224V123.576H211.376ZM211.296 124.824H209.664V129.064H211.376C212.304 129.064 212.981 128.883 213.408 128.52C213.835 128.147 214.048 127.603 214.048 126.888C214.048 126.141 213.824 125.613 213.376 125.304C212.928 124.984 212.235 124.824 211.296 124.824ZM229.232 123.576C230.726 123.576 231.814 123.869 232.496 124.456C233.179 125.043 233.52 125.869 233.52 126.936C233.52 127.565 233.376 128.157 233.088 128.712C232.811 129.256 232.336 129.699 231.664 130.04C231.003 130.381 230.102 130.552 228.96 130.552H227.648V135H226.208V123.576H229.232ZM229.104 124.808H227.648V129.32H228.8C229.888 129.32 230.699 129.144 231.232 128.792C231.766 128.44 232.032 127.843 232.032 127C232.032 126.264 231.798 125.715 231.328 125.352C230.859 124.989 230.118 124.808 229.104 124.808ZM242.28 135H235.896V123.576H242.28V124.84H237.336V128.408H241.992V129.656H237.336V133.736H242.28V135ZM247.938 123.576C249.357 123.576 250.402 123.848 251.074 124.392C251.757 124.925 252.098 125.736 252.098 126.824C252.098 127.432 251.986 127.939 251.762 128.344C251.538 128.749 251.25 129.075 250.898 129.32C250.557 129.555 250.194 129.741 249.81 129.88L252.946 135H251.266L248.498 130.28H246.226V135H244.786V123.576H247.938ZM247.858 124.824H246.226V129.064H247.938C248.866 129.064 249.544 128.883 249.97 128.52C250.397 128.147 250.61 127.603 250.61 126.888C250.61 126.141 250.386 125.613 249.938 125.304C249.49 124.984 248.797 124.824 247.858 124.824ZM261.22 131.944C261.22 132.957 260.852 133.747 260.116 134.312C259.38 134.877 258.388 135.16 257.14 135.16C256.5 135.16 255.908 135.112 255.364 135.016C254.82 134.92 254.366 134.787 254.004 134.616V133.24C254.388 133.411 254.862 133.565 255.428 133.704C256.004 133.843 256.596 133.912 257.204 133.912C258.057 133.912 258.697 133.747 259.124 133.416C259.561 133.085 259.78 132.637 259.78 132.072C259.78 131.699 259.7 131.384 259.54 131.128C259.38 130.872 259.102 130.637 258.708 130.424C258.324 130.2 257.785 129.965 257.092 129.72C256.121 129.368 255.385 128.936 254.884 128.424C254.393 127.912 254.148 127.213 254.148 126.328C254.148 125.72 254.302 125.203 254.612 124.776C254.921 124.339 255.348 124.003 255.892 123.768C256.446 123.533 257.081 123.416 257.796 123.416C258.425 123.416 259.001 123.475 259.524 123.592C260.046 123.709 260.521 123.864 260.948 124.056L260.5 125.288C260.105 125.117 259.673 124.973 259.204 124.856C258.745 124.739 258.265 124.68 257.764 124.68C257.049 124.68 256.51 124.835 256.148 125.144C255.785 125.443 255.604 125.843 255.604 126.344C255.604 126.728 255.684 127.048 255.844 127.304C256.004 127.56 256.265 127.789 256.628 127.992C256.99 128.195 257.481 128.413 258.1 128.648C258.772 128.893 259.337 129.16 259.796 129.448C260.265 129.725 260.617 130.061 260.852 130.456C261.097 130.851 261.22 131.347 261.22 131.944ZM273.489 129.272C273.489 130.456 273.286 131.491 272.881 132.376C272.486 133.251 271.899 133.933 271.121 134.424C270.342 134.915 269.377 135.16 268.225 135.16C267.041 135.16 266.054 134.915 265.265 134.424C264.486 133.933 263.905 133.245 263.521 132.36C263.137 131.475 262.945 130.44 262.945 129.256C262.945 128.083 263.137 127.059 263.521 126.184C263.905 125.309 264.486 124.627 265.265 124.136C266.054 123.645 267.046 123.4 268.241 123.4C269.382 123.4 270.342 123.645 271.121 124.136C271.899 124.616 272.486 125.299 272.881 126.184C273.286 127.059 273.489 128.088 273.489 129.272ZM264.465 129.272C264.465 130.712 264.769 131.848 265.377 132.68C265.985 133.501 266.934 133.912 268.225 133.912C269.526 133.912 270.475 133.501 271.073 132.68C271.67 131.848 271.969 130.712 271.969 129.272C271.969 127.832 271.67 126.707 271.073 125.896C270.475 125.075 269.531 124.664 268.241 124.664C266.95 124.664 265.995 125.075 265.377 125.896C264.769 126.707 264.465 127.832 264.465 129.272ZM285.077 135H283.397L277.285 125.512H277.221C277.242 125.885 277.269 126.349 277.301 126.904C277.333 127.459 277.349 128.029 277.349 128.616V135H276.021V123.576H277.685L283.781 133.032H283.845C283.834 132.861 283.818 132.605 283.797 132.264C283.786 131.923 283.77 131.549 283.749 131.144C283.738 130.739 283.733 130.365 283.733 130.024V123.576H285.077V135ZM295.345 135L293.969 131.464H289.441L288.081 135H286.625L291.089 123.528H292.385L296.833 135H295.345ZM292.257 126.728C292.225 126.643 292.172 126.488 292.097 126.264C292.022 126.04 291.948 125.811 291.873 125.576C291.809 125.331 291.756 125.144 291.713 125.016C291.638 125.347 291.553 125.672 291.457 125.992C291.361 126.301 291.281 126.547 291.217 126.728L289.921 130.184H293.537L292.257 126.728ZM298.396 135V123.576H299.836V133.72H304.828V135H298.396ZM40.168 154H38.728V143.84H35.16V142.576H43.72V143.84H40.168V154ZM48.5946 142.576C50.0133 142.576 51.0586 142.848 51.7306 143.392C52.4133 143.925 52.7546 144.736 52.7546 145.824C52.7546 146.432 52.6426 146.939 52.4186 147.344C52.1946 147.749 51.9066 148.075 51.5546 148.32C51.2133 148.555 50.8506 148.741 50.4666 148.88L53.6026 154H51.9226L49.1546 149.28H46.8826V154H45.4426V142.576H48.5946ZM48.5146 143.824H46.8826V148.064H48.5946C49.5226 148.064 50.2 147.883 50.6266 147.52C51.0533 147.147 51.2666 146.603 51.2666 145.888C51.2666 145.141 51.0426 144.613 50.5946 144.304C50.1466 143.984 49.4533 143.824 48.5146 143.824ZM62.5638 154L61.1878 150.464H56.6598L55.2998 154H53.8438L58.3078 142.528H59.6038L64.0518 154H62.5638ZM59.4758 145.728C59.4438 145.643 59.3904 145.488 59.3158 145.264C59.2411 145.04 59.1664 144.811 59.0918 144.576C59.0278 144.331 58.9744 144.144 58.9318 144.016C58.8571 144.347 58.7718 144.672 58.6758 144.992C58.5798 145.301 58.4998 145.547 58.4358 145.728L57.1398 149.184H60.7558L59.4758 145.728ZM68.8305 154H64.7025V153.168L66.0465 152.864V143.728L64.7025 143.408V142.576H68.8305V143.408L67.4865 143.728V152.864L68.8305 153.168V154ZM80.0924 154H78.4124L72.3004 144.512H72.2364C72.2577 144.885 72.2844 145.349 72.3164 145.904C72.3484 146.459 72.3644 147.029 72.3644 147.616V154H71.0364V142.576H72.7004L78.7964 152.032H78.8604C78.8497 151.861 78.8337 151.605 78.8124 151.264C78.8017 150.923 78.7857 150.549 78.7644 150.144C78.7537 149.739 78.7484 149.365 78.7484 149.024V142.576H80.0924V154ZM89.5766 154H83.1926V142.576H89.5766V143.84H84.6326V147.408H89.2886V148.656H84.6326V152.736H89.5766V154ZM95.2352 142.576C96.6539 142.576 97.6993 142.848 98.3713 143.392C99.0539 143.925 99.3953 144.736 99.3953 145.824C99.3953 146.432 99.2833 146.939 99.0593 147.344C98.8353 147.749 98.5473 148.075 98.1953 148.32C97.8539 148.555 97.4913 148.741 97.1073 148.88L100.243 154H98.5633L95.7953 149.28H93.5233V154H92.0833V142.576H95.2352ZM95.1553 143.824H93.5233V148.064H95.2352C96.1633 148.064 96.8406 147.883 97.2673 147.52C97.6939 147.147 97.9073 146.603 97.9073 145.888C97.9073 145.141 97.6833 144.613 97.2353 144.304C96.7873 143.984 96.0939 143.824 95.1553 143.824ZM115.108 154L111.348 143.984H111.284C111.316 144.315 111.342 144.763 111.364 145.328C111.385 145.883 111.396 146.464 111.396 147.072V154H110.068V142.576H112.196L115.716 151.936H115.78L119.364 142.576H121.476V154H120.052V146.976C120.052 146.421 120.062 145.872 120.084 145.328C120.116 144.784 120.142 144.341 120.164 144H120.1L116.292 154H115.108ZM131.751 154L130.375 150.464H125.847L124.487 154H123.031L127.495 142.528H128.791L133.239 154H131.751ZM128.663 145.728C128.631 145.643 128.578 145.488 128.503 145.264C128.429 145.04 128.354 144.811 128.279 144.576C128.215 144.331 128.162 144.144 128.119 144.016C128.045 144.347 127.959 144.672 127.863 144.992C127.767 145.301 127.687 145.547 127.623 145.728L126.327 149.184H129.943L128.663 145.728ZM137.954 142.576C139.373 142.576 140.418 142.848 141.09 143.392C141.773 143.925 142.114 144.736 142.114 145.824C142.114 146.432 142.002 146.939 141.778 147.344C141.554 147.749 141.266 148.075 140.914 148.32C140.573 148.555 140.21 148.741 139.826 148.88L142.962 154H141.282L138.514 149.28H136.242V154H134.802V142.576H137.954ZM137.874 143.824H136.242V148.064H137.954C138.882 148.064 139.559 147.883 139.986 147.52C140.413 147.147 140.626 146.603 140.626 145.888C140.626 145.141 140.402 144.613 139.954 144.304C139.506 143.984 138.813 143.824 137.874 143.824ZM148.371 154H146.931V143.84H143.363V142.576H151.923V143.84H148.371V154ZM156.862 154H152.734V153.168L154.078 152.864V143.728L152.734 143.408V142.576H156.862V143.408L155.518 143.728V152.864L156.862 153.168V154ZM168.124 154H166.444L160.332 144.512H160.268C160.289 144.885 160.316 145.349 160.348 145.904C160.38 146.459 160.396 147.029 160.396 147.616V154H159.068V142.576H160.732L166.828 152.032H166.892C166.881 151.861 166.865 151.605 166.844 151.264C166.833 150.923 166.817 150.549 166.796 150.144C166.785 149.739 166.78 149.365 166.78 149.024V142.576H168.124V154ZM178.392 154L177.016 150.464H172.488L171.128 154H169.672L174.136 142.528H175.432L179.88 154H178.392ZM175.304 145.728C175.272 145.643 175.219 145.488 175.144 145.264C175.069 145.04 174.995 144.811 174.92 144.576C174.856 144.331 174.803 144.144 174.76 144.016C174.685 144.347 174.6 144.672 174.504 144.992C174.408 145.301 174.328 145.547 174.264 145.728L172.968 149.184H176.584L175.304 145.728ZM194.37 143.68C193.143 143.68 192.178 144.091 191.474 144.912C190.77 145.733 190.418 146.859 190.418 148.288C190.418 149.707 190.743 150.832 191.394 151.664C192.055 152.485 193.042 152.896 194.354 152.896C194.855 152.896 195.33 152.853 195.778 152.768C196.226 152.683 196.663 152.576 197.09 152.448V153.696C196.663 153.856 196.221 153.973 195.762 154.048C195.314 154.123 194.775 154.16 194.146 154.16C192.983 154.16 192.013 153.92 191.234 153.44C190.455 152.96 189.869 152.277 189.474 151.392C189.09 150.507 188.898 149.467 188.898 148.272C188.898 147.12 189.106 146.107 189.522 145.232C189.949 144.347 190.573 143.659 191.394 143.168C192.215 142.667 193.213 142.416 194.386 142.416C195.591 142.416 196.642 142.64 197.538 143.088L196.962 144.304C196.61 144.144 196.215 144 195.778 143.872C195.351 143.744 194.882 143.68 194.37 143.68ZM202.799 154H198.671V153.168L200.015 152.864V143.728L198.671 143.408V142.576H202.799V143.408L201.455 143.728V152.864L202.799 153.168V154ZM208.269 142.576C209.698 142.576 210.776 142.789 211.501 143.216C212.237 143.632 212.605 144.363 212.605 145.408C212.605 146.08 212.418 146.64 212.045 147.088C211.672 147.525 211.133 147.808 210.429 147.936V148.016C210.909 148.091 211.341 148.229 211.725 148.432C212.12 148.635 212.429 148.923 212.653 149.296C212.877 149.669 212.989 150.155 212.989 150.752C212.989 151.787 212.632 152.587 211.917 153.152C211.213 153.717 210.248 154 209.021 154H205.005V142.576H208.269ZM208.557 147.44C209.538 147.44 210.21 147.285 210.573 146.976C210.936 146.656 211.117 146.187 211.117 145.568C211.117 144.939 210.893 144.491 210.445 144.224C210.008 143.947 209.304 143.808 208.333 143.808H206.445V147.44H208.557ZM206.445 148.64V152.784H208.749C209.762 152.784 210.466 152.587 210.861 152.192C211.256 151.797 211.453 151.28 211.453 150.64C211.453 150.043 211.245 149.563 210.829 149.2C210.424 148.827 209.693 148.64 208.637 148.64H206.445ZM224.099 149.968C224.099 150.757 223.939 151.472 223.619 152.112C223.299 152.741 222.809 153.243 222.147 153.616C221.497 153.979 220.665 154.16 219.651 154.16C218.233 154.16 217.15 153.776 216.403 153.008C215.667 152.229 215.299 151.205 215.299 149.936V142.576H216.739V149.984C216.739 150.912 216.985 151.632 217.475 152.144C217.977 152.656 218.729 152.912 219.731 152.912C220.766 152.912 221.513 152.64 221.971 152.096C222.441 151.541 222.675 150.832 222.675 149.968V142.576H224.099V149.968ZM227.115 154V142.576H228.555V152.72H233.547V154H227.115ZM245.161 148.272C245.161 149.456 244.958 150.491 244.553 151.376C244.158 152.251 243.571 152.933 242.793 153.424C242.014 153.915 241.049 154.16 239.897 154.16C238.713 154.16 237.726 153.915 236.937 153.424C236.158 152.933 235.577 152.245 235.193 151.36C234.809 150.475 234.617 149.44 234.617 148.256C234.617 147.083 234.809 146.059 235.193 145.184C235.577 144.309 236.158 143.627 236.937 143.136C237.726 142.645 238.718 142.4 239.913 142.4C241.054 142.4 242.014 142.645 242.793 143.136C243.571 143.616 244.158 144.299 244.553 145.184C244.958 146.059 245.161 147.088 245.161 148.272ZM236.137 148.272C236.137 149.712 236.441 150.848 237.049 151.68C237.657 152.501 238.606 152.912 239.897 152.912C241.198 152.912 242.147 152.501 242.745 151.68C243.342 150.848 243.641 149.712 243.641 148.272C243.641 146.832 243.342 145.707 242.745 144.896C242.147 144.075 241.203 143.664 239.913 143.664C238.622 143.664 237.667 144.075 237.049 144.896C236.441 145.707 236.137 146.832 236.137 148.272ZM255.584 142.576L251.504 154H250.064L245.984 142.576H247.488L250.064 149.904C250.235 150.373 250.379 150.816 250.496 151.232C250.614 151.637 250.71 152.027 250.784 152.4C250.859 152.027 250.955 151.632 251.072 151.216C251.19 150.8 251.334 150.352 251.504 149.872L254.064 142.576H255.584ZM263.658 154L262.282 150.464H257.754L256.394 154H254.938L259.402 142.528H260.698L265.146 154H263.658ZM260.57 145.728C260.538 145.643 260.484 145.488 260.41 145.264C260.335 145.04 260.26 144.811 260.186 144.576C260.122 144.331 260.068 144.144 260.026 144.016C259.951 144.347 259.866 144.672 259.77 144.992C259.674 145.301 259.594 145.547 259.53 145.728L258.234 149.184H261.85L260.57 145.728Z" fill="#8B8B8B"/>
<path d="M300.75 155H341.25C341.84 154.999 342.406 154.767 342.827 154.354C343.247 153.94 343.489 153.378 343.5 152.789C343.521 151.53 342.458 150.5 341.199 150.5H331.618L337.396 143.671C337.849 143.134 338.265 142.568 338.642 141.975C338.682 141.927 339.507 140.472 339.81 139.765L340.492 138.175C341.007 136.966 341.114 135.623 340.798 134.348L340.059 131.394L341.013 131.712C341.145 131.756 341.287 131.762 341.423 131.73C341.558 131.698 341.682 131.629 341.781 131.531L342.531 130.781C342.6 130.711 342.655 130.628 342.693 130.537C342.731 130.446 342.75 130.348 342.75 130.25V128C342.75 127.861 342.711 127.724 342.638 127.606C342.565 127.487 342.46 127.391 342.335 127.329L340.944 126.634L339.226 124.916C339.015 124.705 338.765 124.537 338.489 124.423C338.213 124.309 337.918 124.25 337.619 124.25H337.523C337.204 124.25 336.888 124.317 336.597 124.447C336.306 124.578 336.045 124.768 335.832 125.006C335.179 125.038 334.551 125.272 334.036 125.676C333.571 126.051 333.223 126.551 333.033 127.117L332.288 129.263C332.232 129.431 332.238 129.614 332.304 129.778L333 131.519V133.25C333 133.449 333.079 133.64 333.22 133.78C333.36 133.921 333.551 134 333.75 134H335.25V134.85L334.518 134.954L331.788 135.344C331.084 135.445 330.439 135.796 329.973 136.334C329.507 136.871 329.25 137.559 329.25 138.271V141.292L327.601 144.041L320.226 136.666C319.818 136.257 319.325 135.942 318.782 135.743C318.239 135.544 317.66 135.466 317.084 135.514C316.508 135.561 315.949 135.734 315.447 136.019C314.944 136.305 314.51 136.696 314.174 137.167L307.72 146.202L305.692 147.554L302.818 148.272C302.656 148.313 302.512 148.407 302.409 148.538C302.306 148.67 302.25 148.833 302.25 149V150.5H300.801C299.542 150.5 298.479 151.53 298.5 152.789C298.511 153.378 298.753 153.94 299.173 154.354C299.594 154.767 300.16 154.999 300.75 155V155ZM335.25 126.676V127.689L334.69 127.129C334.841 126.939 335.032 126.784 335.25 126.676V126.676ZM334.5 132.5V131.375C334.5 131.28 334.482 131.185 334.446 131.096L333.798 129.477L334.078 128.638L335.25 129.81V132.5H334.5ZM334.774 138.245L335.228 136.432L335.232 136.414L335.243 136.366L336.106 136.242C336.285 136.217 336.448 136.128 336.567 135.991C336.685 135.855 336.75 135.681 336.75 135.5V126.523C336.75 126.318 336.832 126.122 336.977 125.977C337.122 125.832 337.318 125.75 337.523 125.75H337.619C337.721 125.75 337.821 125.77 337.915 125.808C338.009 125.847 338.094 125.904 338.166 125.976L339.97 127.78C340.027 127.837 340.092 127.885 340.165 127.921L341.25 128.464V129.939L341.047 130.142L340.617 129.998L339.198 128.605C339.079 128.489 338.925 128.415 338.76 128.396C338.595 128.376 338.428 128.412 338.286 128.498C338.144 128.583 338.034 128.714 337.973 128.869C337.913 129.024 337.906 129.194 337.953 129.353L339.342 134.712C339.58 135.669 339.499 136.677 339.112 137.584L338.431 139.174C338.199 139.715 337.932 140.242 337.634 140.75H336.73C336.424 140.75 336.122 140.68 335.846 140.546C335.571 140.411 335.33 140.216 335.141 139.975C334.952 139.733 334.821 139.452 334.758 139.152C334.694 138.852 334.7 138.542 334.774 138.245H334.774ZM330.643 141.886C330.713 141.769 330.75 141.636 330.75 141.5V138.271C330.75 137.92 330.877 137.581 331.106 137.317C331.336 137.052 331.653 136.879 332.001 136.829L333.641 136.595L333.32 137.881C333.192 138.39 333.18 138.921 333.285 139.435C333.39 139.95 333.608 140.434 333.925 140.853C334.241 141.271 334.647 141.614 335.113 141.855C335.58 142.096 336.094 142.23 336.618 142.246C336.498 142.401 336.376 142.553 336.251 142.702L330.474 149.529L330.339 148.719C330.122 147.402 329.549 146.169 328.682 145.154L330.643 141.886ZM315.394 138.038C315.604 137.745 315.874 137.501 316.187 137.324C316.501 137.146 316.849 137.038 317.208 137.008C317.567 136.979 317.928 137.028 318.266 137.152C318.604 137.276 318.911 137.472 319.166 137.726L327.22 145.78C328.087 146.644 328.66 147.758 328.859 148.966L329.115 150.5H325.125L317.874 140.334C317.804 140.229 317.708 140.143 317.596 140.085C317.484 140.026 317.359 139.997 317.232 140C317.106 140.003 316.982 140.038 316.873 140.102C316.763 140.165 316.672 140.256 316.607 140.364L314.404 144.035L310.5 147.939L309.23 146.669L315.394 138.038ZM323.25 150.5H310.791L311.156 149.405L315.53 145.03C315.574 144.987 315.611 144.938 315.643 144.886L317.283 142.152L323.25 150.5ZM303.75 149.586L306.182 148.978C306.265 148.957 306.345 148.922 306.416 148.874L308.155 147.715L309.642 149.203L309.209 150.5H303.75V149.586ZM300.75 152H341.25C341.449 152 341.64 152.079 341.78 152.22C341.921 152.36 342 152.551 342 152.75C342 152.949 341.921 153.14 341.78 153.28C341.64 153.421 341.449 153.5 341.25 153.5H300.75C300.551 153.5 300.36 153.421 300.22 153.28C300.079 153.14 300 152.949 300 152.75C300 152.551 300.079 152.36 300.22 152.22C300.36 152.079 300.551 152 300.75 152Z" fill="#8B8B8B"/>
<path d="M337.681 146.887L336.931 147.762C336.866 147.837 336.816 147.923 336.785 148.017C336.753 148.111 336.741 148.21 336.748 148.309C336.755 148.408 336.782 148.504 336.827 148.593C336.871 148.681 336.933 148.76 337.008 148.824C337.083 148.888 337.17 148.937 337.265 148.968C337.359 148.998 337.458 149.01 337.557 149.002C337.655 148.994 337.751 148.967 337.839 148.921C337.927 148.876 338.006 148.814 338.069 148.738L338.819 147.863C338.884 147.788 338.932 147.702 338.963 147.608C338.993 147.514 339.005 147.416 338.998 147.317C338.99 147.219 338.963 147.124 338.919 147.036C338.874 146.948 338.813 146.87 338.738 146.806C338.663 146.741 338.577 146.693 338.483 146.662C338.389 146.631 338.291 146.62 338.192 146.627C338.094 146.635 337.999 146.662 337.911 146.706C337.823 146.751 337.745 146.812 337.681 146.887V146.887Z" fill="#8B8B8B"/>
<path d="M341.431 142.512L339.181 145.137C339.051 145.288 338.987 145.484 339.002 145.682C339.017 145.881 339.111 146.065 339.262 146.194C339.413 146.324 339.609 146.388 339.807 146.373C340.006 146.358 340.19 146.264 340.319 146.113L342.569 143.488C342.699 143.337 342.763 143.141 342.748 142.943C342.733 142.744 342.639 142.56 342.488 142.431C342.337 142.301 342.141 142.237 341.943 142.252C341.744 142.267 341.56 142.361 341.431 142.512V142.512Z" fill="#8B8B8B"/>
<path d="M49.2 110H45.68V85.2L36.6 110H32.76L23.52 85.36V110H20V82.16H26.16L34.76 105.08L43.16 82.16H49.2V110ZM75.6188 102.64H62.2188L59.3788 110H55.8588L66.5788 82.16H71.4588L82.1788 110H78.4588L75.6188 102.64ZM74.4588 99.64L68.9388 85.24L63.3788 99.64H74.4588ZM104.788 110L99.1481 99.08H98.7481H92.3481V110H88.8281V82.16H98.2681C101.601 82.16 104.081 82.8667 105.708 84.28C107.335 85.6667 108.148 87.7067 108.148 90.4C108.148 92.4 107.708 94.0933 106.828 95.48C105.948 96.8667 104.655 97.8533 102.948 98.44L109.028 110H104.788ZM98.3081 95.76C100.388 95.76 101.908 95.36 102.868 94.56C103.855 93.7333 104.348 92.3467 104.348 90.4C104.348 88.6133 103.855 87.36 102.868 86.64C101.908 85.8933 100.375 85.52 98.2681 85.52H92.3481V95.76H98.3081ZM122.095 85.68H113.695V82.16H134.015V85.68H125.615V110H122.095V85.68ZM141.281 82.16H144.801V110H141.281V82.16ZM176.453 82.16V110H172.933L157.973 88.52V110H154.453V82.16H157.973L172.933 103.64V82.16H176.453ZM202.845 102.64H189.445L186.605 110H183.085L193.805 82.16H198.685L209.405 110H205.685L202.845 102.64ZM201.685 99.64L196.165 85.24L190.605 99.64H201.685ZM230.786 85.52V94.8H240.866V98H230.786V110H227.266V82.16H243.506V85.52H230.786ZM250.89 82.16H254.41V110H250.89V82.16ZM270.103 85.68H261.702V82.16H282.023V85.68H273.623V110H270.103V85.68ZM300.859 82.16H309.899C316.833 82.16 320.299 85.2 320.299 91.28C320.299 94.3467 319.433 96.6933 317.699 98.32C315.993 99.92 313.486 100.72 310.179 100.72H304.379V110H300.859V82.16ZM310.059 97.44C312.353 97.44 313.993 96.9733 314.979 96.04C315.993 95.1067 316.499 93.5733 316.499 91.44C316.499 89.3067 315.993 87.7867 314.979 86.88C313.993 85.9733 312.299 85.52 309.899 85.52H304.379V97.44H310.059ZM343.226 110L337.586 99.08H337.186H330.786V110H327.266V82.16H336.706C340.039 82.16 342.519 82.8667 344.146 84.28C345.772 85.6667 346.586 87.7067 346.586 90.4C346.586 92.4 346.146 94.0933 345.266 95.48C344.386 96.8667 343.092 97.8533 341.386 98.44L347.466 110H343.226ZM336.746 95.76C338.826 95.76 340.346 95.36 341.306 94.56C342.292 93.7333 342.786 92.3467 342.786 90.4C342.786 88.6133 342.292 87.36 341.306 86.64C340.346 85.8933 338.812 85.52 336.706 85.52H330.786V95.76H336.746ZM367.073 110.48C364.38 110.48 362.073 109.88 360.153 108.68C358.26 107.48 356.807 105.8 355.793 103.64C354.807 101.48 354.313 98.96 354.313 96.08C354.313 93.2 354.807 90.68 355.793 88.52C356.807 86.36 358.26 84.68 360.153 83.48C362.073 82.28 364.38 81.68 367.073 81.68C369.767 81.68 372.06 82.28 373.953 83.48C375.873 84.68 377.327 86.36 378.313 88.52C379.327 90.68 379.833 93.2 379.833 96.08C379.833 98.96 379.327 101.48 378.313 103.64C377.327 105.8 375.873 107.48 373.953 108.68C372.06 109.88 369.767 110.48 367.073 110.48ZM367.073 107.28C370.06 107.28 372.3 106.28 373.793 104.28C375.287 102.253 376.033 99.52 376.033 96.08C376.033 92.64 375.287 89.92 373.793 87.92C372.3 85.8933 370.06 84.88 367.073 84.88C364.087 84.88 361.847 85.8933 360.353 87.92C358.86 89.92 358.113 92.64 358.113 96.08C358.113 99.52 358.86 102.253 360.353 104.28C361.847 106.28 364.087 107.28 367.073 107.28Z" fill="#8B8B8B"/>
</svg>
