<?xml version="1.0" encoding="UTF-8"?>
<svg width="402px" height="225px" viewBox="0 0 402 225" version="1.1" xmlns="http://www.w3.org/2000/svg" xmlns:xlink="http://www.w3.org/1999/xlink">
    <title>MasterClass_Hover</title>
    <g id="Page-1" stroke="none" stroke-width="1" fill="none" fill-rule="evenodd">
        <g id="Artboard" transform="translate(1.000000, 0.000000)">
            <g id="MasterClass_Hover" transform="translate(-0.533214, 0.000000)">
                <path d="M244.686521,136.088857 C244.607734,135.91431 244.474063,135.830091 244.278424,135.809581 C242.204081,135.592706 240.130401,135.369722 238.056278,135.151319 C235.841181,134.917862 233.625641,134.690296 231.410987,134.452257 C231.134349,134.422584 230.863022,134.345565 230.584834,134.289492 C230.366622,133.804468 230.352901,133.327517 230.382335,132.77442 C230.56049,132.761329 230.725367,132.724238 230.88471,132.74082 C235.315126,133.20468 239.745099,133.671594 244.174408,134.144617 C244.909159,134.223164 245.640369,134.332474 246.377997,134.426511 C246.716381,134.425202 247.049896,134.425202 247.383633,134.425202 C247.381198,134.39182 247.378985,134.35822 247.376551,134.324837 C247.04038,134.359311 246.704209,134.393784 246.36826,134.428039 C246.335948,134.228618 246.21467,134.145272 246.013056,134.113635 C244.267137,133.840032 242.52321,133.553774 240.777292,133.279953 C237.494371,132.76482 234.210565,132.256451 230.927645,131.741318 C230.686859,131.703572 230.451163,131.633535 230.205287,131.576589 C229.948345,131.064074 229.972026,130.55505 229.946575,129.970753 C230.943358,129.981007 231.825059,130.224283 232.720039,130.342102 C233.595986,130.457303 234.4664,130.613742 235.33947,130.751198 C236.247507,130.894108 237.155766,131.035055 238.063582,131.177748 C238.936652,131.314986 239.809279,131.454405 240.682349,131.591643 C241.590386,131.734554 242.498424,131.875719 243.406461,132.01863 C244.279531,132.156086 245.150609,132.306197 246.025671,132.429689 C246.917995,132.555581 247.80036,132.774202 248.724774,132.681692 C242.407244,131.344877 236.089713,130.00828 229.78878,128.674956 C229.541355,128.117714 229.526306,127.609563 229.534937,127.113412 C229.809805,126.911373 230.044615,127.031156 230.274778,127.079375 C236.153893,128.313643 242.032786,129.548566 247.910794,130.78698 C248.251834,130.858762 248.586234,130.961745 248.946306,131.056219 C248.996101,131.245603 249.050986,131.408587 249.081306,131.576152 C249.211436,132.292888 249.347321,133.008968 249.454435,133.728976 C249.510648,134.106653 249.536984,134.492403 249.532779,134.874225 C249.522156,135.829 249.000527,136.546608 248.076556,136.831556 C247.7125,136.943703 247.31392,136.991922 246.930831,136.992795 C242.365859,137.003267 237.800665,136.999558 233.235692,136.998467 C233.059086,136.998467 232.879825,137.002831 232.706096,136.976649 C231.930845,136.859266 231.306086,136.503189 230.910825,135.816127 C230.847973,135.706817 230.841776,135.565651 230.789989,135.363395 C231.129037,135.35074 231.399921,135.320412 231.668371,135.334158 C233.505912,135.427323 235.34279,135.528778 237.179889,135.629143 C239.475986,135.754817 241.771861,135.880928 244.067737,136.010747 C244.278424,136.022747 244.487563,136.06093 244.702013,136.08493 C245.143749,136.092784 245.58305,136.188349 246.013942,136.006384 C245.571321,136.034311 245.128921,136.061584 244.686521,136.088857 Z" id="Path" fill="#B0A174" fill-rule="nonzero"></path>
                <path d="M157.377419,136.088824 C157.481397,136.069085 157.584712,136.036982 157.689354,136.031125 C161.679026,135.809007 165.66892,135.587107 169.659035,135.372147 C170.17583,135.344382 170.697049,135.296879 171.285522,135.351323 C171.229993,135.56932 171.224463,135.709879 171.161412,135.818335 C170.76563,136.499004 170.145521,136.862982 169.36878,136.974258 C169.125648,137.009181 168.874772,136.998335 168.627437,136.998335 C164.170525,136.999637 159.713393,137.003324 155.256481,136.992479 C154.838134,136.991394 154.403195,136.950181 154.005201,136.831964 C153.079572,136.557353 152.566981,135.84046 152.540433,134.891253 C152.536451,134.752864 152.524062,134.611437 152.5453,134.475867 C152.721179,133.355734 152.903915,132.236469 153.092404,131.068399 C159.557425,129.685586 165.982625,128.36264 172.440346,127 C172.63348,127.608655 172.49499,128.125122 172.301634,128.70753 C165.998111,130.083836 159.664943,131.329561 153.374694,132.778749 C155.434129,132.599797 157.464805,132.229528 159.503887,131.918259 C161.599605,131.598531 163.694658,131.274465 165.789048,130.946061 C167.846935,130.623513 169.903495,130.293156 171.99346,129.961064 C172.224646,130.510068 172.057396,130.999421 171.936383,131.489208 C171.64104,131.743862 171.277779,131.746248 170.935535,131.800259 C166.608044,132.482664 162.28011,133.162032 157.952176,133.841834 C157.289369,133.945952 156.62435,134.038139 155.965525,134.16243 C155.866856,134.181084 155.796726,134.346371 155.710446,134.442897 C155.373291,134.408408 155.039233,134.374786 154.705175,134.341165 C154.702299,134.37522 154.699644,134.409275 154.696768,134.443547 C155.033481,134.443547 155.370194,134.443547 155.706907,134.443547 C156.43918,134.34854 157.169683,134.238566 157.903726,134.161128 C160.855164,133.849426 163.807928,133.550521 166.759587,133.241639 C168.235416,133.087197 169.709918,132.920826 171.185526,132.763348 C171.31937,132.749032 171.456091,132.761396 171.647455,132.761396 C171.757407,133.298253 171.691702,133.787823 171.486621,134.309713 C171.172252,134.367194 170.865848,134.444198 170.554576,134.477169 C167.67349,134.782364 164.79152,135.079099 161.910212,135.38039 C160.53991,135.523768 159.170493,135.673654 157.799969,135.815298 C157.60418,135.835471 157.470999,135.919849 157.38671,136.090125 C156.939603,136.069519 156.496479,136.050213 156.053133,136.031125 C156.053133,136.050213 156.053133,136.069302 156.053133,136.088607 C156.494709,136.088824 156.936064,136.088824 157.377419,136.088824 Z" id="Path" fill="#B0A174" fill-rule="nonzero"></path>
                <path d="M108.854396,157.125462 C109.092135,157.075123 109.264724,157.01385 109.43937,157.007017 C109.757802,156.994261 110.004913,157.118629 110.115096,157.445948 C110.196247,157.687394 110.290657,157.924512 110.377065,158.164364 C111.761206,162.000851 113.141232,165.838704 114.534516,169.671774 C114.676702,170.063099 114.745052,170.499524 115.053655,170.835043 C115.416435,170.581069 115.432665,170.183822 115.550391,169.854909 C116.900243,166.083795 118.232721,162.306303 119.571143,158.530861 C119.705099,158.153203 119.834255,157.773267 119.990614,157.40472 C120.130285,157.075351 120.392255,156.963283 120.801896,157.010206 C121.088325,157.043006 121.270058,157.191291 121.32835,157.478976 C121.516483,158.406493 121.713532,159.332188 121.892521,160.261528 C122.752494,164.730102 123.608124,169.199588 124.46444,173.669074 C124.644572,174.609574 124.513359,174.764009 123.555547,174.74852 C123.446051,174.746697 123.335411,174.750342 123.227057,174.738042 C122.871592,174.697497 122.692374,174.564246 122.62311,174.211416 C122.461493,173.389816 122.321136,172.564116 122.178493,171.739099 C121.645639,168.653829 121.116442,165.568102 120.581302,162.483059 C120.544727,162.27168 120.470434,162.066907 120.389511,161.769655 C120.10674,162.007456 120.052792,162.276919 119.965697,162.525654 C118.654478,166.27194 117.343259,170.018227 116.031811,173.764285 C115.935573,174.039215 115.85145,174.319611 115.73601,174.586341 C115.606397,174.886098 115.354714,175.001355 115.029653,175 C114.700248,174.998621 114.462052,174.866054 114.337696,174.565157 C114.226599,174.29615 114.138591,174.017576 114.041438,173.743102 C112.740506,170.070388 111.440716,166.397219 110.137727,162.725189 C110.03143,162.425659 109.904332,162.133418 109.728314,161.689932 C109.60853,161.994701 109.515949,162.148907 109.487832,162.314047 C108.882742,165.867177 108.285424,169.421445 107.684906,172.975258 C107.612213,173.405988 107.55095,173.840591 107.440767,174.262211 C107.400763,174.415734 107.246233,174.638274 107.122563,174.653308 C106.696006,174.705242 106.257104,174.707747 105.829632,174.663786 C105.717163,174.652169 105.577492,174.415734 105.543889,174.262211 C105.507542,174.096387 105.57292,173.905053 105.606981,173.727613 C106.607539,168.507594 107.608784,163.287576 108.613915,158.068469 C108.668092,157.783517 108.756329,157.504943 108.854396,157.125462 Z" id="Path" fill="#B0A174" fill-rule="nonzero"></path>
                <path d="M197.777567,158.063389 C198.033139,158.041707 198.275723,158.004096 198.518086,158.003432 C200.418033,157.998565 202.3182,157.999671 204.218146,158.001883 C204.818662,158.002547 205.410593,158.059407 205.983153,158.26627 C207.813978,158.928012 209.022495,160.19198 209.413447,162.105743 C209.813424,164.062869 209.204983,165.746759 207.686963,167.051658 C207.211261,167.460739 206.654331,167.774242 206.078689,168.169826 C206.159037,168.372929 206.225516,168.601917 206.335141,168.807674 C207.180883,170.397314 208.03609,171.982086 208.885133,173.569956 C209.017872,173.818413 209.153913,174.067977 209.253852,174.330373 C209.369861,174.634141 209.203222,174.931936 208.891077,174.960476 C208.507389,174.995654 208.119299,174.987026 207.73319,174.987468 C207.461109,174.987689 207.271356,174.845429 207.148964,174.605601 C207.020628,174.354046 206.888109,174.104482 206.761974,173.8516 C206.005166,172.335192 205.251219,170.817235 204.492649,169.301712 C204.336796,168.989979 204.166415,168.685768 204.023331,168.416514 C202.934345,168.274696 200.381932,168.285095 199.482478,168.437753 C199.454742,168.685768 199.399929,168.955244 199.398388,169.225162 C199.389803,170.781172 199.3843,172.337183 199.397068,173.893194 C199.404992,174.878837 199.308355,175.041009 198.227954,174.992335 C197.757095,174.971096 197.59574,174.81534 197.553034,174.356922 C197.533443,174.146297 197.538285,173.933018 197.538285,173.720845 C197.537625,168.911437 197.536084,164.101808 197.541147,159.292401 C197.541587,158.912525 197.465202,158.512515 197.777567,158.063389 Z M199.611695,166.664038 C199.84041,166.686384 200.077491,166.727535 200.314792,166.729526 C201.262454,166.73727 202.210116,166.73373 203.157777,166.732845 C203.543886,166.732403 203.931536,166.750323 204.315664,166.721119 C205.930982,166.597886 207.268715,165.406707 207.549601,163.858882 C207.830048,162.314819 207.047043,160.805933 205.601887,160.112996 C205.153921,159.898168 204.683502,159.764536 204.182485,159.765197 C202.743712,159.76697 201.304719,159.768519 199.865946,159.777811 C199.770629,159.778475 199.675533,159.842193 199.556222,159.885557 C199.532008,160.023834 199.487981,160.158351 199.487761,160.292867 C199.486441,162.303535 199.489743,164.313982 199.498328,166.324649 C199.498988,166.420891 199.561065,166.517353 199.611695,166.664038 Z" id="Shape" fill="#B0A174" fill-rule="nonzero"></path>
                <path d="M246.196723,110.737379 C246.375388,111.469963 246.554506,112.173545 246.531153,113 C246.323919,112.901038 246.191281,112.855874 246.079275,112.781487 C233.906702,104.702688 221.735716,96.6214545 209.533214,88.5196315 C209.70485,87.9158968 210.038373,87.4737779 210.306144,87 C211.323038,87.495917 242.849701,108.356534 246.196723,110.737379 Z" id="Path" fill="#B0A174" fill-rule="nonzero"></path>
                <path d="M191.683553,87 C192.076558,87.5030656 192.311455,87.9679966 192.533214,88.4839214 C192.377371,88.619166 192.257091,88.7493113 192.113027,88.845091 C180.006662,96.8961353 167.898712,104.944519 155.787591,112.98869 C155.743647,113.017956 155.654626,112.982261 155.533214,112.972949 C155.567418,112.341955 155.67456,111.720052 155.835839,111.110786 C155.884993,110.924991 156.04446,110.751612 156.191469,110.610381 C156.344367,110.463607 156.542568,110.361841 156.722422,110.242116 C168.077207,102.684826 179.432218,95.1275351 190.787683,87.5711313 C191.056331,87.392431 191.332,87.2237079 191.683553,87 Z" id="Path" fill="#B0A174" fill-rule="nonzero"></path>
                <path d="M141.891318,169.848411 C140.455411,169.718429 133.979008,169.752015 133.126986,169.891375 C132.972705,170.204553 132.796642,170.54303 132.637645,170.888922 C132.242849,171.748199 131.85277,172.609657 131.466957,173.47286 C131.30549,173.834237 131.040272,173.98581 130.628409,173.99715 C129.487363,174.028119 129.308156,173.809156 129.768302,172.816626 C132.096429,167.795742 134.431968,162.77813 136.765934,157.759863 C136.839593,157.601311 136.909884,157.438397 137.00645,157.293367 C137.260664,156.911926 137.843201,156.898623 138.091128,157.27592 C138.225196,157.479835 138.316821,157.711011 138.419675,157.933245 C140.684024,162.828945 142.947475,167.725299 145.210702,172.621652 C145.254718,172.716958 145.296039,172.813572 145.337809,172.909968 C145.72497,173.803486 145.574058,173.99039 144.547768,173.999915 C144.050119,174.004347 143.747622,173.836636 143.552245,173.383661 C143.17811,172.516097 142.764675,171.664234 142.363366,170.807792 C142.216272,170.493087 142.057051,170.183835 141.891318,169.848411 Z M137.456041,160.413372 C137.006225,161.390419 136.612552,162.24468 136.219553,163.099159 C135.839803,163.925068 135.442313,164.743781 135.086592,165.579286 C134.723685,166.431585 134.214134,167.231323 133.995402,168.152974 C135.0172,168.314798 140.21265,168.302585 141.054566,168.139235 C141.012347,167.973486 140.990788,167.802721 140.926336,167.648531 C139.76261,164.860241 138.061035,161.283118 137.456041,160.413372 Z" id="Shape" fill="#B0A174" fill-rule="nonzero"></path>
                <path d="M261.889442,169.853399 C260.629921,169.729325 253.995951,169.754184 253.110718,169.887634 C252.808236,170.538966 252.483987,171.232384 252.164002,171.927327 C251.929511,172.436269 251.692551,172.944121 251.471523,173.458733 C251.314897,173.823322 251.057517,173.984247 250.644633,173.996676 C249.482948,174.031565 249.292662,173.803915 249.79306,172.734352 C252.108577,167.785576 254.403674,162.827861 256.707522,157.873852 C256.795933,157.683708 256.880978,157.48942 256.994073,157.313013 C257.270974,156.881481 257.867188,156.898925 258.131524,157.34812 C258.255613,157.55898 258.346717,157.788593 258.449489,158.01101 C260.698137,162.874307 262.946784,167.737604 265.192964,172.601992 C265.310097,172.855591 265.424313,173.113114 265.507788,173.37827 C265.603604,173.683112 265.420948,173.932568 265.088845,173.972908 C264.911799,173.994496 264.73004,173.977051 264.551647,173.993187 C264.061347,174.037017 263.742035,173.857557 263.545915,173.397241 C263.189354,172.560561 262.793524,171.739363 262.408913,170.914022 C262.247799,170.567968 262.07322,170.227583 261.889442,169.853399 Z M257.60016,160.42118 C257.417279,160.630513 257.329317,160.695712 257.289599,160.781844 C256.208022,163.131613 255.13026,165.483344 254.058108,167.837038 C254.018166,167.924696 254.038585,168.038303 254.027366,168.186145 C254.209125,168.213838 254.378542,168.261592 254.548183,168.262028 C256.554261,168.266607 258.56034,168.266389 260.566418,168.258539 C260.723718,168.257885 260.880793,168.192032 261.120445,168.137955 C259.966389,165.540911 258.823329,163.038067 257.60016,160.42118 Z" id="Shape" fill="#B0A174" fill-rule="nonzero"></path>
                <path d="M156.541013,110 C156.489287,109.220036 156.706904,108.529083 156.838157,107.830712 C156.867325,107.675844 157.022277,107.528617 157.150568,107.410836 C157.336511,107.240233 157.550026,107.09885 157.752831,106.946229 C168.068779,99.1848053 178.384499,91.4229319 188.702498,83.6637557 C189.015821,83.4279685 189.302027,83.1416072 189.768934,83 C190.033948,83.4798911 190.290759,83.945172 190.533214,84.3843791 C190.339295,84.8332515 189.956472,85.0047535 189.6452,85.2394169 C183.447565,89.9097577 177.2456,94.5740295 171.044091,99.2392005 C166.523358,102.640021 162.003309,106.041741 157.479386,109.438516 C157.202523,109.646432 156.959613,109.928747 156.541013,110 Z" id="Path" fill="#B0A174" fill-rule="nonzero"></path>
                <path d="M211.533214,84.5021527 C211.851892,83.9237777 212.109198,83.456932 212.361049,83 C212.848613,83.0998131 213.122512,83.4080394 213.434598,83.6437153 C220.779874,89.1902118 228.121287,94.7414399 235.463154,100.291992 C238.411493,102.521 241.359377,104.750459 244.307262,106.980143 C244.509561,107.133129 244.722316,107.275076 244.907795,107.446087 C245.035993,107.56415 245.190104,107.710603 245.221245,107.866293 C245.36149,108.56521 245.544696,109.262324 245.532649,109.988504 C245.418316,109.988504 245.328531,110.016893 245.285117,109.984448 C234.042514,101.549006 222.854236,93.0428155 211.533214,84.5021527 Z" id="Path" fill="#B0A174" fill-rule="nonzero"></path>
                <path d="M182.539589,167.213495 C182.539589,169.291046 182.539589,171.228323 182.539589,173.133298 C182.790786,173.433979 183.105933,173.351009 183.386805,173.351894 C185.520833,173.358974 187.654861,173.355877 189.788659,173.356098 C190.046298,173.356098 190.305316,173.374019 190.561115,173.353886 C191.516447,173.279103 191.597189,173.845949 191.423513,174.622984 C191.393609,174.756398 191.188878,174.909283 191.035445,174.949108 C190.793219,175.012165 190.526149,174.997562 190.269661,174.997783 C187.436559,175.000217 184.603456,174.999332 181.770584,174.999332 C181.660167,174.999332 181.549751,175.001766 181.439565,174.997341 C180.693333,174.968357 180.573485,174.848881 180.541051,174.10083 C180.53645,173.994851 180.53898,173.888429 180.53898,173.78245 C180.53898,168.934389 180.53714,164.086107 180.542201,159.238046 C180.542661,158.858379 180.454558,158.453046 180.820542,158.069175 C181.050347,158.049484 181.338119,158.004127 181.625892,158.003685 C184.532606,157.998374 187.439089,158.000366 190.345802,158.000366 C190.419413,158.000366 190.493024,157.999259 190.566635,158.001693 C191.408791,158.030456 191.733369,158.498181 191.410171,159.264375 C191.354043,159.397568 191.156903,159.530762 191.003701,159.559524 C190.718918,159.612846 190.418493,159.596473 190.124509,159.596695 C187.990481,159.598907 185.856453,159.595588 183.722655,159.600013 C183.363341,159.600677 183.004028,159.630104 182.591346,159.648689 C182.422041,160.325054 182.517965,160.959603 182.502093,161.584196 C182.485761,162.220736 182.490821,162.858162 182.500713,163.495144 C182.510604,164.124605 182.450795,164.75849 182.558221,165.443927 C182.88556,165.473796 183.167352,165.520922 183.449374,165.522028 C185.215347,165.528887 186.981551,165.525568 188.747524,165.52579 C188.968357,165.52579 189.18942,165.519816 189.409793,165.529551 C190.091154,165.559641 190.228945,165.705888 190.224344,166.376944 C190.219744,167.024547 190.088164,167.165705 189.363326,167.170351 C187.486936,167.182078 185.610546,167.173228 183.734157,167.176989 C183.371853,167.177653 183.010009,167.19845 182.539589,167.213495 Z" id="Path" fill="#B0A174" fill-rule="nonzero"></path>
                <path d="M244.525827,105 C244.175562,105.005685 244.02675,104.780354 243.84351,104.628127 C236.370011,98.430952 215.228857,80.2934339 214.533214,79.480591 C214.757321,78.981563 214.985648,78.4725053 215.381445,78 C215.617324,78.1823157 215.815445,78.3222843 215.999128,78.4789688 C225.193745,86.3241174 234.384585,94.1739465 243.588974,102.007728 C244.031192,102.384172 244.27329,102.794271 244.333703,103.354814 C244.37546,103.743294 244.468079,104.125978 244.522495,104.513567 C244.544484,104.672257 244.525827,104.836519 244.525827,105 Z" id="Path" fill="#B0A174" fill-rule="nonzero"></path>
                <path d="M186.661137,78 C187.050009,78.4964455 187.30393,78.9866992 187.533214,79.5788956 C177.576577,88.0200167 167.621272,96.4553883 157.533901,105 C157.520806,104.007551 157.696819,103.255475 157.883487,102.51534 C157.944082,102.27541 158.210876,102.067102 158.42085,101.887541 C160.089537,100.460564 161.767103,99.0437599 163.44245,97.6240807 C170.90005,91.30496 178.357651,84.9856181 185.816361,78.6680453 C186.078494,78.4462481 186.355277,78.241257 186.661137,78 Z" id="Path" fill="#B0A174" fill-rule="nonzero"></path>
                <path d="M229.403857,160.869151 C229.126611,160.666482 228.843083,160.453122 228.553499,160.248634 C227.475467,159.487772 226.302777,158.970068 224.981593,158.851105 C221.829145,158.567232 219.403237,160.472229 218.302998,162.720467 C216.314269,166.783626 218.396535,171.722743 222.634641,172.898041 C224.524674,173.422114 226.334404,173.171451 227.99766,172.072126 C228.474991,171.756635 228.944022,171.428635 229.359893,171.144989 C229.486403,171.16819 229.526779,171.164778 229.554593,171.182293 C231.03885,172.106245 230.630831,172.478146 229.677291,173.215806 C224.922599,176.894099 217.522176,174.691809 215.859144,168.385871 C214.439489,163.002065 217.845855,158.256974 222.425136,157.242947 C225.212856,156.625614 227.76864,157.173798 230.014877,159.013286 C230.126359,159.104498 230.239186,159.196393 230.33721,159.301708 C230.529892,159.508926 230.573408,159.795529 230.40854,159.996378 C230.137798,160.326198 229.880291,160.682404 229.403857,160.869151 Z" id="Path" fill="#B0A174" fill-rule="nonzero"></path>
                <path d="M157.53946,100 C157.490955,98.9848329 157.737077,98.2279866 157.858117,97.4572737 C157.887984,97.2664966 158.053937,97.0815344 158.194065,96.9269893 C158.409647,96.6887974 158.656219,96.478115 158.891113,96.2573682 C166.875722,88.7486208 174.86033,81.2396498 182.846511,73.7322443 C183.103413,73.4906976 183.376258,73.265925 183.679869,73 C184.104071,73.4678849 184.301912,73.9921307 184.533214,74.4651596 C184.426096,74.8916685 184.09711,75.0781962 183.843801,75.3168354 C179.046434,79.8362188 174.245024,84.3509054 169.443839,88.866263 C165.816901,92.2772154 162.189963,95.6881679 158.561004,99.0971074 C158.280972,99.3601249 157.985445,99.6068157 157.53946,100 Z" id="Path" fill="#B0A174" fill-rule="nonzero"></path>
                <path d="M216.533214,74.5555934 C216.852039,73.9604841 217.102593,73.4927056 217.366533,73 C217.829042,73.0817433 218.042783,73.4410546 218.311408,73.6952674 C221.870475,77.0635865 225.420394,80.441562 228.972321,83.8172919 C233.405759,88.0308908 237.833397,92.2507777 242.279776,96.4506779 C242.850271,96.9896448 243.280206,97.5362472 243.296716,98.3673792 C243.306533,98.8596357 243.434375,99.3494219 243.533214,100 C243.229783,99.806421 243.042146,99.7242286 242.901363,99.5915079 C241.46966,98.2422939 240.045543,96.8849954 238.61964,95.529718 C231.567771,88.8269899 224.516348,82.1242618 217.464033,75.4219829 C217.180682,75.1522748 216.891753,74.8888547 216.533214,74.5555934 Z" id="Path" fill="#B0A174" fill-rule="nonzero"></path>
                <path d="M294.639897,158.700958 C294.584257,158.859394 294.561131,158.968433 294.510758,159.062903 C293.934214,160.144186 293.700207,160.077488 292.8244,159.550733 C292.196337,159.172853 291.510575,158.923588 290.789551,158.759461 C289.972818,158.573708 289.180355,158.666129 288.416056,158.945214 C286.414866,159.675706 285.916629,161.963245 287.455073,163.438115 C287.894922,163.859702 288.440327,164.193647 288.983671,164.481838 C289.65913,164.840141 290.384046,165.106022 291.084921,165.418115 C292.021176,165.835149 292.936595,166.289515 293.748291,166.925537 C294.483969,167.502145 295.048378,168.200313 295.325888,169.103582 C295.907928,170.997762 295.246894,172.842317 293.56397,173.969355 C292.366233,174.771553 291.026992,175.08615 289.59914,174.98007 C287.952394,174.857601 286.469818,174.27735 285.159199,173.275058 C284.986098,173.142572 284.821469,172.994607 284.674471,172.834122 C284.512361,172.657247 284.493127,172.435527 284.599598,172.225189 C284.680653,172.064476 284.788955,171.91469 284.902066,171.773326 C285.368247,171.189889 285.558063,171.160296 286.154757,171.633329 C286.816707,172.158036 287.512315,172.62128 288.303632,172.929958 C289.358722,173.341756 290.436938,173.467412 291.515841,173.063582 C291.917224,172.91334 292.317233,172.688433 292.637561,172.407072 C293.685095,171.48673 293.813318,170.057387 292.929039,168.982023 C292.588333,168.567721 292.154207,168.198264 291.694666,167.918951 C290.979595,167.48439 290.210946,167.135875 289.456721,166.767556 C288.898952,166.495073 288.314852,166.274491 287.767387,165.984024 C287.285177,165.728158 286.820599,165.431318 286.378002,165.111941 C284.063352,163.44153 283.973825,159.307159 287.04476,157.687511 C287.522619,157.435516 288.054514,157.23747 288.584807,157.138903 C290.448845,156.792437 292.224501,157.099521 293.892083,157.999604 C294.082815,158.102724 294.262326,158.23225 294.429703,158.370199 C294.508239,158.435076 294.546248,158.548895 294.639897,158.700958 Z" id="Path" fill="#B0A174" fill-rule="nonzero"></path>
                <path d="M149.533214,172.55854 C149.633215,172.341283 149.674674,172.197583 149.756452,172.082122 C150.386757,171.19123 150.604072,171.063472 151.454199,171.804516 C152.201135,172.455605 153.073585,172.914487 154.045126,173.155656 C155.105962,173.418916 156.145157,173.381568 157.114192,172.832048 C158.082088,172.283211 158.592574,171.458817 158.512619,170.316735 C158.470021,169.707777 158.229926,169.16896 157.785956,168.773387 C157.301211,168.341378 156.777741,167.932824 156.21509,167.612632 C155.49025,167.200435 154.713929,166.877281 153.952186,166.532493 C153.055362,166.126445 152.166738,165.707188 151.398845,165.079556 C148.981041,163.103743 149.2651,159.33772 151.965824,157.770005 C152.430979,157.500141 152.954677,157.28129 153.479058,157.172206 C155.44583,156.763425 157.312373,157.089083 159.061146,158.078128 C159.187116,158.149408 159.308758,158.232531 159.418555,158.326585 C159.601929,158.483721 159.648171,158.697562 159.587578,158.920741 C159.550219,159.058064 159.474364,159.187872 159.401014,159.312214 C158.990074,160.008394 158.719911,160.062367 158.086644,159.680914 C157.398023,159.266212 156.667944,158.953079 155.877272,158.770664 C155.027373,158.574358 154.206404,158.662036 153.414137,158.972208 C151.493835,159.723728 151.03278,161.959839 152.482688,163.428491 C152.974951,163.926998 153.567898,164.283628 154.199798,164.572394 C154.861311,164.874596 155.535125,165.14947 156.19755,165.449622 C157.126949,165.870701 158.036757,166.328444 158.836086,166.974523 C159.880976,167.818958 160.483491,168.883383 160.530188,170.254336 C160.580075,171.714789 160.012185,172.87099 158.885061,173.763932 C157.81762,174.609733 156.573182,174.991641 155.230109,175 C153.26311,175.011909 151.524359,174.343057 150.010214,173.093941 C149.847114,172.959806 149.72456,172.776481 149.533214,172.55854 Z" id="Path" fill="#B0A174" fill-rule="nonzero"></path>
                <path d="M269.533214,172.49638 C269.614846,172.048238 269.924224,171.735518 270.245035,171.437591 C270.422476,171.27281 270.648393,171.258244 270.851216,171.393437 C271.063184,171.534548 271.256174,171.703882 271.458539,171.859787 C272.247877,172.468385 273.106499,172.949073 274.084711,173.174168 C275.152786,173.419975 276.201425,173.360344 277.161573,172.783381 C278.123549,172.205281 278.588646,171.355201 278.470428,170.216753 C278.411205,169.647301 278.176599,169.151364 277.763866,168.775599 C277.335355,168.385267 276.87689,168.008136 276.376122,167.721135 C275.68145,167.323065 274.927555,167.02878 274.212532,166.664167 C273.335617,166.216936 272.43858,165.795651 271.612657,165.266484 C270.62164,164.631484 270.052731,163.69082 269.789314,162.520508 C269.383898,160.71861 270.250294,158.441259 272.406568,157.512885 C273.842101,156.894727 275.324053,156.889037 276.818581,157.211999 C277.680404,157.398175 278.496724,157.726372 279.2385,158.210474 C279.611218,158.453777 279.677072,158.753069 279.471963,159.152504 C279.389188,159.313644 279.287205,159.467273 279.176533,159.611116 C278.917232,159.947734 278.704806,160.000081 278.322027,159.819368 C277.76135,159.554671 277.215765,159.255379 276.644342,159.016173 C275.627715,158.590791 274.582048,158.558017 273.533638,158.904877 C272.197114,159.347101 271.452594,160.49966 271.614486,161.848182 C271.692002,162.494106 271.985603,163.041253 272.469907,163.450931 C272.912137,163.824875 273.4001,164.157169 273.905898,164.441667 C274.413068,164.726848 274.971,164.92099 275.49875,165.170893 C276.290374,165.545748 277.095947,165.898525 277.856016,166.330052 C278.358613,166.615461 278.821423,166.98986 279.250391,167.38042 C280.878914,168.862541 281.159481,171.967896 278.899168,173.730191 C277.629413,174.720245 276.163696,175.097831 274.576332,174.978797 C272.96976,174.858397 271.517305,174.293498 270.233831,173.318238 C269.946175,173.099743 269.625593,172.900595 269.533214,172.49638 Z" id="Path" fill="#B0A174" fill-rule="nonzero"></path>
                <path d="M219.533214,70.5008373 C219.846994,69.9262579 220.102776,69.4581651 220.352441,69.0010572 C220.804873,68.9788632 220.957346,69.3111014 221.167363,69.5272132 C224.18124,72.6276554 227.187413,75.7357197 230.194946,78.8422148 C234.255286,83.0359944 238.308376,87.2364994 242.3848,91.4150345 C242.861475,91.9035279 243.165966,92.418699 243.248659,93.0851932 C243.327274,93.7196293 243.437154,94.3500301 243.533214,94.9822244 C243.145803,95.073915 243.044079,94.7889792 242.887529,94.6277921 C239.39879,91.0341487 235.916396,87.4344524 232.432642,83.8358771 C228.422598,79.6938836 224.4121,75.5521144 220.402283,71.4098968 C220.129056,71.1276512 219.859228,70.842267 219.533214,70.5008373 Z" id="Path" fill="#B0A174" fill-rule="nonzero"></path>
                <path d="M181.691151,69 C182.070534,69.4688064 182.301305,69.9818567 182.533214,70.4499928 C182.518876,70.5346818 182.517283,70.5713283 182.505904,70.6048464 C182.494524,70.6379175 182.479504,70.6736702 182.45538,70.6984736 C174.632618,78.7280682 166.808945,86.7567691 158.984135,94.7843526 C158.909487,94.8609973 158.822322,94.9271397 158.73493,94.9901537 C158.710806,95.0075831 158.665289,94.996187 158.629558,94.9979746 C158.595876,94.9443457 158.526462,94.8853538 158.533745,94.8379816 C158.66142,94.0270671 158.805026,93.2183873 158.93088,92.4072494 C158.985273,92.0566501 159.243126,91.8515194 159.465931,91.6222556 C161.074271,89.9684728 162.686935,88.3184888 164.298233,86.667164 C169.786661,81.0426043 175.273951,75.4173743 180.76602,69.7963899 C181.034115,69.5222119 181.257375,69.1865841 181.691151,69 Z" id="Path" fill="#B0A174" fill-rule="nonzero"></path>
                <path d="M217.533214,112.494889 C217.311827,112.93925 217.155287,113.268083 216.984412,113.589075 C216.917518,113.71452 216.81877,113.82267 216.747326,113.921136 C216.283165,113.989623 215.937093,113.744037 215.574183,113.600605 C211.106864,111.834918 206.645234,110.054242 202.180874,108.281176 C200.873715,107.762101 201.227069,107.745037 199.919228,108.264804 C195.455095,110.038792 190.992555,111.817162 186.528422,113.591381 C186.160734,113.73758 185.785765,113.865331 185.418759,114 C184.961652,113.560711 184.821949,113.028031 184.533214,112.512183 C184.868137,112.353071 185.11933,112.216557 185.382582,112.111405 C190.351604,110.129878 195.324266,108.157345 200.289419,106.165212 C200.792032,105.963439 201.225704,105.935075 201.744016,106.143766 C206.740569,108.155039 211.74736,110.140025 216.750284,112.134926 C216.983502,112.228318 217.207846,112.344539 217.533214,112.494889 Z" id="Path" fill="#B0A174" fill-rule="nonzero"></path>
                <path d="M242.533214,89 C241.70941,88.2474674 223.265926,66.6313766 222.533214,65.6029758 C222.649792,65.3544682 222.775678,65.0650326 222.919517,64.7853202 C223.050279,64.5311596 223.200545,64.2876266 223.364996,64 C223.767478,64.1668777 223.964951,64.5175923 224.207637,64.8013748 C227.073551,68.1547576 229.932593,71.5142457 232.793187,74.872377 C235.653781,78.2305083 238.505288,81.5965539 241.383613,84.9388567 C241.849925,85.4801918 242.134499,86.053636 242.215394,86.7602659 C242.292522,87.4361433 242.404889,88.1081766 242.533214,89 Z" id="Path" fill="#B0A174" fill-rule="nonzero"></path>
                <path d="M159.533214,89 C159.561254,87.9648748 159.754417,87.0040442 159.981184,86.0582088 C160.059073,85.7328577 160.34281,85.4443132 160.572024,85.1737175 C162.877303,82.4529922 165.190593,79.739083 167.502325,77.0238106 C170.934763,72.9921389 174.3672,68.9602399 177.801417,64.9301586 C178.055557,64.6320716 178.323271,64.3462535 178.633712,64 C179.057871,64.5302858 179.286641,65.0882901 179.533214,65.6181215 C179.516301,65.67424 179.507622,65.7094561 179.494937,65.7435361 C179.482475,65.777389 179.47157,65.8141955 179.450207,65.8416867 C179.29532,66.0402599 179.143326,66.2417867 178.980427,66.4333167 C172.629395,73.893443 166.27725,81.3526605 159.924437,88.8111964 C159.878149,88.8654973 159.821846,88.9123006 159.764431,88.9543327 C159.740175,88.9718271 159.701008,88.9684191 159.533214,89 Z" id="Path" fill="#B0A174" fill-rule="nonzero"></path>
                <path d="M215.533214,115.569202 C215.24658,116.091335 215.013775,116.515364 214.747809,117 C214.372142,116.896227 214.029634,116.813166 213.695077,116.707649 C209.800534,115.480254 205.902357,114.263541 202.018262,113.006279 C201.32757,112.782601 200.72682,112.772572 200.030449,112.99843 C196.112739,114.269645 192.179358,115.495732 188.250973,116.736644 C187.976831,116.823194 187.700872,116.904512 187.39516,116.99782 C186.96271,116.627639 186.806901,116.125999 186.533214,115.607135 C186.733994,115.508377 186.905247,115.395448 187.094671,115.335277 C191.536816,113.92301 195.982141,112.519681 200.423151,111.103707 C200.821077,110.976826 201.183572,110.960039 201.58604,111.088665 C206.060665,112.517283 210.53915,113.934128 215.016046,115.356206 C215.149597,115.3985 215.275879,115.462377 215.533214,115.569202 Z" id="Path" fill="#B0A174" fill-rule="nonzero"></path>
                <path d="M224.533214,61.6735003 C224.757912,61.0486537 225.064025,60.5440796 225.441435,60 C225.834254,60.1630703 226.005365,60.4821876 226.221094,60.742266 C229.30086,64.452718 232.375567,68.1673401 235.451883,71.8804258 C237.115385,73.8881872 238.771986,75.9014356 240.449517,77.8984427 C240.851996,78.3777771 241.128671,78.8698411 241.187318,79.4981993 C241.245735,80.1239238 241.414776,80.7399914 241.51804,81.3626433 C241.549089,81.5502948 241.52287,81.7467253 241.52287,82 C241.374528,81.9010166 241.269194,81.8597552 241.207557,81.7855725 C235.645073,75.0808168 230.086038,68.373208 224.533214,61.6735003 Z" id="Path" fill="#B0A174" fill-rule="nonzero"></path>
                <path d="M176.522041,59 C176.993662,59.6222321 177.235095,60.1812599 177.533214,60.7674405 C171.983929,67.7443353 166.460807,74.6886012 160.935161,81.6310417 C160.850706,81.7371429 160.736645,81.8199702 160.543636,82 C160.543636,81.6741667 160.517244,81.4708631 160.548456,81.2769147 C160.652878,80.6298115 160.823854,79.9900099 160.882147,79.3397123 C160.940669,78.6864484 161.217675,78.1773909 161.617921,77.6776885 C164.221586,74.4275694 166.808498,71.1642163 169.40023,67.9047421 C171.514604,65.2458234 173.627371,62.5855357 175.743122,59.9275298 C175.968719,59.6443651 176.208546,59.372381 176.522041,59 Z" id="Path" fill="#B0A174" fill-rule="nonzero"></path>
                <path d="M236.624807,158.170709 C237.069484,157.936524 237.44908,158.005077 237.818434,158.024095 C238.133164,158.040238 238.29277,158.22135 238.321576,158.57716 C238.347181,158.892945 238.341206,159.212047 238.341206,159.529822 C238.342273,163.697162 238.341846,167.864503 238.341846,172.031843 C238.341846,172.417508 238.341846,172.803172 238.341846,173.243236 C238.629264,173.285915 238.855016,173.347171 239.081195,173.348497 C240.716938,173.357122 242.352467,173.353362 243.98821,173.353805 C244.226764,173.353805 244.465532,173.348719 244.703874,173.356016 C245.383477,173.377024 245.550978,173.557694 245.531774,174.23725 C245.516197,174.794959 245.351257,174.980273 244.776848,174.989339 C243.754776,175.005482 242.732277,174.995973 241.709991,174.996195 C240.346943,174.996637 238.983896,175 237.620848,174.993541 C237.286701,174.991993 236.931642,175.064305 236.617553,174.760462 C236.594721,174.661171 236.536683,174.525835 236.53647,174.390277 C236.531989,169.128305 236.532202,163.866111 236.536683,158.604139 C236.536896,158.469024 236.590027,158.334572 236.624807,158.170709 Z" id="Path" fill="#B0A174" fill-rule="nonzero"></path>
                <path d="M169.055377,159.602027 C168.461662,159.602027 167.977733,159.602248 167.493804,159.602027 C166.764432,159.601584 166.034842,159.611317 165.305905,159.596497 C164.655884,159.583224 164.523923,159.428604 164.533706,158.76699 C164.542619,158.174833 164.674145,158.027513 165.276556,158.011365 C165.90136,157.994554 166.526815,158.00495 167.151836,158.004729 C169.513436,158.004286 171.875253,158.002517 174.236853,158.006941 C174.612083,158.007604 174.997531,157.952968 175.407979,158.139883 C175.448415,158.296273 175.521244,158.458635 175.527766,158.623872 C175.562115,159.476163 175.454937,159.590082 174.595126,159.599372 C173.69227,159.609326 172.789197,159.597603 171.886123,159.605123 C171.616114,159.607335 171.346323,159.64317 171.073922,159.663742 C170.862394,160.069205 170.93544,160.464271 170.935005,160.842305 C170.929352,165.047571 170.931526,169.252838 170.931092,173.457883 C170.931092,173.740579 170.938701,174.023938 170.923265,174.305749 C170.894351,174.833758 170.749781,174.967585 170.211285,174.996562 C170.176719,174.998553 170.141935,174.997889 170.107151,174.998553 C169.291255,175.016028 169.143641,174.88574 169.142119,174.027698 C169.135163,169.96378 169.138641,165.899861 169.138206,161.836164 C169.138206,161.341336 169.143858,160.846508 169.134076,160.352122 C169.130162,160.147953 169.09277,159.944226 169.055377,159.602027 Z" id="Path" fill="#B0A174" fill-rule="nonzero"></path>
                <path d="M189.305334,121 C189.026109,120.459701 188.792931,120.008447 188.533214,119.505249 C188.749607,119.399045 188.898632,119.294927 189.063082,119.249477 C192.873328,118.192763 196.686749,117.147179 200.495406,116.083972 C200.896437,115.971971 201.260268,115.971971 201.661298,116.084204 C205.469502,117.149034 209.282243,118.196937 213.092488,119.253187 C213.226997,119.290521 213.352205,119.36403 213.533214,119.443103 C213.517336,119.763341 213.345174,120.002649 213.21815,120.253784 C213.103376,120.480571 212.973631,120.699473 212.826193,120.965681 C212.597324,120.922317 212.388643,120.897737 212.188128,120.84278 C208.794564,119.912677 205.398279,118.991385 202.011974,118.034847 C201.355535,117.849337 200.75535,117.856293 200.10118,118.040876 C196.749353,118.986979 193.388226,119.897836 190.02982,120.820055 C189.822273,120.877099 189.612458,120.923941 189.305334,121 Z" id="Path" fill="#B0A174" fill-rule="nonzero"></path>
                <path d="M246.240963,114.908667 C246.355169,115.657479 246.607013,116.293549 246.512372,117 C246.379739,116.97176 246.263031,116.974187 246.178173,116.924986 C239.379295,112.966699 232.583147,109.00422 225.826584,105.065348 C225.615008,104.344998 225.500802,103.693483 225.541297,103.021892 C225.65209,103.015493 225.738996,102.983061 225.788136,103.011522 C232.591109,106.964735 239.391125,110.92236 246.240963,114.908667 Z" id="Path" fill="#B0A174" fill-rule="nonzero"></path>
                <path d="M175.533214,103 C175.428679,103.754923 175.342964,104.374027 175.271309,104.890495 C175.191491,105.016426 175.174937,105.047414 175.153622,105.075105 C175.13208,105.103017 175.110312,105.135104 175.080606,105.152466 C168.449321,109.030816 161.817355,112.907848 155.184709,116.784221 C155.0609,116.856527 154.930968,116.919382 154.801943,116.982677 C154.772238,116.997182 154.733916,116.998501 154.699222,116.999819 C154.663395,117.001138 154.627113,116.994984 154.55886,116.98971 C154.450923,116.316103 154.712828,115.686011 154.805118,115.056798 C155.572237,114.462529 174.504417,103.428559 175.533214,103 Z" id="Path" fill="#B0A174" fill-rule="nonzero"></path>
                <path d="M175.500877,108 C175.623891,108.688102 175.360486,109.316128 175.301266,109.937684 C174.512424,110.499858 155.674194,120.570225 154.605714,121 C154.429654,120.683445 154.630637,120.374978 154.622634,120.072518 C154.598397,119.163059 155.111259,118.73259 155.857114,118.338168 C162.040263,115.068412 168.20329,111.760069 174.376377,108.470904 C174.723925,108.285823 175.044263,108.013633 175.500877,108 Z" id="Path" fill="#B0A174" fill-rule="nonzero"></path>
                <path d="M247.533214,121 C247.339871,120.963436 247.221857,120.968527 247.131463,120.920393 C240.359002,117.300356 233.588596,113.676153 226.808373,110.04709 C226.691729,109.360016 226.508202,108.723854 226.536051,108.032153 C226.88781,107.917139 227.111741,108.138141 227.347084,108.263568 C230.381897,109.880471 233.413058,111.504084 236.444447,113.127466 C239.701593,114.871878 242.957825,116.617679 246.214285,118.363017 C246.311071,118.414854 246.402606,118.481039 246.504413,118.517603 C247.093571,118.728885 247.354709,119.149136 247.370003,119.779744 C247.379818,120.173383 247.472038,120.56517 247.533214,121 Z" id="Path" fill="#B0A174" fill-rule="nonzero"></path>
                <path d="M174.487033,112 C174.636405,112.716756 174.380997,113.281585 174.318989,113.933921 C172.624721,114.752473 170.867062,115.464392 169.138909,116.234355 C167.437725,116.992225 165.725938,117.728328 164.018531,118.473886 C162.2777,119.233955 160.536638,119.993584 158.796037,120.754092 C157.093009,121.498331 155.390443,122.243669 153.661137,123 C153.440536,122.644261 153.562478,122.33909 153.608119,122.046231 C153.656527,121.735124 153.743661,121.429294 153.831486,121.044532 C157.220022,119.512302 160.675637,118.034159 164.116269,116.526114 C167.553904,115.019168 170.988081,113.503428 174.487033,112 Z" id="Path" fill="#B0A174" fill-rule="nonzero"></path>
                <path d="M174.596659,55 C174.971553,55.6768342 175.259881,56.1974422 175.533214,56.6910995 C175.161727,57.3530341 163.739935,72.7574209 162.849731,73.7992942 C162.787703,73.87182 162.682505,73.9099453 162.540727,74 C162.540727,73.808716 162.521868,73.6737436 162.543907,73.5451254 C162.645015,72.958784 162.812468,72.3779205 162.854502,71.7885117 C162.929935,70.7304242 163.401394,69.8769864 164.039169,69.0338469 C167.332108,64.6805475 170.585285,60.2994211 173.854594,55.9292502 C174.063399,55.6498835 174.290154,55.3827871 174.596659,55 Z" id="Path" fill="#B0A174" fill-rule="nonzero"></path>
                <path d="M227.541438,112 C227.715534,112.026293 227.83298,112.020054 227.927397,112.061944 C234.681898,115.052437 241.434557,118.046494 248.208172,121.049687 C248.370754,121.68874 248.541856,122.297044 248.532875,122.907799 C248.450893,122.959048 248.426483,122.982667 248.397697,122.99002 C248.363154,122.998933 248.31963,123.005617 248.288542,122.993139 C247.983183,122.870142 247.676443,122.749372 247.375921,122.616125 C240.858613,119.723006 234.342227,116.82855 227.821005,113.932311 C227.655199,113.277883 227.49469,112.667797 227.541438,112 Z" id="Path" fill="#B0A174" fill-rule="nonzero"></path>
                <path d="M239.533214,74 C239.406421,73.9483498 239.3166,73.9404036 239.28167,73.8936094 C235.033545,68.1814031 230.789504,62.4661067 226.533214,56.7351387 C226.736672,56.0985606 227.106163,55.580734 227.43664,55 C227.840608,55.1286841 227.97103,55.477875 228.169044,55.7445138 C231.330471,60.0041125 234.484866,64.2683465 237.641076,68.5316976 C237.87402,68.846455 238.088139,69.176884 238.344673,69.4722174 C238.805346,70.0028462 239.038064,70.6094053 239.128339,71.2929983 C239.220655,71.9916007 239.367408,72.6831399 239.481952,73.3790936 C239.513707,73.5735545 239.515295,73.7730922 239.533214,74 Z" id="Path" fill="#B0A174" fill-rule="nonzero"></path>
                <path d="M228.774627,117.942637 C228.56847,117.26191 228.524057,116.680727 228.534663,116 C229.730727,116.309591 230.764605,116.858369 231.840245,117.277063 C232.932236,117.702051 234.009423,118.169935 235.093017,118.618702 C236.209535,119.081223 237.326053,119.543512 238.442571,120.0058 C239.526386,120.454567 240.610202,120.903101 241.693796,121.351635 C242.777612,121.800169 243.861869,122.247071 244.944801,122.697936 C246.025744,123.147869 247.105361,123.601765 248.215692,124.066618 C248.29568,124.398589 248.389368,124.71564 248.44505,125.039918 C248.494324,125.326896 248.501174,125.622033 248.533214,125.986175 C248.083557,126.060076 247.749906,125.82019 247.412719,125.681247 C242.877928,123.812511 238.347778,121.931652 233.816302,120.053591 C232.470206,119.495721 231.123888,118.937851 229.778454,118.37765 C229.452094,118.241504 229.12927,118.0965 228.774627,117.942637 Z" id="Path" fill="#B0A174" fill-rule="nonzero"></path>
                <path d="M173.533214,116 C173.525912,116.801536 173.50821,117.415878 173.268573,117.980008 C171.927888,118.675336 154.369765,125.83363 153.581817,126 C153.438655,125.362519 153.641561,124.777333 153.805302,124.10121 C160.303385,121.418701 166.835986,118.741514 173.533214,116 Z" id="Path" fill="#B0A174" fill-rule="nonzero"></path>
                <path d="M228.77283,121.701505 C228.686968,121.103233 228.613973,120.595199 228.533214,120.032936 C228.956314,119.920787 229.268925,120.122959 229.580204,120.222743 C233.521007,121.487186 237.457373,122.765295 241.395957,124.037113 C243.651458,124.765322 245.908733,125.488326 248.18753,126.220874 C248.453549,126.763181 248.543405,127.328048 248.532311,127.969488 C248.131841,128.076865 247.817456,127.874042 247.50662,127.774692 C243.833832,126.60114 240.165926,125.413054 236.497132,124.227571 C234.241632,123.498711 231.986575,122.768982 229.732183,122.037519 C229.432441,121.940337 229.136914,121.82949 228.77283,121.701505 Z" id="Path" fill="#B0A174" fill-rule="nonzero"></path>
                <path d="M173.533214,120 C173.449749,120.60609 173.380713,121.108764 173.30524,121.656373 C173.092583,121.754844 172.883256,121.879975 172.656171,121.952646 C166.459822,123.935392 160.261919,125.912763 154.063572,127.889489 C153.931938,127.931414 153.793644,127.954205 153.598524,128 C153.417388,127.380795 153.661122,126.846731 153.750136,126.331156 C154.601651,125.938348 172.271035,120.276922 173.533214,120 Z" id="Path" fill="#B0A174" fill-rule="nonzero"></path>
                <path d="M229.748547,125.636841 C229.700472,125.379393 229.645688,125.140129 229.613265,124.89776 C229.576593,124.624568 229.559823,124.348938 229.533214,124.060002 C229.707851,124.032505 229.815853,123.982612 229.904177,124.006118 C236.343158,125.718222 242.780349,127.436313 249.239454,129.159726 C249.415432,129.758663 249.617349,130.312808 249.496602,131 C243.080429,129.283239 236.717252,127.581557 230.355416,125.87544 C230.153052,125.821556 229.963209,125.722657 229.748547,125.636841 Z" id="Path" fill="#B0A174" fill-rule="nonzero"></path>
                <path d="M152.562176,131 C152.453325,130.32425 152.680434,129.830433 152.76308,129.257984 C153.050886,129.15975 153.343619,129.03993 153.647102,128.959095 C159.553052,127.387999 165.460346,125.820868 171.367863,124.254838 C171.70987,124.164312 172.055685,124.088543 172.424121,124 C172.684826,124.579497 172.392093,125.076178 172.424793,125.522639 C172.11011,125.878355 171.740778,125.901482 171.401459,125.991788 C166.117259,127.397911 160.832835,128.804034 155.548635,130.209496 C154.582862,130.466316 153.616418,130.720934 152.562176,131 Z" id="Path" fill="#B0A174" fill-rule="nonzero"></path>
                <path d="M211.533214,123.413757 C211.432639,123.665634 211.37189,123.845928 211.29044,124.014816 C211.142391,124.322261 210.982193,124.622912 210.805569,124.968212 C210.59092,124.952925 210.376947,124.965785 210.174898,124.919438 C207.434193,124.290959 204.693263,123.662965 201.956832,123.012646 C201.345286,122.867295 200.759166,122.866325 200.14762,123.011433 C197.41119,123.661266 194.670034,124.28829 191.929779,124.920166 C191.757205,124.959962 191.578781,124.970881 191.369758,125 C190.98636,124.563947 190.834936,124.00511 190.533214,123.450398 C190.832237,123.336592 191.05611,123.221573 191.292133,123.16649 C194.240962,122.476134 197.192941,121.800579 200.14087,121.105612 C200.751066,120.961717 201.343036,120.96657 201.951432,121.109737 C204.864486,121.795241 207.780915,122.464244 210.695095,123.145379 C210.966668,123.20847 211.229241,123.314996 211.533214,123.413757 Z" id="Path" fill="#B0A174" fill-rule="nonzero"></path>
                <path d="M223.533214,101.489971 C223.384375,102.016633 223.111543,102.488078 222.795572,103 C222.578526,102.903137 222.37616,102.839732 222.200445,102.730469 C217.469918,99.7869191 212.742101,96.8386898 208.014736,93.8902265 C207.862058,93.7950016 207.716608,93.6869084 207.533214,93.5612677 C207.649529,92.9506115 207.947431,92.4644262 208.282148,92 C209.088223,92.3434649 222.693486,100.810061 223.533214,101.489971 Z" id="Path" fill="#B0A174" fill-rule="nonzero"></path>
                <path d="M179.334135,103 C179.027332,102.404686 178.795096,101.953979 178.533214,101.44566 C178.722102,101.290874 178.868989,101.140483 179.041257,101.033359 C183.740771,98.1141703 188.442532,95.1989147 193.146089,92.2864354 C193.325544,92.1753781 193.525212,92.0994889 193.730047,92 C194.08132,92.4731506 194.315802,92.9592579 194.533214,93.5029763 C194.363641,93.638096 194.236069,93.7623415 194.089181,93.853501 C189.207741,96.8818964 184.324729,99.9072839 179.334135,103 Z" id="Path" fill="#B0A174" fill-rule="nonzero"></path>
                <path d="M198.784574,101 C198.921386,101.240644 199.033895,101.424505 199.132454,101.615921 C199.26499,101.873509 199.386951,102.136591 199.533214,102.43837 C199.336322,102.562241 199.166657,102.69092 198.979666,102.783652 C193.875098,105.314193 184.242912,109.737375 183.257777,110 C182.937799,109.579617 182.703553,109.104053 182.533214,108.599868 C183.276003,108.101407 197.600746,101.397029 198.784574,101 Z" id="Path" fill="#B0A174" fill-rule="nonzero"></path>
                <path d="M204.533214,97.4544613 C204.795863,96.9572966 205.03352,96.5066543 205.30126,96 C205.547942,96.0840181 205.758293,96.1261428 205.94018,96.2221965 C210.977492,98.8776762 216.012258,101.538479 221.046098,104.200903 C221.203456,104.283995 221.34531,104.396482 221.533214,104.521236 C221.330962,105.075107 221.052577,105.539868 220.784606,106 C219.958707,105.726883 205.776806,98.2751996 204.533214,97.4544613 Z" id="Path" fill="#B0A174" fill-rule="nonzero"></path>
                <path d="M195.795339,96 C196.138409,96.5273226 196.431279,96.9684482 196.533214,97.5052202 C195.828659,98.0472931 182.267197,105.593445 181.269115,106 C181.193706,105.89767 181.095059,105.79534 181.032145,105.672498 C180.851951,105.320104 180.686225,104.959183 180.533214,104.640208 C180.565438,104.548019 180.572672,104.510221 180.590867,104.479569 C180.608843,104.448916 180.633175,104.416419 180.662331,104.400055 C185.424538,101.74293 190.187403,99.0867271 194.951145,96.4323677 C195.197104,96.2952361 195.451611,96.1753901 195.795339,96 Z" id="Path" fill="#B0A174" fill-rule="nonzero"></path>
                <path d="M202.533214,102.42553 C202.79525,101.931831 203.03079,101.487982 203.289907,101 C203.529489,101.076605 203.733594,101.117994 203.917715,101.203974 C208.901562,103.527491 213.883836,105.854896 218.864764,108.185045 C219.087506,108.289319 219.296101,108.425606 219.533214,108.559378 C219.327312,109.104756 219.116022,109.593882 218.775173,110 C217.939443,109.758982 203.530387,103.04797 202.533214,102.42553 Z" id="Path" fill="#B0A174" fill-rule="nonzero"></path>
                <path d="M193.269984,127.997153 C192.946568,127.515831 192.683932,127.041863 192.533214,126.452604 C193.235445,126.123341 193.966608,126.134728 194.661886,126.002358 C196.423183,125.667401 198.196142,125.401239 199.961925,125.092377 C200.712825,124.960956 201.45296,124.973529 202.203412,125.106136 C204.321767,125.480234 206.44416,125.829898 208.563861,126.195694 C208.874942,126.249306 209.180416,126.338975 209.533214,126.422477 C209.369263,127.041151 209.109991,127.517017 208.784107,128 C208.52192,127.979125 208.272742,127.978413 208.029843,127.936899 C206.050767,127.600045 204.071691,127.262479 202.094859,126.910205 C201.34351,126.776175 200.602926,126.794203 199.853371,126.928471 C197.876987,127.282405 195.897687,127.618785 193.918387,127.95564 C193.710925,127.991223 193.49651,127.983869 193.269984,127.997153 Z" id="Path" fill="#B0A174" fill-rule="nonzero"></path>
                <path d="M163.533214,66 C163.799209,64.4488659 164.01526,63.1413561 164.255718,61.8385746 C164.293007,61.63638 164.424761,61.4431919 164.542053,61.2650895 C166.720864,57.960852 168.903744,54.6593164 171.088432,51.3589066 C171.164366,51.2440745 171.269679,51.1483811 171.3994,51 C172.076705,51.3023912 172.280326,51.9134781 172.533214,52.4597187 C172.121,53.3493298 164.314476,65.1578979 163.533214,66 Z" id="Path" fill="#B0A174" fill-rule="nonzero"></path>
                <path d="M238.533214,65 C238.389273,64.9633018 238.288266,64.9690003 238.260021,64.9259197 C235.348449,60.5011625 232.4423,56.0727582 229.533214,51.640251 C229.75353,50.9612199 230.002319,50.379063 230.668241,50 C230.814215,50.1636604 230.974425,50.3031592 231.08673,50.4747975 C233.233407,53.7562113 235.375565,57.0403604 237.513655,60.3274728 C237.650364,60.5378607 237.806281,60.7642044 237.850344,61.002401 C238.09371,62.3212576 238.30544,63.6460407 238.533214,65 Z" id="Path" fill="#B0A174" fill-rule="nonzero"></path>
                <path d="M194.533214,130.656104 C194.94441,130.587181 195.216105,130.524149 195.492228,130.498033 C197.216506,130.334464 198.941449,130.176982 200.667055,130.023428 C200.911514,130.001632 201.162173,129.98985 201.405525,130.01145 C203.201547,130.170699 204.996461,130.337606 206.791154,130.508244 C207.032513,130.531218 207.269665,130.588555 207.491981,130.627239 C207.629268,130.950842 207.388794,131.137778 207.279851,131.351026 C207.178878,131.548762 207.035613,131.729611 206.909398,131.920081 C206.396122,132.023171 205.908533,131.920277 205.420722,131.874525 C204.435357,131.782039 203.44667,131.708207 202.467284,131.579002 C201.260046,131.419949 200.070522,131.544835 198.875905,131.662651 C197.717825,131.776934 196.558858,131.885325 195.360699,132 C195.193519,131.767901 195.034532,131.568594 194.901452,131.356524 C194.78343,131.168214 194.694193,130.965569 194.533214,130.656104 Z" id="Path" fill="#B0A174" fill-rule="nonzero"></path>
                <path d="M197.283214,136 C197.020139,135.43589 196.799105,134.962467 196.533214,134.392751 C196.837678,134.303527 197.049611,134.209183 197.268261,134.18188 C199.705057,133.877641 204.163667,133.970765 205.533214,134.344482 C205.437649,135.020487 205.437649,135.020487 204.904783,135.919796 C203.655071,136.040711 202.387158,135.735254 201.115126,135.757438 C199.871916,135.779134 198.630223,135.910045 197.283214,136 Z" id="Path" fill="#B0A174" fill-rule="nonzero"></path>
                <path d="M168.533214,50.0674486 C168.243205,50.8820978 166.231893,54.2541041 165.594537,55 C165.569836,54.8879167 165.522421,54.7961719 165.535432,54.7139332 C165.678562,53.8077604 165.814193,52.899819 165.985111,51.9987308 C166.204326,50.8436313 166.983048,50.1328858 168.140434,50.0022325 C168.264377,49.9883049 168.396259,50.0431307 168.533214,50.0674486 Z" id="Path" fill="#B0A174" fill-rule="nonzero"></path>
                <path d="M236.502462,55 C236.41716,54.9558769 236.332511,54.9414649 236.303134,54.8926856 C235.431835,53.4419453 234.564671,51.9885443 233.701424,50.532926 C233.63266,50.4171861 233.596755,50.2810475 233.533214,50.1236235 C233.653115,50.0704097 233.740158,49.9965756 233.823719,50.0001232 C234.964633,50.0502328 235.812865,50.7422335 236.055715,51.8692567 C236.204558,52.5603705 236.287031,53.2665616 236.392353,53.9669878 C236.443055,54.30423 236.598644,54.6339336 236.502462,55 Z" id="Path" fill="#B0A174" fill-rule="nonzero"></path>
                <path d="M198.533214,138.118123 C198.612085,138.065234 198.657954,138.007441 198.704239,138.007287 C200.226655,138.000696 201.749278,137.998243 203.271902,138.001309 C203.353471,138.001462 203.434833,138.05527 203.533214,138.090069 C203.524911,138.330902 203.288091,138.438978 203.100877,138.563917 C202.238693,139.139709 199.89685,139.152892 198.984023,138.558245 C198.791205,138.432693 198.576178,138.313886 198.533214,138.118123 Z" id="Path" fill="#B0A174" fill-rule="nonzero"></path>
                <path d="M245.533214,136.027363 C245.866603,135.999311 246.199825,135.971259 246.533214,135.943207 C246.208497,136.130146 245.877443,136.031852 245.544555,136.023997 C245.541052,136.026017 245.533214,136.027363 245.533214,136.027363 Z" id="Path" fill="#B0A174" fill-rule="nonzero"></path>
                <path d="M246.533214,135.053075 C246.864295,135.017617 247.195376,134.982159 247.526239,134.946925 C247.528636,134.981261 247.530816,135.015821 247.533214,135.050157 C247.20453,135.050157 246.875847,135.050157 246.542804,135.051504 C246.538445,135.052626 246.533214,135.053075 246.533214,135.053075 Z" id="Path" fill="#B0A174" fill-rule="nonzero"></path>
                <path d="M156.525627,136.02873 C156.194823,136.02873 155.864018,136.02873 155.533214,136.02873 C155.533214,136.008981 155.533214,135.989232 155.533214,135.969259 C155.865511,135.989008 156.197807,136.008757 156.532757,136.030301 C156.53541,136.031872 156.525627,136.02873 156.525627,136.02873 Z" id="Path" fill="#B0A174" fill-rule="nonzero"></path>
                <path d="M155.528993,135.05295 C155.197067,135.05295 154.86514,135.05295 154.533214,135.05295 C154.536049,135.017716 154.538666,134.982483 154.541501,134.947025 C154.87081,134.98181 155.20012,135.016594 155.532483,135.052277 C155.535318,135.053174 155.528993,135.05295 155.528993,135.05295 Z" id="Path" fill="#B0A174" fill-rule="nonzero"></path>
                <rect id="Rectangle" x="0.533213645" y="0" width="400" height="225"></rect>
            </g>
        </g>
    </g>
</svg>