<?xml version="1.0" encoding="UTF-8"?>
<svg width="400px" height="225px" viewBox="0 0 400 225" version="1.1" xmlns="http://www.w3.org/2000/svg" xmlns:xlink="http://www.w3.org/1999/xlink">
    <title>NewYorkTimes</title>
    <g id="Page-1" stroke="none" stroke-width="1" fill="none" fill-rule="evenodd">
        <g id="Artboard">
            <g id="NewYorkTimes">
                <path d="M59.8115155,95.5454545 C59.8115155,91.9090909 56.3954373,91 53.6985334,91 L53.6985334,91.5454545 C55.3166757,91.5454545 56.5752309,92.0909091 56.5752309,93.3636364 C56.5752309,94.0909091 56.0358501,95.1818182 54.4177078,95.1818182 C53.1591526,95.1818182 50.4622488,94.4545455 48.4845193,93.7272727 C46.1472026,92.8181818 43.9896795,92.0909091 42.1917436,92.0909091 C38.5958718,92.0909091 36.0787615,94.8181818 36.0787615,97.9090909 C36.0787615,100.636364 38.056491,101.545455 38.7756654,101.909091 L38.955459,101.545455 C38.5958718,101.181818 38.056491,100.818182 38.056491,99.7272727 C38.056491,99 38.7756654,97.7272727 40.5736013,97.7272727 C42.1917436,97.7272727 44.3492667,98.4545455 47.2259641,99.3636364 C49.7430744,100.090909 52.4399783,100.636364 53.878327,100.818182 L53.878327,106.454545 L51.1814231,108.818182 L51.1814231,109 L53.878327,111.363636 L53.878327,119.181818 C52.4399783,120.090909 50.821836,120.272727 49.3834872,120.272727 C46.6865834,120.272727 44.3492667,119.545455 42.3715372,117.363636 L49.7430744,113.727273 L49.7430744,101.181818 L40.7533949,105.181818 C41.4725693,102.818182 43.4502988,101.181818 45.4280282,100.090909 L45.2482347,99.5454545 C39.8544269,101 35,106.090909 35,112.272727 C35,119.545455 40.9331885,125 47.5855513,125 C54.7772949,125 59.4519283,119.181818 59.4519283,113.181818 L59.0923411,113.181818 C58.0135796,115.545455 56.3954373,117.727273 54.4177078,118.818182 L54.4177078,111.363636 L57.2944052,109 L57.2944052,108.818182 L54.4177078,106.454545 L54.4177078,100.818182 C57.1146116,100.818182 59.8115155,99 59.8115155,95.5454545 Z M44.1694731,115.545455 L42.01195,116.636364 C40.7533949,115 40.0342205,112.818182 40.0342205,109.727273 C40.0342205,108.454545 40.0342205,107 40.3938077,105.909091 L44.1694731,104.272727 L44.1694731,115.545455 L44.1694731,115.545455 Z M63.2275937,119.727273 L60.890277,121.545455 L61.2498642,121.909091 L62.3286257,121 L66.2840847,124.636364 L71.6778924,121 L71.4980989,120.636364 L70.0597501,121.545455 L68.2618142,119.727273 L68.2618142,107.363636 L69.700163,106.272727 L72.756654,108.818182 L72.756654,119.909091 C72.756654,126.818182 71.3183053,127.909091 68.2618142,129 L68.2618142,129.545455 C73.2960348,129.727273 77.9706681,128.090909 77.9706681,119.181818 L77.9706681,107.181818 L79.5888104,105.909091 L79.2292232,105.545455 L77.7908745,106.636364 L73.2960348,102.818182 L68.2618142,106.636364 L68.2618142,91.7272727 L67.9022271,91.7272727 L61.6094514,96.0909091 L61.6094514,96.4545455 C62.3286257,96.8181818 63.4073873,97.1818182 63.4073873,99.1818182 L63.2275937,119.727273 L63.2275937,119.727273 Z M96.1298207,117.727273 L91.634981,121.181818 L87.1401412,117.545455 L87.1401412,115.363636 L95.59044,109.545455 L95.59044,109.363636 L91.2753938,102.818182 L81.9261271,107.909091 L81.9261271,119.909091 L80.1281912,121.363636 L80.4877784,121.727273 L82.1059207,120.454545 L88.2189028,125 L96.3096143,118.454545 L96.1298207,117.727273 L96.1298207,117.727273 Z M87.1401412,114.636364 L87.1401412,105.727273 L87.4997284,105.545455 L91.4551874,111.909091 L87.1401412,114.636364 Z M130.470397,93.9090909 C130.470397,93.3636364 130.290603,92.8181818 130.110809,92.2727273 L129.751222,92.2727273 C129.211841,93.7272727 128.492667,94.4545455 126.694731,94.4545455 C125.076589,94.4545455 123.997827,93.5454545 123.278653,92.8181818 L118.064639,98.8181818 L118.424226,99.1818182 L120.222162,97.5454545 C121.300923,98.4545455 122.199891,99.1818182 124.717002,99.3636364 L124.717002,114.454545 L114.10918,96.0909091 C113.210212,94.6363636 111.951657,92.6363636 109.434546,92.6363636 C106.557849,92.6363636 104.040739,95.1818182 104.400326,99.1818182 L104.939707,99.1818182 C105.1195,98.0909091 105.658881,96.8181818 106.917436,96.8181818 C107.816404,96.8181818 108.715372,97.7272727 109.254753,98.6363636 L109.254753,104.636364 C106.018468,104.636364 103.860945,106.090909 103.860945,108.818182 C103.860945,110.272727 104.58012,112.454545 106.737643,113 L106.737643,112.636364 C106.378055,112.272727 106.198262,111.909091 106.198262,111.363636 C106.198262,110.454545 106.917436,109.727273 108.175991,109.727273 L109.074959,109.727273 L109.074959,117.363636 C105.299294,117.363636 102.242803,119.545455 102.242803,123.181818 C102.242803,126.636364 105.1195,128.272727 108.355785,128.090909 L108.355785,127.727273 C106.378055,127.545455 105.479087,126.636364 105.479087,125.363636 C105.479087,123.727273 106.557849,123 107.996198,123 C109.434546,123 110.693102,123.909091 111.59207,125 L116.806084,119.181818 L116.446496,118.818182 L115.187941,120.272727 C113.210212,118.454545 112.13145,117.909091 109.794134,117.545455 L109.794134,99.3636364 L124.177621,124.818182 L125.256382,124.818182 L125.256382,99.3636364 C127.953286,99.1818182 130.470397,97 130.470397,93.9090909 L130.470397,93.9090909 Z M143.595329,117.727273 L139.100489,121.181818 L134.605649,117.545455 L134.605649,115.363636 L143.055948,109.545455 L143.055948,109.363636 L138.740902,102.818182 L129.391635,107.909091 L129.391635,119.909091 L127.593699,121.363636 L127.953286,121.727273 L129.571429,120.454545 L135.684411,125 L143.775122,118.454545 L143.595329,117.727273 L143.595329,117.727273 Z M134.605649,114.636364 L134.605649,105.727273 L134.965236,105.545455 L138.920695,111.909091 L134.605649,114.636364 L134.605649,114.636364 Z M172.901684,104.818182 L171.643129,105.727273 L168.227051,102.818182 L164.271592,106.454545 L165.889734,108.090909 L165.889734,121.727273 L161.574688,119 L161.574688,107.727273 L163.013036,106.818182 L158.877784,102.818182 L154.922325,106.454545 L156.540467,108.090909 L156.540467,121.181818 L156.001086,121.545455 L152.225421,118.818182 L152.225421,107.909091 C152.225421,105.363636 150.966866,104.636364 149.528517,103.727273 C148.269962,102.818182 147.550788,102.272727 147.550788,101 C147.550788,99.9090909 148.629549,99.3636364 149.16893,99 L149.16893,98.6363636 C147.730581,98.6363636 143.954916,100.090909 143.954916,103.545455 C143.954916,105.363636 144.853884,106.090909 145.752852,107 C146.65182,107.909091 147.550788,108.636364 147.550788,110.272727 L147.550788,120.818182 L145.573058,122.272727 L145.932645,122.636364 L147.730581,121.181818 L151.865834,124.818182 L156.360674,121.727273 L161.394894,124.818182 L170.923954,119.181818 L170.923954,107 L173.261271,105.181818 L172.901684,104.818182 L172.901684,104.818182 Z M206.343292,94.8181818 L204.545356,96.4545455 L200.589897,92.8181818 L194.656708,97.1818182 L194.656708,93.1818182 L194.117328,93.1818182 L194.297121,122.636364 C193.75774,122.636364 192.139598,122.272727 190.881043,121.909091 L190.521456,97.3636364 C190.521456,95.5454545 189.262901,93 186.026616,93 C182.790331,93 180.632808,95.5454545 180.632808,98.0909091 L181.172189,98.0909091 C181.351983,97 181.891363,96.0909091 182.970125,96.0909091 C184.048886,96.0909091 184.947854,96.8181818 184.947854,99.1818182 L184.947854,106.272727 C181.71157,106.454545 179.73384,108.272727 179.73384,110.636364 C179.73384,112.090909 180.453015,114.272727 182.610538,114.272727 L182.610538,113.909091 C181.891363,113.545455 181.71157,113 181.71157,112.636364 C181.71157,111.545455 182.610538,111.181818 184.048886,111.181818 L184.768061,111.181818 L184.768061,122.454545 C182.071157,123.363636 180.992395,125.363636 180.992395,127.545455 C180.992395,130.636364 183.329712,132.818182 186.925584,132.818182 C189.442694,132.818182 191.600217,132.454545 193.75774,131.909091 C195.555676,131.545455 197.892993,131 198.971754,131 C200.410103,131 200.949484,131.727273 200.949484,132.636364 C200.949484,133.909091 200.410103,134.454545 199.690929,134.636364 L199.690929,135 C202.567626,134.454545 204.365562,132.636364 204.365562,129.909091 C204.365562,127.181818 201.668658,125.545455 198.791961,125.545455 C197.353612,125.545455 194.297121,126.090909 192.139598,126.454545 C189.622488,127 187.105378,127.363636 186.386203,127.363636 C185.127648,127.363636 183.689299,126.818182 183.689299,125 C183.689299,123.545455 184.947854,122.272727 188.004345,122.272727 C189.622488,122.272727 191.600217,122.454545 193.577947,123 C195.73547,123.545455 197.713199,124.090909 199.511135,124.090909 C202.208039,124.090909 204.545356,123.181818 204.545356,119.363636 L204.545356,97 L206.702879,95.1818182 L206.343292,94.8181818 L206.343292,94.8181818 Z M198.971754,105.909091 C198.432374,106.454545 197.713199,107 196.814231,107 C195.915263,107 195.016295,106.454545 194.656708,105.909091 L194.656708,97.9090909 L196.454644,96.6363636 L198.971754,99 L198.971754,105.909091 Z M198.971754,111.363636 C198.612167,111 197.713199,110.454545 196.814231,110.454545 C195.915263,110.454545 195.016295,111 194.656708,111.363636 L194.656708,106.636364 C195.016295,107 195.915263,107.545455 196.814231,107.545455 C197.713199,107.545455 198.612167,107 198.971754,106.636364 L198.971754,111.363636 Z M198.971754,119.909091 C198.971754,121.363636 198.072787,122.818182 196.095057,122.818182 L194.656708,122.818182 L194.656708,112.090909 C195.016295,111.727273 195.915263,111.181818 196.814231,111.181818 C197.713199,111.181818 198.432374,111.727273 198.971754,112.090909 L198.971754,119.909091 L198.971754,119.909091 Z M223.603476,107 L217.850081,102.818182 L209.040196,107.909091 L209.040196,119.727273 L207.24226,121.181818 L207.422053,121.545455 L208.860402,120.454545 L214.613797,124.818182 L223.603476,119.363636 L223.603476,107 L223.603476,107 Z M213.894622,118.454545 L213.894622,105.363636 L218.389462,108.636364 L218.389462,121.545455 L213.894622,118.454545 L213.894622,118.454545 Z M240.683867,103.181818 L240.32428,103.181818 C239.7849,103.545455 239.245519,103.909091 238.706138,103.909091 C237.986964,103.909091 237.087996,103.545455 236.728408,103 L236.368821,103 L233.31233,106.454545 L230.255839,103 L224.862032,106.636364 L225.041825,107 L226.480174,106.090909 L228.27811,108.090909 L228.27811,119.545455 L225.940793,121.363636 L226.30038,121.727273 L227.379142,120.818182 L231.694188,124.454545 L237.267789,120.636364 L237.087996,120.272727 L235.469853,121.181818 L233.31233,119.363636 L233.31233,106.636364 C234.211298,107.545455 235.29006,108.454545 236.548615,108.454545 C239.065725,108.636364 240.504074,106.090909 240.683867,103.181818 L240.683867,103.181818 Z M262.259098,120.636364 L256.146116,124.818182 L247.875611,112.090909 L253.8088,102.818182 L254.168387,102.818182 C254.887561,103.545455 255.966323,104.272727 257.224878,104.272727 C258.483433,104.272727 259.382401,103.545455 259.921782,102.818182 L260.281369,102.818182 C260.101575,106.454545 257.584465,108.636364 255.786529,108.636364 C253.988593,108.636364 253.089625,107.727273 252.010864,107.181818 L251.471483,108.090909 L260.461162,121.545455 L262.259098,120.454545 L262.259098,120.636364 L262.259098,120.636364 Z M242.481803,119.727273 L240.144487,121.545455 L240.504074,121.909091 L241.582835,121 L245.538294,124.636364 L250.932102,121 L250.572515,120.636364 L249.134166,121.545455 L247.33623,119.727273 L247.33623,91.7272727 L247.156437,91.7272727 L240.683867,96.0909091 L240.683867,96.4545455 C241.403042,96.8181818 242.481803,97 242.481803,99.1818182 L242.481803,119.727273 L242.481803,119.727273 Z M292.104834,95.5454545 C292.104834,91.9090909 288.688756,91 285.991852,91 L285.991852,91.5454545 C287.609995,91.5454545 288.86855,92.0909091 288.86855,93.3636364 C288.86855,94.0909091 288.329169,95.1818182 286.711027,95.1818182 C285.452471,95.1818182 282.755568,94.4545455 280.777838,93.7272727 C278.440521,93 276.282998,92.2727273 274.485062,92.2727273 C270.889191,92.2727273 268.37208,95 268.37208,98.0909091 C268.37208,100.818182 270.34981,101.727273 271.068984,102.090909 L271.248778,101.727273 C270.709397,101.363636 270.170016,101 270.170016,99.9090909 C270.170016,99.1818182 270.889191,97.9090909 272.687127,97.9090909 C274.305269,97.9090909 276.462792,98.6363636 279.339489,99.5454545 C281.8566,100.272727 284.553504,100.818182 285.991852,101 L285.991852,106.636364 L283.294948,109 L283.294948,109.181818 L285.991852,111.545455 L285.991852,119.363636 C284.553504,120.272727 282.935361,120.454545 281.497012,120.454545 C278.800109,120.454545 276.462792,119.727273 274.485062,117.545455 L281.8566,113.909091 L281.8566,101.181818 L272.86692,105.181818 C273.765888,102.818182 275.743618,101.181818 277.541554,99.9090909 L277.36176,99.5454545 C271.967952,101 267.113525,105.909091 267.113525,112.090909 C267.113525,119.363636 273.046714,124.818182 279.699077,124.818182 C286.89082,124.818182 291.565454,119 291.565454,113 L291.205866,113 C290.127105,115.363636 288.508963,117.545455 286.531233,118.636364 L286.531233,111.181818 L289.40793,108.818182 L289.40793,108.636364 L286.711027,106.272727 L286.711027,100.818182 C289.40793,100.818182 292.104834,99 292.104834,95.5454545 Z M276.462792,115.545455 L274.305269,116.636364 C273.046714,115 272.327539,112.818182 272.327539,109.727273 C272.327539,108.454545 272.507333,107 272.86692,105.909091 L276.642586,104.272727 L276.462792,115.545455 L276.462792,115.545455 Z M298.39761,93.7272727 L298.217816,93.7272727 L294.621945,96.8181818 L294.621945,97 L297.678436,100.454545 L298.038023,100.454545 L301.633895,97.3636364 L301.633895,97.1818182 L298.39761,93.7272727 L298.39761,93.7272727 Z M303.791418,120.636364 L302.353069,121.545455 L300.555133,119.727273 L300.555133,107.181818 L302.353069,105.909091 L301.993482,105.545455 L300.734927,106.636364 L297.498642,102.818182 L292.284628,106.454545 L292.644215,107 L293.90277,106.090909 L295.520913,108.090909 L295.520913,119.909091 L293.183596,121.727273 L293.363389,122.090909 L294.621945,121.181818 L298.577404,124.818182 L303.971211,121.181818 L303.791418,120.636364 L303.791418,120.636364 Z M333.816947,120.454545 L332.558392,121.363636 L330.580663,119.545455 L330.580663,107.181818 L332.378599,105.727273 L332.019011,105.363636 L330.580663,106.636364 L326.44541,102.818182 L321.051602,106.636364 L316.91635,102.818182 L311.882129,106.636364 L308.645845,102.818182 L303.431831,106.454545 L303.611624,107 L304.870179,106.090909 L306.668115,108.090909 L306.668115,119.909091 L305.229766,121.363636 L309.365019,124.818182 L313.320478,121.181818 L311.702336,119.545455 L311.702336,107.181818 L313.320478,106.090909 L316.017382,108.636364 L316.017382,119.545455 L314.579033,121 L318.714286,124.454545 L322.669745,120.818182 L321.051602,119.181818 L321.051602,107.181818 L322.489951,106.272727 L325.366649,108.818182 L325.366649,119.727273 L324.108093,121 L328.243346,124.818182 L333.816947,121 L333.816947,120.454545 L333.816947,120.454545 Z M349.45899,117.727273 L344.96415,121.181818 L340.46931,117.545455 L340.46931,115.363636 L348.919609,109.545455 L348.919609,109.363636 L344.604563,102.818182 L335.255296,107.909091 L335.255296,120.272727 L341.548072,124.818182 L349.638783,118.272727 L349.45899,117.727273 L349.45899,117.727273 Z M340.46931,114.636364 L340.46931,105.727273 L340.828897,105.545455 L344.784356,111.909091 L340.46931,114.636364 L340.46931,114.636364 Z M365.820206,113 L362.404128,110.272727 C364.741445,108.272727 365.640413,105.545455 365.640413,103.727273 L365.640413,102.636364 L365.280826,102.636364 C364.921238,103.545455 364.202064,104.454545 362.763715,104.454545 C361.325367,104.454545 360.426399,103.727273 359.527431,102.636364 L351.436719,107.181818 L351.436719,113.727273 L354.49321,116.090909 C351.436719,118.818182 350.897338,120.636364 350.897338,122.090909 C350.897338,123.909091 351.796306,125.181818 353.234655,125.727273 L353.414449,125.363636 C353.054861,125 352.695274,124.818182 352.695274,123.909091 C352.695274,123.363636 353.414449,122.454545 354.852797,122.454545 C356.650733,122.454545 357.729495,123.727273 358.268876,124.272727 L366,119.545455 L366,113 L365.820206,113 L365.820206,113 Z M363.842477,107.545455 C362.583922,109.727273 359.887018,111.909091 358.268876,113 L356.291146,111.363636 L356.291146,105 C357.01032,106.818182 358.98805,108.272727 360.965779,108.272727 C362.224335,108.272727 362.943509,108.090909 363.842477,107.545455 L363.842477,107.545455 Z M360.785986,122.090909 C359.887018,120.090909 357.729495,118.636364 355.571972,118.636364 C355.032591,118.636364 353.594242,118.636364 352.155894,119.545455 C353.054861,118.090909 355.392178,115.545455 358.448669,113.727273 L360.606192,115.545455 L360.785986,122.090909 L360.785986,122.090909 Z" id="Shape" fill="#FFFFFF" fill-rule="nonzero"></path>
                <rect id="Rectangle" x="0" y="0" width="400" height="225"></rect>
            </g>
        </g>
    </g>
</svg>