<?xml version="1.0" encoding="UTF-8"?>
<svg width="400px" height="225px" viewBox="0 0 400 225" version="1.1" xmlns="http://www.w3.org/2000/svg" xmlns:xlink="http://www.w3.org/1999/xlink">
    <title>NewYorkTimes_Hover</title>
    <g id="Page-1" stroke="none" stroke-width="1" fill="none" fill-rule="evenodd">
        <g id="Artboard" transform="translate(-1.000000, -1.000000)">
            <g id="NewYorkTimes_Hover" transform="translate(1.000000, 1.000000)">
                <path d="M58.8115155,94.5454545 C58.8115155,90.9090909 55.3954373,90 52.6985334,90 L52.6985334,90.5454545 C54.3166757,90.5454545 55.5752309,91.0909091 55.5752309,92.3636364 C55.5752309,93.0909091 55.0358501,94.1818182 53.4177078,94.1818182 C52.1591526,94.1818182 49.4622488,93.4545455 47.4845193,92.7272727 C45.1472026,91.8181818 42.9896795,91.0909091 41.1917436,91.0909091 C37.5958718,91.0909091 35.0787615,93.8181818 35.0787615,96.9090909 C35.0787615,99.6363636 37.056491,100.545455 37.7756654,100.909091 L37.955459,100.545455 C37.5958718,100.181818 37.056491,99.8181818 37.056491,98.7272727 C37.056491,98 37.7756654,96.7272727 39.5736013,96.7272727 C41.1917436,96.7272727 43.3492667,97.4545455 46.2259641,98.3636364 C48.7430744,99.0909091 51.4399783,99.6363636 52.878327,99.8181818 L52.878327,105.454545 L50.1814231,107.818182 L50.1814231,108 L52.878327,110.363636 L52.878327,118.181818 C51.4399783,119.090909 49.821836,119.272727 48.3834872,119.272727 C45.6865834,119.272727 43.3492667,118.545455 41.3715372,116.363636 L48.7430744,112.727273 L48.7430744,100.181818 L39.7533949,104.181818 C40.4725693,101.818182 42.4502988,100.181818 44.4280282,99.0909091 L44.2482347,98.5454545 C38.8544269,100 34,105.090909 34,111.272727 C34,118.545455 39.9331885,124 46.5855513,124 C53.7772949,124 58.4519283,118.181818 58.4519283,112.181818 L58.0923411,112.181818 C57.0135796,114.545455 55.3954373,116.727273 53.4177078,117.818182 L53.4177078,110.363636 L56.2944052,108 L56.2944052,107.818182 L53.4177078,105.454545 L53.4177078,99.8181818 C56.1146116,99.8181818 58.8115155,98 58.8115155,94.5454545 Z M43.1694731,114.545455 L41.01195,115.636364 C39.7533949,114 39.0342205,111.818182 39.0342205,108.727273 C39.0342205,107.454545 39.0342205,106 39.3938077,104.909091 L43.1694731,103.272727 L43.1694731,114.545455 L43.1694731,114.545455 Z M62.2275937,118.727273 L59.890277,120.545455 L60.2498642,120.909091 L61.3286257,120 L65.2840847,123.636364 L70.6778924,120 L70.4980989,119.636364 L69.0597501,120.545455 L67.2618142,118.727273 L67.2618142,106.363636 L68.700163,105.272727 L71.756654,107.818182 L71.756654,118.909091 C71.756654,125.818182 70.3183053,126.909091 67.2618142,128 L67.2618142,128.545455 C72.2960348,128.727273 76.9706681,127.090909 76.9706681,118.181818 L76.9706681,106.181818 L78.5888104,104.909091 L78.2292232,104.545455 L76.7908745,105.636364 L72.2960348,101.818182 L67.2618142,105.636364 L67.2618142,90.7272727 L66.9022271,90.7272727 L60.6094514,95.0909091 L60.6094514,95.4545455 C61.3286257,95.8181818 62.4073873,96.1818182 62.4073873,98.1818182 L62.2275937,118.727273 L62.2275937,118.727273 Z M95.1298207,116.727273 L90.634981,120.181818 L86.1401412,116.545455 L86.1401412,114.363636 L94.59044,108.545455 L94.59044,108.363636 L90.2753938,101.818182 L80.9261271,106.909091 L80.9261271,118.909091 L79.1281912,120.363636 L79.4877784,120.727273 L81.1059207,119.454545 L87.2189028,124 L95.3096143,117.454545 L95.1298207,116.727273 L95.1298207,116.727273 Z M86.1401412,113.636364 L86.1401412,104.727273 L86.4997284,104.545455 L90.4551874,110.909091 L86.1401412,113.636364 Z M129.470397,92.9090909 C129.470397,92.3636364 129.290603,91.8181818 129.110809,91.2727273 L128.751222,91.2727273 C128.211841,92.7272727 127.492667,93.4545455 125.694731,93.4545455 C124.076589,93.4545455 122.997827,92.5454545 122.278653,91.8181818 L117.064639,97.8181818 L117.424226,98.1818182 L119.222162,96.5454545 C120.300923,97.4545455 121.199891,98.1818182 123.717002,98.3636364 L123.717002,113.454545 L113.10918,95.0909091 C112.210212,93.6363636 110.951657,91.6363636 108.434546,91.6363636 C105.557849,91.6363636 103.040739,94.1818182 103.400326,98.1818182 L103.939707,98.1818182 C104.1195,97.0909091 104.658881,95.8181818 105.917436,95.8181818 C106.816404,95.8181818 107.715372,96.7272727 108.254753,97.6363636 L108.254753,103.636364 C105.018468,103.636364 102.860945,105.090909 102.860945,107.818182 C102.860945,109.272727 103.58012,111.454545 105.737643,112 L105.737643,111.636364 C105.378055,111.272727 105.198262,110.909091 105.198262,110.363636 C105.198262,109.454545 105.917436,108.727273 107.175991,108.727273 L108.074959,108.727273 L108.074959,116.363636 C104.299294,116.363636 101.242803,118.545455 101.242803,122.181818 C101.242803,125.636364 104.1195,127.272727 107.355785,127.090909 L107.355785,126.727273 C105.378055,126.545455 104.479087,125.636364 104.479087,124.363636 C104.479087,122.727273 105.557849,122 106.996198,122 C108.434546,122 109.693102,122.909091 110.59207,124 L115.806084,118.181818 L115.446496,117.818182 L114.187941,119.272727 C112.210212,117.454545 111.13145,116.909091 108.794134,116.545455 L108.794134,98.3636364 L123.177621,123.818182 L124.256382,123.818182 L124.256382,98.3636364 C126.953286,98.1818182 129.470397,96 129.470397,92.9090909 L129.470397,92.9090909 Z M142.595329,116.727273 L138.100489,120.181818 L133.605649,116.545455 L133.605649,114.363636 L142.055948,108.545455 L142.055948,108.363636 L137.740902,101.818182 L128.391635,106.909091 L128.391635,118.909091 L126.593699,120.363636 L126.953286,120.727273 L128.571429,119.454545 L134.684411,124 L142.775122,117.454545 L142.595329,116.727273 L142.595329,116.727273 Z M133.605649,113.636364 L133.605649,104.727273 L133.965236,104.545455 L137.920695,110.909091 L133.605649,113.636364 L133.605649,113.636364 Z M171.901684,103.818182 L170.643129,104.727273 L167.227051,101.818182 L163.271592,105.454545 L164.889734,107.090909 L164.889734,120.727273 L160.574688,118 L160.574688,106.727273 L162.013036,105.818182 L157.877784,101.818182 L153.922325,105.454545 L155.540467,107.090909 L155.540467,120.181818 L155.001086,120.545455 L151.225421,117.818182 L151.225421,106.909091 C151.225421,104.363636 149.966866,103.636364 148.528517,102.727273 C147.269962,101.818182 146.550788,101.272727 146.550788,100 C146.550788,98.9090909 147.629549,98.3636364 148.16893,98 L148.16893,97.6363636 C146.730581,97.6363636 142.954916,99.0909091 142.954916,102.545455 C142.954916,104.363636 143.853884,105.090909 144.752852,106 C145.65182,106.909091 146.550788,107.636364 146.550788,109.272727 L146.550788,119.818182 L144.573058,121.272727 L144.932645,121.636364 L146.730581,120.181818 L150.865834,123.818182 L155.360674,120.727273 L160.394894,123.818182 L169.923954,118.181818 L169.923954,106 L172.261271,104.181818 L171.901684,103.818182 L171.901684,103.818182 Z M205.343292,93.8181818 L203.545356,95.4545455 L199.589897,91.8181818 L193.656708,96.1818182 L193.656708,92.1818182 L193.117328,92.1818182 L193.297121,121.636364 C192.75774,121.636364 191.139598,121.272727 189.881043,120.909091 L189.521456,96.3636364 C189.521456,94.5454545 188.262901,92 185.026616,92 C181.790331,92 179.632808,94.5454545 179.632808,97.0909091 L180.172189,97.0909091 C180.351983,96 180.891363,95.0909091 181.970125,95.0909091 C183.048886,95.0909091 183.947854,95.8181818 183.947854,98.1818182 L183.947854,105.272727 C180.71157,105.454545 178.73384,107.272727 178.73384,109.636364 C178.73384,111.090909 179.453015,113.272727 181.610538,113.272727 L181.610538,112.909091 C180.891363,112.545455 180.71157,112 180.71157,111.636364 C180.71157,110.545455 181.610538,110.181818 183.048886,110.181818 L183.768061,110.181818 L183.768061,121.454545 C181.071157,122.363636 179.992395,124.363636 179.992395,126.545455 C179.992395,129.636364 182.329712,131.818182 185.925584,131.818182 C188.442694,131.818182 190.600217,131.454545 192.75774,130.909091 C194.555676,130.545455 196.892993,130 197.971754,130 C199.410103,130 199.949484,130.727273 199.949484,131.636364 C199.949484,132.909091 199.410103,133.454545 198.690929,133.636364 L198.690929,134 C201.567626,133.454545 203.365562,131.636364 203.365562,128.909091 C203.365562,126.181818 200.668658,124.545455 197.791961,124.545455 C196.353612,124.545455 193.297121,125.090909 191.139598,125.454545 C188.622488,126 186.105378,126.363636 185.386203,126.363636 C184.127648,126.363636 182.689299,125.818182 182.689299,124 C182.689299,122.545455 183.947854,121.272727 187.004345,121.272727 C188.622488,121.272727 190.600217,121.454545 192.577947,122 C194.73547,122.545455 196.713199,123.090909 198.511135,123.090909 C201.208039,123.090909 203.545356,122.181818 203.545356,118.363636 L203.545356,96 L205.702879,94.1818182 L205.343292,93.8181818 L205.343292,93.8181818 Z M197.971754,104.909091 C197.432374,105.454545 196.713199,106 195.814231,106 C194.915263,106 194.016295,105.454545 193.656708,104.909091 L193.656708,96.9090909 L195.454644,95.6363636 L197.971754,98 L197.971754,104.909091 Z M197.971754,110.363636 C197.612167,110 196.713199,109.454545 195.814231,109.454545 C194.915263,109.454545 194.016295,110 193.656708,110.363636 L193.656708,105.636364 C194.016295,106 194.915263,106.545455 195.814231,106.545455 C196.713199,106.545455 197.612167,106 197.971754,105.636364 L197.971754,110.363636 Z M197.971754,118.909091 C197.971754,120.363636 197.072787,121.818182 195.095057,121.818182 L193.656708,121.818182 L193.656708,111.090909 C194.016295,110.727273 194.915263,110.181818 195.814231,110.181818 C196.713199,110.181818 197.432374,110.727273 197.971754,111.090909 L197.971754,118.909091 L197.971754,118.909091 Z M222.603476,106 L216.850081,101.818182 L208.040196,106.909091 L208.040196,118.727273 L206.24226,120.181818 L206.422053,120.545455 L207.860402,119.454545 L213.613797,123.818182 L222.603476,118.363636 L222.603476,106 L222.603476,106 Z M212.894622,117.454545 L212.894622,104.363636 L217.389462,107.636364 L217.389462,120.545455 L212.894622,117.454545 L212.894622,117.454545 Z M239.683867,102.181818 L239.32428,102.181818 C238.7849,102.545455 238.245519,102.909091 237.706138,102.909091 C236.986964,102.909091 236.087996,102.545455 235.728408,102 L235.368821,102 L232.31233,105.454545 L229.255839,102 L223.862032,105.636364 L224.041825,106 L225.480174,105.090909 L227.27811,107.090909 L227.27811,118.545455 L224.940793,120.363636 L225.30038,120.727273 L226.379142,119.818182 L230.694188,123.454545 L236.267789,119.636364 L236.087996,119.272727 L234.469853,120.181818 L232.31233,118.363636 L232.31233,105.636364 C233.211298,106.545455 234.29006,107.454545 235.548615,107.454545 C238.065725,107.636364 239.504074,105.090909 239.683867,102.181818 L239.683867,102.181818 Z M261.259098,119.636364 L255.146116,123.818182 L246.875611,111.090909 L252.8088,101.818182 L253.168387,101.818182 C253.887561,102.545455 254.966323,103.272727 256.224878,103.272727 C257.483433,103.272727 258.382401,102.545455 258.921782,101.818182 L259.281369,101.818182 C259.101575,105.454545 256.584465,107.636364 254.786529,107.636364 C252.988593,107.636364 252.089625,106.727273 251.010864,106.181818 L250.471483,107.090909 L259.461162,120.545455 L261.259098,119.454545 L261.259098,119.636364 L261.259098,119.636364 Z M241.481803,118.727273 L239.144487,120.545455 L239.504074,120.909091 L240.582835,120 L244.538294,123.636364 L249.932102,120 L249.572515,119.636364 L248.134166,120.545455 L246.33623,118.727273 L246.33623,90.7272727 L246.156437,90.7272727 L239.683867,95.0909091 L239.683867,95.4545455 C240.403042,95.8181818 241.481803,96 241.481803,98.1818182 L241.481803,118.727273 L241.481803,118.727273 Z M291.104834,94.5454545 C291.104834,90.9090909 287.688756,90 284.991852,90 L284.991852,90.5454545 C286.609995,90.5454545 287.86855,91.0909091 287.86855,92.3636364 C287.86855,93.0909091 287.329169,94.1818182 285.711027,94.1818182 C284.452471,94.1818182 281.755568,93.4545455 279.777838,92.7272727 C277.440521,92 275.282998,91.2727273 273.485062,91.2727273 C269.889191,91.2727273 267.37208,94 267.37208,97.0909091 C267.37208,99.8181818 269.34981,100.727273 270.068984,101.090909 L270.248778,100.727273 C269.709397,100.363636 269.170016,100 269.170016,98.9090909 C269.170016,98.1818182 269.889191,96.9090909 271.687127,96.9090909 C273.305269,96.9090909 275.462792,97.6363636 278.339489,98.5454545 C280.8566,99.2727273 283.553504,99.8181818 284.991852,100 L284.991852,105.636364 L282.294948,108 L282.294948,108.181818 L284.991852,110.545455 L284.991852,118.363636 C283.553504,119.272727 281.935361,119.454545 280.497012,119.454545 C277.800109,119.454545 275.462792,118.727273 273.485062,116.545455 L280.8566,112.909091 L280.8566,100.181818 L271.86692,104.181818 C272.765888,101.818182 274.743618,100.181818 276.541554,98.9090909 L276.36176,98.5454545 C270.967952,100 266.113525,104.909091 266.113525,111.090909 C266.113525,118.363636 272.046714,123.818182 278.699077,123.818182 C285.89082,123.818182 290.565454,118 290.565454,112 L290.205866,112 C289.127105,114.363636 287.508963,116.545455 285.531233,117.636364 L285.531233,110.181818 L288.40793,107.818182 L288.40793,107.636364 L285.711027,105.272727 L285.711027,99.8181818 C288.40793,99.8181818 291.104834,98 291.104834,94.5454545 Z M275.462792,114.545455 L273.305269,115.636364 C272.046714,114 271.327539,111.818182 271.327539,108.727273 C271.327539,107.454545 271.507333,106 271.86692,104.909091 L275.642586,103.272727 L275.462792,114.545455 L275.462792,114.545455 Z M297.39761,92.7272727 L297.217816,92.7272727 L293.621945,95.8181818 L293.621945,96 L296.678436,99.4545455 L297.038023,99.4545455 L300.633895,96.3636364 L300.633895,96.1818182 L297.39761,92.7272727 L297.39761,92.7272727 Z M302.791418,119.636364 L301.353069,120.545455 L299.555133,118.727273 L299.555133,106.181818 L301.353069,104.909091 L300.993482,104.545455 L299.734927,105.636364 L296.498642,101.818182 L291.284628,105.454545 L291.644215,106 L292.90277,105.090909 L294.520913,107.090909 L294.520913,118.909091 L292.183596,120.727273 L292.363389,121.090909 L293.621945,120.181818 L297.577404,123.818182 L302.971211,120.181818 L302.791418,119.636364 L302.791418,119.636364 Z M332.816947,119.454545 L331.558392,120.363636 L329.580663,118.545455 L329.580663,106.181818 L331.378599,104.727273 L331.019011,104.363636 L329.580663,105.636364 L325.44541,101.818182 L320.051602,105.636364 L315.91635,101.818182 L310.882129,105.636364 L307.645845,101.818182 L302.431831,105.454545 L302.611624,106 L303.870179,105.090909 L305.668115,107.090909 L305.668115,118.909091 L304.229766,120.363636 L308.365019,123.818182 L312.320478,120.181818 L310.702336,118.545455 L310.702336,106.181818 L312.320478,105.090909 L315.017382,107.636364 L315.017382,118.545455 L313.579033,120 L317.714286,123.454545 L321.669745,119.818182 L320.051602,118.181818 L320.051602,106.181818 L321.489951,105.272727 L324.366649,107.818182 L324.366649,118.727273 L323.108093,120 L327.243346,123.818182 L332.816947,120 L332.816947,119.454545 L332.816947,119.454545 Z M348.45899,116.727273 L343.96415,120.181818 L339.46931,116.545455 L339.46931,114.363636 L347.919609,108.545455 L347.919609,108.363636 L343.604563,101.818182 L334.255296,106.909091 L334.255296,119.272727 L340.548072,123.818182 L348.638783,117.272727 L348.45899,116.727273 L348.45899,116.727273 Z M339.46931,113.636364 L339.46931,104.727273 L339.828897,104.545455 L343.784356,110.909091 L339.46931,113.636364 L339.46931,113.636364 Z M364.820206,112 L361.404128,109.272727 C363.741445,107.272727 364.640413,104.545455 364.640413,102.727273 L364.640413,101.636364 L364.280826,101.636364 C363.921238,102.545455 363.202064,103.454545 361.763715,103.454545 C360.325367,103.454545 359.426399,102.727273 358.527431,101.636364 L350.436719,106.181818 L350.436719,112.727273 L353.49321,115.090909 C350.436719,117.818182 349.897338,119.636364 349.897338,121.090909 C349.897338,122.909091 350.796306,124.181818 352.234655,124.727273 L352.414449,124.363636 C352.054861,124 351.695274,123.818182 351.695274,122.909091 C351.695274,122.363636 352.414449,121.454545 353.852797,121.454545 C355.650733,121.454545 356.729495,122.727273 357.268876,123.272727 L365,118.545455 L365,112 L364.820206,112 L364.820206,112 Z M362.842477,106.545455 C361.583922,108.727273 358.887018,110.909091 357.268876,112 L355.291146,110.363636 L355.291146,104 C356.01032,105.818182 357.98805,107.272727 359.965779,107.272727 C361.224335,107.272727 361.943509,107.090909 362.842477,106.545455 L362.842477,106.545455 Z M359.785986,121.090909 C358.887018,119.090909 356.729495,117.636364 354.571972,117.636364 C354.032591,117.636364 352.594242,117.636364 351.155894,118.545455 C352.054861,117.090909 354.392178,114.545455 357.448669,112.727273 L359.606192,114.545455 L359.785986,121.090909 L359.785986,121.090909 Z" id="Shape" fill="#000000" fill-rule="nonzero"></path>
                <rect id="Rectangle" x="0" y="0" width="400" height="225"></rect>
            </g>
        </g>
    </g>
</svg>