<svg width="400" height="225" viewBox="0 0 400 225" fill="none" xmlns="http://www.w3.org/2000/svg">
<path d="M74.72 150L73.344 146.464H68.816L67.456 150H66L70.464 138.528H71.76L76.208 150H74.72ZM71.632 141.728C71.6 141.643 71.5467 141.488 71.472 141.264C71.3973 141.04 71.3227 140.811 71.248 140.576C71.184 140.331 71.1307 140.144 71.088 140.016C71.0133 140.347 70.928 140.672 70.832 140.992C70.736 141.301 70.656 141.547 70.592 141.728L69.296 145.184H72.912L71.632 141.728ZM80.7948 138.576C82.2881 138.576 83.3761 138.869 84.0588 139.456C84.7414 140.043 85.0828 140.869 85.0828 141.936C85.0828 142.565 84.9388 143.157 84.6508 143.712C84.3734 144.256 83.8988 144.699 83.2268 145.04C82.5654 145.381 81.6641 145.552 80.5228 145.552H79.2108V150H77.7708V138.576H80.7948ZM80.6668 139.808H79.2108V144.32H80.3628C81.4508 144.32 82.2614 144.144 82.7948 143.792C83.3281 143.44 83.5948 142.843 83.5948 142C83.5948 141.264 83.3601 140.715 82.8908 140.352C82.4214 139.989 81.6801 139.808 80.6668 139.808ZM90.4823 138.576C91.9756 138.576 93.0636 138.869 93.7463 139.456C94.4289 140.043 94.7703 140.869 94.7703 141.936C94.7703 142.565 94.6263 143.157 94.3383 143.712C94.0609 144.256 93.5863 144.699 92.9143 145.04C92.2529 145.381 91.3516 145.552 90.2103 145.552H88.8983V150H87.4583V138.576H90.4823ZM90.3543 139.808H88.8983V144.32H90.0503C91.1383 144.32 91.9489 144.144 92.4823 143.792C93.0156 143.44 93.2823 142.843 93.2823 142C93.2823 141.264 93.0476 140.715 92.5783 140.352C92.1089 139.989 91.3676 139.808 90.3543 139.808ZM108.793 150H107.353V139.84H103.785V138.576H112.345V139.84H108.793V150ZM123.723 144.272C123.723 145.456 123.52 146.491 123.115 147.376C122.72 148.251 122.134 148.933 121.355 149.424C120.576 149.915 119.611 150.16 118.459 150.16C117.275 150.16 116.288 149.915 115.499 149.424C114.72 148.933 114.139 148.245 113.755 147.36C113.371 146.475 113.179 145.44 113.179 144.256C113.179 143.083 113.371 142.059 113.755 141.184C114.139 140.309 114.72 139.627 115.499 139.136C116.288 138.645 117.28 138.4 118.475 138.4C119.616 138.4 120.576 138.645 121.355 139.136C122.134 139.616 122.72 140.299 123.115 141.184C123.52 142.059 123.723 143.088 123.723 144.272ZM114.699 144.272C114.699 145.712 115.003 146.848 115.611 147.68C116.219 148.501 117.168 148.912 118.459 148.912C119.76 148.912 120.71 148.501 121.307 147.68C121.904 146.848 122.203 145.712 122.203 144.272C122.203 142.832 121.904 141.707 121.307 140.896C120.71 140.075 119.766 139.664 118.475 139.664C117.184 139.664 116.23 140.075 115.611 140.896C115.003 141.707 114.699 142.832 114.699 144.272ZM137.31 138.576C138.804 138.576 139.892 138.869 140.574 139.456C141.257 140.043 141.598 140.869 141.598 141.936C141.598 142.565 141.454 143.157 141.166 143.712C140.889 144.256 140.414 144.699 139.742 145.04C139.081 145.381 138.18 145.552 137.038 145.552H135.726V150H134.286V138.576H137.31ZM137.182 139.808H135.726V144.32H136.878C137.966 144.32 138.777 144.144 139.31 143.792C139.844 143.44 140.11 142.843 140.11 142C140.11 141.264 139.876 140.715 139.406 140.352C138.937 139.989 138.196 139.808 137.182 139.808ZM143.974 150V138.576H145.414V148.72H150.406V150H143.974ZM159.533 150L158.157 146.464H153.629L152.269 150H150.812L155.277 138.528H156.573L161.021 150H159.533ZM156.445 141.728C156.413 141.643 156.359 141.488 156.285 141.264C156.21 141.04 156.135 140.811 156.061 140.576C155.997 140.331 155.943 140.144 155.901 140.016C155.826 140.347 155.741 140.672 155.645 140.992C155.549 141.301 155.469 141.547 155.405 141.728L154.109 145.184H157.725L156.445 141.728ZM167.167 139.68C165.94 139.68 164.975 140.091 164.271 140.912C163.567 141.733 163.215 142.859 163.215 144.288C163.215 145.707 163.54 146.832 164.191 147.664C164.852 148.485 165.839 148.896 167.151 148.896C167.652 148.896 168.127 148.853 168.575 148.768C169.023 148.683 169.46 148.576 169.887 148.448V149.696C169.46 149.856 169.017 149.973 168.559 150.048C168.111 150.123 167.572 150.16 166.943 150.16C165.78 150.16 164.809 149.92 164.031 149.44C163.252 148.96 162.665 148.277 162.271 147.392C161.887 146.507 161.695 145.467 161.695 144.272C161.695 143.12 161.903 142.107 162.319 141.232C162.745 140.347 163.369 139.659 164.191 139.168C165.012 138.667 166.009 138.416 167.183 138.416C168.388 138.416 169.439 138.64 170.335 139.088L169.759 140.304C169.407 140.144 169.012 140 168.575 139.872C168.148 139.744 167.679 139.68 167.167 139.68ZM178.764 150H172.38V138.576H178.764V139.84H173.82V143.408H178.476V144.656H173.82V148.736H178.764V150ZM192.326 138.576C193.819 138.576 194.907 138.869 195.59 139.456C196.273 140.043 196.614 140.869 196.614 141.936C196.614 142.565 196.47 143.157 196.182 143.712C195.905 144.256 195.43 144.699 194.758 145.04C194.097 145.381 193.195 145.552 192.054 145.552H190.742V150H189.302V138.576H192.326ZM192.198 139.808H190.742V144.32H191.894C192.982 144.32 193.793 144.144 194.326 143.792C194.859 143.44 195.126 142.843 195.126 142C195.126 141.264 194.891 140.715 194.422 140.352C193.953 139.989 193.211 139.808 192.198 139.808ZM202.141 138.576C203.56 138.576 204.606 138.848 205.278 139.392C205.96 139.925 206.302 140.736 206.302 141.824C206.302 142.432 206.19 142.939 205.966 143.344C205.742 143.749 205.454 144.075 205.102 144.32C204.76 144.555 204.398 144.741 204.014 144.88L207.15 150H205.47L202.702 145.28H200.43V150H198.99V138.576H202.141ZM202.062 139.824H200.43V144.064H202.141C203.07 144.064 203.747 143.883 204.174 143.52C204.6 143.147 204.814 142.603 204.814 141.888C204.814 141.141 204.59 140.613 204.142 140.304C203.694 139.984 203 139.824 202.062 139.824ZM218.911 144.272C218.911 145.456 218.708 146.491 218.303 147.376C217.908 148.251 217.321 148.933 216.543 149.424C215.764 149.915 214.799 150.16 213.647 150.16C212.463 150.16 211.476 149.915 210.687 149.424C209.908 148.933 209.327 148.245 208.943 147.36C208.559 146.475 208.367 145.44 208.367 144.256C208.367 143.083 208.559 142.059 208.943 141.184C209.327 140.309 209.908 139.627 210.687 139.136C211.476 138.645 212.468 138.4 213.663 138.4C214.804 138.4 215.764 138.645 216.543 139.136C217.321 139.616 217.908 140.299 218.303 141.184C218.708 142.059 218.911 143.088 218.911 144.272ZM209.887 144.272C209.887 145.712 210.191 146.848 210.799 147.68C211.407 148.501 212.356 148.912 213.647 148.912C214.948 148.912 215.897 148.501 216.495 147.68C217.092 146.848 217.391 145.712 217.391 144.272C217.391 142.832 217.092 141.707 216.495 140.896C215.897 140.075 214.953 139.664 213.663 139.664C212.372 139.664 211.417 140.075 210.799 140.896C210.191 141.707 209.887 142.832 209.887 144.272ZM230.595 144.176C230.595 146.107 230.067 147.563 229.011 148.544C227.965 149.515 226.504 150 224.627 150H221.443V138.576H224.963C226.115 138.576 227.112 138.789 227.955 139.216C228.797 139.643 229.448 140.272 229.907 141.104C230.365 141.925 230.595 142.949 230.595 144.176ZM229.075 144.224C229.075 142.699 228.696 141.584 227.939 140.88C227.192 140.165 226.131 139.808 224.755 139.808H222.883V148.768H224.435C227.528 148.768 229.075 147.253 229.075 144.224ZM241.818 145.968C241.818 146.757 241.658 147.472 241.338 148.112C241.018 148.741 240.527 149.243 239.866 149.616C239.215 149.979 238.383 150.16 237.37 150.16C235.951 150.16 234.869 149.776 234.122 149.008C233.386 148.229 233.018 147.205 233.018 145.936V138.576H234.458V145.984C234.458 146.912 234.703 147.632 235.194 148.144C235.695 148.656 236.447 148.912 237.45 148.912C238.485 148.912 239.231 148.64 239.69 148.096C240.159 147.541 240.394 146.832 240.394 145.968V138.576H241.818V145.968ZM249.729 139.68C248.503 139.68 247.537 140.091 246.833 140.912C246.129 141.733 245.777 142.859 245.777 144.288C245.777 145.707 246.103 146.832 246.753 147.664C247.415 148.485 248.401 148.896 249.713 148.896C250.215 148.896 250.689 148.853 251.137 148.768C251.585 148.683 252.023 148.576 252.449 148.448V149.696C252.023 149.856 251.58 149.973 251.121 150.048C250.673 150.123 250.135 150.16 249.505 150.16C248.343 150.16 247.372 149.92 246.593 149.44C245.815 148.96 245.228 148.277 244.833 147.392C244.449 146.507 244.257 145.467 244.257 144.272C244.257 143.12 244.465 142.107 244.881 141.232C245.308 140.347 245.932 139.659 246.753 139.168C247.575 138.667 248.572 138.416 249.745 138.416C250.951 138.416 252.001 138.64 252.897 139.088L252.321 140.304C251.969 140.144 251.575 140 251.137 139.872C250.711 139.744 250.241 139.68 249.729 139.68ZM258.559 150H257.119V139.84H253.551V138.576H262.111V139.84H258.559V150ZM281.833 144.272C281.833 145.456 281.63 146.491 281.225 147.376C280.83 148.251 280.243 148.933 279.465 149.424C278.686 149.915 277.721 150.16 276.569 150.16C275.385 150.16 274.398 149.915 273.609 149.424C272.83 148.933 272.249 148.245 271.865 147.36C271.481 146.475 271.289 145.44 271.289 144.256C271.289 143.083 271.481 142.059 271.865 141.184C272.249 140.309 272.83 139.627 273.609 139.136C274.398 138.645 275.39 138.4 276.585 138.4C277.726 138.4 278.686 138.645 279.465 139.136C280.243 139.616 280.83 140.299 281.225 141.184C281.63 142.059 281.833 143.088 281.833 144.272ZM272.809 144.272C272.809 145.712 273.113 146.848 273.721 147.68C274.329 148.501 275.278 148.912 276.569 148.912C277.87 148.912 278.819 148.501 279.417 147.68C280.014 146.848 280.312 145.712 280.312 144.272C280.312 142.832 280.014 141.707 279.417 140.896C278.819 140.075 277.875 139.664 276.585 139.664C275.294 139.664 274.339 140.075 273.721 140.896C273.113 141.707 272.809 142.832 272.809 144.272ZM287.516 138.576C288.935 138.576 289.981 138.848 290.653 139.392C291.335 139.925 291.677 140.736 291.677 141.824C291.677 142.432 291.565 142.939 291.341 143.344C291.117 143.749 290.829 144.075 290.477 144.32C290.135 144.555 289.773 144.741 289.389 144.88L292.525 150H290.845L288.077 145.28H285.805V150H284.365V138.576H287.516ZM287.437 139.824H285.805V144.064H287.516C288.445 144.064 289.122 143.883 289.549 143.52C289.975 143.147 290.189 142.603 290.189 141.888C290.189 141.141 289.965 140.613 289.517 140.304C289.069 139.984 288.375 139.824 287.437 139.824ZM303.47 144.176C303.47 146.107 302.942 147.563 301.886 148.544C300.84 149.515 299.379 150 297.502 150H294.318V138.576H297.838C298.99 138.576 299.987 138.789 300.83 139.216C301.672 139.643 302.323 140.272 302.782 141.104C303.24 141.925 303.47 142.949 303.47 144.176ZM301.95 144.224C301.95 142.699 301.571 141.584 300.814 140.88C300.067 140.165 299.006 139.808 297.63 139.808H295.758V148.768H297.31C300.403 148.768 301.95 147.253 301.95 144.224ZM312.389 150H306.005V138.576H312.389V139.84H307.445V143.408H312.101V144.656H307.445V148.736H312.389V150ZM318.048 138.576C319.466 138.576 320.512 138.848 321.184 139.392C321.866 139.925 322.208 140.736 322.208 141.824C322.208 142.432 322.096 142.939 321.872 143.344C321.648 143.749 321.36 144.075 321.008 144.32C320.666 144.555 320.304 144.741 319.92 144.88L323.056 150H321.376L318.608 145.28H316.336V150H314.896V138.576H318.048ZM317.968 139.824H316.336V144.064H318.048C318.976 144.064 319.653 143.883 320.08 143.52C320.506 143.147 320.72 142.603 320.72 141.888C320.72 141.141 320.496 140.613 320.048 140.304C319.6 139.984 318.906 139.824 317.968 139.824ZM331.329 146.944C331.329 147.957 330.961 148.747 330.225 149.312C329.489 149.877 328.497 150.16 327.249 150.16C326.609 150.16 326.017 150.112 325.473 150.016C324.929 149.92 324.476 149.787 324.113 149.616V148.24C324.497 148.411 324.972 148.565 325.537 148.704C326.113 148.843 326.705 148.912 327.313 148.912C328.166 148.912 328.806 148.747 329.233 148.416C329.67 148.085 329.889 147.637 329.889 147.072C329.889 146.699 329.809 146.384 329.649 146.128C329.489 145.872 329.212 145.637 328.817 145.424C328.433 145.2 327.894 144.965 327.201 144.72C326.23 144.368 325.494 143.936 324.993 143.424C324.502 142.912 324.257 142.213 324.257 141.328C324.257 140.72 324.412 140.203 324.721 139.776C325.03 139.339 325.457 139.003 326.001 138.768C326.556 138.533 327.19 138.416 327.905 138.416C328.534 138.416 329.11 138.475 329.633 138.592C330.156 138.709 330.63 138.864 331.057 139.056L330.609 140.288C330.214 140.117 329.782 139.973 329.313 139.856C328.854 139.739 328.374 139.68 327.873 139.68C327.158 139.68 326.62 139.835 326.257 140.144C325.894 140.443 325.713 140.843 325.713 141.344C325.713 141.728 325.793 142.048 325.953 142.304C326.113 142.56 326.374 142.789 326.737 142.992C327.1 143.195 327.59 143.413 328.209 143.648C328.881 143.893 329.446 144.16 329.905 144.448C330.374 144.725 330.726 145.061 330.961 145.456C331.206 145.851 331.329 146.347 331.329 146.944Z" fill="#8B8B8B"/>
<path d="M90.9229 83.5762L91.1426 83.7715V84.9678L90.9473 85.1387C89.1569 85.1875 88.042 85.277 87.6025 85.4072C87.1794 85.5374 86.8783 85.7572 86.6992 86.0664C86.5202 86.3594 86.4144 86.9453 86.3818 87.8242C86.3656 88.7031 86.3249 91.1852 86.2598 95.2705V106.525C86.2598 108.153 86.2842 109.992 86.333 112.043C86.3818 114.094 86.4795 115.29 86.626 115.632C86.7887 115.957 87.0736 116.201 87.4805 116.364C87.8874 116.511 89.043 116.608 90.9473 116.657L91.1426 116.828V118.024L90.9229 118.22C88.2699 118.073 85.9587 118 83.9893 118C82.6546 118 80.3841 118.073 77.1777 118.22L76.958 118.024V116.853L77.1533 116.657C78.9437 116.608 80.0505 116.519 80.4736 116.389C80.9131 116.258 81.2223 116.047 81.4014 115.754C81.5804 115.445 81.6862 114.842 81.7188 113.947C81.7513 113.052 81.792 110.578 81.8408 106.525V88.6055L73.418 106.232C71.3021 110.643 69.4548 114.794 67.876 118.684H66.9238C66.0124 116.584 65.2637 114.908 64.6777 113.654L53.0078 89.4111V106.477C53.0078 108.072 53.0241 109.911 53.0566 111.994C53.1055 114.061 53.2113 115.257 53.374 115.583C53.5368 115.909 53.8216 116.153 54.2285 116.315C54.6354 116.478 55.791 116.576 57.6953 116.608L57.8906 116.804V117.976L57.6709 118.195L56.1084 118.122C54.4971 118.041 53.1136 118 51.958 118C51.4372 118 49.4922 118.065 46.123 118.195L45.9277 118V116.828L46.123 116.608C47.9134 116.576 49.0202 116.494 49.4434 116.364C49.8665 116.234 50.1676 116.014 50.3467 115.705C50.542 115.396 50.6478 114.818 50.6641 113.972C50.6966 113.125 50.7373 110.627 50.7861 106.477V95.2949C50.7861 93.8138 50.7617 92.0153 50.7129 89.8994C50.6803 87.7673 50.5827 86.5384 50.4199 86.2129C50.2734 85.8711 49.9967 85.6188 49.5898 85.4561C49.1829 85.2933 48.0273 85.1956 46.123 85.1631L45.9277 84.9678V83.7959L46.1475 83.5762C47.2705 83.6576 48.7842 83.6982 50.6885 83.6982C52.4788 83.6982 54.0413 83.6576 55.376 83.5762C56.7432 86.7337 58.0534 89.5902 59.3066 92.1455L68.5596 111.14L76.9092 93.7324C79.1715 89.0286 80.6934 85.6432 81.4746 83.5762C83.0371 83.6576 84.5752 83.6982 86.0889 83.6982C87.4561 83.6982 89.0674 83.6576 90.9229 83.5762ZM93.3887 118.195L93.1689 118V116.73L93.3887 116.535C94.5768 116.519 95.3418 116.462 95.6836 116.364C96.0254 116.25 96.3265 116.039 96.5869 115.729C96.8636 115.404 97.4089 114.362 98.2227 112.604L100.786 107.038L107.427 91.999C108.68 89.0531 109.925 86.1071 111.162 83.1611H112.749L123.174 107.673L124.565 110.944C124.972 111.872 125.436 112.881 125.957 113.972C126.494 115.062 126.86 115.705 127.056 115.9C127.267 116.096 127.52 116.25 127.812 116.364C128.122 116.462 128.797 116.519 129.839 116.535L130.034 116.73V118L129.839 118.195C128.114 118.049 126.559 117.976 125.176 117.976C122.474 118.057 119.772 118.13 117.07 118.195L116.875 118V116.73L117.07 116.535C118.893 116.503 120.033 116.429 120.488 116.315C120.944 116.185 121.172 115.9 121.172 115.461C121.172 115.103 121.058 114.631 120.83 114.045L117.827 106.599H103.691L101.03 112.849C100.558 113.972 100.322 114.794 100.322 115.314C100.322 115.721 100.542 116.022 100.981 116.218C101.421 116.413 102.528 116.519 104.302 116.535L104.521 116.73V118L104.326 118.195C102.227 118.065 100.387 118 98.8086 118C97.0182 118 95.2116 118.065 93.3887 118.195ZM104.521 104.499H116.875L110.747 89.7773L104.521 104.499ZM132.842 118.171L132.622 117.951V116.828L132.842 116.633C133.835 116.617 134.624 116.56 135.21 116.462C135.812 116.364 136.195 116.201 136.357 115.974C136.536 115.746 136.65 115.38 136.699 114.875C136.764 114.37 136.821 113.231 136.87 111.457C136.935 109.683 136.968 108.413 136.968 107.648V87.9219C136.968 87.0918 136.813 86.4814 136.504 86.0908C136.211 85.6839 135.804 85.4316 135.283 85.334C134.762 85.2201 133.875 85.1549 132.622 85.1387L132.427 84.9434V83.7959L132.622 83.5762C134.868 83.6576 136.341 83.6982 137.041 83.6982C138.685 83.6982 140.036 83.6576 141.094 83.5762L148.882 93.6836L160.332 108.039C161.715 109.781 163.123 111.433 164.556 112.995V94.0986C164.556 93.5127 164.523 92.2676 164.458 90.3633C164.409 88.4427 164.344 87.2301 164.263 86.7256C164.181 86.2048 164.035 85.8548 163.823 85.6758C163.628 85.4967 163.245 85.3665 162.676 85.2852C162.122 85.1875 161.366 85.1305 160.405 85.1143L160.21 84.9189V83.7959L160.405 83.5762C161.724 83.6576 163.604 83.6982 166.045 83.6982C168.275 83.6982 169.894 83.6576 170.903 83.5762L171.123 83.7959V84.9189L170.928 85.1143C169.854 85.1305 169.023 85.1956 168.438 85.3096C167.852 85.4072 167.485 85.5781 167.339 85.8223C167.192 86.0664 167.087 86.4245 167.021 86.8965C166.973 87.3685 166.916 88.4915 166.851 90.2656C166.802 92.0397 166.777 93.3174 166.777 94.0986V105.695L166.802 112.409C166.834 114.606 166.867 116.812 166.899 119.025C166.086 118.749 164.678 118.407 162.676 118L160.942 115.949L155.742 109.602L139.189 88.9229V107.648C139.189 108.397 139.214 109.732 139.263 111.652C139.328 113.573 139.401 114.737 139.482 115.144C139.564 115.55 139.67 115.835 139.8 115.998C139.93 116.145 140.207 116.283 140.63 116.413C141.069 116.543 141.965 116.617 143.315 116.633L143.511 116.828V117.976L143.315 118.171C142.469 118.057 141.102 118 139.214 118C136.789 118 134.665 118.057 132.842 118.171ZM173.857 118.195L173.638 118V116.73L173.857 116.535C175.046 116.519 175.811 116.462 176.152 116.364C176.494 116.25 176.795 116.039 177.056 115.729C177.332 115.404 177.878 114.362 178.691 112.604L181.255 107.038L187.896 91.999C189.149 89.0531 190.394 86.1071 191.631 83.1611H193.218L203.643 107.673L205.034 110.944C205.441 111.872 205.905 112.881 206.426 113.972C206.963 115.062 207.329 115.705 207.524 115.9C207.736 116.096 207.988 116.25 208.281 116.364C208.59 116.462 209.266 116.519 210.308 116.535L210.503 116.73V118L210.308 118.195C208.582 118.049 207.028 117.976 205.645 117.976C202.943 118.057 200.241 118.13 197.539 118.195L197.344 118V116.73L197.539 116.535C199.362 116.503 200.501 116.429 200.957 116.315C201.413 116.185 201.641 115.9 201.641 115.461C201.641 115.103 201.527 114.631 201.299 114.045L198.296 106.599H184.16L181.499 112.849C181.027 113.972 180.791 114.794 180.791 115.314C180.791 115.721 181.011 116.022 181.45 116.218C181.89 116.413 182.996 116.519 184.771 116.535L184.99 116.73V118L184.795 118.195C182.695 118.065 180.856 118 179.277 118C177.487 118 175.68 118.065 173.857 118.195ZM184.99 104.499H197.344L191.216 89.7773L184.99 104.499ZM248.271 104.694V105.427L248.174 105.72L246.978 106.428C246.685 106.607 246.514 106.745 246.465 106.843C246.416 106.94 246.351 107.429 246.27 108.308C246.204 109.17 246.172 110.228 246.172 111.481C246.172 112.897 246.261 114.436 246.44 116.096L246.294 116.34C241.834 118.049 237.253 118.903 232.549 118.903C228.936 118.903 225.672 118.22 222.759 116.853C219.845 115.485 217.534 113.459 215.825 110.773C214.116 108.088 213.262 104.898 213.262 101.203C213.262 95.5716 215.182 91.0957 219.023 87.7754C222.881 84.4551 227.91 82.7949 234.111 82.7949C238.669 82.7949 242.762 83.568 246.392 85.1143L246.562 85.3828C246.27 86.4733 245.928 88.7601 245.537 92.2432L245.342 92.4141H244.219L244.023 92.2188L243.901 89.6309C243.853 88.7845 243.796 88.2881 243.73 88.1416C243.682 87.9951 243.511 87.8079 243.218 87.5801C242.925 87.3359 242.168 86.9616 240.947 86.457C239.743 85.9362 238.53 85.5618 237.31 85.334C236.089 85.0898 234.779 84.9678 233.379 84.9678C230.4 84.9678 227.764 85.5863 225.469 86.8232C223.174 88.0602 221.44 89.8669 220.269 92.2432C219.113 94.6032 218.535 97.2318 218.535 100.129C218.535 103.124 219.162 105.915 220.415 108.503C221.668 111.075 223.467 113.085 225.811 114.533C228.154 115.982 230.881 116.706 233.989 116.706C235.34 116.706 236.715 116.576 238.115 116.315C239.531 116.039 240.695 115.656 241.606 115.168C241.753 114.647 241.826 113.597 241.826 112.019V109.309C241.826 108.023 241.745 107.225 241.582 106.916C241.419 106.59 241.012 106.363 240.361 106.232C239.727 106.102 238.343 106.021 236.211 105.988L235.991 105.769V104.694L236.211 104.475L237.7 104.523C240.256 104.605 242.339 104.646 243.95 104.646C244.878 104.646 246.237 104.597 248.027 104.499L248.271 104.694ZM251.665 83.6738L251.86 83.5029C257.443 83.6006 261.016 83.6494 262.578 83.6494C267.917 83.6494 272.669 83.6006 276.836 83.5029L276.958 83.6738C276.551 85.2363 276.25 87.6859 276.055 91.0225L275.908 91.2178H274.712L274.492 91.0225C274.508 90.876 274.517 90.7458 274.517 90.6318C274.517 89.2484 274.411 87.93 274.199 86.6768C273.174 86.221 271.75 85.9281 269.927 85.7979C268.12 85.6514 266.761 85.5781 265.85 85.5781C264.564 85.5781 262.92 85.6676 260.918 85.8467L260.82 89.7529L260.747 94.2207L260.674 99.1768C262.432 99.2744 264.051 99.3232 265.532 99.3232C267.03 99.3232 268.283 99.2744 269.292 99.1768C270.301 99.0791 270.887 98.9814 271.05 98.8838C271.229 98.7699 271.359 98.5664 271.44 98.2734C271.538 97.9642 271.619 97.4271 271.685 96.6621L271.782 95.1484L271.978 94.9531H273.101L273.296 95.1484C273.263 96.9225 273.223 98.7048 273.174 100.495L273.296 105.988L273.101 106.184H271.978L271.782 105.988L271.611 104.523C271.465 103.384 271.359 102.709 271.294 102.497C271.229 102.269 271.074 102.074 270.83 101.911C270.602 101.748 270 101.618 269.023 101.521C268.047 101.423 266.704 101.374 264.995 101.374C264.051 101.374 262.611 101.415 260.674 101.496C260.592 102.863 260.552 105.142 260.552 108.332C260.552 111.75 260.592 114.265 260.674 115.876H265.166C269.121 115.876 271.595 115.827 272.588 115.729C273.581 115.632 274.525 115.396 275.42 115.021C275.566 114.647 275.802 113.785 276.128 112.434C276.47 111.066 276.665 110.212 276.714 109.87L276.958 109.699H278.13L278.325 109.87C278.179 110.57 278.032 111.791 277.886 113.532C277.756 115.274 277.69 116.763 277.69 118L277.52 118.195C274.411 118.098 270.342 118.049 265.312 118.049L258.672 118C257.126 118 255.514 118.065 253.838 118.195L253.643 118V117.194L253.838 116.95C254.798 116.462 255.343 116.161 255.474 116.047C255.62 115.917 255.734 114.493 255.815 111.774C255.913 109.04 255.962 106.957 255.962 105.524V96.5645L255.938 91.0225C255.938 89.818 255.921 88.8415 255.889 88.0928C255.856 87.3278 255.799 86.7826 255.718 86.457C255.636 86.1315 255.539 85.9036 255.425 85.7734C255.327 85.6432 255.156 85.5374 254.912 85.4561C254.684 85.3584 254.285 85.277 253.716 85.2119L251.86 85.0654L251.665 84.8945V83.6738ZM281.475 83.6738L281.67 83.5029C284.648 83.6331 286.968 83.6982 288.628 83.6982C290.467 83.6982 292.949 83.6413 296.074 83.5273C297.23 83.4948 298.068 83.4785 298.589 83.4785C302.707 83.4785 305.498 84.2272 306.963 85.7246C308.428 87.222 309.16 88.9961 309.16 91.0469C309.16 92.4141 308.802 93.7568 308.086 95.0752C307.37 96.3936 306.312 97.5247 304.912 98.4688C303.512 99.3965 301.584 100.096 299.126 100.568C299.582 101.203 300.404 102.302 301.592 103.864L305.059 108.454C306.182 109.968 307.386 111.571 308.672 113.264C309.958 114.94 310.788 115.892 311.162 116.12C311.536 116.332 311.854 116.462 312.114 116.511C312.391 116.56 312.822 116.584 313.408 116.584L313.604 116.779V117.927L313.384 118.146C312.603 118.049 311.675 118 310.601 118C309.445 118 308.184 118.049 306.816 118.146C305.693 116.779 303.927 114.411 301.519 111.042C298.719 107.136 295.854 103.514 292.925 100.178L293.169 99.4209C294.015 99.4697 294.674 99.4941 295.146 99.4941C297.962 99.4941 300.168 98.8187 301.763 97.4678C303.358 96.1169 304.155 94.2451 304.155 91.8525C304.155 89.7041 303.439 88.0846 302.007 86.9941C300.575 85.8874 298.638 85.334 296.196 85.334C294.487 85.334 292.876 85.57 291.362 86.042C291.118 86.4001 290.996 89.4518 290.996 95.1973V106.501L291.021 111.262C291.037 113.101 291.086 114.289 291.167 114.826C291.248 115.363 291.362 115.721 291.509 115.9C291.672 116.079 291.973 116.234 292.412 116.364C292.852 116.478 293.934 116.568 295.659 116.633L295.854 116.779V118L295.659 118.195C295.578 118.195 294.146 118.146 291.362 118.049C290.207 118.016 289.303 118 288.652 118C288.148 118 285.82 118.065 281.67 118.195L281.475 118V116.779L281.67 116.633C283.184 116.568 284.193 116.486 284.697 116.389C285.202 116.291 285.535 116.169 285.698 116.022C285.877 115.86 286.016 115.526 286.113 115.021C286.227 114.517 286.292 113.394 286.309 111.652L286.333 106.501V95.1973L286.284 90.4365C286.268 88.5811 286.219 87.3848 286.138 86.8477C286.073 86.3105 285.959 85.9525 285.796 85.7734C285.649 85.5944 285.356 85.4479 284.917 85.334C284.478 85.2201 283.395 85.1305 281.67 85.0654L281.475 84.8945V83.6738ZM328.276 109.602L328.472 109.406H329.668L329.863 109.602C329.945 111.685 330.05 112.963 330.181 113.435C330.327 113.89 330.767 114.379 331.499 114.899C332.248 115.404 333.232 115.819 334.453 116.145C335.69 116.47 336.935 116.633 338.188 116.633C339.914 116.633 341.46 116.315 342.827 115.681C344.211 115.046 345.285 114.118 346.05 112.897C346.815 111.66 347.197 110.277 347.197 108.747C347.197 107.673 347.01 106.737 346.636 105.939C346.278 105.142 345.765 104.507 345.098 104.035C344.447 103.547 343.698 103.189 342.852 102.961C342.005 102.717 340.744 102.456 339.067 102.18C337.44 101.919 336.162 101.683 335.234 101.472C334.323 101.26 333.411 100.935 332.5 100.495C331.589 100.056 330.824 99.5023 330.205 98.835C329.603 98.1514 329.115 97.3213 328.74 96.3447C328.382 95.3519 328.203 94.2939 328.203 93.1709C328.203 90.1273 329.261 87.637 331.377 85.7002C333.493 83.7471 336.333 82.7705 339.897 82.7705C341.313 82.7705 342.852 82.9495 344.512 83.3076C346.188 83.6494 347.71 84.1621 349.077 84.8457L349.248 85.1387C348.89 86.6361 348.67 88.7682 348.589 91.5352L348.369 91.7305H347.1L346.904 91.5596C346.872 89.6064 346.823 88.3776 346.758 87.873C346.693 87.3685 345.952 86.7419 344.536 85.9932C343.12 85.2445 341.582 84.8701 339.922 84.8701C338.538 84.8701 337.244 85.1468 336.04 85.7002C334.836 86.2536 333.924 87.1243 333.306 88.3125C332.687 89.5007 332.378 90.7132 332.378 91.9502C332.378 92.9105 332.565 93.765 332.939 94.5137C333.314 95.2461 333.794 95.832 334.38 96.2715C334.982 96.6947 335.674 97.012 336.455 97.2236C337.253 97.4352 338.701 97.6956 340.801 98.0049C343.682 98.4118 345.773 98.9082 347.075 99.4941C348.394 100.064 349.443 100.975 350.225 102.229C351.022 103.482 351.421 104.995 351.421 106.77C351.421 110.236 350.005 113.125 347.173 115.437C344.357 117.748 340.939 118.903 336.919 118.903C333.55 118.903 330.596 118.301 328.057 117.097L327.91 116.779C328.073 115.754 328.195 113.361 328.276 109.602Z" fill="#8B8B8B"/>
<path d="M319 73L321.47 80.6008H329.462L322.996 85.2984L325.466 92.8992L319 88.2016L312.534 92.8992L315.004 85.2984L308.538 80.6008H316.53L319 73Z" fill="#8B8B8B"/>
</svg>
