<svg width="400" height="225" viewBox="0 0 400 225" fill="none" xmlns="http://www.w3.org/2000/svg">
<path d="M78.7903 146L77.4143 142.464H72.8863L71.5263 146H70.0703L74.5343 134.528H75.8303L80.2783 146H78.7903ZM75.7023 137.728C75.6703 137.643 75.617 137.488 75.5423 137.264C75.4676 137.04 75.393 136.811 75.3183 136.576C75.2543 136.331 75.201 136.144 75.1583 136.016C75.0836 136.347 74.9983 136.672 74.9023 136.992C74.8063 137.301 74.7263 137.547 74.6623 137.728L73.3663 141.184H76.9823L75.7023 137.728ZM93.0243 134.576C94.443 134.576 95.4883 134.848 96.1603 135.392C96.843 135.925 97.1843 136.736 97.1843 137.824C97.1843 138.432 97.0723 138.939 96.8483 139.344C96.6243 139.749 96.3363 140.075 95.9843 140.32C95.643 140.555 95.2803 140.741 94.8963 140.88L98.0323 146H96.3523L93.5843 141.28H91.3123V146H89.8723V134.576H93.0243ZM92.9443 135.824H91.3123V140.064H93.0243C93.9523 140.064 94.6296 139.883 95.0563 139.52C95.483 139.147 95.6963 138.603 95.6963 137.888C95.6963 137.141 95.4723 136.613 95.0243 136.304C94.5763 135.984 93.883 135.824 92.9443 135.824ZM106.209 146H99.8254V134.576H106.209V135.84H101.265V139.408H105.921V140.656H101.265V144.736H106.209V146ZM115.884 146L114.508 142.464H109.98L108.62 146H107.164L111.628 134.528H112.924L117.372 146H115.884ZM112.796 137.728C112.764 137.643 112.711 137.488 112.636 137.264C112.561 137.04 112.487 136.811 112.412 136.576C112.348 136.331 112.295 136.144 112.252 136.016C112.177 136.347 112.092 136.672 111.996 136.992C111.9 137.301 111.82 137.547 111.756 137.728L110.46 141.184H114.076L112.796 137.728ZM123.518 135.68C122.292 135.68 121.326 136.091 120.622 136.912C119.918 137.733 119.566 138.859 119.566 140.288C119.566 141.707 119.892 142.832 120.542 143.664C121.204 144.485 122.19 144.896 123.502 144.896C124.004 144.896 124.478 144.853 124.926 144.768C125.374 144.683 125.812 144.576 126.238 144.448V145.696C125.812 145.856 125.369 145.973 124.91 146.048C124.462 146.123 123.924 146.16 123.294 146.16C122.132 146.16 121.161 145.92 120.382 145.44C119.604 144.96 119.017 144.277 118.622 143.392C118.238 142.507 118.046 141.467 118.046 140.272C118.046 139.12 118.254 138.107 118.67 137.232C119.097 136.347 119.721 135.659 120.542 135.168C121.364 134.667 122.361 134.416 123.534 134.416C124.74 134.416 125.79 134.64 126.686 135.088L126.11 136.304C125.758 136.144 125.364 136 124.926 135.872C124.5 135.744 124.03 135.68 123.518 135.68ZM132.348 146H130.908V135.84H127.34V134.576H135.9V135.84H132.348V146ZM152.822 146L151.446 142.464H146.918L145.558 146H144.102L148.566 134.528H149.862L154.31 146H152.822ZM149.734 137.728C149.702 137.643 149.648 137.488 149.574 137.264C149.499 137.04 149.424 136.811 149.35 136.576C149.286 136.331 149.232 136.144 149.19 136.016C149.115 136.347 149.03 136.672 148.934 136.992C148.838 137.301 148.758 137.547 148.694 137.728L147.398 141.184H151.014L149.734 137.728ZM158.896 134.576C160.39 134.576 161.478 134.869 162.16 135.456C162.843 136.043 163.184 136.869 163.184 137.936C163.184 138.565 163.04 139.157 162.752 139.712C162.475 140.256 162 140.699 161.328 141.04C160.667 141.381 159.766 141.552 158.624 141.552H157.312V146H155.872V134.576H158.896ZM158.768 135.808H157.312V140.32H158.464C159.552 140.32 160.363 140.144 160.896 139.792C161.43 139.44 161.696 138.843 161.696 138C161.696 137.264 161.462 136.715 160.992 136.352C160.523 135.989 159.782 135.808 158.768 135.808ZM168.584 134.576C170.077 134.576 171.165 134.869 171.848 135.456C172.53 136.043 172.872 136.869 172.872 137.936C172.872 138.565 172.728 139.157 172.44 139.712C172.162 140.256 171.688 140.699 171.016 141.04C170.354 141.381 169.453 141.552 168.312 141.552H167V146H165.56V134.576H168.584ZM168.456 135.808H167V140.32H168.152C169.24 140.32 170.05 140.144 170.584 139.792C171.117 139.44 171.384 138.843 171.384 138C171.384 137.264 171.149 136.715 170.68 136.352C170.21 135.989 169.469 135.808 168.456 135.808ZM186.895 146H185.455V135.84H181.887V134.576H190.447V135.84H186.895V146ZM200.905 146H199.465V140.672H193.609V146H192.169V134.576H193.609V139.408H199.465V134.576H200.905V146ZM211.197 146L209.821 142.464H205.293L203.933 146H202.477L206.941 134.528H208.237L212.685 146H211.197ZM208.109 137.728C208.077 137.643 208.023 137.488 207.949 137.264C207.874 137.04 207.799 136.811 207.725 136.576C207.661 136.331 207.607 136.144 207.565 136.016C207.49 136.347 207.405 136.672 207.309 136.992C207.213 137.301 207.133 137.547 207.069 137.728L205.773 141.184H209.389L208.109 137.728ZM216.738 146H215.298V135.84H211.73V134.576H220.29V135.84H216.738V146ZM231.484 146H230.044V134.576H236.428V135.84H231.484V139.888H236.124V141.152H231.484V146ZM244.725 146H238.341V134.576H244.725V135.84H239.781V139.408H244.437V140.656H239.781V144.736H244.725V146ZM250.848 146H249.408V135.84H245.84V134.576H254.4V135.84H250.848V146ZM260.706 135.68C259.479 135.68 258.514 136.091 257.81 136.912C257.106 137.733 256.754 138.859 256.754 140.288C256.754 141.707 257.079 142.832 257.73 143.664C258.391 144.485 259.378 144.896 260.69 144.896C261.191 144.896 261.666 144.853 262.114 144.768C262.562 144.683 262.999 144.576 263.426 144.448V145.696C262.999 145.856 262.556 145.973 262.098 146.048C261.65 146.123 261.111 146.16 260.482 146.16C259.319 146.16 258.348 145.92 257.57 145.44C256.791 144.96 256.204 144.277 255.81 143.392C255.426 142.507 255.234 141.467 255.234 140.272C255.234 139.12 255.442 138.107 255.858 137.232C256.284 136.347 256.908 135.659 257.73 135.168C258.551 134.667 259.548 134.416 260.722 134.416C261.927 134.416 262.978 134.64 263.874 135.088L263.298 136.304C262.946 136.144 262.551 136 262.114 135.872C261.687 135.744 261.218 135.68 260.706 135.68ZM274.655 146H273.215V140.672H267.359V146H265.919V134.576H267.359V139.408H273.215V134.576H274.655V146ZM284.163 146H277.779V134.576H284.163V135.84H279.219V139.408H283.875V140.656H279.219V144.736H284.163V146ZM293.149 142.944C293.149 143.957 292.781 144.747 292.045 145.312C291.309 145.877 290.317 146.16 289.069 146.16C288.429 146.16 287.837 146.112 287.293 146.016C286.749 145.92 286.296 145.787 285.933 145.616V144.24C286.317 144.411 286.792 144.565 287.357 144.704C287.933 144.843 288.525 144.912 289.133 144.912C289.987 144.912 290.627 144.747 291.053 144.416C291.491 144.085 291.709 143.637 291.709 143.072C291.709 142.699 291.629 142.384 291.469 142.128C291.309 141.872 291.032 141.637 290.637 141.424C290.253 141.2 289.715 140.965 289.021 140.72C288.051 140.368 287.315 139.936 286.813 139.424C286.323 138.912 286.077 138.213 286.077 137.328C286.077 136.72 286.232 136.203 286.541 135.776C286.851 135.339 287.277 135.003 287.821 134.768C288.376 134.533 289.011 134.416 289.725 134.416C290.355 134.416 290.931 134.475 291.453 134.592C291.976 134.709 292.451 134.864 292.877 135.056L292.429 136.288C292.035 136.117 291.603 135.973 291.133 135.856C290.675 135.739 290.195 135.68 289.693 135.68C288.979 135.68 288.44 135.835 288.077 136.144C287.715 136.443 287.533 136.843 287.533 137.344C287.533 137.728 287.613 138.048 287.773 138.304C287.933 138.56 288.195 138.789 288.557 138.992C288.92 139.195 289.411 139.413 290.029 139.648C290.701 139.893 291.267 140.16 291.725 140.448C292.195 140.725 292.547 141.061 292.781 141.456C293.027 141.851 293.149 142.347 293.149 142.944ZM101.574 164H100.134V153.84H96.5663V152.576H105.126V153.84H101.574V164ZM115.585 164H114.145V158.672H108.289V164H106.849V152.576H108.289V157.408H114.145V152.576H115.585V164ZM125.092 164H118.708V152.576H125.092V153.84H120.148V157.408H124.804V158.656H120.148V162.736H125.092V164ZM140.59 157.968H144.542V163.568C143.923 163.771 143.299 163.92 142.67 164.016C142.041 164.112 141.326 164.16 140.526 164.16C139.342 164.16 138.345 163.925 137.534 163.456C136.723 162.976 136.105 162.299 135.678 161.424C135.262 160.539 135.054 159.493 135.054 158.288C135.054 157.093 135.289 156.059 135.758 155.184C136.227 154.309 136.899 153.632 137.774 153.152C138.659 152.661 139.726 152.416 140.974 152.416C141.614 152.416 142.217 152.475 142.782 152.592C143.358 152.709 143.891 152.875 144.382 153.088L143.838 154.336C143.433 154.155 142.974 154 142.462 153.872C141.961 153.744 141.438 153.68 140.894 153.68C139.529 153.68 138.462 154.091 137.694 154.912C136.937 155.733 136.558 156.859 136.558 158.288C136.558 159.195 136.702 160 136.99 160.704C137.289 161.397 137.753 161.941 138.382 162.336C139.011 162.72 139.838 162.912 140.862 162.912C141.363 162.912 141.79 162.885 142.142 162.832C142.494 162.779 142.814 162.715 143.102 162.64V159.248H140.59V157.968ZM150.423 152.576C151.841 152.576 152.887 152.848 153.559 153.392C154.241 153.925 154.583 154.736 154.583 155.824C154.583 156.432 154.471 156.939 154.247 157.344C154.023 157.749 153.735 158.075 153.383 158.32C153.041 158.555 152.679 158.741 152.295 158.88L155.431 164H153.751L150.983 159.28H148.711V164H147.271V152.576H150.423ZM150.343 153.824H148.711V158.064H150.423C151.351 158.064 152.028 157.883 152.455 157.52C152.881 157.147 153.095 156.603 153.095 155.888C153.095 155.141 152.871 154.613 152.423 154.304C151.975 153.984 151.281 153.824 150.343 153.824ZM163.608 164H157.224V152.576H163.608V153.84H158.664V157.408H163.32V158.656H158.664V162.736H163.608V164ZM173.283 164L171.907 160.464H167.379L166.019 164H164.562L169.027 152.528H170.323L174.771 164H173.283ZM170.195 155.728C170.163 155.643 170.109 155.488 170.035 155.264C169.96 155.04 169.885 154.811 169.811 154.576C169.747 154.331 169.693 154.144 169.651 154.016C169.576 154.347 169.491 154.672 169.395 154.992C169.299 155.301 169.219 155.547 169.155 155.728L167.859 159.184H171.475L170.195 155.728ZM178.824 164H177.384V153.84H173.816V152.576H182.376V153.84H178.824V164ZM190.483 164H184.099V152.576H190.483V153.84H185.539V157.408H190.195V158.656H185.539V162.736H190.483V164ZM199.47 160.944C199.47 161.957 199.102 162.747 198.366 163.312C197.63 163.877 196.638 164.16 195.39 164.16C194.75 164.16 194.158 164.112 193.614 164.016C193.07 163.92 192.616 163.787 192.254 163.616V162.24C192.638 162.411 193.112 162.565 193.678 162.704C194.254 162.843 194.846 162.912 195.454 162.912C196.307 162.912 196.947 162.747 197.374 162.416C197.811 162.085 198.03 161.637 198.03 161.072C198.03 160.699 197.95 160.384 197.79 160.128C197.63 159.872 197.352 159.637 196.958 159.424C196.574 159.2 196.035 158.965 195.342 158.72C194.371 158.368 193.635 157.936 193.134 157.424C192.643 156.912 192.398 156.213 192.398 155.328C192.398 154.72 192.552 154.203 192.862 153.776C193.171 153.339 193.598 153.003 194.142 152.768C194.696 152.533 195.331 152.416 196.046 152.416C196.675 152.416 197.251 152.475 197.774 152.592C198.296 152.709 198.771 152.864 199.198 153.056L198.75 154.288C198.355 154.117 197.923 153.973 197.454 153.856C196.995 153.739 196.515 153.68 196.014 153.68C195.299 153.68 194.76 153.835 194.398 154.144C194.035 154.443 193.854 154.843 193.854 155.344C193.854 155.728 193.934 156.048 194.094 156.304C194.254 156.56 194.515 156.789 194.878 156.992C195.24 157.195 195.731 157.413 196.35 157.648C197.022 157.893 197.587 158.16 198.046 158.448C198.515 158.725 198.867 159.061 199.102 159.456C199.347 159.851 199.47 160.347 199.47 160.944ZM205.387 164H203.947V153.84H200.379V152.576H208.939V153.84H205.387V164ZM222.309 164H220.869V153.84H217.301V152.576H225.861V153.84H222.309V164ZM236.271 159.968C236.271 160.757 236.111 161.472 235.791 162.112C235.471 162.741 234.981 163.243 234.319 163.616C233.669 163.979 232.837 164.16 231.823 164.16C230.405 164.16 229.322 163.776 228.575 163.008C227.839 162.229 227.471 161.205 227.471 159.936V152.576H228.911V159.984C228.911 160.912 229.157 161.632 229.647 162.144C230.149 162.656 230.901 162.912 231.903 162.912C232.938 162.912 233.685 162.64 234.143 162.096C234.613 161.541 234.847 160.832 234.847 159.968V152.576H236.271V159.968ZM248.342 164H246.662L240.55 154.512H240.486C240.508 154.885 240.534 155.349 240.566 155.904C240.598 156.459 240.614 157.029 240.614 157.616V164H239.286V152.576H240.95L247.046 162.032H247.11C247.1 161.861 247.084 161.605 247.062 161.264C247.052 160.923 247.036 160.549 247.014 160.144C247.004 159.739 246.998 159.365 246.998 159.024V152.576H248.342V164ZM257.827 164H251.443V152.576H257.827V153.84H252.883V157.408H257.539V158.656H252.883V162.736H257.827V164ZM266.813 160.944C266.813 161.957 266.445 162.747 265.709 163.312C264.973 163.877 263.981 164.16 262.733 164.16C262.093 164.16 261.501 164.112 260.957 164.016C260.413 163.92 259.96 163.787 259.597 163.616V162.24C259.981 162.411 260.456 162.565 261.021 162.704C261.597 162.843 262.189 162.912 262.797 162.912C263.651 162.912 264.291 162.747 264.717 162.416C265.155 162.085 265.373 161.637 265.373 161.072C265.373 160.699 265.293 160.384 265.133 160.128C264.973 159.872 264.696 159.637 264.301 159.424C263.917 159.2 263.379 158.965 262.685 158.72C261.715 158.368 260.979 157.936 260.477 157.424C259.987 156.912 259.741 156.213 259.741 155.328C259.741 154.72 259.896 154.203 260.205 153.776C260.515 153.339 260.941 153.003 261.485 152.768C262.04 152.533 262.675 152.416 263.389 152.416C264.019 152.416 264.595 152.475 265.117 152.592C265.64 152.709 266.115 152.864 266.541 153.056L266.093 154.288C265.699 154.117 265.267 153.973 264.797 153.856C264.339 153.739 263.859 153.68 263.357 153.68C262.643 153.68 262.104 153.835 261.741 154.144C261.379 154.443 261.197 154.843 261.197 155.344C261.197 155.728 261.277 156.048 261.437 156.304C261.597 156.56 261.859 156.789 262.221 156.992C262.584 157.195 263.075 157.413 263.693 157.648C264.365 157.893 264.931 158.16 265.389 158.448C265.859 158.725 266.211 159.061 266.445 159.456C266.691 159.851 266.813 160.347 266.813 160.944ZM71.4414 182H70.0014V171.84H66.4334V170.576H74.9934V171.84H71.4414V182ZM86.3716 176.272C86.3716 177.456 86.1689 178.491 85.7636 179.376C85.3689 180.251 84.7822 180.933 84.0036 181.424C83.2249 181.915 82.2596 182.16 81.1076 182.16C79.9236 182.16 78.9369 181.915 78.1476 181.424C77.3689 180.933 76.7876 180.245 76.4036 179.36C76.0196 178.475 75.8276 177.44 75.8276 176.256C75.8276 175.083 76.0196 174.059 76.4036 173.184C76.7876 172.309 77.3689 171.627 78.1476 171.136C78.9369 170.645 79.9289 170.4 81.1236 170.4C82.2649 170.4 83.2249 170.645 84.0036 171.136C84.7822 171.616 85.3689 172.299 85.7636 173.184C86.1689 174.059 86.3716 175.088 86.3716 176.272ZM77.3476 176.272C77.3476 177.712 77.6516 178.848 78.2596 179.68C78.8676 180.501 79.8169 180.912 81.1076 180.912C82.4089 180.912 83.3582 180.501 83.9556 179.68C84.5529 178.848 84.8516 177.712 84.8516 176.272C84.8516 174.832 84.5529 173.707 83.9556 172.896C83.3582 172.075 82.4142 171.664 81.1236 171.664C79.8329 171.664 78.8782 172.075 78.2596 172.896C77.6516 173.707 77.3476 174.832 77.3476 176.272ZM96.9348 182V170.576H98.3748V180.72H103.367V182H96.9348ZM108.541 182H104.413V181.168L105.757 180.864V171.728L104.413 171.408V170.576H108.541V171.408L107.197 171.728V180.864L108.541 181.168V182ZM117.227 178.944C117.227 179.957 116.859 180.747 116.123 181.312C115.387 181.877 114.395 182.16 113.147 182.16C112.507 182.16 111.915 182.112 111.371 182.016C110.827 181.92 110.374 181.787 110.011 181.616V180.24C110.395 180.411 110.87 180.565 111.435 180.704C112.011 180.843 112.603 180.912 113.211 180.912C114.065 180.912 114.705 180.747 115.131 180.416C115.569 180.085 115.787 179.637 115.787 179.072C115.787 178.699 115.707 178.384 115.547 178.128C115.387 177.872 115.11 177.637 114.715 177.424C114.331 177.2 113.793 176.965 113.099 176.72C112.129 176.368 111.393 175.936 110.891 175.424C110.401 174.912 110.155 174.213 110.155 173.328C110.155 172.72 110.31 172.203 110.619 171.776C110.929 171.339 111.355 171.003 111.899 170.768C112.454 170.533 113.089 170.416 113.803 170.416C114.433 170.416 115.009 170.475 115.531 170.592C116.054 170.709 116.529 170.864 116.955 171.056L116.507 172.288C116.113 172.117 115.681 171.973 115.211 171.856C114.753 171.739 114.273 171.68 113.771 171.68C113.057 171.68 112.518 171.835 112.155 172.144C111.793 172.443 111.611 172.843 111.611 173.344C111.611 173.728 111.691 174.048 111.851 174.304C112.011 174.56 112.273 174.789 112.635 174.992C112.998 175.195 113.489 175.413 114.107 175.648C114.779 175.893 115.345 176.16 115.803 176.448C116.273 176.725 116.625 177.061 116.859 177.456C117.105 177.851 117.227 178.347 117.227 178.944ZM123.145 182H121.705V171.84H118.137V170.576H126.697V171.84H123.145V182ZM134.803 182H128.419V170.576H134.803V171.84H129.859V175.408H134.515V176.656H129.859V180.736H134.803V182ZM146.366 182H144.686L138.574 172.512H138.51C138.531 172.885 138.558 173.349 138.59 173.904C138.622 174.459 138.638 175.029 138.638 175.616V182H137.31V170.576H138.974L145.07 180.032H145.134C145.123 179.861 145.107 179.605 145.086 179.264C145.075 178.923 145.059 178.549 145.038 178.144C145.027 177.739 145.022 177.365 145.022 177.024V170.576H146.366V182ZM161.113 182H159.673V171.84H156.105V170.576H164.665V171.84H161.113V182ZM176.043 176.272C176.043 177.456 175.841 178.491 175.435 179.376C175.041 180.251 174.454 180.933 173.675 181.424C172.897 181.915 171.931 182.16 170.779 182.16C169.595 182.16 168.609 181.915 167.819 181.424C167.041 180.933 166.459 180.245 166.075 179.36C165.691 178.475 165.499 177.44 165.499 176.256C165.499 175.083 165.691 174.059 166.075 173.184C166.459 172.309 167.041 171.627 167.819 171.136C168.609 170.645 169.601 170.4 170.795 170.4C171.937 170.4 172.897 170.645 173.675 171.136C174.454 171.616 175.041 172.299 175.435 173.184C175.841 174.059 176.043 175.088 176.043 176.272ZM167.019 176.272C167.019 177.712 167.323 178.848 167.931 179.68C168.539 180.501 169.489 180.912 170.779 180.912C172.081 180.912 173.03 180.501 173.627 179.68C174.225 178.848 174.523 177.712 174.523 176.272C174.523 174.832 174.225 173.707 173.627 172.896C173.03 172.075 172.086 171.664 170.795 171.664C169.505 171.664 168.55 172.075 167.931 172.896C167.323 173.707 167.019 174.832 167.019 176.272ZM199.727 170.576L196.687 182H195.231L193.007 174.512C192.921 174.203 192.836 173.893 192.751 173.584C192.665 173.275 192.596 173.003 192.543 172.768C192.489 172.523 192.452 172.352 192.431 172.256C192.42 172.395 192.361 172.693 192.255 173.152C192.159 173.6 192.036 174.069 191.887 174.56L189.727 182H188.271L185.247 170.576H186.751L188.527 177.552C188.655 178.043 188.761 178.517 188.847 178.976C188.943 179.435 189.017 179.867 189.071 180.272C189.124 179.856 189.204 179.403 189.311 178.912C189.417 178.421 189.54 177.941 189.679 177.472L191.695 170.576H193.183L195.279 177.52C195.428 178.011 195.556 178.501 195.663 178.992C195.769 179.472 195.849 179.899 195.903 180.272C195.956 179.877 196.031 179.451 196.127 178.992C196.223 178.523 196.335 178.037 196.463 177.536L198.223 170.576H199.727ZM210.218 182H208.778V176.672H202.922V182H201.482V170.576H202.922V175.408H208.778V170.576H210.218V182ZM216.557 182H212.429V181.168L213.773 180.864V171.728L212.429 171.408V170.576H216.557V171.408L215.213 171.728V180.864L216.557 181.168V182ZM218.763 182V170.576H220.203V180.72H225.195V182H218.763ZM233.538 182H227.154V170.576H233.538V171.84H228.594V175.408H233.25V176.656H228.594V180.736H233.538V182ZM248.971 171.68C247.745 171.68 246.779 172.091 246.075 172.912C245.371 173.733 245.019 174.859 245.019 176.288C245.019 177.707 245.345 178.832 245.995 179.664C246.657 180.485 247.643 180.896 248.955 180.896C249.457 180.896 249.931 180.853 250.379 180.768C250.827 180.683 251.265 180.576 251.691 180.448V181.696C251.265 181.856 250.822 181.973 250.363 182.048C249.915 182.123 249.377 182.16 248.747 182.16C247.585 182.16 246.614 181.92 245.835 181.44C245.057 180.96 244.47 180.277 244.075 179.392C243.691 178.507 243.499 177.467 243.499 176.272C243.499 175.12 243.707 174.107 244.123 173.232C244.55 172.347 245.174 171.659 245.995 171.168C246.817 170.667 247.814 170.416 248.987 170.416C250.193 170.416 251.243 170.64 252.139 171.088L251.563 172.304C251.211 172.144 250.817 172 250.379 171.872C249.953 171.744 249.483 171.68 248.971 171.68ZM263.84 176.272C263.84 177.456 263.638 178.491 263.232 179.376C262.838 180.251 262.251 180.933 261.472 181.424C260.694 181.915 259.728 182.16 258.576 182.16C257.392 182.16 256.406 181.915 255.616 181.424C254.838 180.933 254.256 180.245 253.872 179.36C253.488 178.475 253.296 177.44 253.296 176.256C253.296 175.083 253.488 174.059 253.872 173.184C254.256 172.309 254.838 171.627 255.616 171.136C256.406 170.645 257.398 170.4 258.592 170.4C259.734 170.4 260.694 170.645 261.472 171.136C262.251 171.616 262.838 172.299 263.232 173.184C263.638 174.059 263.84 175.088 263.84 176.272ZM254.816 176.272C254.816 177.712 255.12 178.848 255.728 179.68C256.336 180.501 257.286 180.912 258.576 180.912C259.878 180.912 260.827 180.501 261.424 179.68C262.022 178.848 262.32 177.712 262.32 176.272C262.32 174.832 262.022 173.707 261.424 172.896C260.827 172.075 259.883 171.664 258.592 171.664C257.302 171.664 256.347 172.075 255.728 172.896C255.12 173.707 254.816 174.832 254.816 176.272ZM275.524 176.176C275.524 178.107 274.996 179.563 273.94 180.544C272.895 181.515 271.434 182 269.556 182H266.372V170.576H269.892C271.044 170.576 272.042 170.789 272.884 171.216C273.727 171.643 274.378 172.272 274.836 173.104C275.295 173.925 275.524 174.949 275.524 176.176ZM274.004 176.224C274.004 174.699 273.626 173.584 272.868 172.88C272.122 172.165 271.06 171.808 269.684 171.808H267.812V180.768H269.364C272.458 180.768 274.004 179.253 274.004 176.224ZM281.276 182H277.148V181.168L278.492 180.864V171.728L277.148 171.408V170.576H281.276V171.408L279.932 171.728V180.864L281.276 181.168V182ZM292.538 182H290.858L284.746 172.512H284.682C284.703 172.885 284.73 173.349 284.762 173.904C284.794 174.459 284.81 175.029 284.81 175.616V182H283.482V170.576H285.146L291.242 180.032H291.306C291.295 179.861 291.279 179.605 291.258 179.264C291.247 178.923 291.231 178.549 291.21 178.144C291.199 177.739 291.194 177.365 291.194 177.024V170.576H292.538V182ZM300.598 175.968H304.55V181.568C303.931 181.771 303.307 181.92 302.678 182.016C302.049 182.112 301.334 182.16 300.534 182.16C299.35 182.16 298.353 181.925 297.542 181.456C296.731 180.976 296.113 180.299 295.686 179.424C295.27 178.539 295.062 177.493 295.062 176.288C295.062 175.093 295.297 174.059 295.766 173.184C296.235 172.309 296.907 171.632 297.782 171.152C298.667 170.661 299.734 170.416 300.982 170.416C301.622 170.416 302.225 170.475 302.79 170.592C303.366 170.709 303.899 170.875 304.39 171.088L303.846 172.336C303.441 172.155 302.982 172 302.47 171.872C301.969 171.744 301.446 171.68 300.902 171.68C299.537 171.68 298.47 172.091 297.702 172.912C296.945 173.733 296.566 174.859 296.566 176.288C296.566 177.195 296.71 178 296.998 178.704C297.297 179.397 297.761 179.941 298.39 180.336C299.019 180.72 299.846 180.912 300.87 180.912C301.371 180.912 301.798 180.885 302.15 180.832C302.502 180.779 302.822 180.715 303.11 180.64V177.248H300.598V175.968Z" fill="#8B8B8B"/>
<path d="M46.107 88H45L52.503 58.48H53.446L57.874 74.634H56.767L53.036 60.94L46.107 88ZM63.573 88L55.209 58.48H62.876L65.377 67.746L68.698 58.48H75.914L84.319 88H76.529L68.985 60.735L65.869 69.55L71.199 88H63.573ZM95.5114 88V58.48H96.6184V86.893L97.3154 86.934L98.1354 86.893L99.8164 86.811C101.292 86.811 102.604 86.606 103.752 86.196C104.9 85.7587 105.939 85.1573 106.868 84.392C108.372 83.162 109.123 81.645 109.123 79.841V77.627V58.48H110.23V79.513V80.169C110.23 82.383 109.274 84.2007 107.36 85.622C105.283 87.2073 102.413 88 98.7504 88H98.2584H95.5114ZM90.4274 86.647C87.53 84.9797 86.0814 82.8067 86.0814 80.128V58.48H93.7484L93.7074 87.795L93.0514 87.631C92.04 87.385 91.1654 87.057 90.4274 86.647ZM114.937 85.827C114.254 85.253 113.571 84.5013 112.887 83.572L114.199 82.67C115.101 84.0913 116.454 85.2393 118.258 86.114C119.926 86.9067 121.661 87.303 123.465 87.303C125.488 87.303 127.47 86.852 129.41 85.95L118.545 73.445H120.308L131.583 86.278C130.299 87.1253 128.85 87.713 127.237 88.041C125.652 88.3963 123.903 88.574 121.989 88.574C119.201 88.328 116.851 87.4123 114.937 85.827ZM135.355 61.801L135.929 62.416L134.822 63.359C133.92 62.211 132.595 61.2543 130.845 60.489C130.053 60.161 129.014 59.874 127.729 59.628C127.292 59.546 126.923 59.4913 126.622 59.464C126.349 59.4367 125.925 59.423 125.351 59.423C124.668 59.423 123.916 59.464 123.096 59.546L121.169 59.792L120.882 59.874L120.431 59.956L133.428 74.593C134.822 76.151 135.519 77.8183 135.519 79.595C135.519 80.2237 135.492 80.784 135.437 81.276C135.41 81.7407 135.26 82.2463 134.986 82.793C134.576 83.613 133.866 84.4467 132.854 85.294L118.094 68.443L115.757 65.819C114.937 64.753 114.527 63.769 114.527 62.867C114.527 60.571 116.919 59.1223 121.702 58.521C123.069 58.357 124.34 58.275 125.515 58.275C129.807 58.275 133.087 59.4503 135.355 61.801ZM146.321 88H138.613V58.48H146.321V88ZM149.15 88H148.043V58.48H149.15V88ZM180.423 62.867L180.628 63.195L179.767 63.851L179.562 63.646L179.316 63.359C178.004 61.9377 176.337 60.817 174.314 59.997C172.565 59.3137 170.747 58.972 168.861 58.972C168.479 58.972 168.164 58.972 167.918 58.972C167.7 58.972 167.276 59.0267 166.647 59.136C164.379 59.4093 162.602 60.0243 161.317 60.981V86.688C158.338 85.458 156.056 83.654 154.47 81.276C152.885 78.8707 152.092 76.0417 152.092 72.789C152.092 68.9897 153.65 65.573 156.766 62.539C159.144 60.1883 162.165 58.726 165.827 58.152C166.893 57.988 167.946 57.906 168.984 57.906C172.428 57.906 175.367 58.7533 177.799 60.448C178.783 61.104 179.603 61.842 180.259 62.662L180.423 62.867ZM163.408 87.426L163.08 87.344V72.01H164.187V86.319L164.925 86.565C165.199 86.565 165.472 86.6333 165.745 86.77C166.893 87.016 167.973 87.139 168.984 87.139C172.182 87.139 175.203 85.8543 178.045 83.285C178.701 82.711 179.193 82.219 179.521 81.809L179.726 81.522L179.972 81.194L180.833 82.055L180.546 82.424L180.341 82.711C179.795 83.4217 178.893 84.2553 177.635 85.212C174.902 87.2347 171.964 88.246 168.82 88.246C168.055 88.246 167.249 88.1913 166.401 88.082C165.581 87.9727 164.734 87.795 163.859 87.549L163.408 87.426ZM185.32 119H177.571V89.48H192.864C194.312 89.48 195.611 89.644 196.759 89.972C199.711 90.874 201.433 92.555 201.925 95.015L202.089 96.491C202.089 98.4317 201.296 100.003 199.711 101.206C198.125 102.409 195.843 103.01 192.864 103.01H188.395V119H187.042V101.903H192.864C194.968 101.903 196.759 101.534 198.235 100.796C200.066 99.8667 200.982 98.418 200.982 96.45L200.859 95.179C200.367 92.5003 198.125 90.9833 194.135 90.628L192.864 90.587H185.32V119ZM211.825 119H204.117V89.48H211.825V119ZM224.986 119H213.547V102.969H214.654V117.893H224.986V119ZM244.129 119L235.765 89.48H243.473L251.837 119H244.129ZM225.761 119H224.408L232.772 89.48H234.043L230.763 101.903H237.323L242.366 119H240.972L236.216 103.01H230.476L225.761 119ZM258.86 119H251.275L266.65 89.48H274.153L258.86 119ZM258.573 101.37L252.628 89.48H253.94L258.573 98.828L263.452 89.48H264.764L258.573 101.37ZM282.453 119H274.745V89.48H294.507V90.587H282.453V119ZM294.507 119H284.175V101.903H294.507V103.01H285.282V117.893H294.507V119ZM306.468 119H297.448V89.48H314.545C317.661 89.48 320.039 90.1223 321.679 91.407C323.346 92.6917 324.18 94.4273 324.18 96.614C324.18 96.8873 324.166 97.2017 324.139 97.557C324.111 97.885 324.057 98.213 323.975 98.541C323.401 101.22 321.474 103.051 318.194 104.035L317.825 104.076L317.497 104.158L325.738 119H316.103L309.543 104.158V119H308.231V103.051H315.898C317.702 103.051 319.205 102.573 320.408 101.616C321.638 100.632 322.376 99.3883 322.622 97.885L322.704 96.655C322.704 94.851 322.007 93.4023 320.613 92.309C319.219 91.1883 317.196 90.628 314.545 90.628H306.468V119Z" fill="#8B8B8B"/>
<path d="M158.5 94C165.392 94 171 99.6076 171 106.5C171 113.392 165.392 119 158.5 119C151.608 119 146 113.392 146 106.5C146 99.6076 151.608 94 158.5 94ZM158.5 118.123C164.909 118.123 170.123 112.909 170.123 106.5C170.123 100.091 164.909 94.8772 158.5 94.8772C152.091 94.8772 146.877 100.091 146.877 106.5C146.877 112.909 152.091 118.123 158.5 118.123Z" fill="#8B8B8B"/>
<path d="M158.5 103.649C160.072 103.649 161.351 104.928 161.351 106.5C161.351 108.072 160.072 109.351 158.5 109.351C156.928 109.351 155.649 108.072 155.649 106.5C155.649 104.928 156.928 103.649 158.5 103.649ZM158.5 108.474C159.588 108.474 160.474 107.588 160.474 106.5C160.474 105.412 159.588 104.526 158.5 104.526C157.412 104.526 156.526 105.412 156.526 106.5C156.526 107.588 157.412 108.474 158.5 108.474Z" fill="#8B8B8B"/>
<path d="M158.5 101.895C161.039 101.895 163.105 103.961 163.105 106.5C163.105 109.039 161.039 111.105 158.5 111.105C155.961 111.105 153.895 109.039 153.895 106.5C153.895 103.961 155.961 101.895 158.5 101.895ZM158.5 110.228C160.555 110.228 162.228 108.555 162.228 106.5C162.228 104.445 160.555 102.772 158.5 102.772C156.445 102.772 154.772 104.445 154.772 106.5C154.772 108.555 156.445 110.228 158.5 110.228Z" fill="#8B8B8B"/>
<path d="M158.5 103.649C160.072 103.649 161.351 104.928 161.351 106.5C161.351 108.072 160.072 109.351 158.5 109.351C156.928 109.351 155.649 108.072 155.649 106.5C155.649 104.928 156.928 103.649 158.5 103.649ZM158.5 108.474C159.588 108.474 160.474 107.588 160.474 106.5C160.474 105.412 159.588 104.526 158.5 104.526C157.412 104.526 156.526 105.412 156.526 106.5C156.526 107.588 157.412 108.474 158.5 108.474Z" fill="#8B8B8B"/>
<path d="M163.271 97.759C163.395 97.5508 163.664 97.4822 163.872 97.6065C166.081 98.9218 167.692 101 168.407 103.457C168.474 103.69 168.341 103.933 168.108 104.001C168.067 104.013 168.026 104.018 167.986 104.018C167.795 104.018 167.62 103.894 167.565 103.702C166.912 101.459 165.441 99.5613 163.423 98.3603C163.215 98.2365 163.147 97.9671 163.271 97.759Z" fill="#8B8B8B"/>
</svg>
