<svg width="400" height="225" viewBox="0 0 400 225" fill="none" xmlns="http://www.w3.org/2000/svg">
<path d="M53.7278 128L52.3518 124.464H47.8238L46.4638 128H45.0078L49.4718 116.528H50.7678L55.2158 128H53.7278ZM50.6398 119.728C50.6078 119.643 50.5545 119.488 50.4798 119.264C50.4051 119.04 50.3305 118.811 50.2558 118.576C50.1918 118.331 50.1385 118.144 50.0958 118.016C50.0211 118.347 49.9358 118.672 49.8398 118.992C49.7438 119.301 49.6638 119.547 49.5998 119.728L48.3038 123.184H51.9198L50.6398 119.728ZM66.2498 128H64.8098V116.576H71.1938V117.84H66.2498V121.888H70.8898V123.152H66.2498V128ZM81.7947 123.968C81.7947 124.757 81.6347 125.472 81.3147 126.112C80.9947 126.741 80.504 127.243 79.8427 127.616C79.192 127.979 78.36 128.16 77.3467 128.16C75.928 128.16 74.8454 127.776 74.0987 127.008C73.3627 126.229 72.9947 125.205 72.9947 123.936V116.576H74.4347V123.984C74.4347 124.912 74.68 125.632 75.1707 126.144C75.672 126.656 76.424 126.912 77.4267 126.912C78.4614 126.912 79.208 126.64 79.6667 126.096C80.136 125.541 80.3707 124.832 80.3707 123.968V116.576H81.7947V123.968ZM84.8098 128V116.576H86.2498V126.72H91.2418V128H84.8098ZM93.2004 128V116.576H94.6404V126.72H99.6324V128H93.2004ZM104.083 122.192L107.059 116.576H108.611L104.803 123.568V128H103.363V123.632L99.5547 116.576H101.123L104.083 122.192ZM119.64 128H118.2V116.576H124.584V117.84H119.64V121.888H124.28V123.152H119.64V128ZM135.185 123.968C135.185 124.757 135.025 125.472 134.705 126.112C134.385 126.741 133.895 127.243 133.233 127.616C132.583 127.979 131.751 128.16 130.737 128.16C129.319 128.16 128.236 127.776 127.489 127.008C126.753 126.229 126.385 125.205 126.385 123.936V116.576H127.825V123.984C127.825 124.912 128.071 125.632 128.561 126.144C129.063 126.656 129.815 126.912 130.817 126.912C131.852 126.912 132.599 126.64 133.057 126.096C133.527 125.541 133.761 124.832 133.761 123.968V116.576H135.185V123.968ZM147.256 128H145.576L139.464 118.512H139.4C139.422 118.885 139.448 119.349 139.48 119.904C139.512 120.459 139.528 121.029 139.528 121.616V128H138.2V116.576H139.864L145.96 126.032H146.024C146.014 125.861 145.998 125.605 145.976 125.264C145.966 124.923 145.95 124.549 145.928 124.144C145.918 123.739 145.912 123.365 145.912 123.024V116.576H147.256V128ZM155.253 117.68C154.026 117.68 153.061 118.091 152.357 118.912C151.653 119.733 151.301 120.859 151.301 122.288C151.301 123.707 151.626 124.832 152.277 125.664C152.938 126.485 153.925 126.896 155.237 126.896C155.738 126.896 156.213 126.853 156.661 126.768C157.109 126.683 157.546 126.576 157.973 126.448V127.696C157.546 127.856 157.103 127.973 156.645 128.048C156.197 128.123 155.658 128.16 155.029 128.16C153.866 128.16 152.895 127.92 152.117 127.44C151.338 126.96 150.751 126.277 150.357 125.392C149.973 124.507 149.781 123.467 149.781 122.272C149.781 121.12 149.989 120.107 150.405 119.232C150.831 118.347 151.455 117.659 152.277 117.168C153.098 116.667 154.095 116.416 155.269 116.416C156.474 116.416 157.525 116.64 158.421 117.088L157.845 118.304C157.493 118.144 157.098 118 156.661 117.872C156.234 117.744 155.765 117.68 155.253 117.68ZM164.082 128H162.642V117.84H159.074V116.576H167.634V117.84H164.082V128ZM172.573 128H168.445V127.168L169.789 126.864V117.728L168.445 117.408V116.576H172.573V117.408L171.229 117.728V126.864L172.573 127.168V128ZM184.747 122.272C184.747 123.456 184.544 124.491 184.139 125.376C183.744 126.251 183.157 126.933 182.379 127.424C181.6 127.915 180.635 128.16 179.483 128.16C178.299 128.16 177.312 127.915 176.523 127.424C175.744 126.933 175.163 126.245 174.779 125.36C174.395 124.475 174.203 123.44 174.203 122.256C174.203 121.083 174.395 120.059 174.779 119.184C175.163 118.309 175.744 117.627 176.523 117.136C177.312 116.645 178.304 116.4 179.499 116.4C180.64 116.4 181.6 116.645 182.379 117.136C183.157 117.616 183.744 118.299 184.139 119.184C184.544 120.059 184.747 121.088 184.747 122.272ZM175.723 122.272C175.723 123.712 176.027 124.848 176.635 125.68C177.243 126.501 178.192 126.912 179.483 126.912C180.784 126.912 181.733 126.501 182.331 125.68C182.928 124.848 183.227 123.712 183.227 122.272C183.227 120.832 182.928 119.707 182.331 118.896C181.733 118.075 180.789 117.664 179.499 117.664C178.208 117.664 177.253 118.075 176.635 118.896C176.027 119.707 175.723 120.832 175.723 122.272ZM196.335 128H194.655L188.543 118.512H188.479C188.5 118.885 188.527 119.349 188.559 119.904C188.591 120.459 188.607 121.029 188.607 121.616V128H187.279V116.576H188.943L195.039 126.032H195.103C195.092 125.861 195.076 125.605 195.055 125.264C195.044 124.923 195.028 124.549 195.007 124.144C194.996 123.739 194.991 123.365 194.991 123.024V116.576H196.335V128ZM206.603 128L205.227 124.464H200.699L199.339 128H197.883L202.347 116.528H203.643L208.091 128H206.603ZM203.515 119.728C203.483 119.643 203.429 119.488 203.355 119.264C203.28 119.04 203.205 118.811 203.131 118.576C203.067 118.331 203.013 118.144 202.971 118.016C202.896 118.347 202.811 118.672 202.715 118.992C202.619 119.301 202.539 119.547 202.475 119.728L201.179 123.184H204.795L203.515 119.728ZM209.654 128V116.576H211.094V126.72H216.086V128H209.654ZM230.971 117.68C229.745 117.68 228.779 118.091 228.075 118.912C227.371 119.733 227.019 120.859 227.019 122.288C227.019 123.707 227.345 124.832 227.995 125.664C228.657 126.485 229.643 126.896 230.955 126.896C231.457 126.896 231.931 126.853 232.379 126.768C232.827 126.683 233.265 126.576 233.691 126.448V127.696C233.265 127.856 232.822 127.973 232.363 128.048C231.915 128.123 231.377 128.16 230.747 128.16C229.585 128.16 228.614 127.92 227.835 127.44C227.057 126.96 226.47 126.277 226.075 125.392C225.691 124.507 225.499 123.467 225.499 122.272C225.499 121.12 225.707 120.107 226.123 119.232C226.55 118.347 227.174 117.659 227.995 117.168C228.817 116.667 229.814 116.416 230.987 116.416C232.193 116.416 233.243 116.64 234.139 117.088L233.563 118.304C233.211 118.144 232.817 118 232.379 117.872C231.953 117.744 231.483 117.68 230.971 117.68ZM244.873 123.968C244.873 124.757 244.713 125.472 244.393 126.112C244.073 126.741 243.582 127.243 242.921 127.616C242.27 127.979 241.438 128.16 240.425 128.16C239.006 128.16 237.923 127.776 237.177 127.008C236.441 126.229 236.073 125.205 236.073 123.936V116.576H237.513V123.984C237.513 124.912 237.758 125.632 238.249 126.144C238.75 126.656 239.502 126.912 240.505 126.912C241.539 126.912 242.286 126.64 242.745 126.096C243.214 125.541 243.449 124.832 243.449 123.968V116.576H244.873V123.968ZM254.368 124.944C254.368 125.957 254 126.747 253.264 127.312C252.528 127.877 251.536 128.16 250.288 128.16C249.648 128.16 249.056 128.112 248.512 128.016C247.968 127.92 247.515 127.787 247.152 127.616V126.24C247.536 126.411 248.011 126.565 248.576 126.704C249.152 126.843 249.744 126.912 250.352 126.912C251.205 126.912 251.845 126.747 252.272 126.416C252.709 126.085 252.928 125.637 252.928 125.072C252.928 124.699 252.848 124.384 252.688 124.128C252.528 123.872 252.251 123.637 251.856 123.424C251.472 123.2 250.933 122.965 250.24 122.72C249.269 122.368 248.533 121.936 248.032 121.424C247.541 120.912 247.296 120.213 247.296 119.328C247.296 118.72 247.451 118.203 247.76 117.776C248.069 117.339 248.496 117.003 249.04 116.768C249.595 116.533 250.229 116.416 250.944 116.416C251.573 116.416 252.149 116.475 252.672 116.592C253.195 116.709 253.669 116.864 254.096 117.056L253.648 118.288C253.253 118.117 252.821 117.973 252.352 117.856C251.893 117.739 251.413 117.68 250.912 117.68C250.197 117.68 249.659 117.835 249.296 118.144C248.933 118.443 248.752 118.843 248.752 119.344C248.752 119.728 248.832 120.048 248.992 120.304C249.152 120.56 249.413 120.789 249.776 120.992C250.139 121.195 250.629 121.413 251.248 121.648C251.92 121.893 252.485 122.16 252.944 122.448C253.413 122.725 253.765 123.061 254 123.456C254.245 123.851 254.368 124.347 254.368 124.944ZM260.285 128H258.845V117.84H255.277V116.576H263.837V117.84H260.285V128ZM275.215 122.272C275.215 123.456 275.013 124.491 274.607 125.376C274.213 126.251 273.626 126.933 272.847 127.424C272.069 127.915 271.103 128.16 269.951 128.16C268.767 128.16 267.781 127.915 266.991 127.424C266.213 126.933 265.631 126.245 265.247 125.36C264.863 124.475 264.671 123.44 264.671 122.256C264.671 121.083 264.863 120.059 265.247 119.184C265.631 118.309 266.213 117.627 266.991 117.136C267.781 116.645 268.773 116.4 269.967 116.4C271.109 116.4 272.069 116.645 272.847 117.136C273.626 117.616 274.213 118.299 274.607 119.184C275.013 120.059 275.215 121.088 275.215 122.272ZM266.191 122.272C266.191 123.712 266.495 124.848 267.103 125.68C267.711 126.501 268.661 126.912 269.951 126.912C271.253 126.912 272.202 126.501 272.799 125.68C273.397 124.848 273.695 123.712 273.695 122.272C273.695 120.832 273.397 119.707 272.799 118.896C272.202 118.075 271.258 117.664 269.967 117.664C268.677 117.664 267.722 118.075 267.103 118.896C266.495 119.707 266.191 120.832 266.191 122.272ZM282.787 128L279.027 117.984H278.963C278.995 118.315 279.022 118.763 279.043 119.328C279.065 119.883 279.075 120.464 279.075 121.072V128H277.747V116.576H279.875L283.395 125.936H283.459L287.043 116.576H289.155V128H287.731V120.976C287.731 120.421 287.742 119.872 287.763 119.328C287.795 118.784 287.822 118.341 287.843 118H287.779L283.971 128H282.787ZM291.351 124.336V123.088H295.223V124.336H291.351ZM300.395 128H298.955V117.84H295.387V116.576H303.947V117.84H300.395V128ZM314.405 128H312.965V122.672H307.109V128H305.669V116.576H307.109V121.408H312.965V116.576H314.405V128ZM323.913 128H317.529V116.576H323.913V117.84H318.969V121.408H323.625V122.656H318.969V126.736H323.913V128ZM331.459 128L327.699 117.984H327.635C327.667 118.315 327.694 118.763 327.715 119.328C327.737 119.883 327.747 120.464 327.747 121.072V128H326.419V116.576H328.547L332.067 125.936H332.131L335.715 116.576H337.827V128H336.403V120.976C336.403 120.421 336.414 119.872 336.435 119.328C336.467 118.784 336.494 118.341 336.515 118H336.451L332.643 128H331.459ZM347.319 128H340.935V116.576H347.319V117.84H342.375V121.408H347.031V122.656H342.375V126.736H347.319V128ZM358.977 122.176C358.977 124.107 358.449 125.563 357.393 126.544C356.348 127.515 354.887 128 353.009 128H349.825V116.576H353.345C354.497 116.576 355.495 116.789 356.337 117.216C357.18 117.643 357.831 118.272 358.289 119.104C358.748 119.925 358.977 120.949 358.977 122.176ZM357.457 122.224C357.457 120.699 357.079 119.584 356.321 118.88C355.575 118.165 354.513 117.808 353.137 117.808H351.265V126.768H352.817C355.911 126.768 357.457 125.253 357.457 122.224ZM113.381 147H106.997V135.576H113.381V136.84H108.437V140.408H113.093V141.656H108.437V145.736H113.381V147ZM114.976 143.336V142.088H118.848V143.336H114.976ZM125.94 136.68C124.714 136.68 123.748 137.091 123.044 137.912C122.34 138.733 121.988 139.859 121.988 141.288C121.988 142.707 122.314 143.832 122.964 144.664C123.626 145.485 124.612 145.896 125.924 145.896C126.426 145.896 126.9 145.853 127.348 145.768C127.796 145.683 128.234 145.576 128.66 145.448V146.696C128.234 146.856 127.791 146.973 127.332 147.048C126.884 147.123 126.346 147.16 125.716 147.16C124.554 147.16 123.583 146.92 122.804 146.44C122.026 145.96 121.439 145.277 121.044 144.392C120.66 143.507 120.468 142.467 120.468 141.272C120.468 140.12 120.676 139.107 121.092 138.232C121.519 137.347 122.143 136.659 122.964 136.168C123.786 135.667 124.783 135.416 125.956 135.416C127.162 135.416 128.212 135.64 129.108 136.088L128.532 137.304C128.18 137.144 127.786 137 127.348 136.872C126.922 136.744 126.452 136.68 125.94 136.68ZM140.809 141.272C140.809 142.456 140.606 143.491 140.201 144.376C139.806 145.251 139.22 145.933 138.441 146.424C137.662 146.915 136.697 147.16 135.545 147.16C134.361 147.16 133.374 146.915 132.585 146.424C131.806 145.933 131.225 145.245 130.841 144.36C130.457 143.475 130.265 142.44 130.265 141.256C130.265 140.083 130.457 139.059 130.841 138.184C131.225 137.309 131.806 136.627 132.585 136.136C133.374 135.645 134.366 135.4 135.561 135.4C136.702 135.4 137.662 135.645 138.441 136.136C139.22 136.616 139.806 137.299 140.201 138.184C140.606 139.059 140.809 140.088 140.809 141.272ZM131.785 141.272C131.785 142.712 132.089 143.848 132.697 144.68C133.305 145.501 134.254 145.912 135.545 145.912C136.846 145.912 137.796 145.501 138.393 144.68C138.99 143.848 139.289 142.712 139.289 141.272C139.289 139.832 138.99 138.707 138.393 137.896C137.796 137.075 136.852 136.664 135.561 136.664C134.27 136.664 133.316 137.075 132.697 137.896C132.089 138.707 131.785 139.832 131.785 141.272ZM148.381 147L144.621 136.984H144.557C144.589 137.315 144.616 137.763 144.637 138.328C144.658 138.883 144.669 139.464 144.669 140.072V147H143.341V135.576H145.469L148.989 144.936H149.053L152.637 135.576H154.749V147H153.325V139.976C153.325 139.421 153.336 138.872 153.357 138.328C153.389 137.784 153.416 137.341 153.437 137H153.373L149.565 147H148.381ZM162.897 147L159.137 136.984H159.073C159.105 137.315 159.131 137.763 159.153 138.328C159.174 138.883 159.185 139.464 159.185 140.072V147H157.857V135.576H159.985L163.505 144.936H163.569L167.153 135.576H169.265V147H167.841V139.976C167.841 139.421 167.851 138.872 167.873 138.328C167.905 137.784 167.931 137.341 167.953 137H167.889L164.081 147H162.897ZM178.756 147H172.372V135.576H178.756V136.84H173.812V140.408H178.468V141.656H173.812V145.736H178.756V147ZM184.415 135.576C185.834 135.576 186.879 135.848 187.551 136.392C188.234 136.925 188.575 137.736 188.575 138.824C188.575 139.432 188.463 139.939 188.239 140.344C188.015 140.749 187.727 141.075 187.375 141.32C187.034 141.555 186.671 141.741 186.287 141.88L189.423 147H187.743L184.975 142.28H182.703V147H181.263V135.576H184.415ZM184.335 136.824H182.703V141.064H184.415C185.343 141.064 186.02 140.883 186.447 140.52C186.874 140.147 187.087 139.603 187.087 138.888C187.087 138.141 186.863 137.613 186.415 137.304C185.967 136.984 185.274 136.824 184.335 136.824ZM196.112 136.68C194.885 136.68 193.92 137.091 193.216 137.912C192.512 138.733 192.16 139.859 192.16 141.288C192.16 142.707 192.485 143.832 193.136 144.664C193.797 145.485 194.784 145.896 196.096 145.896C196.597 145.896 197.072 145.853 197.52 145.768C197.968 145.683 198.405 145.576 198.832 145.448V146.696C198.405 146.856 197.963 146.973 197.504 147.048C197.056 147.123 196.517 147.16 195.888 147.16C194.725 147.16 193.755 146.92 192.976 146.44C192.197 145.96 191.611 145.277 191.216 144.392C190.832 143.507 190.64 142.467 190.64 141.272C190.64 140.12 190.848 139.107 191.264 138.232C191.691 137.347 192.315 136.659 193.136 136.168C193.957 135.667 194.955 135.416 196.128 135.416C197.333 135.416 198.384 135.64 199.28 136.088L198.704 137.304C198.352 137.144 197.957 137 197.52 136.872C197.093 136.744 196.624 136.68 196.112 136.68ZM207.709 147H201.325V135.576H207.709V136.84H202.765V140.408H207.421V141.656H202.765V145.736H207.709V147ZM226.983 147H225.543V141.672H219.687V147H218.247V135.576H219.687V140.408H225.543V135.576H226.983V147ZM237.275 147L235.899 143.464H231.371L230.011 147H228.555L233.019 135.528H234.315L238.763 147H237.275ZM234.187 138.728C234.155 138.643 234.101 138.488 234.027 138.264C233.952 138.04 233.877 137.811 233.803 137.576C233.739 137.331 233.685 137.144 233.643 137.016C233.568 137.347 233.483 137.672 233.387 137.992C233.291 138.301 233.211 138.547 233.147 138.728L231.851 142.184H235.467L234.187 138.728ZM242.816 147H241.376V136.84H237.808V135.576H246.368V136.84H242.816V147ZM262.602 143.944C262.602 144.957 262.234 145.747 261.498 146.312C260.762 146.877 259.77 147.16 258.522 147.16C257.882 147.16 257.29 147.112 256.746 147.016C256.202 146.92 255.749 146.787 255.386 146.616V145.24C255.77 145.411 256.245 145.565 256.81 145.704C257.386 145.843 257.978 145.912 258.586 145.912C259.44 145.912 260.08 145.747 260.506 145.416C260.944 145.085 261.162 144.637 261.162 144.072C261.162 143.699 261.082 143.384 260.922 143.128C260.762 142.872 260.485 142.637 260.09 142.424C259.706 142.2 259.168 141.965 258.474 141.72C257.504 141.368 256.768 140.936 256.266 140.424C255.776 139.912 255.53 139.213 255.53 138.328C255.53 137.72 255.685 137.203 255.994 136.776C256.304 136.339 256.73 136.003 257.274 135.768C257.829 135.533 258.464 135.416 259.178 135.416C259.808 135.416 260.384 135.475 260.906 135.592C261.429 135.709 261.904 135.864 262.33 136.056L261.882 137.288C261.488 137.117 261.056 136.973 260.586 136.856C260.128 136.739 259.648 136.68 259.146 136.68C258.432 136.68 257.893 136.835 257.53 137.144C257.168 137.443 256.986 137.843 256.986 138.344C256.986 138.728 257.066 139.048 257.226 139.304C257.386 139.56 257.648 139.789 258.01 139.992C258.373 140.195 258.864 140.413 259.482 140.648C260.154 140.893 260.72 141.16 261.178 141.448C261.648 141.725 262 142.061 262.234 142.456C262.48 142.851 262.602 143.347 262.602 143.944ZM268.52 147H267.08V136.84H263.512V135.576H272.072V136.84H268.52V147ZM283.45 141.272C283.45 142.456 283.247 143.491 282.842 144.376C282.447 145.251 281.86 145.933 281.082 146.424C280.303 146.915 279.338 147.16 278.186 147.16C277.002 147.16 276.015 146.915 275.226 146.424C274.447 145.933 273.866 145.245 273.482 144.36C273.098 143.475 272.906 142.44 272.906 141.256C272.906 140.083 273.098 139.059 273.482 138.184C273.866 137.309 274.447 136.627 275.226 136.136C276.015 135.645 277.007 135.4 278.202 135.4C279.343 135.4 280.303 135.645 281.082 136.136C281.86 136.616 282.447 137.299 282.842 138.184C283.247 139.059 283.45 140.088 283.45 141.272ZM274.426 141.272C274.426 142.712 274.73 143.848 275.338 144.68C275.946 145.501 276.895 145.912 278.186 145.912C279.487 145.912 280.436 145.501 281.034 144.68C281.631 143.848 281.93 142.712 281.93 141.272C281.93 139.832 281.631 138.707 281.034 137.896C280.436 137.075 279.492 136.664 278.202 136.664C276.911 136.664 275.956 137.075 275.338 137.896C274.73 138.707 274.426 139.832 274.426 141.272ZM289.134 135.576C290.552 135.576 291.598 135.848 292.27 136.392C292.952 136.925 293.294 137.736 293.294 138.824C293.294 139.432 293.182 139.939 292.958 140.344C292.734 140.749 292.446 141.075 292.094 141.32C291.752 141.555 291.39 141.741 291.006 141.88L294.142 147H292.462L289.694 142.28H287.422V147H285.982V135.576H289.134ZM289.054 136.824H287.422V141.064H289.134C290.062 141.064 290.739 140.883 291.166 140.52C291.592 140.147 291.806 139.603 291.806 138.888C291.806 138.141 291.582 137.613 291.134 137.304C290.686 136.984 289.992 136.824 289.054 136.824ZM302.319 147H295.935V135.576H302.319V136.84H297.375V140.408H302.031V141.656H297.375V145.736H302.319V147ZM304.425 146.136C304.425 145.741 304.521 145.464 304.713 145.304C304.905 145.144 305.135 145.064 305.401 145.064C305.679 145.064 305.913 145.144 306.105 145.304C306.308 145.464 306.409 145.741 306.409 146.136C306.409 146.52 306.308 146.797 306.105 146.968C305.913 147.139 305.679 147.224 305.401 147.224C305.135 147.224 304.905 147.139 304.713 146.968C304.521 146.797 304.425 146.52 304.425 146.136Z" fill="white"/>
<path fill-rule="evenodd" clip-rule="evenodd" d="M39.314 106.666L40.5026 76.246C41.1018 76.8346 41.781 77.5013 41.781 77.5013C41.781 77.5013 44.5774 77.7062 44.7093 77.7174C44.8424 77.7287 45.0027 77.8288 45.0277 78.0099C45.0527 78.191 49 104.594 49 104.594L39.314 106.666ZM37.7762 106.995L37.7541 107L17 103.154C17 103.154 19.6633 82.7765 19.7646 82.0576C19.8976 81.1093 19.9295 81.0778 20.9484 80.7616C21.1133 80.7099 22.4086 80.3128 24.2327 79.7536C24.9355 76.805 27.178 71 31.8713 71C32.4843 71 33.1939 71.3262 33.767 72.0755C33.8239 72.0721 33.8819 72.0699 33.9376 72.0699C35.9516 72.0699 37.0968 73.7675 37.7462 75.6147C38.4091 75.4122 38.8094 75.2896 38.8333 75.2828C38.8781 75.2697 38.9425 75.2554 39.0167 75.2459L37.7762 106.995ZM33.6135 76.679C33.6135 75.2941 33.4247 74.267 33.137 73.5515C31.9919 74.0375 30.6829 75.3256 29.9847 77.9919C31.2288 77.6105 32.4695 77.2302 33.6124 76.8803C33.6124 76.8151 33.6135 76.7499 33.6135 76.679ZM31.7417 72.2454C28.371 72.2454 26.4775 76.6238 25.6803 79.3103C26.5799 79.0347 27.5522 78.7367 28.5472 78.4318C29.2284 74.9105 30.8399 73.1465 32.3444 72.4467C32.1488 72.314 31.9452 72.2454 31.7417 72.2454ZM32.5502 87.9448L33.9376 83.8643C33.9376 83.8643 32.9994 83.3267 31.1026 83.3267C26.1784 83.3267 23.7391 86.5801 23.7391 89.9416C23.7391 93.9365 27.7683 94.0456 27.7683 96.4767C27.7683 97.064 27.3475 97.8683 26.316 97.8683C24.7353 97.8683 22.8623 96.2776 22.8623 96.2776L21.9082 99.395C21.9082 99.395 23.73 101.589 27.2929 101.589C30.2622 101.589 32.4638 99.377 32.4638 95.9435C32.4638 91.5785 27.5533 90.8641 27.5533 89C27.5533 88.6591 27.6636 87.3035 29.8471 87.3035C31.3357 87.3035 32.5502 87.9448 32.5502 87.9448ZM34.8428 76.5035C35.4854 76.3066 36.0779 76.1255 36.5987 75.9657C36.1541 74.6214 35.4626 73.4525 34.4244 73.3242C34.6825 74.0566 34.844 74.9814 34.844 76.1289C34.844 76.2605 34.8428 76.3809 34.8428 76.5035Z" fill="#A598FF"/>
<path d="M84.1172 96.0703C84.1172 98.7656 83.1146 100.829 81.1094 102.262C79.1172 103.681 76.1875 104.391 72.3203 104.391C68.7917 104.391 66.0247 103.766 64.0195 102.516C62.0143 101.266 60.7253 99.3711 60.1523 96.832L65.7188 95.9141C66.0964 97.3724 66.832 98.4336 67.9258 99.0977C69.0195 99.7487 70.5365 100.074 72.4766 100.074C76.5 100.074 78.5117 98.8503 78.5117 96.4023C78.5117 95.6211 78.2773 94.9766 77.8086 94.4688C77.3529 93.9609 76.7018 93.5378 75.8555 93.1992C75.0221 92.8607 73.4141 92.4505 71.0312 91.9688C68.974 91.487 67.5417 91.1029 66.7344 90.8164C65.9271 90.5169 65.1979 90.1719 64.5469 89.7812C63.8958 89.3776 63.3424 88.8958 62.8867 88.3359C62.431 87.776 62.0729 87.1185 61.8125 86.3633C61.5651 85.6081 61.4414 84.7422 61.4414 83.7656C61.4414 81.2786 62.3724 79.3776 64.2344 78.0625C66.1094 76.7344 68.8307 76.0703 72.3984 76.0703C75.8099 76.0703 78.3685 76.6042 80.0742 77.6719C81.793 78.7396 82.8997 80.5039 83.3945 82.9648L77.8086 83.7266C77.5221 82.5417 76.9362 81.6497 76.0508 81.0508C75.1784 80.4518 73.9219 80.1523 72.2812 80.1523C68.7917 80.1523 67.0469 81.2461 67.0469 83.4336C67.0469 84.1497 67.2292 84.7357 67.5938 85.1914C67.9714 85.6471 68.5247 86.0378 69.2539 86.3633C69.9831 86.6758 71.4609 87.0729 73.6875 87.5547C76.3307 88.1146 78.2188 88.6354 79.3516 89.1172C80.4974 89.5859 81.4023 90.1393 82.0664 90.7773C82.7305 91.4023 83.2383 92.1576 83.5898 93.043C83.9414 93.9154 84.1172 94.9245 84.1172 96.0703ZM106.109 104V92.2031H94.1172V104H88.3555V76.4805H94.1172V87.4375H106.109V76.4805H111.871V104H106.109ZM144.02 90.1133C144.02 92.9779 143.453 95.4974 142.32 97.6719C141.188 99.8464 139.566 101.513 137.457 102.672C135.348 103.818 132.887 104.391 130.074 104.391C125.751 104.391 122.359 103.121 119.898 100.582C117.451 98.0299 116.227 94.5404 116.227 90.1133C116.227 85.6992 117.451 82.2552 119.898 79.7812C122.346 77.3073 125.751 76.0703 130.113 76.0703C134.475 76.0703 137.88 77.3203 140.328 79.8203C142.789 82.3203 144.02 85.7513 144.02 90.1133ZM138.141 90.1133C138.141 87.1445 137.438 84.8203 136.031 83.1406C134.625 81.4479 132.652 80.6016 130.113 80.6016C127.535 80.6016 125.543 81.4414 124.137 83.1211C122.73 84.7878 122.027 87.1185 122.027 90.1133C122.027 93.1341 122.743 95.5169 124.176 97.2617C125.621 98.9935 127.587 99.8594 130.074 99.8594C132.652 99.8594 134.638 99.013 136.031 97.3203C137.438 95.6276 138.141 93.2253 138.141 90.1133ZM171.031 85.1914C171.031 86.9622 170.628 88.5443 169.82 89.9375C169.013 91.3307 167.854 92.4115 166.344 93.1797C164.846 93.9349 163.062 94.3125 160.992 94.3125H154.156V104H148.395V76.4805H160.758C164.052 76.4805 166.585 77.2422 168.355 78.7656C170.139 80.276 171.031 82.418 171.031 85.1914ZM165.23 85.2891C165.23 82.3984 163.525 80.9531 160.113 80.9531H154.156V89.8789H160.27C161.858 89.8789 163.082 89.4883 163.941 88.707C164.801 87.9128 165.23 86.7734 165.23 85.2891ZM175.074 104V76.4805H180.836V104H175.074ZM191.969 80.9336V89.4492H206.051V93.9023H191.969V104H186.207V76.4805H206.5V80.9336H191.969ZM224.215 92.7109V104H218.473V92.7109L208.668 76.4805H214.703L221.305 88.1211L227.984 76.4805H234.02L224.215 92.7109ZM270.172 96.0703C270.172 98.7656 269.169 100.829 267.164 102.262C265.172 103.681 262.242 104.391 258.375 104.391C254.846 104.391 252.079 103.766 250.074 102.516C248.069 101.266 246.78 99.3711 246.207 96.832L251.773 95.9141C252.151 97.3724 252.887 98.4336 253.98 99.0977C255.074 99.7487 256.591 100.074 258.531 100.074C262.555 100.074 264.566 98.8503 264.566 96.4023C264.566 95.6211 264.332 94.9766 263.863 94.4688C263.408 93.9609 262.757 93.5378 261.91 93.1992C261.077 92.8607 259.469 92.4505 257.086 91.9688C255.029 91.487 253.596 91.1029 252.789 90.8164C251.982 90.5169 251.253 90.1719 250.602 89.7812C249.951 89.3776 249.397 88.8958 248.941 88.3359C248.486 87.776 248.128 87.1185 247.867 86.3633C247.62 85.6081 247.496 84.7422 247.496 83.7656C247.496 81.2786 248.427 79.3776 250.289 78.0625C252.164 76.7344 254.885 76.0703 258.453 76.0703C261.865 76.0703 264.423 76.6042 266.129 77.6719C267.848 78.7396 268.954 80.5039 269.449 82.9648L263.863 83.7266C263.577 82.5417 262.991 81.6497 262.105 81.0508C261.233 80.4518 259.977 80.1523 258.336 80.1523C254.846 80.1523 253.102 81.2461 253.102 83.4336C253.102 84.1497 253.284 84.7357 253.648 85.1914C254.026 85.6471 254.579 86.0378 255.309 86.3633C256.038 86.6758 257.516 87.0729 259.742 87.5547C262.385 88.1146 264.273 88.6354 265.406 89.1172C266.552 89.5859 267.457 90.1393 268.121 90.7773C268.785 91.4023 269.293 92.1576 269.645 93.043C269.996 93.9154 270.172 94.9245 270.172 96.0703ZM286.832 80.9336V104H281.07V80.9336H272.184V76.4805H295.738V80.9336H286.832ZM324.879 90.1133C324.879 92.9779 324.312 95.4974 323.18 97.6719C322.047 99.8464 320.426 101.513 318.316 102.672C316.207 103.818 313.746 104.391 310.934 104.391C306.611 104.391 303.219 103.121 300.758 100.582C298.31 98.0299 297.086 94.5404 297.086 90.1133C297.086 85.6992 298.31 82.2552 300.758 79.7812C303.206 77.3073 306.611 76.0703 310.973 76.0703C315.335 76.0703 318.74 77.3203 321.188 79.8203C323.648 82.3203 324.879 85.7513 324.879 90.1133ZM319 90.1133C319 87.1445 318.297 84.8203 316.891 83.1406C315.484 81.4479 313.512 80.6016 310.973 80.6016C308.395 80.6016 306.402 81.4414 304.996 83.1211C303.59 84.7878 302.887 87.1185 302.887 90.1133C302.887 93.1341 303.603 95.5169 305.035 97.2617C306.48 98.9935 308.447 99.8594 310.934 99.8594C313.512 99.8594 315.497 99.013 316.891 97.3203C318.297 95.6276 319 93.2253 319 90.1133ZM348.16 104L341.773 93.5508H335.016V104H329.254V76.4805H343.004C346.285 76.4805 348.818 77.1901 350.602 78.6094C352.385 80.0156 353.277 82.0404 353.277 84.6836C353.277 86.6107 352.73 88.2773 351.637 89.6836C350.543 91.0768 349.065 91.9948 347.203 92.4375L354.645 104H348.16ZM347.477 84.918C347.477 82.2747 345.784 80.9531 342.398 80.9531H335.016V89.0781H342.555C344.169 89.0781 345.393 88.7135 346.227 87.9844C347.06 87.2552 347.477 86.2331 347.477 84.918ZM358.16 104V76.4805H379.801V80.9336H363.922V87.8477H378.609V92.3008H363.922V99.5469H380.602V104H358.16Z" fill="white"/>
</svg>
