<svg width="400" height="225" viewBox="0 0 400 225" fill="none" xmlns="http://www.w3.org/2000/svg">
<path d="M69.8606 128L68.4846 124.464H63.9566L62.5966 128H61.1406L65.6046 116.528H66.9006L71.3486 128H69.8606ZM66.7726 119.728C66.7406 119.643 66.6873 119.488 66.6126 119.264C66.538 119.04 66.4633 118.811 66.3886 118.576C66.3246 118.331 66.2713 118.144 66.2286 118.016C66.154 118.347 66.0686 118.672 65.9726 118.992C65.8766 119.301 65.7966 119.547 65.7326 119.728L64.4366 123.184H68.0526L66.7726 119.728ZM82.0634 122.176C82.0634 124.107 81.5354 125.563 80.4794 126.544C79.434 127.515 77.9727 128 76.0954 128H72.9114V116.576H76.4314C77.5834 116.576 78.5807 116.789 79.4234 117.216C80.266 117.643 80.9167 118.272 81.3754 119.104C81.834 119.925 82.0634 120.949 82.0634 122.176ZM80.5434 122.224C80.5434 120.699 80.1647 119.584 79.4074 118.88C78.6607 118.165 77.5994 117.808 76.2234 117.808H74.3514V126.768H75.9034C78.9967 126.768 80.5434 125.253 80.5434 122.224ZM93.7509 122.176C93.7509 124.107 93.2229 125.563 92.1669 126.544C91.1215 127.515 89.6602 128 87.7829 128H84.5989V116.576H88.1189C89.2709 116.576 90.2682 116.789 91.1109 117.216C91.9535 117.643 92.6042 118.272 93.0629 119.104C93.5215 119.925 93.7509 120.949 93.7509 122.176ZM92.2309 122.224C92.2309 120.699 91.8522 119.584 91.0949 118.88C90.3482 118.165 89.2869 117.808 87.9109 117.808H86.0389V126.768H87.5909C90.6842 126.768 92.2309 125.253 92.2309 122.224ZM111.486 128L110.11 124.464H105.582L104.222 128H102.766L107.23 116.528H108.526L112.974 128H111.486ZM108.398 119.728C108.366 119.643 108.312 119.488 108.238 119.264C108.163 119.04 108.088 118.811 108.014 118.576C107.95 118.331 107.896 118.144 107.854 118.016C107.779 118.347 107.694 118.672 107.598 118.992C107.502 119.301 107.422 119.547 107.358 119.728L106.062 123.184H109.678L108.398 119.728ZM126.184 128H124.744V117.84H121.176V116.576H129.736V117.84H126.184V128ZM137.501 128L136.125 124.464H131.597L130.237 128H128.781L133.245 116.528H134.541L138.989 128H137.501ZM134.413 119.728C134.381 119.643 134.328 119.488 134.253 119.264C134.179 119.04 134.104 118.811 134.029 118.576C133.965 118.331 133.912 118.144 133.869 118.016C133.795 118.347 133.709 118.672 133.613 118.992C133.517 119.301 133.437 119.547 133.373 119.728L132.077 123.184H135.693L134.413 119.728ZM147.032 124.944C147.032 125.957 146.664 126.747 145.928 127.312C145.192 127.877 144.2 128.16 142.952 128.16C142.312 128.16 141.72 128.112 141.176 128.016C140.632 127.92 140.179 127.787 139.816 127.616V126.24C140.2 126.411 140.675 126.565 141.24 126.704C141.816 126.843 142.408 126.912 143.016 126.912C143.869 126.912 144.509 126.747 144.936 126.416C145.373 126.085 145.592 125.637 145.592 125.072C145.592 124.699 145.512 124.384 145.352 124.128C145.192 123.872 144.915 123.637 144.52 123.424C144.136 123.2 143.597 122.965 142.904 122.72C141.933 122.368 141.197 121.936 140.696 121.424C140.205 120.912 139.96 120.213 139.96 119.328C139.96 118.72 140.115 118.203 140.424 117.776C140.733 117.339 141.16 117.003 141.704 116.768C142.259 116.533 142.893 116.416 143.608 116.416C144.237 116.416 144.813 116.475 145.336 116.592C145.859 116.709 146.333 116.864 146.76 117.056L146.312 118.288C145.917 118.117 145.485 117.973 145.016 117.856C144.557 117.739 144.077 117.68 143.576 117.68C142.861 117.68 142.323 117.835 141.96 118.144C141.597 118.443 141.416 118.843 141.416 119.344C141.416 119.728 141.496 120.048 141.656 120.304C141.816 120.56 142.077 120.789 142.44 120.992C142.803 121.195 143.293 121.413 143.912 121.648C144.584 121.893 145.149 122.16 145.608 122.448C146.077 122.725 146.429 123.061 146.664 123.456C146.909 123.851 147.032 124.347 147.032 124.944ZM157.685 128H155.989L151.941 122.544L150.773 123.568V128H149.333V116.576H150.773V122.208C151.093 121.845 151.419 121.483 151.749 121.12C152.08 120.757 152.411 120.395 152.741 120.032L155.829 116.576H157.509L152.981 121.552L157.685 128ZM175.959 123.968C175.959 124.757 175.799 125.472 175.479 126.112C175.159 126.741 174.668 127.243 174.007 127.616C173.356 127.979 172.524 128.16 171.511 128.16C170.092 128.16 169.009 127.776 168.263 127.008C167.527 126.229 167.159 125.205 167.159 123.936V116.576H168.599V123.984C168.599 124.912 168.844 125.632 169.335 126.144C169.836 126.656 170.588 126.912 171.591 126.912C172.625 126.912 173.372 126.64 173.831 126.096C174.3 125.541 174.535 124.832 174.535 123.968V116.576H175.959V123.968ZM185.454 124.944C185.454 125.957 185.086 126.747 184.35 127.312C183.614 127.877 182.622 128.16 181.374 128.16C180.734 128.16 180.142 128.112 179.598 128.016C179.054 127.92 178.601 127.787 178.238 127.616V126.24C178.622 126.411 179.097 126.565 179.662 126.704C180.238 126.843 180.83 126.912 181.438 126.912C182.291 126.912 182.931 126.747 183.358 126.416C183.795 126.085 184.014 125.637 184.014 125.072C184.014 124.699 183.934 124.384 183.774 124.128C183.614 123.872 183.337 123.637 182.942 123.424C182.558 123.2 182.019 122.965 181.326 122.72C180.355 122.368 179.619 121.936 179.118 121.424C178.627 120.912 178.382 120.213 178.382 119.328C178.382 118.72 178.537 118.203 178.846 117.776C179.155 117.339 179.582 117.003 180.126 116.768C180.681 116.533 181.315 116.416 182.03 116.416C182.659 116.416 183.235 116.475 183.758 116.592C184.281 116.709 184.755 116.864 185.182 117.056L184.734 118.288C184.339 118.117 183.907 117.973 183.438 117.856C182.979 117.739 182.499 117.68 181.998 117.68C181.283 117.68 180.745 117.835 180.382 118.144C180.019 118.443 179.838 118.843 179.838 119.344C179.838 119.728 179.918 120.048 180.078 120.304C180.238 120.56 180.499 120.789 180.862 120.992C181.225 121.195 181.715 121.413 182.334 121.648C183.006 121.893 183.571 122.16 184.03 122.448C184.499 122.725 184.851 123.061 185.086 123.456C185.331 123.851 185.454 124.347 185.454 124.944ZM190.971 128H186.843V127.168L188.187 126.864V117.728L186.843 117.408V116.576H190.971V117.408L189.627 117.728V126.864L190.971 127.168V128ZM202.233 128H200.553L194.441 118.512H194.377C194.398 118.885 194.425 119.349 194.457 119.904C194.489 120.459 194.505 121.029 194.505 121.616V128H193.177V116.576H194.841L200.937 126.032H201.001C200.99 125.861 200.974 125.605 200.953 125.264C200.942 124.923 200.926 124.549 200.905 124.144C200.894 123.739 200.889 123.365 200.889 123.024V116.576H202.233V128ZM210.293 121.968H214.245V127.568C213.627 127.771 213.003 127.92 212.373 128.016C211.744 128.112 211.029 128.16 210.229 128.16C209.045 128.16 208.048 127.925 207.237 127.456C206.427 126.976 205.808 126.299 205.381 125.424C204.965 124.539 204.757 123.493 204.757 122.288C204.757 121.093 204.992 120.059 205.461 119.184C205.931 118.309 206.603 117.632 207.477 117.152C208.363 116.661 209.429 116.416 210.677 116.416C211.317 116.416 211.92 116.475 212.485 116.592C213.061 116.709 213.595 116.875 214.085 117.088L213.541 118.336C213.136 118.155 212.677 118 212.165 117.872C211.664 117.744 211.141 117.68 210.597 117.68C209.232 117.68 208.165 118.091 207.397 118.912C206.64 119.733 206.261 120.859 206.261 122.288C206.261 123.195 206.405 124 206.693 124.704C206.992 125.397 207.456 125.941 208.085 126.336C208.715 126.72 209.541 126.912 210.565 126.912C211.067 126.912 211.493 126.885 211.845 126.832C212.197 126.779 212.517 126.715 212.805 126.64V123.248H210.293V121.968ZM227.981 122.192L230.957 116.576H232.509L228.701 123.568V128H227.261V123.632L223.453 116.576H225.021L227.981 122.192ZM243.723 122.272C243.723 123.456 243.52 124.491 243.115 125.376C242.72 126.251 242.134 126.933 241.355 127.424C240.576 127.915 239.611 128.16 238.459 128.16C237.275 128.16 236.288 127.915 235.499 127.424C234.72 126.933 234.139 126.245 233.755 125.36C233.371 124.475 233.179 123.44 233.179 122.256C233.179 121.083 233.371 120.059 233.755 119.184C234.139 118.309 234.72 117.627 235.499 117.136C236.288 116.645 237.28 116.4 238.475 116.4C239.616 116.4 240.576 116.645 241.355 117.136C242.134 117.616 242.72 118.299 243.115 119.184C243.52 120.059 243.723 121.088 243.723 122.272ZM234.699 122.272C234.699 123.712 235.003 124.848 235.611 125.68C236.219 126.501 237.168 126.912 238.459 126.912C239.76 126.912 240.71 126.501 241.307 125.68C241.904 124.848 242.203 123.712 242.203 122.272C242.203 120.832 241.904 119.707 241.307 118.896C240.71 118.075 239.766 117.664 238.475 117.664C237.184 117.664 236.23 118.075 235.611 118.896C235.003 119.707 234.699 120.832 234.699 122.272ZM254.943 123.968C254.943 124.757 254.783 125.472 254.463 126.112C254.143 126.741 253.652 127.243 252.991 127.616C252.34 127.979 251.508 128.16 250.495 128.16C249.076 128.16 247.994 127.776 247.247 127.008C246.511 126.229 246.143 125.205 246.143 123.936V116.576H247.583V123.984C247.583 124.912 247.828 125.632 248.319 126.144C248.82 126.656 249.572 126.912 250.575 126.912C251.61 126.912 252.356 126.64 252.815 126.096C253.284 125.541 253.519 124.832 253.519 123.968V116.576H254.943V123.968ZM261.11 116.576C262.529 116.576 263.574 116.848 264.246 117.392C264.929 117.925 265.27 118.736 265.27 119.824C265.27 120.432 265.158 120.939 264.934 121.344C264.71 121.749 264.422 122.075 264.07 122.32C263.729 122.555 263.366 122.741 262.982 122.88L266.118 128H264.438L261.67 123.28H259.398V128H257.958V116.576H261.11ZM261.03 117.824H259.398V122.064H261.11C262.038 122.064 262.716 121.883 263.142 121.52C263.569 121.147 263.782 120.603 263.782 119.888C263.782 119.141 263.558 118.613 263.11 118.304C262.662 117.984 261.969 117.824 261.03 117.824ZM283.991 116.576L279.911 128H278.471L274.391 116.576H275.895L278.471 123.904C278.641 124.373 278.785 124.816 278.903 125.232C279.02 125.637 279.116 126.027 279.191 126.4C279.265 126.027 279.361 125.632 279.479 125.216C279.596 124.8 279.74 124.352 279.911 123.872L282.471 116.576H283.991ZM295.348 122.272C295.348 123.456 295.145 124.491 294.74 125.376C294.345 126.251 293.759 126.933 292.98 127.424C292.201 127.915 291.236 128.16 290.084 128.16C288.9 128.16 287.913 127.915 287.124 127.424C286.345 126.933 285.764 126.245 285.38 125.36C284.996 124.475 284.804 123.44 284.804 122.256C284.804 121.083 284.996 120.059 285.38 119.184C285.764 118.309 286.345 117.627 287.124 117.136C287.913 116.645 288.905 116.4 290.1 116.4C291.241 116.4 292.201 116.645 292.98 117.136C293.759 117.616 294.345 118.299 294.74 119.184C295.145 120.059 295.348 121.088 295.348 122.272ZM286.324 122.272C286.324 123.712 286.628 124.848 287.236 125.68C287.844 126.501 288.793 126.912 290.084 126.912C291.385 126.912 292.335 126.501 292.932 125.68C293.529 124.848 293.828 123.712 293.828 122.272C293.828 120.832 293.529 119.707 292.932 118.896C292.335 118.075 291.391 117.664 290.1 117.664C288.809 117.664 287.855 118.075 287.236 118.896C286.628 119.707 286.324 120.832 286.324 122.272ZM301.096 128H296.968V127.168L298.312 126.864V117.728L296.968 117.408V116.576H301.096V117.408L299.752 117.728V126.864L301.096 127.168V128ZM308.198 117.68C306.971 117.68 306.006 118.091 305.302 118.912C304.598 119.733 304.246 120.859 304.246 122.288C304.246 123.707 304.571 124.832 305.222 125.664C305.883 126.485 306.87 126.896 308.182 126.896C308.683 126.896 309.158 126.853 309.606 126.768C310.054 126.683 310.491 126.576 310.918 126.448V127.696C310.491 127.856 310.049 127.973 309.59 128.048C309.142 128.123 308.603 128.16 307.974 128.16C306.811 128.16 305.841 127.92 305.062 127.44C304.283 126.96 303.697 126.277 303.302 125.392C302.918 124.507 302.726 123.467 302.726 122.272C302.726 121.12 302.934 120.107 303.35 119.232C303.777 118.347 304.401 117.659 305.222 117.168C306.043 116.667 307.041 116.416 308.214 116.416C309.419 116.416 310.47 116.64 311.366 117.088L310.79 118.304C310.438 118.144 310.043 118 309.606 117.872C309.179 117.744 308.71 117.68 308.198 117.68ZM319.795 128H313.411V116.576H319.795V117.84H314.851V121.408H319.507V122.656H314.851V126.736H319.795V128ZM329.901 120.288C329.901 119.883 329.997 119.6 330.189 119.44C330.381 119.28 330.611 119.2 330.877 119.2C331.155 119.2 331.389 119.28 331.581 119.44C331.784 119.6 331.885 119.883 331.885 120.288C331.885 120.672 331.784 120.949 331.581 121.12C331.389 121.291 331.155 121.376 330.877 121.376C330.611 121.376 330.381 121.291 330.189 121.12C329.997 120.949 329.901 120.672 329.901 120.288ZM331.709 126.32C331.571 126.875 331.368 127.493 331.101 128.176C330.845 128.869 330.589 129.499 330.333 130.064H329.277C329.384 129.659 329.485 129.221 329.581 128.752C329.688 128.293 329.784 127.84 329.869 127.392C329.965 126.933 330.04 126.517 330.093 126.144H331.597L331.709 126.32ZM337.223 123.616C337.223 124.907 337.031 126.149 336.647 127.344C336.273 128.528 335.681 129.589 334.871 130.528H333.559C334.295 129.525 334.849 128.432 335.223 127.248C335.607 126.053 335.799 124.837 335.799 123.6C335.799 122.331 335.607 121.093 335.223 119.888C334.849 118.683 334.289 117.579 333.543 116.576H334.871C335.681 117.547 336.273 118.64 336.647 119.856C337.031 121.061 337.223 122.315 337.223 123.616Z" fill="white"/>
<path d="M69.68 77.344V100H64.352V77.344H57.344V72.448H76.592V77.344H69.68ZM81.9736 89.68H88.2136L84.9976 78.832L81.9736 89.68ZM88.2136 72.448L96.3256 100H91.0456L89.6536 95.152H80.4856L79.1416 100H73.8136L81.9256 72.448H88.2136ZM106.535 100.192C104.999 100.192 103.559 100.016 102.215 99.664C100.871 99.312 99.5114 98.72 98.1354 97.888L99.8154 92.896C100.775 93.6 101.815 94.176 102.935 94.624C104.055 95.04 105.223 95.248 106.439 95.248C107.783 95.248 108.855 95.008 109.655 94.528C110.487 94.016 110.903 93.264 110.903 92.272C110.903 91.568 110.439 90.848 109.511 90.112C108.615 89.344 107.527 88.592 106.247 87.856C105.479 87.408 104.631 86.976 103.703 86.56C102.775 86.112 101.895 85.6 101.063 85.024C100.263 84.416 99.5914 83.68 99.0474 82.816C98.5034 81.92 98.2314 80.8 98.2314 79.456C98.2314 77.248 99.0154 75.504 100.583 74.224C102.183 72.912 104.295 72.256 106.919 72.256C108.359 72.256 109.703 72.416 110.951 72.736C112.231 73.056 113.383 73.6 114.407 74.368L113.015 79.408C112.439 78.832 111.607 78.336 110.519 77.92C109.431 77.504 108.215 77.296 106.871 77.296C105.751 77.296 104.839 77.44 104.135 77.728C103.463 77.984 103.127 78.496 103.127 79.264C103.127 79.744 103.303 80.208 103.655 80.656C104.039 81.072 104.503 81.472 105.047 81.856C105.623 82.208 106.231 82.56 106.871 82.912C107.543 83.232 108.183 83.552 108.791 83.872C110.999 85.088 112.663 86.32 113.783 87.568C114.903 88.784 115.463 90.304 115.463 92.128C115.463 94.848 114.647 96.88 113.015 98.224C111.415 99.536 109.255 100.192 106.535 100.192ZM127.73 88.816L124.418 93.76V100H119.522V72.448H124.418V85.888L133.106 72.448H139.01L130.946 84.448L139.49 100H133.874L127.73 88.816ZM165.868 77.344V100H160.54V77.344H153.532V72.448H172.78V77.344H165.868ZM181.277 77.344V84.64H186.509C187.661 84.64 188.541 84.352 189.149 83.776C189.789 83.2 190.109 82.32 190.109 81.136C190.109 79.856 189.789 78.912 189.149 78.304C188.541 77.664 187.661 77.344 186.509 77.344H181.277ZM185.165 89.536H181.277V100H176.381V72.448H186.653C189.149 72.448 191.165 73.2 192.701 74.704C194.237 76.208 195.005 78.304 195.005 80.992C195.005 82.944 194.589 84.576 193.757 85.888C192.925 87.2 191.725 88.208 190.157 88.912L195.389 100H190.109L185.165 89.536ZM205.208 89.68H211.448L208.232 78.832L205.208 89.68ZM211.448 72.448L219.56 100H214.28L212.888 95.152H203.72L202.376 100H197.048L205.16 72.448H211.448ZM235.534 80.416C234.798 79.424 234.014 78.704 233.182 78.256C232.382 77.808 231.47 77.584 230.446 77.584C228.526 77.584 227.022 78.352 225.934 79.888C224.878 81.392 224.35 83.504 224.35 86.224C224.35 87.472 224.51 88.624 224.83 89.68C225.15 90.736 225.582 91.648 226.126 92.416C226.67 93.184 227.326 93.792 228.094 94.24C228.862 94.688 229.694 94.912 230.59 94.912C231.454 94.912 232.35 94.672 233.278 94.192C234.206 93.712 234.99 93.12 235.63 92.416L239.71 95.2C237.438 98.624 234.35 100.336 230.446 100.336C228.814 100.336 227.31 99.984 225.934 99.28C224.558 98.576 223.374 97.6 222.382 96.352C221.39 95.072 220.606 93.568 220.03 91.84C219.486 90.112 219.214 88.24 219.214 86.224C219.214 84.208 219.47 82.352 219.982 80.656C220.494 78.928 221.23 77.44 222.19 76.192C223.182 74.944 224.366 73.968 225.742 73.264C227.15 72.56 228.718 72.208 230.446 72.208C234.702 72.208 237.87 74.016 239.95 77.632L235.534 80.416ZM251.995 88.816L248.683 93.76V100H243.787V72.448H248.683V85.888L257.371 72.448H263.275L255.211 84.448L263.755 100H258.139L251.995 88.816ZM267.553 72.448H282.673V77.344H272.449V83.44H278.833V88.336H272.449V95.104H282.673V100H267.553V72.448ZM291.902 77.344V84.64H297.134C298.286 84.64 299.166 84.352 299.774 83.776C300.414 83.2 300.734 82.32 300.734 81.136C300.734 79.856 300.414 78.912 299.774 78.304C299.166 77.664 298.286 77.344 297.134 77.344H291.902ZM295.79 89.536H291.902V100H287.006V72.448H297.278C299.774 72.448 301.79 73.2 303.326 74.704C304.862 76.208 305.63 78.304 305.63 80.992C305.63 82.944 305.214 84.576 304.382 85.888C303.55 87.2 302.35 88.208 300.782 88.912L306.014 100H300.734L295.79 89.536Z" fill="white"/>
<circle r="13" transform="matrix(-1 0 0 1 330 87)" stroke="#A598FF" stroke-width="2"/>
<g clip-path="url(#clip0)">
<path d="M330 76.7838C332.204 76.7838 333.998 78.6485 333.998 80.94V87C333.998 89.292 332.204 91.1562 330 91.1562C327.796 91.1562 326.002 89.292 326.002 87V80.94C326.002 78.6485 327.796 76.7838 330 76.7838ZM330 90.2679C331.571 90.2679 332.87 89.0361 333.077 87.4442H326.923C327.13 89.0366 328.429 90.2679 330 90.2679ZM326.891 86.5558H333.109V80.94C333.109 79.138 331.715 77.6721 330 77.6721C328.285 77.6721 326.891 79.138 326.891 80.94V86.5558Z" fill="#A598FF"/>
<path d="M323.781 84.7791C324.027 84.7791 324.226 84.9781 324.226 85.2233V87C324.226 90.1839 326.816 92.7744 330 92.7744C333.184 92.7744 335.774 90.1839 335.774 87V85.2233C335.774 84.9781 335.973 84.7791 336.219 84.7791C336.464 84.7791 336.663 84.9781 336.663 85.2233V87C336.663 90.5237 333.911 93.41 330.444 93.6401V96.3279H332.665C332.91 96.3279 333.109 96.5268 333.109 96.772C333.109 97.0172 332.91 97.2162 332.665 97.2162H327.335C327.09 97.2162 326.891 97.0172 326.891 96.772C326.891 96.5268 327.09 96.3279 327.335 96.3279H329.556V93.6401C326.089 93.41 323.337 90.5237 323.337 87V85.2233C323.337 84.9781 323.536 84.7791 323.781 84.7791Z" fill="#A598FF"/>
</g>
<line x1="38" y1="107.5" x2="358" y2="107.5" stroke="white"/>
<defs>
<clipPath id="clip0">
<rect width="20.4324" height="20.4324" fill="white" transform="matrix(-1 0 0 1 340.216 76.7838)"/>
</clipPath>
</defs>
</svg>
