<svg width="400" height="225" viewBox="0 0 400 225" fill="none" xmlns="http://www.w3.org/2000/svg">
<path d="M115.692 119.272C115.692 120.456 115.489 121.491 115.084 122.376C114.689 123.251 114.103 123.933 113.324 124.424C112.545 124.915 111.58 125.16 110.428 125.16C109.244 125.16 108.257 124.915 107.468 124.424C106.689 123.933 106.108 123.245 105.724 122.36C105.34 121.475 105.148 120.44 105.148 119.256C105.148 118.083 105.34 117.059 105.724 116.184C106.108 115.309 106.689 114.627 107.468 114.136C108.257 113.645 109.249 113.4 110.444 113.4C111.585 113.4 112.545 113.645 113.324 114.136C114.103 114.616 114.689 115.299 115.084 116.184C115.489 117.059 115.692 118.088 115.692 119.272ZM106.668 119.272C106.668 120.712 106.972 121.848 107.58 122.68C108.188 123.501 109.137 123.912 110.428 123.912C111.729 123.912 112.679 123.501 113.276 122.68C113.873 121.848 114.172 120.712 114.172 119.272C114.172 117.832 113.873 116.707 113.276 115.896C112.679 115.075 111.735 114.664 110.444 114.664C109.153 114.664 108.199 115.075 107.58 115.896C106.972 116.707 106.668 117.832 106.668 119.272ZM119.664 125H118.224V113.576H124.608V114.84H119.664V118.888H124.304V120.152H119.664V125ZM127.961 125H126.521V113.576H132.905V114.84H127.961V118.888H132.601V120.152H127.961V125ZM138.034 125H133.906V124.168L135.25 123.864V114.728L133.906 114.408V113.576H138.034V114.408L136.69 114.728V123.864L138.034 124.168V125ZM145.136 114.68C143.909 114.68 142.944 115.091 142.24 115.912C141.536 116.733 141.184 117.859 141.184 119.288C141.184 120.707 141.509 121.832 142.16 122.664C142.821 123.485 143.808 123.896 145.12 123.896C145.621 123.896 146.096 123.853 146.544 123.768C146.992 123.683 147.429 123.576 147.856 123.448V124.696C147.429 124.856 146.986 124.973 146.528 125.048C146.08 125.123 145.541 125.16 144.912 125.16C143.749 125.16 142.778 124.92 142 124.44C141.221 123.96 140.634 123.277 140.24 122.392C139.856 121.507 139.664 120.467 139.664 119.272C139.664 118.12 139.872 117.107 140.288 116.232C140.714 115.347 141.338 114.659 142.16 114.168C142.981 113.667 143.978 113.416 145.152 113.416C146.357 113.416 147.408 113.64 148.304 114.088L147.727 115.304C147.376 115.144 146.981 115 146.544 114.872C146.117 114.744 145.648 114.68 145.136 114.68ZM153.565 125H149.437V124.168L150.781 123.864V114.728L149.437 114.408V113.576H153.565V114.408L152.221 114.728V123.864L153.565 124.168V125ZM162.939 125L161.563 121.464H157.035L155.675 125H154.219L158.683 113.528H159.979L164.427 125H162.939ZM159.851 116.728C159.819 116.643 159.765 116.488 159.691 116.264C159.616 116.04 159.541 115.811 159.467 115.576C159.403 115.331 159.349 115.144 159.307 115.016C159.232 115.347 159.147 115.672 159.051 115.992C158.955 116.301 158.875 116.547 158.811 116.728L157.515 120.184H161.131L159.851 116.728ZM165.99 125V113.576H167.43V123.72H172.422V125H165.99ZM195.531 113.576L192.491 125H191.035L188.811 117.512C188.726 117.203 188.641 116.893 188.555 116.584C188.47 116.275 188.401 116.003 188.347 115.768C188.294 115.523 188.257 115.352 188.235 115.256C188.225 115.395 188.166 115.693 188.059 116.152C187.963 116.6 187.841 117.069 187.691 117.56L185.531 125H184.075L181.051 113.576H182.555L184.331 120.552C184.459 121.043 184.566 121.517 184.651 121.976C184.747 122.435 184.822 122.867 184.875 123.272C184.929 122.856 185.009 122.403 185.115 121.912C185.222 121.421 185.345 120.941 185.483 120.472L187.499 113.576H188.987L191.083 120.52C191.233 121.011 191.361 121.501 191.467 121.992C191.574 122.472 191.654 122.899 191.707 123.272C191.761 122.877 191.835 122.451 191.931 121.992C192.027 121.523 192.139 121.037 192.267 120.536L194.027 113.576H195.531ZM203.67 125H197.286V113.576H203.67V114.84H198.726V118.408H203.382V119.656H198.726V123.736H203.67V125ZM209.441 113.576C210.87 113.576 211.948 113.789 212.673 114.216C213.409 114.632 213.777 115.363 213.777 116.408C213.777 117.08 213.59 117.64 213.217 118.088C212.844 118.525 212.305 118.808 211.601 118.936V119.016C212.081 119.091 212.513 119.229 212.897 119.432C213.292 119.635 213.601 119.923 213.825 120.296C214.049 120.669 214.161 121.155 214.161 121.752C214.161 122.787 213.804 123.587 213.089 124.152C212.385 124.717 211.42 125 210.193 125H206.177V113.576H209.441ZM209.729 118.44C210.71 118.44 211.382 118.285 211.745 117.976C212.108 117.656 212.289 117.187 212.289 116.568C212.289 115.939 212.065 115.491 211.617 115.224C211.18 114.947 210.476 114.808 209.505 114.808H207.617V118.44H209.729ZM207.617 119.64V123.784H209.921C210.934 123.784 211.638 123.587 212.033 123.192C212.428 122.797 212.625 122.28 212.625 121.64C212.625 121.043 212.417 120.563 212.001 120.2C211.596 119.827 210.865 119.64 209.809 119.64H207.617ZM223.063 121.944C223.063 122.957 222.695 123.747 221.959 124.312C221.223 124.877 220.231 125.16 218.983 125.16C218.343 125.16 217.751 125.112 217.207 125.016C216.663 124.92 216.21 124.787 215.847 124.616V123.24C216.231 123.411 216.706 123.565 217.271 123.704C217.847 123.843 218.439 123.912 219.047 123.912C219.901 123.912 220.541 123.747 220.967 123.416C221.405 123.085 221.623 122.637 221.623 122.072C221.623 121.699 221.543 121.384 221.383 121.128C221.223 120.872 220.946 120.637 220.551 120.424C220.167 120.2 219.629 119.965 218.935 119.72C217.965 119.368 217.229 118.936 216.727 118.424C216.237 117.912 215.991 117.213 215.991 116.328C215.991 115.72 216.146 115.203 216.455 114.776C216.765 114.339 217.191 114.003 217.735 113.768C218.29 113.533 218.925 113.416 219.639 113.416C220.269 113.416 220.845 113.475 221.367 113.592C221.89 113.709 222.365 113.864 222.791 114.056L222.343 115.288C221.949 115.117 221.517 114.973 221.047 114.856C220.589 114.739 220.109 114.68 219.607 114.68C218.893 114.68 218.354 114.835 217.991 115.144C217.629 115.443 217.447 115.843 217.447 116.344C217.447 116.728 217.527 117.048 217.687 117.304C217.847 117.56 218.109 117.789 218.471 117.992C218.834 118.195 219.325 118.413 219.943 118.648C220.615 118.893 221.181 119.16 221.639 119.448C222.109 119.725 222.461 120.061 222.695 120.456C222.941 120.851 223.063 121.347 223.063 121.944ZM228.581 125H224.453V124.168L225.797 123.864V114.728L224.453 114.408V113.576H228.581V114.408L227.237 114.728V123.864L228.581 124.168V125ZM234.402 125H232.962V114.84H229.394V113.576H237.954V114.84H234.402V125ZM246.061 125H239.677V113.576H246.061V114.84H241.117V118.408H245.773V119.656H241.117V123.736H246.061V125ZM258.039 125H256.599V113.576H262.983V114.84H258.039V118.888H262.679V120.152H258.039V125ZM274.864 119.272C274.864 120.456 274.661 121.491 274.256 122.376C273.861 123.251 273.274 123.933 272.496 124.424C271.717 124.915 270.752 125.16 269.6 125.16C268.416 125.16 267.429 124.915 266.64 124.424C265.861 123.933 265.28 123.245 264.896 122.36C264.512 121.475 264.32 120.44 264.32 119.256C264.32 118.083 264.512 117.059 264.896 116.184C265.28 115.309 265.861 114.627 266.64 114.136C267.429 113.645 268.421 113.4 269.616 113.4C270.757 113.4 271.717 113.645 272.496 114.136C273.274 114.616 273.861 115.299 274.256 116.184C274.661 117.059 274.864 118.088 274.864 119.272ZM265.84 119.272C265.84 120.712 266.144 121.848 266.752 122.68C267.36 123.501 268.309 123.912 269.6 123.912C270.901 123.912 271.85 123.501 272.448 122.68C273.045 121.848 273.344 120.712 273.344 119.272C273.344 117.832 273.045 116.707 272.448 115.896C271.85 115.075 270.906 114.664 269.616 114.664C268.325 114.664 267.37 115.075 266.752 115.896C266.144 116.707 265.84 117.832 265.84 119.272ZM280.548 113.576C281.966 113.576 283.012 113.848 283.684 114.392C284.366 114.925 284.708 115.736 284.708 116.824C284.708 117.432 284.596 117.939 284.372 118.344C284.148 118.749 283.86 119.075 283.508 119.32C283.166 119.555 282.804 119.741 282.42 119.88L285.556 125H283.876L281.108 120.28H278.836V125H277.396V113.576H280.548ZM280.468 114.824H278.836V119.064H280.548C281.476 119.064 282.153 118.883 282.58 118.52C283.006 118.147 283.22 117.603 283.22 116.888C283.22 116.141 282.996 115.613 282.548 115.304C282.1 114.984 281.406 114.824 280.468 114.824ZM48.9895 144V132.576H50.4295V142.72H55.4215V144H48.9895ZM67.0356 138.272C67.0356 139.456 66.833 140.491 66.4276 141.376C66.033 142.251 65.4463 142.933 64.6676 143.424C63.889 143.915 62.9236 144.16 61.7716 144.16C60.5876 144.16 59.601 143.915 58.8116 143.424C58.033 142.933 57.4516 142.245 57.0676 141.36C56.6836 140.475 56.4916 139.44 56.4916 138.256C56.4916 137.083 56.6836 136.059 57.0676 135.184C57.4516 134.309 58.033 133.627 58.8116 133.136C59.601 132.645 60.593 132.4 61.7876 132.4C62.929 132.4 63.889 132.645 64.6676 133.136C65.4463 133.616 66.033 134.299 66.4276 135.184C66.833 136.059 67.0356 137.088 67.0356 138.272ZM58.0116 138.272C58.0116 139.712 58.3156 140.848 58.9236 141.68C59.5316 142.501 60.481 142.912 61.7716 142.912C63.073 142.912 64.0223 142.501 64.6196 141.68C65.217 140.848 65.5156 139.712 65.5156 138.272C65.5156 136.832 65.217 135.707 64.6196 134.896C64.0223 134.075 63.0783 133.664 61.7876 133.664C60.497 133.664 59.5423 134.075 58.9236 134.896C58.3156 135.707 58.0116 136.832 58.0116 138.272ZM78.6236 144H76.9436L70.8316 134.512H70.7676C70.789 134.885 70.8156 135.349 70.8476 135.904C70.8796 136.459 70.8956 137.029 70.8956 137.616V144H69.5676V132.576H71.2316L77.3276 142.032H77.3916C77.381 141.861 77.365 141.605 77.3436 141.264C77.333 140.923 77.317 140.549 77.2956 140.144C77.285 139.739 77.2796 139.365 77.2796 139.024V132.576H78.6236V144ZM90.8759 138.176C90.8759 140.107 90.3479 141.563 89.2919 142.544C88.2465 143.515 86.7852 144 84.9079 144H81.7239V132.576H85.2439C86.3959 132.576 87.3932 132.789 88.2359 133.216C89.0785 133.643 89.7292 134.272 90.1879 135.104C90.6465 135.925 90.8759 136.949 90.8759 138.176ZM89.3559 138.224C89.3559 136.699 88.9772 135.584 88.2199 134.88C87.4732 134.165 86.4119 133.808 85.0359 133.808H83.1639V142.768H84.7159C87.8092 142.768 89.3559 141.253 89.3559 138.224ZM103.379 138.272C103.379 139.456 103.177 140.491 102.771 141.376C102.377 142.251 101.79 142.933 101.011 143.424C100.233 143.915 99.2674 144.16 98.1154 144.16C96.9314 144.16 95.9447 143.915 95.1554 143.424C94.3767 142.933 93.7954 142.245 93.4114 141.36C93.0274 140.475 92.8354 139.44 92.8354 138.256C92.8354 137.083 93.0274 136.059 93.4114 135.184C93.7954 134.309 94.3767 133.627 95.1554 133.136C95.9447 132.645 96.9367 132.4 98.1314 132.4C99.2727 132.4 100.233 132.645 101.011 133.136C101.79 133.616 102.377 134.299 102.771 135.184C103.177 136.059 103.379 137.088 103.379 138.272ZM94.3554 138.272C94.3554 139.712 94.6594 140.848 95.2674 141.68C95.8754 142.501 96.8247 142.912 98.1154 142.912C99.4167 142.912 100.366 142.501 100.963 141.68C101.561 140.848 101.859 139.712 101.859 138.272C101.859 136.832 101.561 135.707 100.963 134.896C100.366 134.075 99.422 133.664 98.1314 133.664C96.8407 133.664 95.886 134.075 95.2674 134.896C94.6594 135.707 94.3554 136.832 94.3554 138.272ZM114.967 144H113.287L107.175 134.512H107.111C107.133 134.885 107.159 135.349 107.191 135.904C107.223 136.459 107.239 137.029 107.239 137.616V144H105.911V132.576H107.575L113.671 142.032H113.735C113.725 141.861 113.709 141.605 113.687 141.264C113.677 140.923 113.661 140.549 113.639 140.144C113.629 139.739 113.623 139.365 113.623 139.024V132.576H114.967V144ZM129.363 132.576C130.792 132.576 131.87 132.789 132.595 133.216C133.331 133.632 133.699 134.363 133.699 135.408C133.699 136.08 133.512 136.64 133.139 137.088C132.766 137.525 132.227 137.808 131.523 137.936V138.016C132.003 138.091 132.435 138.229 132.819 138.432C133.214 138.635 133.523 138.923 133.747 139.296C133.971 139.669 134.083 140.155 134.083 140.752C134.083 141.787 133.726 142.587 133.011 143.152C132.307 143.717 131.342 144 130.115 144H126.099V132.576H129.363ZM129.651 137.44C130.632 137.44 131.304 137.285 131.667 136.976C132.03 136.656 132.211 136.187 132.211 135.568C132.211 134.939 131.987 134.491 131.539 134.224C131.102 133.947 130.398 133.808 129.427 133.808H127.539V137.44H129.651ZM127.539 138.64V142.784H129.843C130.856 142.784 131.56 142.587 131.955 142.192C132.35 141.797 132.547 141.28 132.547 140.64C132.547 140.043 132.339 139.563 131.923 139.2C131.518 138.827 130.787 138.64 129.731 138.64H127.539ZM143.673 144L142.297 140.464H137.769L136.409 144H134.953L139.417 132.528H140.713L145.161 144H143.673ZM140.585 135.728C140.553 135.643 140.5 135.488 140.425 135.264C140.35 135.04 140.276 134.811 140.201 134.576C140.137 134.331 140.084 134.144 140.041 134.016C139.966 134.347 139.881 134.672 139.785 134.992C139.689 135.301 139.609 135.547 139.545 135.728L138.249 139.184H141.865L140.585 135.728ZM153.204 140.944C153.204 141.957 152.836 142.747 152.1 143.312C151.364 143.877 150.372 144.16 149.124 144.16C148.484 144.16 147.892 144.112 147.348 144.016C146.804 143.92 146.351 143.787 145.988 143.616V142.24C146.372 142.411 146.847 142.565 147.412 142.704C147.988 142.843 148.58 142.912 149.188 142.912C150.041 142.912 150.681 142.747 151.108 142.416C151.545 142.085 151.764 141.637 151.764 141.072C151.764 140.699 151.684 140.384 151.524 140.128C151.364 139.872 151.087 139.637 150.692 139.424C150.308 139.2 149.769 138.965 149.076 138.72C148.105 138.368 147.369 137.936 146.868 137.424C146.377 136.912 146.132 136.213 146.132 135.328C146.132 134.72 146.287 134.203 146.596 133.776C146.905 133.339 147.332 133.003 147.876 132.768C148.431 132.533 149.065 132.416 149.78 132.416C150.409 132.416 150.985 132.475 151.508 132.592C152.031 132.709 152.505 132.864 152.932 133.056L152.484 134.288C152.089 134.117 151.657 133.973 151.188 133.856C150.729 133.739 150.249 133.68 149.748 133.68C149.033 133.68 148.495 133.835 148.132 134.144C147.769 134.443 147.588 134.843 147.588 135.344C147.588 135.728 147.668 136.048 147.828 136.304C147.988 136.56 148.249 136.789 148.612 136.992C148.975 137.195 149.465 137.413 150.084 137.648C150.756 137.893 151.321 138.16 151.78 138.448C152.249 138.725 152.601 139.061 152.836 139.456C153.081 139.851 153.204 140.347 153.204 140.944ZM161.889 144H155.505V132.576H161.889V133.84H156.945V137.408H161.601V138.656H156.945V142.736H161.889V144ZM173.548 138.176C173.548 140.107 173.02 141.563 171.964 142.544C170.918 143.515 169.457 144 167.58 144H164.396V132.576H167.916C169.068 132.576 170.065 132.789 170.908 133.216C171.75 133.643 172.401 134.272 172.86 135.104C173.318 135.925 173.548 136.949 173.548 138.176ZM172.028 138.224C172.028 136.699 171.649 135.584 170.892 134.88C170.145 134.165 169.084 133.808 167.708 133.808H165.836V142.768H167.388C170.481 142.768 172.028 141.253 172.028 138.224ZM187.731 144H186.291V133.84H182.723V132.576H191.283V133.84H187.731V144ZM199.389 144H193.005V132.576H199.389V133.84H194.445V137.408H199.101V138.656H194.445V142.736H199.389V144ZM210.248 144H208.552L204.504 138.544L203.336 139.568V144H201.896V132.576H203.336V138.208C203.656 137.845 203.981 137.483 204.312 137.12C204.642 136.757 204.973 136.395 205.304 136.032L208.392 132.576H210.072L205.544 137.552L210.248 144ZM215.418 144H213.978V133.84H210.41V132.576H218.97V133.84H215.418V144ZM230.348 138.272C230.348 139.456 230.145 140.491 229.74 141.376C229.345 142.251 228.759 142.933 227.98 143.424C227.201 143.915 226.236 144.16 225.084 144.16C223.9 144.16 222.913 143.915 222.124 143.424C221.345 142.933 220.764 142.245 220.38 141.36C219.996 140.475 219.804 139.44 219.804 138.256C219.804 137.083 219.996 136.059 220.38 135.184C220.764 134.309 221.345 133.627 222.124 133.136C222.913 132.645 223.905 132.4 225.1 132.4C226.241 132.4 227.201 132.645 227.98 133.136C228.759 133.616 229.345 134.299 229.74 135.184C230.145 136.059 230.348 137.088 230.348 138.272ZM221.324 138.272C221.324 139.712 221.628 140.848 222.236 141.68C222.844 142.501 223.793 142.912 225.084 142.912C226.385 142.912 227.335 142.501 227.932 141.68C228.529 140.848 228.828 139.712 228.828 138.272C228.828 136.832 228.529 135.707 227.932 134.896C227.335 134.075 226.391 133.664 225.1 133.664C223.809 133.664 222.855 134.075 222.236 134.896C221.628 135.707 221.324 136.832 221.324 138.272ZM241.936 144H240.256L234.144 134.512H234.08C234.101 134.885 234.128 135.349 234.16 135.904C234.192 136.459 234.208 137.029 234.208 137.616V144H232.88V132.576H234.544L240.64 142.032H240.704C240.693 141.861 240.677 141.605 240.656 141.264C240.645 140.923 240.629 140.549 240.608 140.144C240.597 139.739 240.592 139.365 240.592 139.024V132.576H241.936V144ZM251.452 147.04C251.196 147.04 250.972 147.019 250.78 146.976C250.588 146.944 250.417 146.896 250.268 146.832V145.616C250.438 145.659 250.62 145.696 250.812 145.728C251.004 145.76 251.206 145.776 251.42 145.776C251.686 145.776 251.937 145.723 252.172 145.616C252.417 145.509 252.614 145.323 252.764 145.056C252.913 144.789 252.988 144.416 252.988 143.936V132.576H254.428V143.824C254.428 144.923 254.156 145.733 253.612 146.256C253.068 146.779 252.348 147.04 251.452 147.04ZM267.411 138.272C267.411 139.456 267.208 140.491 266.803 141.376C266.408 142.251 265.821 142.933 265.043 143.424C264.264 143.915 263.299 144.16 262.147 144.16C260.963 144.16 259.976 143.915 259.187 143.424C258.408 142.933 257.827 142.245 257.443 141.36C257.059 140.475 256.867 139.44 256.867 138.256C256.867 137.083 257.059 136.059 257.443 135.184C257.827 134.309 258.408 133.627 259.187 133.136C259.976 132.645 260.968 132.4 262.163 132.4C263.304 132.4 264.264 132.645 265.043 133.136C265.821 133.616 266.408 134.299 266.803 135.184C267.208 136.059 267.411 137.088 267.411 138.272ZM258.387 138.272C258.387 139.712 258.691 140.848 259.299 141.68C259.907 142.501 260.856 142.912 262.147 142.912C263.448 142.912 264.397 142.501 264.995 141.68C265.592 140.848 265.891 139.712 265.891 138.272C265.891 136.832 265.592 135.707 264.995 134.896C264.397 134.075 263.453 133.664 262.163 133.664C260.872 133.664 259.917 134.075 259.299 134.896C258.691 135.707 258.387 136.832 258.387 138.272ZM273.159 144H269.031V143.168L270.375 142.864V133.728L269.031 133.408V132.576H273.159V133.408L271.815 133.728V142.864L273.159 143.168V144ZM284.421 144H282.741L276.629 134.512H276.565C276.586 134.885 276.613 135.349 276.645 135.904C276.677 136.459 276.693 137.029 276.693 137.616V144H275.365V132.576H277.029L283.125 142.032H283.189C283.178 141.861 283.162 141.605 283.141 141.264C283.13 140.923 283.114 140.549 283.093 140.144C283.082 139.739 283.077 139.365 283.077 139.024V132.576H284.421V144ZM293.905 144H287.521V132.576H293.905V133.84H288.961V137.408H293.617V138.656H288.961V142.736H293.905V144ZM299.563 132.576C300.982 132.576 302.027 132.848 302.699 133.392C303.382 133.925 303.723 134.736 303.723 135.824C303.723 136.432 303.611 136.939 303.387 137.344C303.163 137.749 302.875 138.075 302.523 138.32C302.182 138.555 301.819 138.741 301.435 138.88L304.571 144H302.891L300.123 139.28H297.851V144H296.411V132.576H299.563ZM299.483 133.824H297.851V138.064H299.563C300.491 138.064 301.169 137.883 301.595 137.52C302.022 137.147 302.235 136.603 302.235 135.888C302.235 135.141 302.011 134.613 301.563 134.304C301.115 133.984 300.422 133.824 299.483 133.824ZM309.341 138.192L312.317 132.576H313.869L310.061 139.568V144H308.621V139.632L304.812 132.576H306.381L309.341 138.192ZM323.458 144V132.576H324.898V142.72H329.89V144H323.458ZM335.152 144H333.712V133.84H330.144V132.576H338.704V133.84H335.152V144ZM349.579 138.176C349.579 140.107 349.051 141.563 347.995 142.544C346.95 143.515 345.488 144 343.611 144H340.427V132.576H343.947C345.099 132.576 346.096 132.789 346.939 133.216C347.782 133.643 348.432 134.272 348.891 135.104C349.35 135.925 349.579 136.949 349.579 138.176ZM348.059 138.224C348.059 136.699 347.68 135.584 346.923 134.88C346.176 134.165 345.115 133.808 343.739 133.808H341.867V142.768H343.419C346.512 142.768 348.059 141.253 348.059 138.224Z" fill="#8B8B8B"/>
<path d="M76.7188 83.4844H68.4062V104H65.3125V83.4844H57V80.7344H76.7188V83.4844ZM97.7319 104H82.4037V80.7344H97.7319V83.4844H85.4975V89.8594H97.7319V92.6094H85.4975V101.25H97.7319V104ZM123.917 104H119.901L110.698 93.6406L108.386 96.1094V104H105.292V80.7344H108.386V92.875L119.682 80.7344H123.432L113.042 91.6719L123.917 104ZM146.555 83.4844H138.243V104H135.149V83.4844H126.836V80.7344H146.555V83.4844ZM168.802 83.4062C169.75 84.4479 170.474 85.724 170.974 87.2344C171.485 88.7448 171.74 90.4583 171.74 92.375C171.74 94.2917 171.48 96.0104 170.959 97.5312C170.448 99.0417 169.73 100.302 168.802 101.312C167.844 102.365 166.709 103.156 165.396 103.688C164.094 104.219 162.605 104.484 160.927 104.484C159.292 104.484 157.802 104.214 156.459 103.672C155.125 103.13 153.99 102.344 153.052 101.312C152.115 100.281 151.391 99.0156 150.881 97.5156C150.381 96.0156 150.131 94.3021 150.131 92.375C150.131 90.4792 150.381 88.7812 150.881 87.2812C151.381 85.7708 152.11 84.4792 153.068 83.4062C153.985 82.3854 155.12 81.6042 156.474 81.0625C157.839 80.5208 159.323 80.25 160.927 80.25C162.594 80.25 164.089 80.526 165.412 81.0781C166.745 81.6198 167.875 82.3958 168.802 83.4062ZM168.521 92.375C168.521 89.3542 167.844 87.026 166.49 85.3906C165.136 83.7448 163.287 82.9219 160.943 82.9219C158.579 82.9219 156.719 83.7448 155.365 85.3906C154.021 87.026 153.349 89.3542 153.349 92.375C153.349 95.4271 154.037 97.7656 155.412 99.3906C156.787 101.005 158.631 101.812 160.943 101.812C163.256 101.812 165.094 101.005 166.459 99.3906C167.834 97.7656 168.521 95.4271 168.521 92.375ZM196.956 104H193.128L182.097 83.1875V104H179.206V80.7344H184.003L194.066 99.7344V80.7344H196.956V104ZM228.045 97.9531C228.045 99.9948 227.42 101.568 226.17 102.672C224.93 103.776 223.264 104.328 221.17 104.328C220.67 104.328 220.003 104.281 219.17 104.188C218.337 104.104 217.639 104 217.076 103.875V100.984H217.248C217.675 101.13 218.201 101.281 218.826 101.438C219.451 101.594 220.092 101.672 220.748 101.672C221.706 101.672 222.467 101.562 223.029 101.344C223.602 101.125 224.024 100.812 224.295 100.406C224.576 99.9896 224.753 99.4792 224.826 98.875C224.91 98.2708 224.951 97.5729 224.951 96.7812V83.2031H220.029V80.7344H228.045V97.9531ZM253.98 83.4062C254.928 84.4479 255.652 85.724 256.152 87.2344C256.662 88.7448 256.917 90.4583 256.917 92.375C256.917 94.2917 256.657 96.0104 256.136 97.5312C255.626 99.0417 254.907 100.302 253.98 101.312C253.022 102.365 251.886 103.156 250.574 103.688C249.272 104.219 247.782 104.484 246.105 104.484C244.47 104.484 242.98 104.214 241.636 103.672C240.303 103.13 239.167 102.344 238.23 101.312C237.292 100.281 236.569 99.0156 236.058 97.5156C235.558 96.0156 235.308 94.3021 235.308 92.375C235.308 90.4792 235.558 88.7812 236.058 87.2812C236.558 85.7708 237.287 84.4792 238.246 83.4062C239.162 82.3854 240.298 81.6042 241.652 81.0625C243.016 80.5208 244.501 80.25 246.105 80.25C247.772 80.25 249.266 80.526 250.589 81.0781C251.923 81.6198 253.053 82.3958 253.98 83.4062ZM253.699 92.375C253.699 89.3542 253.022 87.026 251.667 85.3906C250.313 83.7448 248.464 82.9219 246.121 82.9219C243.756 82.9219 241.897 83.7448 240.542 85.3906C239.199 87.026 238.527 89.3542 238.527 92.375C238.527 95.4271 239.214 97.7656 240.589 99.3906C241.964 101.005 243.808 101.812 246.121 101.812C248.433 101.812 250.272 101.005 251.636 99.3906C253.011 97.7656 253.699 95.4271 253.699 92.375ZM272.587 104H263.399V101.625H266.446V83.1094H263.399V80.7344H272.587V83.1094H269.54V101.625H272.587V104ZM298.163 104H294.334L283.303 83.1875V104H280.413V80.7344H285.209L295.272 99.7344V80.7344H298.163V104ZM322.238 104H306.91V80.7344H322.238V83.4844H310.004V89.8594H322.238V92.6094H310.004V101.25H322.238V104ZM348.97 104H344.954L337.173 94.75H332.814V104H329.72V80.7344H336.236C337.642 80.7344 338.814 80.8281 339.751 81.0156C340.689 81.1927 341.533 81.5156 342.283 81.9844C343.126 82.5156 343.783 83.1875 344.251 84C344.73 84.8021 344.97 85.8229 344.97 87.0625C344.97 88.7396 344.548 90.1458 343.704 91.2812C342.861 92.4062 341.699 93.2552 340.22 93.8281L348.97 104ZM341.736 87.2812C341.736 86.6146 341.616 86.026 341.376 85.5156C341.147 84.9948 340.762 84.5573 340.22 84.2031C339.772 83.901 339.241 83.6927 338.626 83.5781C338.012 83.4531 337.288 83.3906 336.454 83.3906H332.814V92.1719H335.939C336.918 92.1719 337.772 92.0885 338.501 91.9219C339.23 91.7448 339.85 91.4219 340.361 90.9531C340.829 90.5156 341.173 90.0156 341.392 89.4531C341.621 88.8802 341.736 88.1562 341.736 87.2812ZM370.686 80.7344L362.499 93.7969V104H359.405V94.125L351.186 80.7344H354.608L360.967 91.1406L367.389 80.7344H370.686Z" fill="#8B8B8B"/>
<path d="M24.0811 88.2886L27.2202 85.1495C27.4622 84.9074 27.5956 84.5855 27.5956 84.2432C27.5956 83.9008 27.4622 83.5789 27.2202 83.3368L26.6773 82.7939C26.1775 82.2941 25.3644 82.2941 24.8646 82.7939L21.7255 85.933C21.2257 86.4328 21.2257 87.246 21.7255 87.7457L22.2683 88.2886C22.5182 88.5385 22.8465 88.6634 23.1747 88.6634C23.5029 88.6634 23.8312 88.5385 24.0811 88.2886ZM22.2983 87.173C22.1144 86.9891 22.1144 86.6898 22.2983 86.5058L25.4374 83.3667C25.5293 83.2747 25.6502 83.2287 25.771 83.2287C25.8918 83.2287 26.0126 83.2747 26.1046 83.3667L26.6474 83.9096C26.7365 83.9987 26.7856 84.1171 26.7856 84.2432C26.7856 84.3692 26.7365 84.4877 26.6474 84.5768L23.5083 87.7158C23.3245 87.8999 23.0251 87.8999 22.8411 87.7158L22.2983 87.173Z" fill="#8B8B8B"/>
<path d="M48.9765 91.6394L48.541 90.4152C48.0446 89.0196 47.2431 87.7235 46.2171 86.6539C46.3768 85.5906 46.0355 84.5011 45.3004 83.766C44.5658 83.0315 43.4778 82.69 42.4152 82.8489L41.3669 81.8006L41.7548 81.4126C41.913 81.2545 41.913 80.998 41.7548 80.8399L39.8294 78.9145C39.6713 78.7563 39.4147 78.7563 39.2567 78.9145L35.7342 82.4369C35.576 82.595 35.576 82.8515 35.7342 83.0096L37.6596 84.9351C37.7356 85.0111 37.8385 85.0537 37.946 85.0537C38.0533 85.0537 38.1564 85.0111 38.2323 84.9351L38.6202 84.5472L39.6685 85.5955C39.6051 86.0199 39.6228 86.448 39.7122 86.8565L35.4792 91.0894L29.532 85.1421C30.0142 84.4906 29.9621 83.5652 29.3721 82.9751L25.9532 79.5562C25.6385 79.2416 25.2203 79.0683 24.7754 79.0683C24.3305 79.0683 23.9122 79.2416 23.5976 79.5562L18.4879 84.6661C18.1733 84.9807 18 85.399 18 85.8438C18 86.2887 18.1733 86.707 18.4879 87.0216L21.9069 90.4405C22.2316 90.7653 22.6581 90.9276 23.0847 90.9276C23.3794 90.9276 23.6733 90.8483 23.9344 90.6932L26.0508 91.0897L27.2005 93.0842C27.2595 93.1867 27.3605 93.2583 27.4768 93.28L29.7405 93.704L30.8826 95.6861L25.2211 101.348C24.5721 101.997 24.5763 103.057 25.2305 103.711C25.5591 104.04 25.99 104.204 26.4201 104.204C26.8458 104.204 27.2705 104.043 27.5934 103.72L34.0017 97.3115L34.5791 98.3135C34.6382 98.416 34.7392 98.4875 34.8555 98.5093L37.1191 98.9326L38.268 100.928C38.3271 101.03 38.4281 101.102 38.5445 101.124L40.8081 101.547L41.9577 103.542C42.0168 103.645 42.1177 103.716 42.2341 103.738L44.6803 104.196C44.7051 104.201 44.7301 104.203 44.7548 104.203C44.8595 104.203 44.9611 104.163 45.0375 104.088L46.4867 102.677C46.5643 102.601 46.6084 102.498 46.6091 102.389C46.6098 102.281 46.5671 102.177 46.4904 102.1L37.8516 93.4617L42.0093 89.304C42.4777 89.4362 42.9783 89.4718 43.4735 89.3974C44.5431 90.4234 45.8392 91.2248 47.2349 91.7213L48.4592 92.1568C48.5035 92.1726 48.5494 92.1802 48.5949 92.1802C48.7005 92.1802 48.804 92.1388 48.8813 92.0616C48.9918 91.951 49.029 91.7867 48.9765 91.6394ZM37.946 84.076L36.5933 82.7232L39.543 79.7735L40.8956 81.1262L37.946 84.076ZM22.4796 89.8679L19.0607 86.4489C18.899 86.2872 18.81 86.0724 18.81 85.8438C18.81 85.6153 18.8991 85.4004 19.0607 85.2388L24.1704 80.1291C24.332 79.9675 24.5469 79.8784 24.7755 79.8784C25.004 79.8784 25.2189 79.9675 25.3805 80.1291L28.7994 83.548C29.133 83.8816 29.133 84.4244 28.7994 84.7581L23.6879 89.8694C23.3542 90.2013 22.8127 90.201 22.4796 89.8679ZM30.3492 93.1382C30.2901 93.0356 30.1892 92.9641 30.0728 92.9423L27.8092 92.5182L26.6596 90.5238C26.6005 90.4212 26.4995 90.3497 26.3833 90.328L24.692 90.0111L28.9737 85.7293L34.9066 91.6623L31.4757 95.0932L30.3492 93.1382ZM45.6274 102.383L44.6227 103.362L42.5663 102.976L41.4167 100.981C41.3576 100.879 41.2566 100.807 41.1403 100.785L38.8767 100.362L37.7278 98.367C37.6687 98.2644 37.5677 98.1928 37.4513 98.171L35.1877 97.7477L34.5947 96.7187L37.2788 94.0345L45.6274 102.383ZM27.0206 103.147C26.6874 103.48 26.1413 103.476 25.8032 103.138C25.4649 102.8 25.4606 102.254 25.7939 101.921L40.0151 87.6992C40.1647 87.9867 40.356 88.251 40.5857 88.4808C40.7719 88.6669 40.981 88.8277 41.2064 88.9616L27.0206 103.147ZM47.5064 90.9581C46.1562 90.4778 44.9068 89.6883 43.8936 88.675C43.8168 88.5983 43.7135 88.5564 43.6072 88.5564C43.5787 88.5564 43.5499 88.5594 43.5214 88.5656C42.6567 88.7529 41.7515 88.501 41.1585 87.908C40.5656 87.315 40.3135 86.4096 40.501 85.5451C40.5301 85.4105 40.4889 85.2703 40.3915 85.1729L39.2099 83.9913L40.8111 82.3902L41.9927 83.5717C42.09 83.6691 42.2301 83.7105 42.3649 83.6811C43.2292 83.4938 44.1348 83.7457 44.7278 84.3387C45.3208 84.9318 45.5729 85.8372 45.3854 86.7016C45.3562 86.8362 45.3974 86.9764 45.4948 87.0738C46.5082 88.0872 47.2977 89.3365 47.7779 90.6867L47.9278 91.1079L47.5064 90.9581Z" fill="#8B8B8B"/>
</svg>
