<svg id="Layer_1" data-name="Layer 1" xmlns="http://www.w3.org/2000/svg" viewBox="0 0 5000 5000"><path d="M733.33,2053.64h332.83a115.89,115.89,0,0,0,115.89-115.89H849.23a115.9,115.9,0,0,0-115.9,115.89Z"/><path d="M1759.88,2193.45H1483.26a115.46,115.46,0,0,0,115.46,115.47h161.16v266.61h0a136.35,136.35,0,0,0,136.35-136.35V1937.75h0a136.35,136.35,0,0,0-136.35,136.35Z"/><path d="M2456.17,2209.6h-13.89V2041.88h.29l-.29-.46V1937.75h0a136.35,136.35,0,0,0-136.35,136.35v501.43h0a136.35,136.35,0,0,0,136.35-136.35V2277.56l90.57,160.92a269,269,0,0,0,234.42,137.05h0l-176-290.13h0A158.34,158.34,0,0,0,2456.17,2209.6Z"/><path d="M3114.21,2575.53h259.62a115.9,115.9,0,0,0,115.9-115.9H3250.56V2052.75h239.17a115,115,0,0,0-115-115H3114.21Z"/><path d="M4027.5,2052.76h239.17a115,115,0,0,0-115-115H3891.14v246.14h5.23a131.13,131.13,0,0,0,131.13-131.13Z"/><path d="M4266.67,2459.65H4027.5v-23.53a136.35,136.35,0,0,0-136.36-136.35h0v275.76h259.65A115.88,115.88,0,0,0,4266.67,2459.65Z"/><path d="M3690.43,2183.89h0a115.89,115.89,0,0,0,115.88,115.88h84.83V2183.89Z"/><path d="M2049.91,3062.25h0a25.3,25.3,0,0,1-25.3-25.3v-74q-8.44,16.55-22.06,24.9t-32.12,8.36q-32,0-51-21.66t-19.06-58.48q0-36.17,19.46-58.07t51.58-21.89a58.49,58.49,0,0,1,31.31,8.59q13.95,8.61,22.55,24.66v-27.9h24.65Zm-24.65-146.15q0-25.95-13.22-40.71t-36.58-14.76q-22.55,0-35.52,15.57t-13,43q0,24.49,12.73,38.28t35.12,13.79q22.71,0,36.58-15.09T2025.26,2916.1Z"/><path d="M2088.39,2841.49a26.6,26.6,0,0,1,26.6,26.6v46.39q0,32,9.49,44.69t32,12.73q22.53,0,31.87-12.57t9.33-44.85v-73h0a26,26,0,0,1,26,26v60.67q0,33.57-17.19,50.85t-50.61,17.28q-33.09,0-50.29-17.36t-17.19-50.77v-86.62Z"/><path d="M2411.7,2841.49v123.76a24.66,24.66,0,0,1-24.65,24.66h0V2963q-8.93,16.23-22.79,24.74a58.2,58.2,0,0,1-31.07,8.52q-32,0-51.5-22t-19.54-58.16q0-36.64,19-58.31t50.78-21.65q18.64,0,32.36,8.35t22.14,24.9v-2.6a25.3,25.3,0,0,1,25.3-25.3Zm-24.65,75.59q0-25.14-13.71-40.47t-35.77-15.33q-22.87,0-35.68,14.11t-12.82,39.42q0,26.93,12.9,41.52t36.58,14.6q22.69,0,35.6-14.19T2387.05,2917.08Z"/><path d="M2464.63,2964.77V2841.49h22.55v30.82q10.21-19.3,21.73-27.58t28.06-8.27a50.93,50.93,0,0,1,8.76.73,54.92,54.92,0,0,1,8.44,2.19l-8.44,22.87a63.83,63.83,0,0,0-8.27-2.19,41.1,41.1,0,0,0-7.46-.73q-20.11,0-30.17,14.52t-10.06,43.71v72.35h0A25.15,25.15,0,0,1,2464.63,2964.77Z"/><path d="M2612,2862.41h-27.26v-20.92H2612v-59.85h0a26,26,0,0,1,25.95,26v33.9h27.25v20.92H2638v127.5h0A26,26,0,0,1,2612,2964Z"/><path d="M2842.62,2919.51H2725v2.27q0,23.85,13.63,38.53t35.52,14.68a47.37,47.37,0,0,0,26.93-8,56.83,56.83,0,0,0,9.05-7.62,24.64,24.64,0,0,1,31.5-3.66h0q-11.19,20.12-28.55,30.34t-40.22,10.22q-33.91,0-54.83-22.39t-20.93-58.72q0-34.87,20.77-57.1t53.36-22.22q32.92,0,52.15,21.09t19.22,57.58Zm-27.25-20.6q-1.29-19.62-13-30.25t-32.2-10.63q-18.49,0-30.82,11.12T2725,2898.91Z"/><path d="M2881.1,2964.77V2841.49h0a22.55,22.55,0,0,1,22.55,22.55v8.27q10.21-19.3,21.73-27.58t28.07-8.27a50.9,50.9,0,0,1,8.75.73,54.34,54.34,0,0,1,8.44,2.19l-8.44,22.87a63.41,63.41,0,0,0-8.27-2.19,41,41,0,0,0-7.46-.73q-20.11,0-30.17,14.52t-10.06,43.71v72.35h0A25.15,25.15,0,0,1,2881.1,2964.77Z"/><path d="M2986.91,2964.93l.49-.33c10.52-7.07,24.09-6,34.19,1.68.86.64,1.73,1.25,2.63,1.81q9.41,5.92,22.22,5.92,12.49,0,20.19-6.16a19.76,19.76,0,0,0,7.71-16.22,17.49,17.49,0,0,0-5.27-13q-5.28-5.19-18.09-9.57c-.87-.32-2.27-.81-4.22-1.46q-54.18-18.64-54.17-46.71,0-19.8,14.6-32.28t37.95-12.49q19.31,0,33.09,7.7a44.34,44.34,0,0,1,19.79,21.82l-1.13.69c-9.55,5.87-21.46,4.63-30.41-2.1-.79-.59-1.6-1.15-2.44-1.67a37.94,37.94,0,0,0-20.52-5.52q-11.19,0-18.25,6.25a20.39,20.39,0,0,0-7.06,16q0,13.63,29.53,22.87c3.67,1.2,6.59,2.11,8.76,2.76q24.16,7.78,33.65,17.76t9.49,26.36q0,21.09-15,34.15t-39.17,13.06q-20.78,0-35.28-7.79T2986.91,2964.93Z"/></svg>