<?xml version="1.0" encoding="UTF-8"?>
<svg width="400px" height="225px" viewBox="0 0 400 225" version="1.1" xmlns="http://www.w3.org/2000/svg" xmlns:xlink="http://www.w3.org/1999/xlink">
    <title>Vox</title>
    <g id="Page-1" stroke="none" stroke-width="1" fill="none" fill-rule="evenodd">
        <g id="Artboard">
            <g id="Vox">
                <path d="M193.412207,72.1606218 L195.871237,72.1606218 L196.160535,71 L165.205686,71 L164.916388,72.1606218 L169.400502,72.1606218 C173.30602,72.1606218 176.488294,74.9170984 176.488294,80.2849741 C176.488294,83.3316062 175.186455,87.2487047 173.016722,92.0362694 L152.910535,136.57513 L147.992475,78.6891192 C147.558528,74.1917098 149.87291,72.1606218 154.935619,72.1606218 L157.828595,72.1606218 L158.117893,71 L114.433946,71 L114,72.1606218 L116.748328,72.1606218 C120.2199,72.1606218 121.521739,74.3367876 121.811037,78.3989637 L129.622074,153.259067 L147.992475,153.259067 L178.802676,87.8290155 C183.576087,78.1088083 188.494147,72.1606218 193.412207,72.1606218 Z M189.795987,153.549223 C187.047659,153.549223 185.311873,152.678756 185.311873,148.036269 C185.311873,142.233161 187.481605,130.772021 189.795987,120.326425 C190.085284,125.11399 193.412207,129.901554 198.330268,129.901554 C199.487458,129.901554 200.5,129.756477 201.512542,129.611399 C196.883779,149.487047 195.147993,153.549223 189.795987,153.549223 Z M277.453177,114.233161 C283.23913,114.233161 287,109.445596 287,103.932642 C287,99.2901554 283.673077,95.8082902 278.899666,95.8082902 C270.365385,95.8082902 266.315217,102.626943 259.227425,115.103627 C257.780936,107.26943 254.164716,97.1139896 245.196488,97.1139896 C235.07107,97.1139896 223.354515,111.621762 212.650502,120.61658 C207.732441,124.823834 202.380435,127.435233 198.04097,127.435233 C193.556856,127.435233 190.953177,122.937824 190.953177,114.958549 C194.135452,101.901554 195.726589,98.5647668 200.644649,98.5647668 C203.971572,98.5647668 205.41806,100.450777 205.41806,104.367876 C205.41806,108.57513 204.550167,115.53886 202.669732,124.388601 C207.443144,122.937824 214.675585,116.84456 220.750836,110.316062 C217.568562,102.626943 210.625418,97.4041451 200.789298,97.4041451 C182.418896,97.4041451 166.218227,113.943005 166.218227,132.512953 C166.218227,145.279793 175.331104,155 189.506689,155 C212.939799,155 222.77592,134.689119 222.77592,120.471503 C222.77592,118.440415 222.631271,116.989637 222.486622,115.103627 C226.102843,111.186528 230.731605,107.414508 234.492475,107.414508 C238.83194,107.414508 242.303512,118.295337 245.630435,134.689119 C242.592809,138.025907 239.555184,144.409326 238.108696,145.569948 C237.5301,139.766839 233.624582,136.139896 228.561873,136.139896 C222.77592,136.139896 218.870401,141.65285 218.870401,146.295337 C218.870401,151.518135 222.486622,155 227.260033,155 C237.240803,155 239.98913,145.569948 246.20903,137.15544 C248.089465,146.150259 252.573579,155 260.239967,155 C269.352843,155 277.742475,147.165803 282.08194,141.65285 L281.214047,140.34715 C278.465719,143.103627 275.717391,144.84456 272.535117,144.84456 C266.893813,144.84456 262.843645,132.658031 259.80602,117.860104 C261.686455,115.393782 264.579431,109.010363 266.604515,106.689119 C267.906355,109.300518 270.799331,114.233161 277.453177,114.233161 Z" id="Shape" fill="#FFFFFF" fill-rule="nonzero"></path>
                <rect id="Rectangle" x="0" y="0" width="400" height="225"></rect>
            </g>
        </g>
    </g>
</svg>